%TF.GenerationSoftware,KiCad,Pcbnew,7.0.1*%
%TF.CreationDate,2023-09-13T18:48:41-05:00*%
%TF.ProjectId,Bsides-STL-Badge,42736964-6573-42d5-9354-4c2d42616467,rev?*%
%TF.SameCoordinates,Original*%
%TF.FileFunction,Legend,Bot*%
%TF.FilePolarity,Positive*%
%FSLAX46Y46*%
G04 Gerber Fmt 4.6, Leading zero omitted, Abs format (unit mm)*
G04 Created by KiCad (PCBNEW 7.0.1) date 2023-09-13 18:48:41*
%MOMM*%
%LPD*%
G01*
G04 APERTURE LIST*
%ADD10C,0.010000*%
G04 APERTURE END LIST*
%TO.C,G\u002A\u002A\u002A*%
D10*
X102480696Y-103320245D02*
X102544605Y-103709019D01*
X102531316Y-103921328D01*
X102450348Y-104044158D01*
X102345866Y-103765180D01*
X102332005Y-103426679D01*
X102418928Y-103262167D01*
X102480696Y-103320245D01*
G36*
X102480696Y-103320245D02*
G01*
X102544605Y-103709019D01*
X102531316Y-103921328D01*
X102450348Y-104044158D01*
X102345866Y-103765180D01*
X102332005Y-103426679D01*
X102418928Y-103262167D01*
X102480696Y-103320245D01*
G37*
X108156251Y-100724914D02*
X108268949Y-100808413D01*
X108301285Y-101129510D01*
X108281391Y-101848356D01*
X108276097Y-102764550D01*
X108338350Y-103400578D01*
X108379302Y-103605339D01*
X108359931Y-103784935D01*
X108207696Y-103826612D01*
X108146461Y-103824103D01*
X108033284Y-103739876D01*
X107996535Y-103416032D01*
X108008019Y-102692413D01*
X108011374Y-102530973D01*
X107998359Y-101695684D01*
X107940866Y-101140191D01*
X107900764Y-100934044D01*
X107925932Y-100762699D01*
X108083583Y-100722167D01*
X108156251Y-100724914D01*
G36*
X108156251Y-100724914D02*
G01*
X108268949Y-100808413D01*
X108301285Y-101129510D01*
X108281391Y-101848356D01*
X108276097Y-102764550D01*
X108338350Y-103400578D01*
X108379302Y-103605339D01*
X108359931Y-103784935D01*
X108207696Y-103826612D01*
X108146461Y-103824103D01*
X108033284Y-103739876D01*
X107996535Y-103416032D01*
X108008019Y-102692413D01*
X108011374Y-102530973D01*
X107998359Y-101695684D01*
X107940866Y-101140191D01*
X107900764Y-100934044D01*
X107925932Y-100762699D01*
X108083583Y-100722167D01*
X108156251Y-100724914D01*
G37*
X101124596Y-102246594D02*
X101145047Y-102844738D01*
X101017047Y-103756056D01*
X100992201Y-103853330D01*
X100819756Y-104120482D01*
X100619548Y-103966132D01*
X100432346Y-103453343D01*
X100298918Y-102645180D01*
X100302694Y-102391982D01*
X100599918Y-102391982D01*
X100616377Y-102910782D01*
X100680371Y-103392611D01*
X100765978Y-103507863D01*
X100844278Y-103165050D01*
X100862900Y-102941856D01*
X100869605Y-102246594D01*
X100816370Y-101668922D01*
X100718980Y-101427723D01*
X100712964Y-101428261D01*
X100627057Y-101670769D01*
X100599918Y-102391982D01*
X100302694Y-102391982D01*
X100306426Y-102141713D01*
X100405834Y-101490372D01*
X100558348Y-100948542D01*
X100718980Y-100722167D01*
X100726173Y-100723012D01*
X100876634Y-100954403D01*
X101032110Y-101472068D01*
X101114450Y-101949852D01*
X101124596Y-102246594D01*
G36*
X101124596Y-102246594D02*
G01*
X101145047Y-102844738D01*
X101017047Y-103756056D01*
X100992201Y-103853330D01*
X100819756Y-104120482D01*
X100619548Y-103966132D01*
X100432346Y-103453343D01*
X100298918Y-102645180D01*
X100302694Y-102391982D01*
X100599918Y-102391982D01*
X100616377Y-102910782D01*
X100680371Y-103392611D01*
X100765978Y-103507863D01*
X100844278Y-103165050D01*
X100862900Y-102941856D01*
X100869605Y-102246594D01*
X100816370Y-101668922D01*
X100718980Y-101427723D01*
X100712964Y-101428261D01*
X100627057Y-101670769D01*
X100599918Y-102391982D01*
X100302694Y-102391982D01*
X100306426Y-102141713D01*
X100405834Y-101490372D01*
X100558348Y-100948542D01*
X100718980Y-100722167D01*
X100726173Y-100723012D01*
X100876634Y-100954403D01*
X101032110Y-101472068D01*
X101114450Y-101949852D01*
X101124596Y-102246594D01*
G37*
X101710967Y-100750434D02*
X101927238Y-100910851D01*
X102081949Y-101189241D01*
X102180240Y-101716127D01*
X102225917Y-102517901D01*
X102195423Y-103294207D01*
X102088199Y-103811261D01*
X102081402Y-103824978D01*
X101902214Y-104002647D01*
X101672141Y-104036951D01*
X101614638Y-104018231D01*
X101436162Y-103826929D01*
X101365259Y-103403278D01*
X101351574Y-103078904D01*
X101380075Y-103008426D01*
X101492026Y-103339527D01*
X101577210Y-103551736D01*
X101754469Y-103646926D01*
X101896384Y-103327454D01*
X101971733Y-102694953D01*
X101949293Y-101851056D01*
X101899387Y-101573590D01*
X101753902Y-101311608D01*
X101592116Y-101322634D01*
X101485700Y-101639389D01*
X101441618Y-101828850D01*
X101365261Y-101582309D01*
X101329785Y-101340704D01*
X101324215Y-100947309D01*
X101347965Y-100864687D01*
X101496691Y-100728282D01*
X101710967Y-100750434D01*
G36*
X101710967Y-100750434D02*
G01*
X101927238Y-100910851D01*
X102081949Y-101189241D01*
X102180240Y-101716127D01*
X102225917Y-102517901D01*
X102195423Y-103294207D01*
X102088199Y-103811261D01*
X102081402Y-103824978D01*
X101902214Y-104002647D01*
X101672141Y-104036951D01*
X101614638Y-104018231D01*
X101436162Y-103826929D01*
X101365259Y-103403278D01*
X101351574Y-103078904D01*
X101380075Y-103008426D01*
X101492026Y-103339527D01*
X101577210Y-103551736D01*
X101754469Y-103646926D01*
X101896384Y-103327454D01*
X101971733Y-102694953D01*
X101949293Y-101851056D01*
X101899387Y-101573590D01*
X101753902Y-101311608D01*
X101592116Y-101322634D01*
X101485700Y-101639389D01*
X101441618Y-101828850D01*
X101365261Y-101582309D01*
X101329785Y-101340704D01*
X101324215Y-100947309D01*
X101347965Y-100864687D01*
X101496691Y-100728282D01*
X101710967Y-100750434D01*
G37*
X105283746Y-100728660D02*
X105462887Y-100792270D01*
X105542661Y-100964992D01*
X105560855Y-101296541D01*
X105559532Y-101459643D01*
X105522484Y-101721752D01*
X105402105Y-101568834D01*
X105375352Y-101519255D01*
X105287293Y-101433203D01*
X105250658Y-101683891D01*
X105243355Y-102384877D01*
X105245860Y-102722114D01*
X105284900Y-103364787D01*
X105382262Y-103632069D01*
X105408157Y-103677508D01*
X105344229Y-103741834D01*
X105163980Y-103771593D01*
X105050404Y-103766872D01*
X104915395Y-103720540D01*
X104906012Y-103639701D01*
X104924713Y-103594265D01*
X104982663Y-103124816D01*
X105005230Y-102335538D01*
X104999582Y-101740945D01*
X104970935Y-101414331D01*
X104909980Y-101512389D01*
X104824159Y-101761092D01*
X104723268Y-101777956D01*
X104687730Y-101286612D01*
X104692387Y-101088589D01*
X104740576Y-100852593D01*
X104872004Y-100746667D01*
X105124293Y-100722167D01*
X105283746Y-100728660D01*
G36*
X105283746Y-100728660D02*
G01*
X105462887Y-100792270D01*
X105542661Y-100964992D01*
X105560855Y-101296541D01*
X105559532Y-101459643D01*
X105522484Y-101721752D01*
X105402105Y-101568834D01*
X105375352Y-101519255D01*
X105287293Y-101433203D01*
X105250658Y-101683891D01*
X105243355Y-102384877D01*
X105245860Y-102722114D01*
X105284900Y-103364787D01*
X105382262Y-103632069D01*
X105408157Y-103677508D01*
X105344229Y-103741834D01*
X105163980Y-103771593D01*
X105050404Y-103766872D01*
X104915395Y-103720540D01*
X104906012Y-103639701D01*
X104924713Y-103594265D01*
X104982663Y-103124816D01*
X105005230Y-102335538D01*
X104999582Y-101740945D01*
X104970935Y-101414331D01*
X104909980Y-101512389D01*
X104824159Y-101761092D01*
X104723268Y-101777956D01*
X104687730Y-101286612D01*
X104692387Y-101088589D01*
X104740576Y-100852593D01*
X104872004Y-100746667D01*
X105124293Y-100722167D01*
X105283746Y-100728660D01*
G37*
X112907859Y-102076141D02*
X112883006Y-102648878D01*
X112942792Y-103544800D01*
X112964661Y-103698077D01*
X112977173Y-103972749D01*
X112894682Y-104086431D01*
X112685372Y-104108834D01*
X112575874Y-104094828D01*
X112259860Y-103833895D01*
X112059974Y-103269047D01*
X111990230Y-102434054D01*
X111990252Y-102415501D01*
X112347418Y-102415501D01*
X112348309Y-102537935D01*
X112392902Y-103195388D01*
X112479513Y-103519695D01*
X112572981Y-103449448D01*
X112638142Y-102923237D01*
X112653712Y-102076141D01*
X112599458Y-101491296D01*
X112479632Y-101344921D01*
X112471893Y-101350913D01*
X112376831Y-101660170D01*
X112347418Y-102415501D01*
X111990252Y-102415501D01*
X111990259Y-102409628D01*
X112040821Y-101619043D01*
X112202169Y-101110163D01*
X112495618Y-100814696D01*
X112618487Y-100760719D01*
X112846632Y-100784262D01*
X112972419Y-100992384D01*
X112969615Y-101355174D01*
X112924860Y-101684355D01*
X112907859Y-102076141D01*
G36*
X112907859Y-102076141D02*
G01*
X112883006Y-102648878D01*
X112942792Y-103544800D01*
X112964661Y-103698077D01*
X112977173Y-103972749D01*
X112894682Y-104086431D01*
X112685372Y-104108834D01*
X112575874Y-104094828D01*
X112259860Y-103833895D01*
X112059974Y-103269047D01*
X111990230Y-102434054D01*
X111990252Y-102415501D01*
X112347418Y-102415501D01*
X112348309Y-102537935D01*
X112392902Y-103195388D01*
X112479513Y-103519695D01*
X112572981Y-103449448D01*
X112638142Y-102923237D01*
X112653712Y-102076141D01*
X112599458Y-101491296D01*
X112479632Y-101344921D01*
X112471893Y-101350913D01*
X112376831Y-101660170D01*
X112347418Y-102415501D01*
X111990252Y-102415501D01*
X111990259Y-102409628D01*
X112040821Y-101619043D01*
X112202169Y-101110163D01*
X112495618Y-100814696D01*
X112618487Y-100760719D01*
X112846632Y-100784262D01*
X112972419Y-100992384D01*
X112969615Y-101355174D01*
X112924860Y-101684355D01*
X112907859Y-102076141D01*
G37*
X113974306Y-102333240D02*
X113998097Y-102489794D01*
X114094182Y-103290784D01*
X114133355Y-103861078D01*
X114131103Y-103949846D01*
X114075204Y-104122190D01*
X113985675Y-103959699D01*
X113918229Y-103544389D01*
X113867311Y-103217255D01*
X113732572Y-102979945D01*
X113639309Y-103085865D01*
X113538043Y-103544389D01*
X113495089Y-103876196D01*
X113418316Y-104108834D01*
X113382246Y-104096122D01*
X113311299Y-103830596D01*
X113331888Y-103189610D01*
X113431140Y-102257733D01*
X113657105Y-102257733D01*
X113658658Y-102400224D01*
X113696153Y-102685249D01*
X113772778Y-102435002D01*
X113783564Y-102333240D01*
X113737775Y-101995012D01*
X113696158Y-101967058D01*
X113657105Y-102257733D01*
X113431140Y-102257733D01*
X113444563Y-102131705D01*
X113544152Y-101360984D01*
X113618177Y-100951101D01*
X113682518Y-100905231D01*
X113763633Y-101141248D01*
X113763815Y-101141898D01*
X113877257Y-101694651D01*
X113974306Y-102333240D01*
G36*
X113974306Y-102333240D02*
G01*
X113998097Y-102489794D01*
X114094182Y-103290784D01*
X114133355Y-103861078D01*
X114131103Y-103949846D01*
X114075204Y-104122190D01*
X113985675Y-103959699D01*
X113918229Y-103544389D01*
X113867311Y-103217255D01*
X113732572Y-102979945D01*
X113639309Y-103085865D01*
X113538043Y-103544389D01*
X113495089Y-103876196D01*
X113418316Y-104108834D01*
X113382246Y-104096122D01*
X113311299Y-103830596D01*
X113331888Y-103189610D01*
X113431140Y-102257733D01*
X113657105Y-102257733D01*
X113658658Y-102400224D01*
X113696153Y-102685249D01*
X113772778Y-102435002D01*
X113783564Y-102333240D01*
X113737775Y-101995012D01*
X113696158Y-101967058D01*
X113657105Y-102257733D01*
X113431140Y-102257733D01*
X113444563Y-102131705D01*
X113544152Y-101360984D01*
X113618177Y-100951101D01*
X113682518Y-100905231D01*
X113763633Y-101141248D01*
X113763815Y-101141898D01*
X113877257Y-101694651D01*
X113974306Y-102333240D01*
G37*
X111459297Y-100762673D02*
X111668818Y-100996945D01*
X111710635Y-101092122D01*
X111841696Y-101742668D01*
X111873131Y-102596926D01*
X111793585Y-103433163D01*
X111717026Y-103767062D01*
X111567554Y-104037848D01*
X111322966Y-104108834D01*
X111271594Y-104107939D01*
X111075728Y-104050928D01*
X110980599Y-103839153D01*
X110937732Y-103381034D01*
X110946439Y-102766613D01*
X111058320Y-102448440D01*
X111256012Y-102570093D01*
X111303333Y-102644999D01*
X111353330Y-102788781D01*
X111256012Y-102903204D01*
X111168268Y-103030965D01*
X111122402Y-103341430D01*
X111216324Y-103623846D01*
X111217160Y-103624906D01*
X111399457Y-103605455D01*
X111538206Y-103152607D01*
X111593355Y-102396713D01*
X111592731Y-102298640D01*
X111529635Y-101586196D01*
X111382335Y-101315831D01*
X111178237Y-101543848D01*
X111056092Y-101746425D01*
X110968530Y-101653438D01*
X110985746Y-101157672D01*
X111053653Y-100913760D01*
X111233851Y-100739743D01*
X111459297Y-100762673D01*
G36*
X111459297Y-100762673D02*
G01*
X111668818Y-100996945D01*
X111710635Y-101092122D01*
X111841696Y-101742668D01*
X111873131Y-102596926D01*
X111793585Y-103433163D01*
X111717026Y-103767062D01*
X111567554Y-104037848D01*
X111322966Y-104108834D01*
X111271594Y-104107939D01*
X111075728Y-104050928D01*
X110980599Y-103839153D01*
X110937732Y-103381034D01*
X110946439Y-102766613D01*
X111058320Y-102448440D01*
X111256012Y-102570093D01*
X111303333Y-102644999D01*
X111353330Y-102788781D01*
X111256012Y-102903204D01*
X111168268Y-103030965D01*
X111122402Y-103341430D01*
X111216324Y-103623846D01*
X111217160Y-103624906D01*
X111399457Y-103605455D01*
X111538206Y-103152607D01*
X111593355Y-102396713D01*
X111592731Y-102298640D01*
X111529635Y-101586196D01*
X111382335Y-101315831D01*
X111178237Y-101543848D01*
X111056092Y-101746425D01*
X110968530Y-101653438D01*
X110985746Y-101157672D01*
X111053653Y-100913760D01*
X111233851Y-100739743D01*
X111459297Y-100762673D01*
G37*
X110579791Y-102119453D02*
X110566646Y-102876116D01*
X110586224Y-103408984D01*
X110650600Y-103584438D01*
X110668442Y-103603634D01*
X110611991Y-103696200D01*
X110442418Y-103826612D01*
X110370103Y-103873471D01*
X110190083Y-103999075D01*
X110111566Y-104068785D01*
X110103930Y-104086495D01*
X110006925Y-104015951D01*
X109898479Y-103694381D01*
X109847105Y-103316639D01*
X109865008Y-103034086D01*
X109942355Y-103205723D01*
X109972564Y-103299949D01*
X110125919Y-103525846D01*
X110263614Y-103448834D01*
X110323355Y-103088140D01*
X110294671Y-102798313D01*
X110164605Y-102779496D01*
X110064198Y-102807512D01*
X110005855Y-102530190D01*
X110035881Y-102298604D01*
X110164605Y-102133278D01*
X110257181Y-102054706D01*
X110323355Y-101709945D01*
X110319145Y-101599848D01*
X110233963Y-101329116D01*
X110085378Y-101338590D01*
X109934651Y-101639389D01*
X109917838Y-101695556D01*
X109855325Y-101803549D01*
X109859959Y-101427723D01*
X109899315Y-101102056D01*
X110017739Y-100883948D01*
X110253260Y-100778897D01*
X110618299Y-100694516D01*
X110579791Y-102119453D01*
G36*
X110579791Y-102119453D02*
G01*
X110566646Y-102876116D01*
X110586224Y-103408984D01*
X110650600Y-103584438D01*
X110668442Y-103603634D01*
X110611991Y-103696200D01*
X110442418Y-103826612D01*
X110370103Y-103873471D01*
X110190083Y-103999075D01*
X110111566Y-104068785D01*
X110103930Y-104086495D01*
X110006925Y-104015951D01*
X109898479Y-103694381D01*
X109847105Y-103316639D01*
X109865008Y-103034086D01*
X109942355Y-103205723D01*
X109972564Y-103299949D01*
X110125919Y-103525846D01*
X110263614Y-103448834D01*
X110323355Y-103088140D01*
X110294671Y-102798313D01*
X110164605Y-102779496D01*
X110064198Y-102807512D01*
X110005855Y-102530190D01*
X110035881Y-102298604D01*
X110164605Y-102133278D01*
X110257181Y-102054706D01*
X110323355Y-101709945D01*
X110319145Y-101599848D01*
X110233963Y-101329116D01*
X110085378Y-101338590D01*
X109934651Y-101639389D01*
X109917838Y-101695556D01*
X109855325Y-101803549D01*
X109859959Y-101427723D01*
X109899315Y-101102056D01*
X110017739Y-100883948D01*
X110253260Y-100778897D01*
X110618299Y-100694516D01*
X110579791Y-102119453D01*
G37*
X100016347Y-100822457D02*
X100041397Y-101167893D01*
X100025840Y-101941061D01*
X100020032Y-102156836D01*
X100023819Y-102973506D01*
X100074823Y-103383156D01*
X100105236Y-103466120D01*
X100163355Y-103841497D01*
X100122962Y-103986192D01*
X99984762Y-104008384D01*
X99876755Y-103889876D01*
X99826961Y-103657377D01*
X99844241Y-103452918D01*
X99893740Y-102888121D01*
X99918376Y-102512336D01*
X99901250Y-102226635D01*
X99837602Y-102370857D01*
X99759074Y-102934180D01*
X99723674Y-103268631D01*
X99641601Y-103744589D01*
X99560642Y-103669885D01*
X99465709Y-103050501D01*
X99372416Y-102274389D01*
X99408714Y-103191612D01*
X99421752Y-103698307D01*
X99386932Y-104033724D01*
X99268402Y-104108891D01*
X99192812Y-104087493D01*
X99126293Y-103914625D01*
X99097818Y-103451282D01*
X99091793Y-102560744D01*
X99102816Y-101830453D01*
X99159396Y-101066467D01*
X99252668Y-100798813D01*
X99369790Y-101050181D01*
X99497916Y-101843264D01*
X99582147Y-102541028D01*
X99694762Y-101705604D01*
X99698317Y-101679648D01*
X99814671Y-101080217D01*
X99936383Y-100781846D01*
X99940973Y-100778827D01*
X100016347Y-100822457D01*
G36*
X100016347Y-100822457D02*
G01*
X100041397Y-101167893D01*
X100025840Y-101941061D01*
X100020032Y-102156836D01*
X100023819Y-102973506D01*
X100074823Y-103383156D01*
X100105236Y-103466120D01*
X100163355Y-103841497D01*
X100122962Y-103986192D01*
X99984762Y-104008384D01*
X99876755Y-103889876D01*
X99826961Y-103657377D01*
X99844241Y-103452918D01*
X99893740Y-102888121D01*
X99918376Y-102512336D01*
X99901250Y-102226635D01*
X99837602Y-102370857D01*
X99759074Y-102934180D01*
X99723674Y-103268631D01*
X99641601Y-103744589D01*
X99560642Y-103669885D01*
X99465709Y-103050501D01*
X99372416Y-102274389D01*
X99408714Y-103191612D01*
X99421752Y-103698307D01*
X99386932Y-104033724D01*
X99268402Y-104108891D01*
X99192812Y-104087493D01*
X99126293Y-103914625D01*
X99097818Y-103451282D01*
X99091793Y-102560744D01*
X99102816Y-101830453D01*
X99159396Y-101066467D01*
X99252668Y-100798813D01*
X99369790Y-101050181D01*
X99497916Y-101843264D01*
X99582147Y-102541028D01*
X99694762Y-101705604D01*
X99698317Y-101679648D01*
X99814671Y-101080217D01*
X99936383Y-100781846D01*
X99940973Y-100778827D01*
X100016347Y-100822457D01*
G37*
X109534443Y-101517907D02*
X109529605Y-101859914D01*
X109532825Y-102332712D01*
X109568586Y-103106884D01*
X109648668Y-103442330D01*
X109704563Y-103548285D01*
X109767730Y-103856806D01*
X109732817Y-103967975D01*
X109591307Y-104072876D01*
X109398490Y-104107122D01*
X109217146Y-104063332D01*
X109110052Y-103934125D01*
X109103662Y-103749668D01*
X109176927Y-103346928D01*
X109255781Y-102913283D01*
X109201054Y-102560319D01*
X108995018Y-102282965D01*
X108860881Y-102126390D01*
X108658984Y-101666694D01*
X108587326Y-101215203D01*
X108909394Y-101215203D01*
X108909566Y-101218363D01*
X108982964Y-101589010D01*
X109112739Y-101795752D01*
X109236103Y-101788685D01*
X109290265Y-101517907D01*
X109283079Y-101322418D01*
X109218901Y-100751598D01*
X109184580Y-100613222D01*
X109057916Y-100505062D01*
X108943072Y-100740346D01*
X108909394Y-101215203D01*
X108587326Y-101215203D01*
X108571279Y-101114093D01*
X108608331Y-100573727D01*
X108780710Y-100150737D01*
X108820631Y-100102934D01*
X109031250Y-99955906D01*
X109280145Y-99888217D01*
X109518442Y-99899521D01*
X109697262Y-99989471D01*
X109767730Y-100157723D01*
X109754298Y-100287553D01*
X109648668Y-100439945D01*
X109585861Y-100532860D01*
X109542203Y-100969415D01*
X109534443Y-101517907D01*
G36*
X109534443Y-101517907D02*
G01*
X109529605Y-101859914D01*
X109532825Y-102332712D01*
X109568586Y-103106884D01*
X109648668Y-103442330D01*
X109704563Y-103548285D01*
X109767730Y-103856806D01*
X109732817Y-103967975D01*
X109591307Y-104072876D01*
X109398490Y-104107122D01*
X109217146Y-104063332D01*
X109110052Y-103934125D01*
X109103662Y-103749668D01*
X109176927Y-103346928D01*
X109255781Y-102913283D01*
X109201054Y-102560319D01*
X108995018Y-102282965D01*
X108860881Y-102126390D01*
X108658984Y-101666694D01*
X108587326Y-101215203D01*
X108909394Y-101215203D01*
X108909566Y-101218363D01*
X108982964Y-101589010D01*
X109112739Y-101795752D01*
X109236103Y-101788685D01*
X109290265Y-101517907D01*
X109283079Y-101322418D01*
X109218901Y-100751598D01*
X109184580Y-100613222D01*
X109057916Y-100505062D01*
X108943072Y-100740346D01*
X108909394Y-101215203D01*
X108587326Y-101215203D01*
X108571279Y-101114093D01*
X108608331Y-100573727D01*
X108780710Y-100150737D01*
X108820631Y-100102934D01*
X109031250Y-99955906D01*
X109280145Y-99888217D01*
X109518442Y-99899521D01*
X109697262Y-99989471D01*
X109767730Y-100157723D01*
X109754298Y-100287553D01*
X109648668Y-100439945D01*
X109585861Y-100532860D01*
X109542203Y-100969415D01*
X109534443Y-101517907D01*
G37*
X115338510Y-101004389D02*
X115333961Y-101065020D01*
X115323980Y-101992167D01*
X115331056Y-102630974D01*
X115333866Y-102695125D01*
X115359887Y-103289216D01*
X115403355Y-103544389D01*
X115422178Y-103551950D01*
X115482730Y-103808804D01*
X115482221Y-103819962D01*
X115400752Y-103925191D01*
X115213668Y-103972938D01*
X114969217Y-103968316D01*
X114715647Y-103916436D01*
X114501206Y-103822410D01*
X114374142Y-103691349D01*
X114341678Y-103570014D01*
X114297604Y-103035956D01*
X114303807Y-102469406D01*
X114572641Y-102469406D01*
X114615191Y-103017052D01*
X114673139Y-103324350D01*
X114751304Y-103522109D01*
X114826632Y-103465001D01*
X114964963Y-103139903D01*
X115015946Y-102695125D01*
X114970932Y-102302355D01*
X114821272Y-102133278D01*
X114661503Y-102191200D01*
X114572641Y-102469406D01*
X114303807Y-102469406D01*
X114304434Y-102412184D01*
X114364029Y-102008542D01*
X114396967Y-101840149D01*
X114398198Y-101337171D01*
X114396993Y-101052032D01*
X114658606Y-101052032D01*
X114663211Y-101383134D01*
X114665133Y-101389878D01*
X114806239Y-101593345D01*
X114944287Y-101438076D01*
X115006480Y-101004389D01*
X114985814Y-100675156D01*
X114897137Y-100439945D01*
X114871176Y-100447959D01*
X114744884Y-100671938D01*
X114658606Y-101052032D01*
X114396993Y-101052032D01*
X114396790Y-101004068D01*
X114479542Y-100472406D01*
X114518450Y-100382119D01*
X114702325Y-100153905D01*
X114947855Y-99995631D01*
X115201227Y-99925474D01*
X115408629Y-99961612D01*
X115516247Y-100122223D01*
X115528207Y-100292719D01*
X115447727Y-100439945D01*
X115440940Y-100440516D01*
X115369932Y-100585625D01*
X115338510Y-101004389D01*
G36*
X115338510Y-101004389D02*
G01*
X115333961Y-101065020D01*
X115323980Y-101992167D01*
X115331056Y-102630974D01*
X115333866Y-102695125D01*
X115359887Y-103289216D01*
X115403355Y-103544389D01*
X115422178Y-103551950D01*
X115482730Y-103808804D01*
X115482221Y-103819962D01*
X115400752Y-103925191D01*
X115213668Y-103972938D01*
X114969217Y-103968316D01*
X114715647Y-103916436D01*
X114501206Y-103822410D01*
X114374142Y-103691349D01*
X114341678Y-103570014D01*
X114297604Y-103035956D01*
X114303807Y-102469406D01*
X114572641Y-102469406D01*
X114615191Y-103017052D01*
X114673139Y-103324350D01*
X114751304Y-103522109D01*
X114826632Y-103465001D01*
X114964963Y-103139903D01*
X115015946Y-102695125D01*
X114970932Y-102302355D01*
X114821272Y-102133278D01*
X114661503Y-102191200D01*
X114572641Y-102469406D01*
X114303807Y-102469406D01*
X114304434Y-102412184D01*
X114364029Y-102008542D01*
X114396967Y-101840149D01*
X114398198Y-101337171D01*
X114396993Y-101052032D01*
X114658606Y-101052032D01*
X114663211Y-101383134D01*
X114665133Y-101389878D01*
X114806239Y-101593345D01*
X114944287Y-101438076D01*
X115006480Y-101004389D01*
X114985814Y-100675156D01*
X114897137Y-100439945D01*
X114871176Y-100447959D01*
X114744884Y-100671938D01*
X114658606Y-101052032D01*
X114396993Y-101052032D01*
X114396790Y-101004068D01*
X114479542Y-100472406D01*
X114518450Y-100382119D01*
X114702325Y-100153905D01*
X114947855Y-99995631D01*
X115201227Y-99925474D01*
X115408629Y-99961612D01*
X115516247Y-100122223D01*
X115528207Y-100292719D01*
X115447727Y-100439945D01*
X115440940Y-100440516D01*
X115369932Y-100585625D01*
X115338510Y-101004389D01*
G37*
X104388570Y-103144575D02*
X104389147Y-103187593D01*
X104458201Y-103569250D01*
X104480634Y-103627535D01*
X104470576Y-103773556D01*
X104310412Y-103822290D01*
X104265342Y-103830389D01*
X104010765Y-104027243D01*
X103754787Y-104403765D01*
X103453279Y-104791783D01*
X103126715Y-104748698D01*
X102843976Y-104191609D01*
X102815670Y-104092473D01*
X102723696Y-103411859D01*
X102774919Y-102732521D01*
X102961324Y-102191078D01*
X103091445Y-101911395D01*
X103172519Y-101577821D01*
X103148411Y-101381809D01*
X103011464Y-101438320D01*
X102891755Y-101499458D01*
X102878679Y-101245672D01*
X102925009Y-101020169D01*
X103079822Y-100804298D01*
X103265683Y-100826713D01*
X103408693Y-101106780D01*
X103427915Y-101190446D01*
X103464881Y-101429927D01*
X103439375Y-101675486D01*
X103329965Y-102038349D01*
X103115217Y-102629738D01*
X102999920Y-103058911D01*
X102985066Y-103619852D01*
X102991182Y-103669646D01*
X103124687Y-104115838D01*
X103331577Y-104352806D01*
X103536616Y-104289239D01*
X103601144Y-104092164D01*
X103650679Y-103553273D01*
X103638391Y-103032862D01*
X103912171Y-103032862D01*
X103990633Y-103404354D01*
X104085837Y-103453636D01*
X104132105Y-103144575D01*
X104115771Y-102924955D01*
X104006428Y-102697723D01*
X103946717Y-102744973D01*
X103912171Y-103032862D01*
X103638391Y-103032862D01*
X103636943Y-102971544D01*
X103556637Y-102621813D01*
X103542545Y-102573851D01*
X103614258Y-102438389D01*
X103794762Y-102291266D01*
X103848621Y-102254615D01*
X104057019Y-102004696D01*
X104132105Y-101685138D01*
X104127453Y-101575184D01*
X104040875Y-101323386D01*
X103892125Y-101342347D01*
X103743401Y-101639389D01*
X103726588Y-101695556D01*
X103664075Y-101803549D01*
X103668709Y-101427723D01*
X103708792Y-101099184D01*
X103827807Y-100883084D01*
X104063985Y-100778610D01*
X104431000Y-100693942D01*
X104389367Y-102007237D01*
X104378862Y-102421308D01*
X104388570Y-103144575D01*
G36*
X104388570Y-103144575D02*
G01*
X104389147Y-103187593D01*
X104458201Y-103569250D01*
X104480634Y-103627535D01*
X104470576Y-103773556D01*
X104310412Y-103822290D01*
X104265342Y-103830389D01*
X104010765Y-104027243D01*
X103754787Y-104403765D01*
X103453279Y-104791783D01*
X103126715Y-104748698D01*
X102843976Y-104191609D01*
X102815670Y-104092473D01*
X102723696Y-103411859D01*
X102774919Y-102732521D01*
X102961324Y-102191078D01*
X103091445Y-101911395D01*
X103172519Y-101577821D01*
X103148411Y-101381809D01*
X103011464Y-101438320D01*
X102891755Y-101499458D01*
X102878679Y-101245672D01*
X102925009Y-101020169D01*
X103079822Y-100804298D01*
X103265683Y-100826713D01*
X103408693Y-101106780D01*
X103427915Y-101190446D01*
X103464881Y-101429927D01*
X103439375Y-101675486D01*
X103329965Y-102038349D01*
X103115217Y-102629738D01*
X102999920Y-103058911D01*
X102985066Y-103619852D01*
X102991182Y-103669646D01*
X103124687Y-104115838D01*
X103331577Y-104352806D01*
X103536616Y-104289239D01*
X103601144Y-104092164D01*
X103650679Y-103553273D01*
X103638391Y-103032862D01*
X103912171Y-103032862D01*
X103990633Y-103404354D01*
X104085837Y-103453636D01*
X104132105Y-103144575D01*
X104115771Y-102924955D01*
X104006428Y-102697723D01*
X103946717Y-102744973D01*
X103912171Y-103032862D01*
X103638391Y-103032862D01*
X103636943Y-102971544D01*
X103556637Y-102621813D01*
X103542545Y-102573851D01*
X103614258Y-102438389D01*
X103794762Y-102291266D01*
X103848621Y-102254615D01*
X104057019Y-102004696D01*
X104132105Y-101685138D01*
X104127453Y-101575184D01*
X104040875Y-101323386D01*
X103892125Y-101342347D01*
X103743401Y-101639389D01*
X103726588Y-101695556D01*
X103664075Y-101803549D01*
X103668709Y-101427723D01*
X103708792Y-101099184D01*
X103827807Y-100883084D01*
X104063985Y-100778610D01*
X104431000Y-100693942D01*
X104389367Y-102007237D01*
X104378862Y-102421308D01*
X104388570Y-103144575D01*
G37*
X107556617Y-101874575D02*
X107549252Y-102013936D01*
X107551717Y-102701126D01*
X107583916Y-103315554D01*
X107644449Y-103639701D01*
X107665233Y-103739220D01*
X107565074Y-103804331D01*
X107407865Y-103799220D01*
X107300252Y-103665663D01*
X107291280Y-103332723D01*
X107293018Y-103304868D01*
X107287886Y-103012502D01*
X107205928Y-103134470D01*
X107036509Y-103685501D01*
X106868514Y-104135372D01*
X106566991Y-104391056D01*
X106422524Y-104365437D01*
X106322882Y-104190268D01*
X106305414Y-103756056D01*
X106306241Y-103662434D01*
X106266199Y-103233507D01*
X106116480Y-103121056D01*
X105987044Y-103203912D01*
X105918043Y-103544389D01*
X105918016Y-103553935D01*
X105866354Y-103891537D01*
X105770170Y-103953548D01*
X105709832Y-103685501D01*
X105709365Y-103582490D01*
X105744879Y-103015384D01*
X105799436Y-102490852D01*
X106075298Y-102490852D01*
X106118972Y-102697723D01*
X106154316Y-102650032D01*
X106195855Y-102274389D01*
X106192408Y-102081514D01*
X106164660Y-101851056D01*
X106144116Y-101903051D01*
X106087776Y-102274389D01*
X106075298Y-102490852D01*
X105799436Y-102490852D01*
X105821627Y-102277496D01*
X105917152Y-101545856D01*
X106008994Y-100997498D01*
X106074694Y-100809451D01*
X106126384Y-100967772D01*
X106238967Y-101512784D01*
X106366971Y-102274389D01*
X106370200Y-102293605D01*
X106466398Y-102867521D01*
X106587143Y-103444975D01*
X106667856Y-103657278D01*
X106759966Y-103618525D01*
X106879313Y-103466641D01*
X106940139Y-103109899D01*
X106948335Y-102727389D01*
X106889100Y-102104933D01*
X106865374Y-101958705D01*
X106854119Y-101757114D01*
X107083004Y-101757114D01*
X107096995Y-101935568D01*
X107176774Y-102298996D01*
X107265285Y-102288348D01*
X107307105Y-101874575D01*
X107285270Y-101524012D01*
X107182223Y-101286612D01*
X107117197Y-101354324D01*
X107083004Y-101757114D01*
X106854119Y-101757114D01*
X106840831Y-101519093D01*
X106945245Y-101128312D01*
X107119717Y-100855567D01*
X107342016Y-100734381D01*
X107545293Y-100780240D01*
X107664293Y-101004389D01*
X107676696Y-101113712D01*
X107629290Y-101286612D01*
X107577922Y-101471503D01*
X107556617Y-101874575D01*
G36*
X107556617Y-101874575D02*
G01*
X107549252Y-102013936D01*
X107551717Y-102701126D01*
X107583916Y-103315554D01*
X107644449Y-103639701D01*
X107665233Y-103739220D01*
X107565074Y-103804331D01*
X107407865Y-103799220D01*
X107300252Y-103665663D01*
X107291280Y-103332723D01*
X107293018Y-103304868D01*
X107287886Y-103012502D01*
X107205928Y-103134470D01*
X107036509Y-103685501D01*
X106868514Y-104135372D01*
X106566991Y-104391056D01*
X106422524Y-104365437D01*
X106322882Y-104190268D01*
X106305414Y-103756056D01*
X106306241Y-103662434D01*
X106266199Y-103233507D01*
X106116480Y-103121056D01*
X105987044Y-103203912D01*
X105918043Y-103544389D01*
X105918016Y-103553935D01*
X105866354Y-103891537D01*
X105770170Y-103953548D01*
X105709832Y-103685501D01*
X105709365Y-103582490D01*
X105744879Y-103015384D01*
X105799436Y-102490852D01*
X106075298Y-102490852D01*
X106118972Y-102697723D01*
X106154316Y-102650032D01*
X106195855Y-102274389D01*
X106192408Y-102081514D01*
X106164660Y-101851056D01*
X106144116Y-101903051D01*
X106087776Y-102274389D01*
X106075298Y-102490852D01*
X105799436Y-102490852D01*
X105821627Y-102277496D01*
X105917152Y-101545856D01*
X106008994Y-100997498D01*
X106074694Y-100809451D01*
X106126384Y-100967772D01*
X106238967Y-101512784D01*
X106366971Y-102274389D01*
X106370200Y-102293605D01*
X106466398Y-102867521D01*
X106587143Y-103444975D01*
X106667856Y-103657278D01*
X106759966Y-103618525D01*
X106879313Y-103466641D01*
X106940139Y-103109899D01*
X106948335Y-102727389D01*
X106889100Y-102104933D01*
X106865374Y-101958705D01*
X106854119Y-101757114D01*
X107083004Y-101757114D01*
X107096995Y-101935568D01*
X107176774Y-102298996D01*
X107265285Y-102288348D01*
X107307105Y-101874575D01*
X107285270Y-101524012D01*
X107182223Y-101286612D01*
X107117197Y-101354324D01*
X107083004Y-101757114D01*
X106854119Y-101757114D01*
X106840831Y-101519093D01*
X106945245Y-101128312D01*
X107119717Y-100855567D01*
X107342016Y-100734381D01*
X107545293Y-100780240D01*
X107664293Y-101004389D01*
X107676696Y-101113712D01*
X107629290Y-101286612D01*
X107577922Y-101471503D01*
X107556617Y-101874575D01*
G37*
X110795376Y-93619684D02*
X110795981Y-93624985D01*
X110797909Y-93676776D01*
X110779743Y-93707400D01*
X110726975Y-93721555D01*
X110625101Y-93723937D01*
X110459615Y-93719244D01*
X110215384Y-93711191D01*
X110215384Y-93923160D01*
X110213317Y-94007765D01*
X110203860Y-94110395D01*
X110189333Y-94161180D01*
X110173106Y-94174771D01*
X110138922Y-94182274D01*
X110086274Y-94162025D01*
X110000735Y-94107303D01*
X109867881Y-94011385D01*
X109845460Y-93994942D01*
X109732353Y-93914023D01*
X109648117Y-93857069D01*
X109609582Y-93835539D01*
X109607910Y-93836016D01*
X109595315Y-93877188D01*
X109590154Y-93964492D01*
X109590141Y-93967550D01*
X109576292Y-94070428D01*
X109544191Y-94139409D01*
X109494750Y-94166846D01*
X109443100Y-94137865D01*
X109407826Y-94047492D01*
X109394769Y-93904897D01*
X109394769Y-93710286D01*
X109135507Y-93724066D01*
X109063707Y-93727218D01*
X108943440Y-93725472D01*
X108873497Y-93708391D01*
X108834927Y-93672737D01*
X108814698Y-93621981D01*
X108816602Y-93617057D01*
X109659519Y-93617057D01*
X109771375Y-93708691D01*
X109880484Y-93795780D01*
X109959337Y-93843949D01*
X110000956Y-93833491D01*
X110017218Y-93760153D01*
X110020000Y-93619684D01*
X110019415Y-93504622D01*
X110009778Y-93418450D01*
X109977549Y-93396029D01*
X109909129Y-93431342D01*
X109790913Y-93518375D01*
X109659519Y-93617057D01*
X108816602Y-93617057D01*
X108843497Y-93547516D01*
X108852623Y-93537665D01*
X108905058Y-93509686D01*
X108994964Y-93501478D01*
X109141964Y-93510617D01*
X109390544Y-93533830D01*
X109402426Y-93303684D01*
X109408083Y-93215724D01*
X109421994Y-93124859D01*
X109447798Y-93083400D01*
X109492461Y-93073539D01*
X109537084Y-93083427D01*
X109570326Y-93133045D01*
X109590154Y-93241788D01*
X109609692Y-93410038D01*
X109854228Y-93227955D01*
X109880288Y-93208696D01*
X110023448Y-93112247D01*
X110120091Y-93072306D01*
X110178663Y-93090813D01*
X110207612Y-93169710D01*
X110215384Y-93310936D01*
X110215384Y-93531247D01*
X110782000Y-93503385D01*
X110794365Y-93610846D01*
X110795376Y-93619684D01*
G36*
X110795376Y-93619684D02*
G01*
X110795981Y-93624985D01*
X110797909Y-93676776D01*
X110779743Y-93707400D01*
X110726975Y-93721555D01*
X110625101Y-93723937D01*
X110459615Y-93719244D01*
X110215384Y-93711191D01*
X110215384Y-93923160D01*
X110213317Y-94007765D01*
X110203860Y-94110395D01*
X110189333Y-94161180D01*
X110173106Y-94174771D01*
X110138922Y-94182274D01*
X110086274Y-94162025D01*
X110000735Y-94107303D01*
X109867881Y-94011385D01*
X109845460Y-93994942D01*
X109732353Y-93914023D01*
X109648117Y-93857069D01*
X109609582Y-93835539D01*
X109607910Y-93836016D01*
X109595315Y-93877188D01*
X109590154Y-93964492D01*
X109590141Y-93967550D01*
X109576292Y-94070428D01*
X109544191Y-94139409D01*
X109494750Y-94166846D01*
X109443100Y-94137865D01*
X109407826Y-94047492D01*
X109394769Y-93904897D01*
X109394769Y-93710286D01*
X109135507Y-93724066D01*
X109063707Y-93727218D01*
X108943440Y-93725472D01*
X108873497Y-93708391D01*
X108834927Y-93672737D01*
X108814698Y-93621981D01*
X108816602Y-93617057D01*
X109659519Y-93617057D01*
X109771375Y-93708691D01*
X109880484Y-93795780D01*
X109959337Y-93843949D01*
X110000956Y-93833491D01*
X110017218Y-93760153D01*
X110020000Y-93619684D01*
X110019415Y-93504622D01*
X110009778Y-93418450D01*
X109977549Y-93396029D01*
X109909129Y-93431342D01*
X109790913Y-93518375D01*
X109659519Y-93617057D01*
X108816602Y-93617057D01*
X108843497Y-93547516D01*
X108852623Y-93537665D01*
X108905058Y-93509686D01*
X108994964Y-93501478D01*
X109141964Y-93510617D01*
X109390544Y-93533830D01*
X109402426Y-93303684D01*
X109408083Y-93215724D01*
X109421994Y-93124859D01*
X109447798Y-93083400D01*
X109492461Y-93073539D01*
X109537084Y-93083427D01*
X109570326Y-93133045D01*
X109590154Y-93241788D01*
X109609692Y-93410038D01*
X109854228Y-93227955D01*
X109880288Y-93208696D01*
X110023448Y-93112247D01*
X110120091Y-93072306D01*
X110178663Y-93090813D01*
X110207612Y-93169710D01*
X110215384Y-93310936D01*
X110215384Y-93531247D01*
X110782000Y-93503385D01*
X110794365Y-93610846D01*
X110795376Y-93619684D01*
G37*
X108954872Y-89521940D02*
X108849694Y-89679713D01*
X108778193Y-89782524D01*
X108700048Y-89894890D01*
X108686240Y-89914745D01*
X108594127Y-90042896D01*
X108550429Y-90103692D01*
X108503997Y-90168291D01*
X108447870Y-90244142D01*
X108335708Y-90395720D01*
X108308802Y-90432082D01*
X108277497Y-90473205D01*
X108145135Y-90647085D01*
X108106493Y-90697848D01*
X107990128Y-90846154D01*
X107959306Y-90885437D01*
X107902905Y-90957320D01*
X107866220Y-91002462D01*
X107755074Y-91139231D01*
X107703877Y-91202231D01*
X107671574Y-91240522D01*
X107638403Y-91279843D01*
X107607909Y-91314736D01*
X107500073Y-91438133D01*
X107342778Y-91612646D01*
X107175406Y-91794077D01*
X107006849Y-91973124D01*
X106845993Y-92140480D01*
X106701730Y-92286843D01*
X106582948Y-92402907D01*
X106498536Y-92479368D01*
X106457383Y-92506923D01*
X106449411Y-92504246D01*
X106394649Y-92462223D01*
X106307258Y-92379790D01*
X106202070Y-92270670D01*
X106190415Y-92258201D01*
X106058077Y-92128775D01*
X105919761Y-92010912D01*
X105803594Y-91928747D01*
X105728683Y-91887317D01*
X105644379Y-91853055D01*
X105548452Y-91833664D01*
X105418739Y-91825040D01*
X105233077Y-91823077D01*
X105061043Y-91824597D01*
X104926975Y-91832515D01*
X104826041Y-91851400D01*
X104734765Y-91885810D01*
X104629675Y-91940308D01*
X104533294Y-91999780D01*
X104373504Y-92117289D01*
X104277907Y-92201360D01*
X104235472Y-92238679D01*
X104200863Y-92277789D01*
X104088119Y-92405197D01*
X103891168Y-92712052D01*
X103773574Y-92995385D01*
X103750607Y-93050724D01*
X103670618Y-93406357D01*
X103655380Y-93764093D01*
X103678666Y-93913692D01*
X103709077Y-94109077D01*
X103726176Y-94173236D01*
X103756215Y-94308091D01*
X103754580Y-94400039D01*
X103711792Y-94468702D01*
X103618374Y-94533699D01*
X103464846Y-94614651D01*
X103269029Y-94708658D01*
X103131404Y-94759921D01*
X103051229Y-94768032D01*
X103025231Y-94733880D01*
X103010208Y-94705376D01*
X102950822Y-94628650D01*
X102856784Y-94519684D01*
X102739361Y-94391956D01*
X102656328Y-94302810D01*
X102532857Y-94165545D01*
X102431480Y-94047297D01*
X102368363Y-93966602D01*
X102338489Y-93913692D01*
X102517231Y-93913692D01*
X102518366Y-93923033D01*
X102556308Y-93952769D01*
X102565648Y-93951634D01*
X102595384Y-93913692D01*
X102594249Y-93904352D01*
X102556308Y-93874616D01*
X102546967Y-93875751D01*
X102517231Y-93913692D01*
X102338489Y-93913692D01*
X102301315Y-93847852D01*
X102220473Y-93603632D01*
X102178132Y-93308918D01*
X102176729Y-92995385D01*
X102321846Y-92995385D01*
X102341384Y-93014923D01*
X102360923Y-92995385D01*
X102341384Y-92975846D01*
X102321846Y-92995385D01*
X102176729Y-92995385D01*
X102176642Y-92975846D01*
X102182182Y-92895005D01*
X102195475Y-92766164D01*
X102445989Y-92766164D01*
X102478154Y-92780462D01*
X102498841Y-92777642D01*
X102504205Y-92754410D01*
X102498478Y-92749734D01*
X102452102Y-92754410D01*
X102445989Y-92766164D01*
X102195475Y-92766164D01*
X102202425Y-92698802D01*
X102595384Y-92698802D01*
X102601285Y-92745783D01*
X102610287Y-92754410D01*
X102641062Y-92783907D01*
X102712915Y-92760666D01*
X102810473Y-92679066D01*
X102927368Y-92542112D01*
X102935326Y-92531602D01*
X103025656Y-92403199D01*
X103073523Y-92316812D01*
X103078123Y-92277789D01*
X103038651Y-92291480D01*
X102954300Y-92363234D01*
X102934888Y-92381319D01*
X102858009Y-92443411D01*
X102808169Y-92469146D01*
X102773735Y-92478060D01*
X102693487Y-92535061D01*
X102624619Y-92618806D01*
X102595384Y-92698802D01*
X102202425Y-92698802D01*
X102202705Y-92696089D01*
X102231170Y-92499463D01*
X102264556Y-92320234D01*
X102285444Y-92233385D01*
X102829846Y-92233385D01*
X102831074Y-92257358D01*
X102849199Y-92267506D01*
X102908000Y-92233385D01*
X102915485Y-92228489D01*
X102943482Y-92201360D01*
X102898231Y-92194906D01*
X102862066Y-92200541D01*
X102829846Y-92233385D01*
X102285444Y-92233385D01*
X102299845Y-92173509D01*
X102334017Y-92074395D01*
X102364055Y-92038000D01*
X102387054Y-92016462D01*
X102400000Y-91945558D01*
X102400696Y-91934962D01*
X102423943Y-91846219D01*
X102473513Y-91717404D01*
X102540371Y-91572531D01*
X102586353Y-91483275D01*
X102649697Y-91376539D01*
X102695178Y-91329144D01*
X102729581Y-91332481D01*
X102781359Y-91356000D01*
X102786345Y-91350555D01*
X105099222Y-91350555D01*
X105127399Y-91348477D01*
X105149876Y-91335729D01*
X106608102Y-91335729D01*
X106609789Y-91376109D01*
X106672528Y-91424524D01*
X106730263Y-91458746D01*
X106772177Y-91456905D01*
X106806559Y-91397670D01*
X106811918Y-91385479D01*
X106823927Y-91314736D01*
X106776690Y-91265577D01*
X106771787Y-91262577D01*
X106706027Y-91245390D01*
X106642658Y-91292431D01*
X106608102Y-91335729D01*
X105149876Y-91335729D01*
X105191209Y-91312286D01*
X105235742Y-91272850D01*
X105249701Y-91240522D01*
X105221523Y-91242600D01*
X105157714Y-91278791D01*
X105113181Y-91318228D01*
X105099222Y-91350555D01*
X102786345Y-91350555D01*
X102812522Y-91321971D01*
X102805840Y-91233035D01*
X102805088Y-91229728D01*
X102821849Y-91134083D01*
X102830520Y-91118907D01*
X103268041Y-91118907D01*
X103272718Y-91165282D01*
X103284471Y-91171396D01*
X103298769Y-91139231D01*
X103295949Y-91118544D01*
X103272718Y-91113180D01*
X103268041Y-91118907D01*
X102830520Y-91118907D01*
X102901404Y-90994851D01*
X102941963Y-90942763D01*
X105297506Y-90942763D01*
X105327260Y-90998233D01*
X105376111Y-91045771D01*
X105429346Y-91050192D01*
X105455785Y-91002462D01*
X107558154Y-91002462D01*
X107577692Y-91022000D01*
X107597231Y-91002462D01*
X107577692Y-90982923D01*
X107558154Y-91002462D01*
X105455785Y-91002462D01*
X105468787Y-90978990D01*
X105471033Y-90971545D01*
X105473243Y-90885437D01*
X105427910Y-90851184D01*
X105349682Y-90880856D01*
X105330189Y-90895795D01*
X105297506Y-90942763D01*
X102941963Y-90942763D01*
X103017190Y-90846154D01*
X103064308Y-90846154D01*
X103083846Y-90865692D01*
X103103384Y-90846154D01*
X103083846Y-90826616D01*
X103064308Y-90846154D01*
X103017190Y-90846154D01*
X103042703Y-90813389D01*
X103150181Y-90695087D01*
X104790604Y-90695087D01*
X104822769Y-90709385D01*
X104843456Y-90706565D01*
X104846769Y-90692217D01*
X105650879Y-90692217D01*
X105659186Y-90705454D01*
X105721538Y-90670308D01*
X105749023Y-90647085D01*
X105733614Y-90631829D01*
X105719992Y-90633155D01*
X105662923Y-90670308D01*
X105655762Y-90683333D01*
X105650879Y-90692217D01*
X104846769Y-90692217D01*
X104848820Y-90683333D01*
X104843093Y-90678657D01*
X104796718Y-90683333D01*
X104790604Y-90695087D01*
X103150181Y-90695087D01*
X103244694Y-90591055D01*
X103347326Y-90488336D01*
X107105756Y-90488336D01*
X107122203Y-90529765D01*
X107139368Y-90535927D01*
X107188136Y-90512038D01*
X107200891Y-90473205D01*
X107176787Y-90440966D01*
X107124251Y-90463349D01*
X107105756Y-90488336D01*
X103347326Y-90488336D01*
X103395657Y-90439964D01*
X105846184Y-90439964D01*
X105872653Y-90478821D01*
X105937644Y-90483928D01*
X106014152Y-90450891D01*
X106021813Y-90445178D01*
X106064071Y-90395720D01*
X106040747Y-90348655D01*
X105976470Y-90327416D01*
X105900509Y-90356421D01*
X105849213Y-90424054D01*
X105846184Y-90439964D01*
X103395657Y-90439964D01*
X103506324Y-90329204D01*
X103545078Y-90293373D01*
X107655968Y-90293373D01*
X107673763Y-90337152D01*
X107699602Y-90340983D01*
X107739103Y-90299869D01*
X107751643Y-90244142D01*
X107730742Y-90216938D01*
X107679055Y-90255577D01*
X107655968Y-90293373D01*
X103545078Y-90293373D01*
X103673573Y-90174568D01*
X103762779Y-90103692D01*
X107753538Y-90103692D01*
X107773077Y-90123231D01*
X107792615Y-90103692D01*
X107773077Y-90084154D01*
X107753538Y-90103692D01*
X103762779Y-90103692D01*
X103861145Y-90025539D01*
X104549231Y-90025539D01*
X104550365Y-90041111D01*
X104582623Y-90082937D01*
X104639348Y-90059165D01*
X104649249Y-90042896D01*
X104637029Y-89992779D01*
X104586001Y-89966923D01*
X104569108Y-89973518D01*
X104549231Y-90025539D01*
X103861145Y-90025539D01*
X103983625Y-89928227D01*
X107257732Y-89928227D01*
X107290350Y-89971294D01*
X107350178Y-89997780D01*
X107439155Y-89997495D01*
X107494131Y-89947385D01*
X107506020Y-89894890D01*
X107484367Y-89816566D01*
X107479356Y-89813269D01*
X108046250Y-89813269D01*
X108063429Y-89852815D01*
X108120659Y-89862289D01*
X108190686Y-89834270D01*
X108196072Y-89830259D01*
X108232151Y-89782524D01*
X108203962Y-89720953D01*
X108198929Y-89714253D01*
X108156179Y-89680822D01*
X108112140Y-89705998D01*
X108052924Y-89796752D01*
X108046250Y-89813269D01*
X107479356Y-89813269D01*
X107424001Y-89776847D01*
X107348628Y-89786092D01*
X107281956Y-89854662D01*
X107280535Y-89857333D01*
X107257732Y-89928227D01*
X103983625Y-89928227D01*
X104134634Y-89808248D01*
X104480322Y-89587956D01*
X105064950Y-89587956D01*
X105091068Y-89658660D01*
X105147714Y-89671707D01*
X105230647Y-89612269D01*
X105251544Y-89588559D01*
X105270310Y-89537077D01*
X108417846Y-89537077D01*
X108418294Y-89545920D01*
X108435078Y-89576154D01*
X108441347Y-89574356D01*
X108476461Y-89537077D01*
X108482567Y-89521940D01*
X108459229Y-89498000D01*
X108447887Y-89499502D01*
X108431897Y-89519502D01*
X108417846Y-89537077D01*
X105270310Y-89537077D01*
X105276717Y-89519502D01*
X105237121Y-89480269D01*
X105142429Y-89484835D01*
X105082122Y-89515851D01*
X105064950Y-89587956D01*
X104480322Y-89587956D01*
X104629915Y-89492627D01*
X105144416Y-89236609D01*
X105663138Y-89049096D01*
X105915592Y-88977380D01*
X106135870Y-88920845D01*
X106333845Y-88879506D01*
X106529607Y-88850395D01*
X106743247Y-88830547D01*
X106994858Y-88816996D01*
X107304530Y-88806775D01*
X107340834Y-88805778D01*
X107606879Y-88799309D01*
X107814834Y-88797071D01*
X107982583Y-88800184D01*
X108128009Y-88809771D01*
X108268996Y-88826951D01*
X108423426Y-88852848D01*
X108609182Y-88888581D01*
X108729240Y-88912421D01*
X108919831Y-88951401D01*
X109050509Y-88981238D01*
X109132539Y-89005655D01*
X109177185Y-89028372D01*
X109195712Y-89053113D01*
X109199385Y-89083599D01*
X109198889Y-89090094D01*
X109168957Y-89168384D01*
X109096890Y-89298263D01*
X108988523Y-89471463D01*
X108954872Y-89521940D01*
G36*
X108954872Y-89521940D02*
G01*
X108849694Y-89679713D01*
X108778193Y-89782524D01*
X108700048Y-89894890D01*
X108686240Y-89914745D01*
X108594127Y-90042896D01*
X108550429Y-90103692D01*
X108503997Y-90168291D01*
X108447870Y-90244142D01*
X108335708Y-90395720D01*
X108308802Y-90432082D01*
X108277497Y-90473205D01*
X108145135Y-90647085D01*
X108106493Y-90697848D01*
X107990128Y-90846154D01*
X107959306Y-90885437D01*
X107902905Y-90957320D01*
X107866220Y-91002462D01*
X107755074Y-91139231D01*
X107703877Y-91202231D01*
X107671574Y-91240522D01*
X107638403Y-91279843D01*
X107607909Y-91314736D01*
X107500073Y-91438133D01*
X107342778Y-91612646D01*
X107175406Y-91794077D01*
X107006849Y-91973124D01*
X106845993Y-92140480D01*
X106701730Y-92286843D01*
X106582948Y-92402907D01*
X106498536Y-92479368D01*
X106457383Y-92506923D01*
X106449411Y-92504246D01*
X106394649Y-92462223D01*
X106307258Y-92379790D01*
X106202070Y-92270670D01*
X106190415Y-92258201D01*
X106058077Y-92128775D01*
X105919761Y-92010912D01*
X105803594Y-91928747D01*
X105728683Y-91887317D01*
X105644379Y-91853055D01*
X105548452Y-91833664D01*
X105418739Y-91825040D01*
X105233077Y-91823077D01*
X105061043Y-91824597D01*
X104926975Y-91832515D01*
X104826041Y-91851400D01*
X104734765Y-91885810D01*
X104629675Y-91940308D01*
X104533294Y-91999780D01*
X104373504Y-92117289D01*
X104277907Y-92201360D01*
X104235472Y-92238679D01*
X104200863Y-92277789D01*
X104088119Y-92405197D01*
X103891168Y-92712052D01*
X103773574Y-92995385D01*
X103750607Y-93050724D01*
X103670618Y-93406357D01*
X103655380Y-93764093D01*
X103678666Y-93913692D01*
X103709077Y-94109077D01*
X103726176Y-94173236D01*
X103756215Y-94308091D01*
X103754580Y-94400039D01*
X103711792Y-94468702D01*
X103618374Y-94533699D01*
X103464846Y-94614651D01*
X103269029Y-94708658D01*
X103131404Y-94759921D01*
X103051229Y-94768032D01*
X103025231Y-94733880D01*
X103010208Y-94705376D01*
X102950822Y-94628650D01*
X102856784Y-94519684D01*
X102739361Y-94391956D01*
X102656328Y-94302810D01*
X102532857Y-94165545D01*
X102431480Y-94047297D01*
X102368363Y-93966602D01*
X102338489Y-93913692D01*
X102517231Y-93913692D01*
X102518366Y-93923033D01*
X102556308Y-93952769D01*
X102565648Y-93951634D01*
X102595384Y-93913692D01*
X102594249Y-93904352D01*
X102556308Y-93874616D01*
X102546967Y-93875751D01*
X102517231Y-93913692D01*
X102338489Y-93913692D01*
X102301315Y-93847852D01*
X102220473Y-93603632D01*
X102178132Y-93308918D01*
X102176729Y-92995385D01*
X102321846Y-92995385D01*
X102341384Y-93014923D01*
X102360923Y-92995385D01*
X102341384Y-92975846D01*
X102321846Y-92995385D01*
X102176729Y-92995385D01*
X102176642Y-92975846D01*
X102182182Y-92895005D01*
X102195475Y-92766164D01*
X102445989Y-92766164D01*
X102478154Y-92780462D01*
X102498841Y-92777642D01*
X102504205Y-92754410D01*
X102498478Y-92749734D01*
X102452102Y-92754410D01*
X102445989Y-92766164D01*
X102195475Y-92766164D01*
X102202425Y-92698802D01*
X102595384Y-92698802D01*
X102601285Y-92745783D01*
X102610287Y-92754410D01*
X102641062Y-92783907D01*
X102712915Y-92760666D01*
X102810473Y-92679066D01*
X102927368Y-92542112D01*
X102935326Y-92531602D01*
X103025656Y-92403199D01*
X103073523Y-92316812D01*
X103078123Y-92277789D01*
X103038651Y-92291480D01*
X102954300Y-92363234D01*
X102934888Y-92381319D01*
X102858009Y-92443411D01*
X102808169Y-92469146D01*
X102773735Y-92478060D01*
X102693487Y-92535061D01*
X102624619Y-92618806D01*
X102595384Y-92698802D01*
X102202425Y-92698802D01*
X102202705Y-92696089D01*
X102231170Y-92499463D01*
X102264556Y-92320234D01*
X102285444Y-92233385D01*
X102829846Y-92233385D01*
X102831074Y-92257358D01*
X102849199Y-92267506D01*
X102908000Y-92233385D01*
X102915485Y-92228489D01*
X102943482Y-92201360D01*
X102898231Y-92194906D01*
X102862066Y-92200541D01*
X102829846Y-92233385D01*
X102285444Y-92233385D01*
X102299845Y-92173509D01*
X102334017Y-92074395D01*
X102364055Y-92038000D01*
X102387054Y-92016462D01*
X102400000Y-91945558D01*
X102400696Y-91934962D01*
X102423943Y-91846219D01*
X102473513Y-91717404D01*
X102540371Y-91572531D01*
X102586353Y-91483275D01*
X102649697Y-91376539D01*
X102695178Y-91329144D01*
X102729581Y-91332481D01*
X102781359Y-91356000D01*
X102786345Y-91350555D01*
X105099222Y-91350555D01*
X105127399Y-91348477D01*
X105149876Y-91335729D01*
X106608102Y-91335729D01*
X106609789Y-91376109D01*
X106672528Y-91424524D01*
X106730263Y-91458746D01*
X106772177Y-91456905D01*
X106806559Y-91397670D01*
X106811918Y-91385479D01*
X106823927Y-91314736D01*
X106776690Y-91265577D01*
X106771787Y-91262577D01*
X106706027Y-91245390D01*
X106642658Y-91292431D01*
X106608102Y-91335729D01*
X105149876Y-91335729D01*
X105191209Y-91312286D01*
X105235742Y-91272850D01*
X105249701Y-91240522D01*
X105221523Y-91242600D01*
X105157714Y-91278791D01*
X105113181Y-91318228D01*
X105099222Y-91350555D01*
X102786345Y-91350555D01*
X102812522Y-91321971D01*
X102805840Y-91233035D01*
X102805088Y-91229728D01*
X102821849Y-91134083D01*
X102830520Y-91118907D01*
X103268041Y-91118907D01*
X103272718Y-91165282D01*
X103284471Y-91171396D01*
X103298769Y-91139231D01*
X103295949Y-91118544D01*
X103272718Y-91113180D01*
X103268041Y-91118907D01*
X102830520Y-91118907D01*
X102901404Y-90994851D01*
X102941963Y-90942763D01*
X105297506Y-90942763D01*
X105327260Y-90998233D01*
X105376111Y-91045771D01*
X105429346Y-91050192D01*
X105455785Y-91002462D01*
X107558154Y-91002462D01*
X107577692Y-91022000D01*
X107597231Y-91002462D01*
X107577692Y-90982923D01*
X107558154Y-91002462D01*
X105455785Y-91002462D01*
X105468787Y-90978990D01*
X105471033Y-90971545D01*
X105473243Y-90885437D01*
X105427910Y-90851184D01*
X105349682Y-90880856D01*
X105330189Y-90895795D01*
X105297506Y-90942763D01*
X102941963Y-90942763D01*
X103017190Y-90846154D01*
X103064308Y-90846154D01*
X103083846Y-90865692D01*
X103103384Y-90846154D01*
X103083846Y-90826616D01*
X103064308Y-90846154D01*
X103017190Y-90846154D01*
X103042703Y-90813389D01*
X103150181Y-90695087D01*
X104790604Y-90695087D01*
X104822769Y-90709385D01*
X104843456Y-90706565D01*
X104846769Y-90692217D01*
X105650879Y-90692217D01*
X105659186Y-90705454D01*
X105721538Y-90670308D01*
X105749023Y-90647085D01*
X105733614Y-90631829D01*
X105719992Y-90633155D01*
X105662923Y-90670308D01*
X105655762Y-90683333D01*
X105650879Y-90692217D01*
X104846769Y-90692217D01*
X104848820Y-90683333D01*
X104843093Y-90678657D01*
X104796718Y-90683333D01*
X104790604Y-90695087D01*
X103150181Y-90695087D01*
X103244694Y-90591055D01*
X103347326Y-90488336D01*
X107105756Y-90488336D01*
X107122203Y-90529765D01*
X107139368Y-90535927D01*
X107188136Y-90512038D01*
X107200891Y-90473205D01*
X107176787Y-90440966D01*
X107124251Y-90463349D01*
X107105756Y-90488336D01*
X103347326Y-90488336D01*
X103395657Y-90439964D01*
X105846184Y-90439964D01*
X105872653Y-90478821D01*
X105937644Y-90483928D01*
X106014152Y-90450891D01*
X106021813Y-90445178D01*
X106064071Y-90395720D01*
X106040747Y-90348655D01*
X105976470Y-90327416D01*
X105900509Y-90356421D01*
X105849213Y-90424054D01*
X105846184Y-90439964D01*
X103395657Y-90439964D01*
X103506324Y-90329204D01*
X103545078Y-90293373D01*
X107655968Y-90293373D01*
X107673763Y-90337152D01*
X107699602Y-90340983D01*
X107739103Y-90299869D01*
X107751643Y-90244142D01*
X107730742Y-90216938D01*
X107679055Y-90255577D01*
X107655968Y-90293373D01*
X103545078Y-90293373D01*
X103673573Y-90174568D01*
X103762779Y-90103692D01*
X107753538Y-90103692D01*
X107773077Y-90123231D01*
X107792615Y-90103692D01*
X107773077Y-90084154D01*
X107753538Y-90103692D01*
X103762779Y-90103692D01*
X103861145Y-90025539D01*
X104549231Y-90025539D01*
X104550365Y-90041111D01*
X104582623Y-90082937D01*
X104639348Y-90059165D01*
X104649249Y-90042896D01*
X104637029Y-89992779D01*
X104586001Y-89966923D01*
X104569108Y-89973518D01*
X104549231Y-90025539D01*
X103861145Y-90025539D01*
X103983625Y-89928227D01*
X107257732Y-89928227D01*
X107290350Y-89971294D01*
X107350178Y-89997780D01*
X107439155Y-89997495D01*
X107494131Y-89947385D01*
X107506020Y-89894890D01*
X107484367Y-89816566D01*
X107479356Y-89813269D01*
X108046250Y-89813269D01*
X108063429Y-89852815D01*
X108120659Y-89862289D01*
X108190686Y-89834270D01*
X108196072Y-89830259D01*
X108232151Y-89782524D01*
X108203962Y-89720953D01*
X108198929Y-89714253D01*
X108156179Y-89680822D01*
X108112140Y-89705998D01*
X108052924Y-89796752D01*
X108046250Y-89813269D01*
X107479356Y-89813269D01*
X107424001Y-89776847D01*
X107348628Y-89786092D01*
X107281956Y-89854662D01*
X107280535Y-89857333D01*
X107257732Y-89928227D01*
X103983625Y-89928227D01*
X104134634Y-89808248D01*
X104480322Y-89587956D01*
X105064950Y-89587956D01*
X105091068Y-89658660D01*
X105147714Y-89671707D01*
X105230647Y-89612269D01*
X105251544Y-89588559D01*
X105270310Y-89537077D01*
X108417846Y-89537077D01*
X108418294Y-89545920D01*
X108435078Y-89576154D01*
X108441347Y-89574356D01*
X108476461Y-89537077D01*
X108482567Y-89521940D01*
X108459229Y-89498000D01*
X108447887Y-89499502D01*
X108431897Y-89519502D01*
X108417846Y-89537077D01*
X105270310Y-89537077D01*
X105276717Y-89519502D01*
X105237121Y-89480269D01*
X105142429Y-89484835D01*
X105082122Y-89515851D01*
X105064950Y-89587956D01*
X104480322Y-89587956D01*
X104629915Y-89492627D01*
X105144416Y-89236609D01*
X105663138Y-89049096D01*
X105915592Y-88977380D01*
X106135870Y-88920845D01*
X106333845Y-88879506D01*
X106529607Y-88850395D01*
X106743247Y-88830547D01*
X106994858Y-88816996D01*
X107304530Y-88806775D01*
X107340834Y-88805778D01*
X107606879Y-88799309D01*
X107814834Y-88797071D01*
X107982583Y-88800184D01*
X108128009Y-88809771D01*
X108268996Y-88826951D01*
X108423426Y-88852848D01*
X108609182Y-88888581D01*
X108729240Y-88912421D01*
X108919831Y-88951401D01*
X109050509Y-88981238D01*
X109132539Y-89005655D01*
X109177185Y-89028372D01*
X109195712Y-89053113D01*
X109199385Y-89083599D01*
X109198889Y-89090094D01*
X109168957Y-89168384D01*
X109096890Y-89298263D01*
X108988523Y-89471463D01*
X108954872Y-89521940D01*
G37*
X110877012Y-89849692D02*
X110897805Y-89864184D01*
X111063713Y-89993506D01*
X111367502Y-90264038D01*
X111526486Y-90427617D01*
X111659898Y-90564886D01*
X111926372Y-90879540D01*
X112012560Y-90998494D01*
X112152394Y-91191489D01*
X112258854Y-91373692D01*
X112323435Y-91484222D01*
X112362592Y-91567621D01*
X112368740Y-91582103D01*
X112437540Y-91744166D01*
X112517082Y-91947583D01*
X112586982Y-92141623D01*
X112589470Y-92148530D01*
X112596231Y-92168340D01*
X112651462Y-92334945D01*
X112689320Y-92468099D01*
X112713149Y-92590123D01*
X112724218Y-92702308D01*
X112726292Y-92723336D01*
X112728960Y-92800000D01*
X112732094Y-92890061D01*
X112733897Y-93112616D01*
X112734175Y-93192551D01*
X112733148Y-93358718D01*
X112730946Y-93403148D01*
X112726077Y-93501445D01*
X112709304Y-93622436D01*
X112708402Y-93628943D01*
X112675566Y-93749423D01*
X112623009Y-93871096D01*
X112546172Y-94002173D01*
X112484081Y-94089539D01*
X112440498Y-94150865D01*
X112401137Y-94200257D01*
X112301426Y-94325383D01*
X112152262Y-94501109D01*
X112124397Y-94533937D01*
X111904854Y-94784740D01*
X111638237Y-95086000D01*
X111600074Y-95129310D01*
X111419896Y-95344460D01*
X111388953Y-95381409D01*
X111319300Y-95476769D01*
X111232917Y-95595034D01*
X111224467Y-95606603D01*
X111094720Y-95824509D01*
X111065934Y-95886504D01*
X110987819Y-96054744D01*
X110891868Y-96316923D01*
X110885391Y-96336462D01*
X110885169Y-96337134D01*
X110853726Y-96434154D01*
X110835814Y-96489426D01*
X110829238Y-96512308D01*
X110799798Y-96614760D01*
X110774694Y-96730653D01*
X110758073Y-96854621D01*
X110754650Y-96903077D01*
X110748576Y-96989080D01*
X110747510Y-97004183D01*
X110741833Y-97161924D01*
X110740577Y-97196855D01*
X110734846Y-97450154D01*
X110734742Y-97454555D01*
X110734547Y-97462816D01*
X110730086Y-97652134D01*
X110723641Y-97864708D01*
X110716715Y-98041919D01*
X110709875Y-98169506D01*
X110703689Y-98233209D01*
X110701180Y-98239908D01*
X110650952Y-98293960D01*
X110549683Y-98372587D01*
X110412720Y-98466092D01*
X110255408Y-98564777D01*
X110093095Y-98658944D01*
X109941125Y-98738894D01*
X109814846Y-98794929D01*
X109707384Y-98835450D01*
X109707384Y-98363631D01*
X109706798Y-98273900D01*
X109694645Y-98012165D01*
X109663583Y-97817483D01*
X109609414Y-97682162D01*
X109527939Y-97598509D01*
X109414959Y-97558833D01*
X109266276Y-97555442D01*
X109246017Y-97557022D01*
X109145554Y-97575138D01*
X109083231Y-97622308D01*
X109026806Y-97720796D01*
X109015086Y-97746412D01*
X108987995Y-97826294D01*
X108967516Y-97929947D01*
X108951984Y-98070966D01*
X108939738Y-98262948D01*
X108929113Y-98519487D01*
X108906308Y-99164767D01*
X108769538Y-99200513D01*
X108696205Y-99218874D01*
X108551540Y-99253117D01*
X108398308Y-99287715D01*
X108295303Y-99307794D01*
X108132693Y-99331679D01*
X108001516Y-99342278D01*
X107839187Y-99345385D01*
X107825670Y-98806259D01*
X107819280Y-98605201D01*
X107809030Y-98429655D01*
X107794130Y-98306548D01*
X107772803Y-98221996D01*
X107743275Y-98162111D01*
X107684326Y-98093486D01*
X107561678Y-98028460D01*
X107426485Y-98027448D01*
X107296678Y-98088862D01*
X107190188Y-98211112D01*
X107188856Y-98213403D01*
X107155213Y-98282244D01*
X107132653Y-98362184D01*
X107119026Y-98469974D01*
X107112182Y-98622371D01*
X107109970Y-98836128D01*
X107108769Y-99325846D01*
X106952461Y-99335813D01*
X106900532Y-99335478D01*
X106763060Y-99321877D01*
X106589539Y-99294727D01*
X106405384Y-99257659D01*
X106014615Y-99169539D01*
X106013746Y-98524769D01*
X106012984Y-98348940D01*
X106009432Y-98144153D01*
X106001913Y-97995281D01*
X105989221Y-97889039D01*
X105970149Y-97812147D01*
X105943490Y-97751321D01*
X105917393Y-97716698D01*
X108496000Y-97716698D01*
X108496001Y-97717137D01*
X108518500Y-97743136D01*
X108582635Y-97707915D01*
X108684406Y-97613662D01*
X108722725Y-97571935D01*
X108776901Y-97500517D01*
X108788713Y-97462816D01*
X108784324Y-97461213D01*
X108738303Y-97483212D01*
X108664795Y-97538552D01*
X108585464Y-97608441D01*
X108521977Y-97674087D01*
X108496000Y-97716698D01*
X105917393Y-97716698D01*
X105872703Y-97657409D01*
X105746451Y-97576154D01*
X105604291Y-97550735D01*
X105500757Y-97575550D01*
X105466704Y-97583712D01*
X105354171Y-97677648D01*
X105339166Y-97698993D01*
X105309361Y-97756174D01*
X105288674Y-97831003D01*
X105274829Y-97938608D01*
X105265547Y-98094114D01*
X105258550Y-98312648D01*
X105250487Y-98534096D01*
X105237999Y-98705032D01*
X105221285Y-98804905D01*
X105199935Y-98837379D01*
X105198706Y-98837308D01*
X105145375Y-98816936D01*
X105039902Y-98765491D01*
X104896985Y-98690443D01*
X104731324Y-98599261D01*
X104636294Y-98545183D01*
X104472871Y-98446392D01*
X104362893Y-98368199D01*
X104294595Y-98301654D01*
X104256210Y-98237805D01*
X104255519Y-98236126D01*
X104232771Y-98142139D01*
X104217075Y-97986741D01*
X104208065Y-97764427D01*
X104206157Y-97555173D01*
X104831724Y-97555173D01*
X104840548Y-97574457D01*
X104894049Y-97615633D01*
X104952211Y-97600763D01*
X104971895Y-97575550D01*
X104967962Y-97527674D01*
X104897667Y-97508769D01*
X104850986Y-97518302D01*
X104831724Y-97555173D01*
X104206157Y-97555173D01*
X104205377Y-97469692D01*
X105760615Y-97469692D01*
X105761063Y-97478536D01*
X105777848Y-97508769D01*
X105784116Y-97506971D01*
X105819231Y-97469692D01*
X105825337Y-97454555D01*
X105801998Y-97430616D01*
X105790656Y-97432117D01*
X105760615Y-97469692D01*
X104205377Y-97469692D01*
X104203884Y-97299692D01*
X108577339Y-97299692D01*
X108592085Y-97349862D01*
X108612353Y-97369541D01*
X108683921Y-97390296D01*
X108709692Y-97388879D01*
X108723604Y-97374442D01*
X108674699Y-97332084D01*
X108662295Y-97324788D01*
X108917260Y-97324788D01*
X108959347Y-97374442D01*
X108981611Y-97400709D01*
X109012435Y-97419378D01*
X109050436Y-97422140D01*
X109102309Y-97389648D01*
X109189615Y-97312790D01*
X109275988Y-97225720D01*
X109309308Y-97161924D01*
X109275197Y-97127993D01*
X109173154Y-97118000D01*
X109081994Y-97128064D01*
X108977191Y-97174090D01*
X108942806Y-97215692D01*
X108919033Y-97244456D01*
X108917260Y-97324788D01*
X108662295Y-97324788D01*
X108613785Y-97296255D01*
X108577339Y-97299692D01*
X104203884Y-97299692D01*
X104203306Y-97233887D01*
X104202472Y-97215692D01*
X105721538Y-97215692D01*
X105741077Y-97235231D01*
X105760615Y-97215692D01*
X105741077Y-97196154D01*
X105721538Y-97215692D01*
X104202472Y-97215692D01*
X104187287Y-96884453D01*
X104182447Y-96843484D01*
X104945337Y-96843484D01*
X104954512Y-96898568D01*
X105018154Y-96922616D01*
X105063579Y-96929943D01*
X105096308Y-96961692D01*
X105097443Y-96971033D01*
X105135384Y-97000769D01*
X105152640Y-97000351D01*
X105170631Y-96989080D01*
X105163841Y-96946292D01*
X105149313Y-96903077D01*
X109629231Y-96903077D01*
X109648769Y-96922616D01*
X109668308Y-96903077D01*
X109648769Y-96883539D01*
X109629231Y-96903077D01*
X105149313Y-96903077D01*
X105131759Y-96850858D01*
X105106412Y-96787913D01*
X105069575Y-96751830D01*
X105014528Y-96768248D01*
X104991230Y-96782955D01*
X104945337Y-96843484D01*
X104182447Y-96843484D01*
X104151848Y-96584454D01*
X104135931Y-96512308D01*
X105135384Y-96512308D01*
X105154923Y-96531846D01*
X105174461Y-96512308D01*
X110137231Y-96512308D01*
X110156769Y-96531846D01*
X110176308Y-96512308D01*
X110156769Y-96492769D01*
X110137231Y-96512308D01*
X105174461Y-96512308D01*
X105154923Y-96492769D01*
X105135384Y-96512308D01*
X104135931Y-96512308D01*
X104127818Y-96475537D01*
X108613231Y-96475537D01*
X108614247Y-96479437D01*
X108652308Y-96492769D01*
X108663018Y-96491179D01*
X108691384Y-96451386D01*
X108688316Y-96437252D01*
X108652308Y-96434154D01*
X108640613Y-96442174D01*
X108613231Y-96475537D01*
X104127818Y-96475537D01*
X104109306Y-96391628D01*
X109207087Y-96391628D01*
X109236256Y-96435929D01*
X109299157Y-96447074D01*
X109339544Y-96434154D01*
X110020000Y-96434154D01*
X110037232Y-96451386D01*
X110039538Y-96453692D01*
X110059077Y-96434154D01*
X110039538Y-96414616D01*
X110020000Y-96434154D01*
X109339544Y-96434154D01*
X109365977Y-96425698D01*
X109406902Y-96372440D01*
X109413196Y-96341216D01*
X109401887Y-96316138D01*
X110184656Y-96316138D01*
X110187186Y-96341216D01*
X110189333Y-96362513D01*
X110201087Y-96368626D01*
X110215384Y-96336462D01*
X110212564Y-96315774D01*
X110189333Y-96310410D01*
X110184656Y-96316138D01*
X109401887Y-96316138D01*
X109396960Y-96305213D01*
X109323662Y-96304853D01*
X109251174Y-96328334D01*
X109208283Y-96376685D01*
X109207087Y-96391628D01*
X104109306Y-96391628D01*
X104092722Y-96316462D01*
X104005642Y-96063046D01*
X103936190Y-95913858D01*
X104968952Y-95913858D01*
X105047962Y-95992869D01*
X105060744Y-96004362D01*
X105160940Y-96062092D01*
X105283142Y-96100437D01*
X105377937Y-96113843D01*
X105423023Y-96104533D01*
X105427107Y-96066651D01*
X105421926Y-96037388D01*
X105411913Y-95956362D01*
X105384040Y-95906620D01*
X105314208Y-95846358D01*
X105259283Y-95816392D01*
X106941416Y-95816392D01*
X106976841Y-95956990D01*
X107046518Y-96066651D01*
X107058034Y-96084777D01*
X107186287Y-96213430D01*
X107307950Y-96294134D01*
X107477766Y-96337213D01*
X107644559Y-96311053D01*
X107793467Y-96218735D01*
X107909631Y-96063345D01*
X107955022Y-95953557D01*
X107981864Y-95789435D01*
X108829132Y-95789435D01*
X108835027Y-95851820D01*
X108838916Y-95860164D01*
X108884503Y-95898529D01*
X108938714Y-95904509D01*
X108964923Y-95872323D01*
X108964425Y-95866171D01*
X108940074Y-95825174D01*
X109824615Y-95825174D01*
X109843974Y-95872323D01*
X109849517Y-95885824D01*
X109922483Y-95940480D01*
X110010231Y-95954775D01*
X110080822Y-95931406D01*
X110088592Y-95886504D01*
X110025651Y-95814037D01*
X110003099Y-95797487D01*
X109925445Y-95773148D01*
X109855199Y-95782973D01*
X109824615Y-95825174D01*
X108940074Y-95825174D01*
X108933872Y-95814733D01*
X108880098Y-95775321D01*
X108837020Y-95774006D01*
X108834010Y-95779893D01*
X108829132Y-95789435D01*
X107981864Y-95789435D01*
X107983425Y-95779893D01*
X107975887Y-95703550D01*
X109043318Y-95703550D01*
X109070856Y-95711231D01*
X109105746Y-95697710D01*
X109165292Y-95642846D01*
X109191385Y-95608638D01*
X109193913Y-95595034D01*
X109140769Y-95631789D01*
X109087046Y-95670990D01*
X109046333Y-95700173D01*
X109043318Y-95703550D01*
X107975887Y-95703550D01*
X107963713Y-95580243D01*
X107929010Y-95456445D01*
X111005272Y-95456445D01*
X111009949Y-95502821D01*
X111021702Y-95508934D01*
X111036000Y-95476769D01*
X111033180Y-95456082D01*
X111009949Y-95450718D01*
X111005272Y-95456445D01*
X107929010Y-95456445D01*
X107901198Y-95357232D01*
X108535077Y-95357232D01*
X108539111Y-95378875D01*
X108578607Y-95418482D01*
X108627319Y-95410579D01*
X108637928Y-95398412D01*
X108647585Y-95344460D01*
X108593692Y-95320462D01*
X108566762Y-95324599D01*
X108535077Y-95357232D01*
X107901198Y-95357232D01*
X107895548Y-95337075D01*
X107793280Y-95059702D01*
X107743146Y-94949231D01*
X108339692Y-94949231D01*
X108359231Y-94968769D01*
X108378769Y-94949231D01*
X108359231Y-94929692D01*
X108339692Y-94949231D01*
X107743146Y-94949231D01*
X107691364Y-94835127D01*
X107595639Y-94682891D01*
X107504381Y-94600291D01*
X107415866Y-94584621D01*
X107410568Y-94585729D01*
X107373056Y-94601452D01*
X107336702Y-94637549D01*
X107295880Y-94704615D01*
X107244963Y-94813246D01*
X107178324Y-94974037D01*
X107090335Y-95197583D01*
X107002699Y-95442054D01*
X106950466Y-95649305D01*
X106946053Y-95730769D01*
X106941416Y-95816392D01*
X105259283Y-95816392D01*
X105246301Y-95809309D01*
X105184242Y-95808994D01*
X105094223Y-95849078D01*
X104968952Y-95913858D01*
X103936190Y-95913858D01*
X103886340Y-95806776D01*
X103843523Y-95730769D01*
X105096308Y-95730769D01*
X105115846Y-95750308D01*
X105135384Y-95730769D01*
X105115846Y-95711231D01*
X105096308Y-95730769D01*
X103843523Y-95730769D01*
X103730550Y-95530223D01*
X103610253Y-95329676D01*
X103908474Y-95188051D01*
X104206696Y-95046427D01*
X104410175Y-95162846D01*
X104421700Y-95169386D01*
X104703316Y-95293420D01*
X104980732Y-95343252D01*
X105265572Y-95321030D01*
X105467341Y-95268482D01*
X105777653Y-95127321D01*
X106044646Y-94923106D01*
X106266445Y-94658282D01*
X106441178Y-94335293D01*
X106566973Y-93956584D01*
X106641956Y-93524598D01*
X106646401Y-93484093D01*
X106665580Y-93359827D01*
X106669883Y-93348518D01*
X108289526Y-93348518D01*
X108295852Y-93690638D01*
X108355660Y-94011385D01*
X108398753Y-94141002D01*
X108533192Y-94428136D01*
X108709308Y-94695796D01*
X108915043Y-94929380D01*
X108939015Y-94949231D01*
X109138337Y-95114289D01*
X109367128Y-95235920D01*
X109684469Y-95320893D01*
X109990536Y-95331908D01*
X110278733Y-95266881D01*
X110548404Y-95125960D01*
X110594602Y-95086000D01*
X111387692Y-95086000D01*
X111394305Y-95103977D01*
X111446308Y-95125077D01*
X111473272Y-95120668D01*
X111504923Y-95086000D01*
X111498310Y-95068024D01*
X111446308Y-95046923D01*
X111419343Y-95051332D01*
X111387692Y-95086000D01*
X110594602Y-95086000D01*
X110798895Y-94909294D01*
X110834034Y-94871397D01*
X111006082Y-94651096D01*
X111063897Y-94538795D01*
X111525919Y-94538795D01*
X111531238Y-94575409D01*
X111562016Y-94541387D01*
X111562190Y-94541110D01*
X111615391Y-94517943D01*
X111706355Y-94520450D01*
X111767175Y-94524340D01*
X111810018Y-94501109D01*
X111790193Y-94455543D01*
X111707549Y-94402657D01*
X111656053Y-94364319D01*
X111619516Y-94265888D01*
X111613990Y-94236502D01*
X111595080Y-94263804D01*
X111589257Y-94282617D01*
X111564356Y-94363077D01*
X111554361Y-94402154D01*
X111546016Y-94434787D01*
X111525919Y-94538795D01*
X111063897Y-94538795D01*
X111126267Y-94417646D01*
X111131013Y-94402154D01*
X111426769Y-94402154D01*
X111446308Y-94421692D01*
X111465846Y-94402154D01*
X111446308Y-94382616D01*
X111426769Y-94402154D01*
X111131013Y-94402154D01*
X111160232Y-94306768D01*
X111426769Y-94306768D01*
X111427888Y-94315492D01*
X111465846Y-94343539D01*
X111484521Y-94336083D01*
X111504923Y-94282617D01*
X111499300Y-94254705D01*
X111465846Y-94245846D01*
X111455174Y-94253845D01*
X111426769Y-94306768D01*
X111160232Y-94306768D01*
X111189259Y-94212010D01*
X111863527Y-94212010D01*
X111895692Y-94226308D01*
X111916379Y-94223488D01*
X111921743Y-94200257D01*
X111916016Y-94195580D01*
X111869641Y-94200257D01*
X111863527Y-94212010D01*
X111189259Y-94212010D01*
X111211435Y-94139615D01*
X111221708Y-94089539D01*
X111622154Y-94089539D01*
X111641692Y-94109077D01*
X111661231Y-94089539D01*
X111641692Y-94070000D01*
X111622154Y-94089539D01*
X111221708Y-94089539D01*
X111236840Y-94015781D01*
X111268274Y-93622436D01*
X111248416Y-93440765D01*
X111592388Y-93440765D01*
X111593543Y-93527341D01*
X111600449Y-93562000D01*
X111623284Y-93530601D01*
X111639293Y-93454594D01*
X111643456Y-93368447D01*
X111636073Y-93330083D01*
X112335119Y-93330083D01*
X112345077Y-93366616D01*
X112346348Y-93368447D01*
X112353105Y-93378183D01*
X112388766Y-93405692D01*
X112394111Y-93403148D01*
X112384154Y-93366616D01*
X112376125Y-93355048D01*
X112340464Y-93327539D01*
X112335119Y-93330083D01*
X111636073Y-93330083D01*
X111631567Y-93306669D01*
X111622754Y-93294595D01*
X111603445Y-93311743D01*
X111593445Y-93405839D01*
X111592388Y-93440765D01*
X111248416Y-93440765D01*
X111226268Y-93238152D01*
X111113360Y-92872129D01*
X111047578Y-92749266D01*
X111234339Y-92749266D01*
X111254554Y-92819874D01*
X111273800Y-92860489D01*
X111298896Y-92876212D01*
X111337007Y-92823724D01*
X111344618Y-92811158D01*
X111354330Y-92780462D01*
X111973846Y-92780462D01*
X111980459Y-92798438D01*
X112032461Y-92819539D01*
X112059426Y-92815130D01*
X112073239Y-92800000D01*
X112130154Y-92800000D01*
X112149692Y-92819539D01*
X112169231Y-92800000D01*
X112149692Y-92780462D01*
X112130154Y-92800000D01*
X112073239Y-92800000D01*
X112091077Y-92780462D01*
X112084464Y-92762485D01*
X112032461Y-92741385D01*
X112005497Y-92745793D01*
X111996928Y-92755178D01*
X111973846Y-92780462D01*
X111354330Y-92780462D01*
X111362329Y-92755178D01*
X111321645Y-92724402D01*
X111287800Y-92715152D01*
X111239191Y-92720552D01*
X111234339Y-92749266D01*
X111047578Y-92749266D01*
X111022436Y-92702308D01*
X111524461Y-92702308D01*
X111532460Y-92712980D01*
X111585383Y-92741385D01*
X111594107Y-92740266D01*
X111622154Y-92702308D01*
X111614698Y-92683633D01*
X111561232Y-92663231D01*
X111533320Y-92668854D01*
X111524461Y-92702308D01*
X111022436Y-92702308D01*
X110932089Y-92533565D01*
X110684993Y-92231657D01*
X110677706Y-92224378D01*
X110611987Y-92171070D01*
X111991843Y-92171070D01*
X111992327Y-92231673D01*
X112001733Y-92244968D01*
X112061286Y-92269079D01*
X112140008Y-92217948D01*
X112193903Y-92187943D01*
X112299107Y-92183426D01*
X112308977Y-92185221D01*
X112382642Y-92184419D01*
X112403692Y-92141623D01*
X112398338Y-92109224D01*
X112348754Y-92048474D01*
X112273740Y-92027595D01*
X112206758Y-92059845D01*
X112206150Y-92060138D01*
X112169905Y-92090225D01*
X112107212Y-92100717D01*
X112098278Y-92098160D01*
X112036566Y-92115844D01*
X111991843Y-92171070D01*
X110611987Y-92171070D01*
X110473766Y-92058953D01*
X111525138Y-92058953D01*
X111565737Y-92092052D01*
X111615003Y-92109426D01*
X111653813Y-92107398D01*
X111661231Y-92059845D01*
X111652321Y-92012725D01*
X111607572Y-91979842D01*
X111547430Y-92014328D01*
X111525138Y-92058953D01*
X110473766Y-92058953D01*
X110415269Y-92011503D01*
X110133627Y-91868471D01*
X109841955Y-91794431D01*
X109549428Y-91788532D01*
X109265221Y-91849924D01*
X108998508Y-91977754D01*
X108758464Y-92171171D01*
X108554265Y-92429325D01*
X108426250Y-92688402D01*
X108333916Y-93007087D01*
X108289526Y-93348518D01*
X106669883Y-93348518D01*
X106698620Y-93272993D01*
X106760861Y-93194374D01*
X106867644Y-93094752D01*
X107022807Y-92951187D01*
X107257380Y-92721409D01*
X107511927Y-92460699D01*
X107770841Y-92185703D01*
X108018512Y-91913069D01*
X108239332Y-91659447D01*
X108293005Y-91593856D01*
X111160143Y-91593856D01*
X111192308Y-91608154D01*
X111212995Y-91605334D01*
X111218359Y-91582103D01*
X111212631Y-91577426D01*
X111166256Y-91582103D01*
X111160143Y-91593856D01*
X108293005Y-91593856D01*
X108417692Y-91441483D01*
X108433677Y-91421294D01*
X108517352Y-91325474D01*
X108580024Y-91269800D01*
X108609167Y-91265769D01*
X108663637Y-91339207D01*
X108759769Y-91373094D01*
X108786719Y-91353369D01*
X109012349Y-91353369D01*
X109017026Y-91399744D01*
X109028779Y-91405857D01*
X109043077Y-91373692D01*
X109040257Y-91353005D01*
X109017026Y-91347641D01*
X109012349Y-91353369D01*
X108786719Y-91353369D01*
X108797256Y-91345657D01*
X108807277Y-91277535D01*
X108789484Y-91200662D01*
X108745849Y-91147066D01*
X108734590Y-91138309D01*
X108727149Y-91107794D01*
X108746970Y-91053602D01*
X108799352Y-90966322D01*
X108839922Y-90907976D01*
X111153231Y-90907976D01*
X111153298Y-90909337D01*
X111183052Y-90915503D01*
X111250621Y-90881835D01*
X111320094Y-90850133D01*
X111397434Y-90841482D01*
X111446826Y-90861509D01*
X111444832Y-90907157D01*
X111429171Y-90922912D01*
X111367058Y-90929295D01*
X111339037Y-90925482D01*
X111275904Y-90956826D01*
X111264919Y-90978149D01*
X111293967Y-90998422D01*
X111390278Y-91004238D01*
X111422866Y-91004107D01*
X111509320Y-91002118D01*
X111544000Y-90998494D01*
X111541722Y-90990436D01*
X111521405Y-90929883D01*
X111486875Y-90830840D01*
X111473998Y-90790748D01*
X111450156Y-90678640D01*
X111450749Y-90601235D01*
X111458699Y-90574925D01*
X111459827Y-90555323D01*
X111427778Y-90601923D01*
X111376724Y-90645437D01*
X111283501Y-90670308D01*
X111256939Y-90671023D01*
X111203188Y-90690267D01*
X111203620Y-90748423D01*
X111208856Y-90797880D01*
X111188639Y-90848421D01*
X111181468Y-90853635D01*
X111153231Y-90907976D01*
X108839922Y-90907976D01*
X108889592Y-90836544D01*
X109022991Y-90654858D01*
X109165766Y-90457691D01*
X109238461Y-90457691D01*
X109238842Y-90463154D01*
X109261462Y-90471759D01*
X109300808Y-90429809D01*
X109310316Y-90407971D01*
X109283576Y-90412576D01*
X109266217Y-90424639D01*
X109238461Y-90457691D01*
X109165766Y-90457691D01*
X109172730Y-90448074D01*
X109330844Y-90220923D01*
X109394769Y-90220923D01*
X109414308Y-90240462D01*
X109433846Y-90220923D01*
X109414308Y-90201385D01*
X109394769Y-90220923D01*
X109330844Y-90220923D01*
X109339846Y-90207991D01*
X109410978Y-90102162D01*
X110832772Y-90102162D01*
X110838173Y-90136419D01*
X110857179Y-90162958D01*
X110873006Y-90220923D01*
X110879692Y-90245415D01*
X110880330Y-90252596D01*
X110920172Y-90315499D01*
X111002927Y-90374369D01*
X111040494Y-90392495D01*
X111080663Y-90407971D01*
X111137847Y-90430003D01*
X111179391Y-90427617D01*
X111159651Y-90384967D01*
X111139967Y-90345243D01*
X111137199Y-90257967D01*
X111142934Y-90226978D01*
X111122279Y-90129508D01*
X111045260Y-90072675D01*
X110925930Y-90069045D01*
X110898675Y-90075015D01*
X110832772Y-90102162D01*
X109410978Y-90102162D01*
X109499891Y-89969880D01*
X109577125Y-89849692D01*
X110508461Y-89849692D01*
X110516482Y-89861387D01*
X110549845Y-89888769D01*
X110553744Y-89887753D01*
X110567077Y-89849692D01*
X110565487Y-89838982D01*
X110525694Y-89810616D01*
X110511560Y-89813684D01*
X110508461Y-89849692D01*
X109577125Y-89849692D01*
X109632436Y-89763619D01*
X109651505Y-89732929D01*
X109751130Y-89573466D01*
X109834399Y-89441596D01*
X109893077Y-89350288D01*
X109918927Y-89312509D01*
X109931337Y-89310529D01*
X110000298Y-89333420D01*
X110115025Y-89387857D01*
X110261881Y-89466151D01*
X110427225Y-89560618D01*
X110597420Y-89663570D01*
X110758826Y-89767321D01*
X110877012Y-89849692D01*
G36*
X110877012Y-89849692D02*
G01*
X110897805Y-89864184D01*
X111063713Y-89993506D01*
X111367502Y-90264038D01*
X111526486Y-90427617D01*
X111659898Y-90564886D01*
X111926372Y-90879540D01*
X112012560Y-90998494D01*
X112152394Y-91191489D01*
X112258854Y-91373692D01*
X112323435Y-91484222D01*
X112362592Y-91567621D01*
X112368740Y-91582103D01*
X112437540Y-91744166D01*
X112517082Y-91947583D01*
X112586982Y-92141623D01*
X112589470Y-92148530D01*
X112596231Y-92168340D01*
X112651462Y-92334945D01*
X112689320Y-92468099D01*
X112713149Y-92590123D01*
X112724218Y-92702308D01*
X112726292Y-92723336D01*
X112728960Y-92800000D01*
X112732094Y-92890061D01*
X112733897Y-93112616D01*
X112734175Y-93192551D01*
X112733148Y-93358718D01*
X112730946Y-93403148D01*
X112726077Y-93501445D01*
X112709304Y-93622436D01*
X112708402Y-93628943D01*
X112675566Y-93749423D01*
X112623009Y-93871096D01*
X112546172Y-94002173D01*
X112484081Y-94089539D01*
X112440498Y-94150865D01*
X112401137Y-94200257D01*
X112301426Y-94325383D01*
X112152262Y-94501109D01*
X112124397Y-94533937D01*
X111904854Y-94784740D01*
X111638237Y-95086000D01*
X111600074Y-95129310D01*
X111419896Y-95344460D01*
X111388953Y-95381409D01*
X111319300Y-95476769D01*
X111232917Y-95595034D01*
X111224467Y-95606603D01*
X111094720Y-95824509D01*
X111065934Y-95886504D01*
X110987819Y-96054744D01*
X110891868Y-96316923D01*
X110885391Y-96336462D01*
X110885169Y-96337134D01*
X110853726Y-96434154D01*
X110835814Y-96489426D01*
X110829238Y-96512308D01*
X110799798Y-96614760D01*
X110774694Y-96730653D01*
X110758073Y-96854621D01*
X110754650Y-96903077D01*
X110748576Y-96989080D01*
X110747510Y-97004183D01*
X110741833Y-97161924D01*
X110740577Y-97196855D01*
X110734846Y-97450154D01*
X110734742Y-97454555D01*
X110734547Y-97462816D01*
X110730086Y-97652134D01*
X110723641Y-97864708D01*
X110716715Y-98041919D01*
X110709875Y-98169506D01*
X110703689Y-98233209D01*
X110701180Y-98239908D01*
X110650952Y-98293960D01*
X110549683Y-98372587D01*
X110412720Y-98466092D01*
X110255408Y-98564777D01*
X110093095Y-98658944D01*
X109941125Y-98738894D01*
X109814846Y-98794929D01*
X109707384Y-98835450D01*
X109707384Y-98363631D01*
X109706798Y-98273900D01*
X109694645Y-98012165D01*
X109663583Y-97817483D01*
X109609414Y-97682162D01*
X109527939Y-97598509D01*
X109414959Y-97558833D01*
X109266276Y-97555442D01*
X109246017Y-97557022D01*
X109145554Y-97575138D01*
X109083231Y-97622308D01*
X109026806Y-97720796D01*
X109015086Y-97746412D01*
X108987995Y-97826294D01*
X108967516Y-97929947D01*
X108951984Y-98070966D01*
X108939738Y-98262948D01*
X108929113Y-98519487D01*
X108906308Y-99164767D01*
X108769538Y-99200513D01*
X108696205Y-99218874D01*
X108551540Y-99253117D01*
X108398308Y-99287715D01*
X108295303Y-99307794D01*
X108132693Y-99331679D01*
X108001516Y-99342278D01*
X107839187Y-99345385D01*
X107825670Y-98806259D01*
X107819280Y-98605201D01*
X107809030Y-98429655D01*
X107794130Y-98306548D01*
X107772803Y-98221996D01*
X107743275Y-98162111D01*
X107684326Y-98093486D01*
X107561678Y-98028460D01*
X107426485Y-98027448D01*
X107296678Y-98088862D01*
X107190188Y-98211112D01*
X107188856Y-98213403D01*
X107155213Y-98282244D01*
X107132653Y-98362184D01*
X107119026Y-98469974D01*
X107112182Y-98622371D01*
X107109970Y-98836128D01*
X107108769Y-99325846D01*
X106952461Y-99335813D01*
X106900532Y-99335478D01*
X106763060Y-99321877D01*
X106589539Y-99294727D01*
X106405384Y-99257659D01*
X106014615Y-99169539D01*
X106013746Y-98524769D01*
X106012984Y-98348940D01*
X106009432Y-98144153D01*
X106001913Y-97995281D01*
X105989221Y-97889039D01*
X105970149Y-97812147D01*
X105943490Y-97751321D01*
X105917393Y-97716698D01*
X108496000Y-97716698D01*
X108496001Y-97717137D01*
X108518500Y-97743136D01*
X108582635Y-97707915D01*
X108684406Y-97613662D01*
X108722725Y-97571935D01*
X108776901Y-97500517D01*
X108788713Y-97462816D01*
X108784324Y-97461213D01*
X108738303Y-97483212D01*
X108664795Y-97538552D01*
X108585464Y-97608441D01*
X108521977Y-97674087D01*
X108496000Y-97716698D01*
X105917393Y-97716698D01*
X105872703Y-97657409D01*
X105746451Y-97576154D01*
X105604291Y-97550735D01*
X105500757Y-97575550D01*
X105466704Y-97583712D01*
X105354171Y-97677648D01*
X105339166Y-97698993D01*
X105309361Y-97756174D01*
X105288674Y-97831003D01*
X105274829Y-97938608D01*
X105265547Y-98094114D01*
X105258550Y-98312648D01*
X105250487Y-98534096D01*
X105237999Y-98705032D01*
X105221285Y-98804905D01*
X105199935Y-98837379D01*
X105198706Y-98837308D01*
X105145375Y-98816936D01*
X105039902Y-98765491D01*
X104896985Y-98690443D01*
X104731324Y-98599261D01*
X104636294Y-98545183D01*
X104472871Y-98446392D01*
X104362893Y-98368199D01*
X104294595Y-98301654D01*
X104256210Y-98237805D01*
X104255519Y-98236126D01*
X104232771Y-98142139D01*
X104217075Y-97986741D01*
X104208065Y-97764427D01*
X104206157Y-97555173D01*
X104831724Y-97555173D01*
X104840548Y-97574457D01*
X104894049Y-97615633D01*
X104952211Y-97600763D01*
X104971895Y-97575550D01*
X104967962Y-97527674D01*
X104897667Y-97508769D01*
X104850986Y-97518302D01*
X104831724Y-97555173D01*
X104206157Y-97555173D01*
X104205377Y-97469692D01*
X105760615Y-97469692D01*
X105761063Y-97478536D01*
X105777848Y-97508769D01*
X105784116Y-97506971D01*
X105819231Y-97469692D01*
X105825337Y-97454555D01*
X105801998Y-97430616D01*
X105790656Y-97432117D01*
X105760615Y-97469692D01*
X104205377Y-97469692D01*
X104203884Y-97299692D01*
X108577339Y-97299692D01*
X108592085Y-97349862D01*
X108612353Y-97369541D01*
X108683921Y-97390296D01*
X108709692Y-97388879D01*
X108723604Y-97374442D01*
X108674699Y-97332084D01*
X108662295Y-97324788D01*
X108917260Y-97324788D01*
X108959347Y-97374442D01*
X108981611Y-97400709D01*
X109012435Y-97419378D01*
X109050436Y-97422140D01*
X109102309Y-97389648D01*
X109189615Y-97312790D01*
X109275988Y-97225720D01*
X109309308Y-97161924D01*
X109275197Y-97127993D01*
X109173154Y-97118000D01*
X109081994Y-97128064D01*
X108977191Y-97174090D01*
X108942806Y-97215692D01*
X108919033Y-97244456D01*
X108917260Y-97324788D01*
X108662295Y-97324788D01*
X108613785Y-97296255D01*
X108577339Y-97299692D01*
X104203884Y-97299692D01*
X104203306Y-97233887D01*
X104202472Y-97215692D01*
X105721538Y-97215692D01*
X105741077Y-97235231D01*
X105760615Y-97215692D01*
X105741077Y-97196154D01*
X105721538Y-97215692D01*
X104202472Y-97215692D01*
X104187287Y-96884453D01*
X104182447Y-96843484D01*
X104945337Y-96843484D01*
X104954512Y-96898568D01*
X105018154Y-96922616D01*
X105063579Y-96929943D01*
X105096308Y-96961692D01*
X105097443Y-96971033D01*
X105135384Y-97000769D01*
X105152640Y-97000351D01*
X105170631Y-96989080D01*
X105163841Y-96946292D01*
X105149313Y-96903077D01*
X109629231Y-96903077D01*
X109648769Y-96922616D01*
X109668308Y-96903077D01*
X109648769Y-96883539D01*
X109629231Y-96903077D01*
X105149313Y-96903077D01*
X105131759Y-96850858D01*
X105106412Y-96787913D01*
X105069575Y-96751830D01*
X105014528Y-96768248D01*
X104991230Y-96782955D01*
X104945337Y-96843484D01*
X104182447Y-96843484D01*
X104151848Y-96584454D01*
X104135931Y-96512308D01*
X105135384Y-96512308D01*
X105154923Y-96531846D01*
X105174461Y-96512308D01*
X110137231Y-96512308D01*
X110156769Y-96531846D01*
X110176308Y-96512308D01*
X110156769Y-96492769D01*
X110137231Y-96512308D01*
X105174461Y-96512308D01*
X105154923Y-96492769D01*
X105135384Y-96512308D01*
X104135931Y-96512308D01*
X104127818Y-96475537D01*
X108613231Y-96475537D01*
X108614247Y-96479437D01*
X108652308Y-96492769D01*
X108663018Y-96491179D01*
X108691384Y-96451386D01*
X108688316Y-96437252D01*
X108652308Y-96434154D01*
X108640613Y-96442174D01*
X108613231Y-96475537D01*
X104127818Y-96475537D01*
X104109306Y-96391628D01*
X109207087Y-96391628D01*
X109236256Y-96435929D01*
X109299157Y-96447074D01*
X109339544Y-96434154D01*
X110020000Y-96434154D01*
X110037232Y-96451386D01*
X110039538Y-96453692D01*
X110059077Y-96434154D01*
X110039538Y-96414616D01*
X110020000Y-96434154D01*
X109339544Y-96434154D01*
X109365977Y-96425698D01*
X109406902Y-96372440D01*
X109413196Y-96341216D01*
X109401887Y-96316138D01*
X110184656Y-96316138D01*
X110187186Y-96341216D01*
X110189333Y-96362513D01*
X110201087Y-96368626D01*
X110215384Y-96336462D01*
X110212564Y-96315774D01*
X110189333Y-96310410D01*
X110184656Y-96316138D01*
X109401887Y-96316138D01*
X109396960Y-96305213D01*
X109323662Y-96304853D01*
X109251174Y-96328334D01*
X109208283Y-96376685D01*
X109207087Y-96391628D01*
X104109306Y-96391628D01*
X104092722Y-96316462D01*
X104005642Y-96063046D01*
X103936190Y-95913858D01*
X104968952Y-95913858D01*
X105047962Y-95992869D01*
X105060744Y-96004362D01*
X105160940Y-96062092D01*
X105283142Y-96100437D01*
X105377937Y-96113843D01*
X105423023Y-96104533D01*
X105427107Y-96066651D01*
X105421926Y-96037388D01*
X105411913Y-95956362D01*
X105384040Y-95906620D01*
X105314208Y-95846358D01*
X105259283Y-95816392D01*
X106941416Y-95816392D01*
X106976841Y-95956990D01*
X107046518Y-96066651D01*
X107058034Y-96084777D01*
X107186287Y-96213430D01*
X107307950Y-96294134D01*
X107477766Y-96337213D01*
X107644559Y-96311053D01*
X107793467Y-96218735D01*
X107909631Y-96063345D01*
X107955022Y-95953557D01*
X107981864Y-95789435D01*
X108829132Y-95789435D01*
X108835027Y-95851820D01*
X108838916Y-95860164D01*
X108884503Y-95898529D01*
X108938714Y-95904509D01*
X108964923Y-95872323D01*
X108964425Y-95866171D01*
X108940074Y-95825174D01*
X109824615Y-95825174D01*
X109843974Y-95872323D01*
X109849517Y-95885824D01*
X109922483Y-95940480D01*
X110010231Y-95954775D01*
X110080822Y-95931406D01*
X110088592Y-95886504D01*
X110025651Y-95814037D01*
X110003099Y-95797487D01*
X109925445Y-95773148D01*
X109855199Y-95782973D01*
X109824615Y-95825174D01*
X108940074Y-95825174D01*
X108933872Y-95814733D01*
X108880098Y-95775321D01*
X108837020Y-95774006D01*
X108834010Y-95779893D01*
X108829132Y-95789435D01*
X107981864Y-95789435D01*
X107983425Y-95779893D01*
X107975887Y-95703550D01*
X109043318Y-95703550D01*
X109070856Y-95711231D01*
X109105746Y-95697710D01*
X109165292Y-95642846D01*
X109191385Y-95608638D01*
X109193913Y-95595034D01*
X109140769Y-95631789D01*
X109087046Y-95670990D01*
X109046333Y-95700173D01*
X109043318Y-95703550D01*
X107975887Y-95703550D01*
X107963713Y-95580243D01*
X107929010Y-95456445D01*
X111005272Y-95456445D01*
X111009949Y-95502821D01*
X111021702Y-95508934D01*
X111036000Y-95476769D01*
X111033180Y-95456082D01*
X111009949Y-95450718D01*
X111005272Y-95456445D01*
X107929010Y-95456445D01*
X107901198Y-95357232D01*
X108535077Y-95357232D01*
X108539111Y-95378875D01*
X108578607Y-95418482D01*
X108627319Y-95410579D01*
X108637928Y-95398412D01*
X108647585Y-95344460D01*
X108593692Y-95320462D01*
X108566762Y-95324599D01*
X108535077Y-95357232D01*
X107901198Y-95357232D01*
X107895548Y-95337075D01*
X107793280Y-95059702D01*
X107743146Y-94949231D01*
X108339692Y-94949231D01*
X108359231Y-94968769D01*
X108378769Y-94949231D01*
X108359231Y-94929692D01*
X108339692Y-94949231D01*
X107743146Y-94949231D01*
X107691364Y-94835127D01*
X107595639Y-94682891D01*
X107504381Y-94600291D01*
X107415866Y-94584621D01*
X107410568Y-94585729D01*
X107373056Y-94601452D01*
X107336702Y-94637549D01*
X107295880Y-94704615D01*
X107244963Y-94813246D01*
X107178324Y-94974037D01*
X107090335Y-95197583D01*
X107002699Y-95442054D01*
X106950466Y-95649305D01*
X106946053Y-95730769D01*
X106941416Y-95816392D01*
X105259283Y-95816392D01*
X105246301Y-95809309D01*
X105184242Y-95808994D01*
X105094223Y-95849078D01*
X104968952Y-95913858D01*
X103936190Y-95913858D01*
X103886340Y-95806776D01*
X103843523Y-95730769D01*
X105096308Y-95730769D01*
X105115846Y-95750308D01*
X105135384Y-95730769D01*
X105115846Y-95711231D01*
X105096308Y-95730769D01*
X103843523Y-95730769D01*
X103730550Y-95530223D01*
X103610253Y-95329676D01*
X103908474Y-95188051D01*
X104206696Y-95046427D01*
X104410175Y-95162846D01*
X104421700Y-95169386D01*
X104703316Y-95293420D01*
X104980732Y-95343252D01*
X105265572Y-95321030D01*
X105467341Y-95268482D01*
X105777653Y-95127321D01*
X106044646Y-94923106D01*
X106266445Y-94658282D01*
X106441178Y-94335293D01*
X106566973Y-93956584D01*
X106641956Y-93524598D01*
X106646401Y-93484093D01*
X106665580Y-93359827D01*
X106669883Y-93348518D01*
X108289526Y-93348518D01*
X108295852Y-93690638D01*
X108355660Y-94011385D01*
X108398753Y-94141002D01*
X108533192Y-94428136D01*
X108709308Y-94695796D01*
X108915043Y-94929380D01*
X108939015Y-94949231D01*
X109138337Y-95114289D01*
X109367128Y-95235920D01*
X109684469Y-95320893D01*
X109990536Y-95331908D01*
X110278733Y-95266881D01*
X110548404Y-95125960D01*
X110594602Y-95086000D01*
X111387692Y-95086000D01*
X111394305Y-95103977D01*
X111446308Y-95125077D01*
X111473272Y-95120668D01*
X111504923Y-95086000D01*
X111498310Y-95068024D01*
X111446308Y-95046923D01*
X111419343Y-95051332D01*
X111387692Y-95086000D01*
X110594602Y-95086000D01*
X110798895Y-94909294D01*
X110834034Y-94871397D01*
X111006082Y-94651096D01*
X111063897Y-94538795D01*
X111525919Y-94538795D01*
X111531238Y-94575409D01*
X111562016Y-94541387D01*
X111562190Y-94541110D01*
X111615391Y-94517943D01*
X111706355Y-94520450D01*
X111767175Y-94524340D01*
X111810018Y-94501109D01*
X111790193Y-94455543D01*
X111707549Y-94402657D01*
X111656053Y-94364319D01*
X111619516Y-94265888D01*
X111613990Y-94236502D01*
X111595080Y-94263804D01*
X111589257Y-94282617D01*
X111564356Y-94363077D01*
X111554361Y-94402154D01*
X111546016Y-94434787D01*
X111525919Y-94538795D01*
X111063897Y-94538795D01*
X111126267Y-94417646D01*
X111131013Y-94402154D01*
X111426769Y-94402154D01*
X111446308Y-94421692D01*
X111465846Y-94402154D01*
X111446308Y-94382616D01*
X111426769Y-94402154D01*
X111131013Y-94402154D01*
X111160232Y-94306768D01*
X111426769Y-94306768D01*
X111427888Y-94315492D01*
X111465846Y-94343539D01*
X111484521Y-94336083D01*
X111504923Y-94282617D01*
X111499300Y-94254705D01*
X111465846Y-94245846D01*
X111455174Y-94253845D01*
X111426769Y-94306768D01*
X111160232Y-94306768D01*
X111189259Y-94212010D01*
X111863527Y-94212010D01*
X111895692Y-94226308D01*
X111916379Y-94223488D01*
X111921743Y-94200257D01*
X111916016Y-94195580D01*
X111869641Y-94200257D01*
X111863527Y-94212010D01*
X111189259Y-94212010D01*
X111211435Y-94139615D01*
X111221708Y-94089539D01*
X111622154Y-94089539D01*
X111641692Y-94109077D01*
X111661231Y-94089539D01*
X111641692Y-94070000D01*
X111622154Y-94089539D01*
X111221708Y-94089539D01*
X111236840Y-94015781D01*
X111268274Y-93622436D01*
X111248416Y-93440765D01*
X111592388Y-93440765D01*
X111593543Y-93527341D01*
X111600449Y-93562000D01*
X111623284Y-93530601D01*
X111639293Y-93454594D01*
X111643456Y-93368447D01*
X111636073Y-93330083D01*
X112335119Y-93330083D01*
X112345077Y-93366616D01*
X112346348Y-93368447D01*
X112353105Y-93378183D01*
X112388766Y-93405692D01*
X112394111Y-93403148D01*
X112384154Y-93366616D01*
X112376125Y-93355048D01*
X112340464Y-93327539D01*
X112335119Y-93330083D01*
X111636073Y-93330083D01*
X111631567Y-93306669D01*
X111622754Y-93294595D01*
X111603445Y-93311743D01*
X111593445Y-93405839D01*
X111592388Y-93440765D01*
X111248416Y-93440765D01*
X111226268Y-93238152D01*
X111113360Y-92872129D01*
X111047578Y-92749266D01*
X111234339Y-92749266D01*
X111254554Y-92819874D01*
X111273800Y-92860489D01*
X111298896Y-92876212D01*
X111337007Y-92823724D01*
X111344618Y-92811158D01*
X111354330Y-92780462D01*
X111973846Y-92780462D01*
X111980459Y-92798438D01*
X112032461Y-92819539D01*
X112059426Y-92815130D01*
X112073239Y-92800000D01*
X112130154Y-92800000D01*
X112149692Y-92819539D01*
X112169231Y-92800000D01*
X112149692Y-92780462D01*
X112130154Y-92800000D01*
X112073239Y-92800000D01*
X112091077Y-92780462D01*
X112084464Y-92762485D01*
X112032461Y-92741385D01*
X112005497Y-92745793D01*
X111996928Y-92755178D01*
X111973846Y-92780462D01*
X111354330Y-92780462D01*
X111362329Y-92755178D01*
X111321645Y-92724402D01*
X111287800Y-92715152D01*
X111239191Y-92720552D01*
X111234339Y-92749266D01*
X111047578Y-92749266D01*
X111022436Y-92702308D01*
X111524461Y-92702308D01*
X111532460Y-92712980D01*
X111585383Y-92741385D01*
X111594107Y-92740266D01*
X111622154Y-92702308D01*
X111614698Y-92683633D01*
X111561232Y-92663231D01*
X111533320Y-92668854D01*
X111524461Y-92702308D01*
X111022436Y-92702308D01*
X110932089Y-92533565D01*
X110684993Y-92231657D01*
X110677706Y-92224378D01*
X110611987Y-92171070D01*
X111991843Y-92171070D01*
X111992327Y-92231673D01*
X112001733Y-92244968D01*
X112061286Y-92269079D01*
X112140008Y-92217948D01*
X112193903Y-92187943D01*
X112299107Y-92183426D01*
X112308977Y-92185221D01*
X112382642Y-92184419D01*
X112403692Y-92141623D01*
X112398338Y-92109224D01*
X112348754Y-92048474D01*
X112273740Y-92027595D01*
X112206758Y-92059845D01*
X112206150Y-92060138D01*
X112169905Y-92090225D01*
X112107212Y-92100717D01*
X112098278Y-92098160D01*
X112036566Y-92115844D01*
X111991843Y-92171070D01*
X110611987Y-92171070D01*
X110473766Y-92058953D01*
X111525138Y-92058953D01*
X111565737Y-92092052D01*
X111615003Y-92109426D01*
X111653813Y-92107398D01*
X111661231Y-92059845D01*
X111652321Y-92012725D01*
X111607572Y-91979842D01*
X111547430Y-92014328D01*
X111525138Y-92058953D01*
X110473766Y-92058953D01*
X110415269Y-92011503D01*
X110133627Y-91868471D01*
X109841955Y-91794431D01*
X109549428Y-91788532D01*
X109265221Y-91849924D01*
X108998508Y-91977754D01*
X108758464Y-92171171D01*
X108554265Y-92429325D01*
X108426250Y-92688402D01*
X108333916Y-93007087D01*
X108289526Y-93348518D01*
X106669883Y-93348518D01*
X106698620Y-93272993D01*
X106760861Y-93194374D01*
X106867644Y-93094752D01*
X107022807Y-92951187D01*
X107257380Y-92721409D01*
X107511927Y-92460699D01*
X107770841Y-92185703D01*
X108018512Y-91913069D01*
X108239332Y-91659447D01*
X108293005Y-91593856D01*
X111160143Y-91593856D01*
X111192308Y-91608154D01*
X111212995Y-91605334D01*
X111218359Y-91582103D01*
X111212631Y-91577426D01*
X111166256Y-91582103D01*
X111160143Y-91593856D01*
X108293005Y-91593856D01*
X108417692Y-91441483D01*
X108433677Y-91421294D01*
X108517352Y-91325474D01*
X108580024Y-91269800D01*
X108609167Y-91265769D01*
X108663637Y-91339207D01*
X108759769Y-91373094D01*
X108786719Y-91353369D01*
X109012349Y-91353369D01*
X109017026Y-91399744D01*
X109028779Y-91405857D01*
X109043077Y-91373692D01*
X109040257Y-91353005D01*
X109017026Y-91347641D01*
X109012349Y-91353369D01*
X108786719Y-91353369D01*
X108797256Y-91345657D01*
X108807277Y-91277535D01*
X108789484Y-91200662D01*
X108745849Y-91147066D01*
X108734590Y-91138309D01*
X108727149Y-91107794D01*
X108746970Y-91053602D01*
X108799352Y-90966322D01*
X108839922Y-90907976D01*
X111153231Y-90907976D01*
X111153298Y-90909337D01*
X111183052Y-90915503D01*
X111250621Y-90881835D01*
X111320094Y-90850133D01*
X111397434Y-90841482D01*
X111446826Y-90861509D01*
X111444832Y-90907157D01*
X111429171Y-90922912D01*
X111367058Y-90929295D01*
X111339037Y-90925482D01*
X111275904Y-90956826D01*
X111264919Y-90978149D01*
X111293967Y-90998422D01*
X111390278Y-91004238D01*
X111422866Y-91004107D01*
X111509320Y-91002118D01*
X111544000Y-90998494D01*
X111541722Y-90990436D01*
X111521405Y-90929883D01*
X111486875Y-90830840D01*
X111473998Y-90790748D01*
X111450156Y-90678640D01*
X111450749Y-90601235D01*
X111458699Y-90574925D01*
X111459827Y-90555323D01*
X111427778Y-90601923D01*
X111376724Y-90645437D01*
X111283501Y-90670308D01*
X111256939Y-90671023D01*
X111203188Y-90690267D01*
X111203620Y-90748423D01*
X111208856Y-90797880D01*
X111188639Y-90848421D01*
X111181468Y-90853635D01*
X111153231Y-90907976D01*
X108839922Y-90907976D01*
X108889592Y-90836544D01*
X109022991Y-90654858D01*
X109165766Y-90457691D01*
X109238461Y-90457691D01*
X109238842Y-90463154D01*
X109261462Y-90471759D01*
X109300808Y-90429809D01*
X109310316Y-90407971D01*
X109283576Y-90412576D01*
X109266217Y-90424639D01*
X109238461Y-90457691D01*
X109165766Y-90457691D01*
X109172730Y-90448074D01*
X109330844Y-90220923D01*
X109394769Y-90220923D01*
X109414308Y-90240462D01*
X109433846Y-90220923D01*
X109414308Y-90201385D01*
X109394769Y-90220923D01*
X109330844Y-90220923D01*
X109339846Y-90207991D01*
X109410978Y-90102162D01*
X110832772Y-90102162D01*
X110838173Y-90136419D01*
X110857179Y-90162958D01*
X110873006Y-90220923D01*
X110879692Y-90245415D01*
X110880330Y-90252596D01*
X110920172Y-90315499D01*
X111002927Y-90374369D01*
X111040494Y-90392495D01*
X111080663Y-90407971D01*
X111137847Y-90430003D01*
X111179391Y-90427617D01*
X111159651Y-90384967D01*
X111139967Y-90345243D01*
X111137199Y-90257967D01*
X111142934Y-90226978D01*
X111122279Y-90129508D01*
X111045260Y-90072675D01*
X110925930Y-90069045D01*
X110898675Y-90075015D01*
X110832772Y-90102162D01*
X109410978Y-90102162D01*
X109499891Y-89969880D01*
X109577125Y-89849692D01*
X110508461Y-89849692D01*
X110516482Y-89861387D01*
X110549845Y-89888769D01*
X110553744Y-89887753D01*
X110567077Y-89849692D01*
X110565487Y-89838982D01*
X110525694Y-89810616D01*
X110511560Y-89813684D01*
X110508461Y-89849692D01*
X109577125Y-89849692D01*
X109632436Y-89763619D01*
X109651505Y-89732929D01*
X109751130Y-89573466D01*
X109834399Y-89441596D01*
X109893077Y-89350288D01*
X109918927Y-89312509D01*
X109931337Y-89310529D01*
X110000298Y-89333420D01*
X110115025Y-89387857D01*
X110261881Y-89466151D01*
X110427225Y-89560618D01*
X110597420Y-89663570D01*
X110758826Y-89767321D01*
X110877012Y-89849692D01*
G37*
%TD*%
M02*
