%TF.GenerationSoftware,KiCad,Pcbnew,7.0.1*%
%TF.CreationDate,2023-09-13T18:48:41-05:00*%
%TF.ProjectId,Bsides-STL-Badge,42736964-6573-42d5-9354-4c2d42616467,rev?*%
%TF.SameCoordinates,Original*%
%TF.FileFunction,Copper,L2,Bot*%
%TF.FilePolarity,Positive*%
%FSLAX46Y46*%
G04 Gerber Fmt 4.6, Leading zero omitted, Abs format (unit mm)*
G04 Created by KiCad (PCBNEW 7.0.1) date 2023-09-13 18:48:41*
%MOMM*%
%LPD*%
G01*
G04 APERTURE LIST*
%ADD10C,0.250000*%
%TA.AperFunction,NonConductor*%
%ADD11C,0.250000*%
%TD*%
%TA.AperFunction,EtchedComponent*%
%ADD12C,0.010000*%
%TD*%
%TA.AperFunction,ComponentPad*%
%ADD13C,6.000000*%
%TD*%
G04 APERTURE END LIST*
D10*
%TO.C,G\u002A\u002A\u002A*%
D11*
X90669999Y-131465766D02*
X90083332Y-131465766D01*
X90449999Y-132492433D02*
X90449999Y-131172433D01*
X90449999Y-131172433D02*
X90376666Y-131025766D01*
X90376666Y-131025766D02*
X90229999Y-130952433D01*
X90229999Y-130952433D02*
X90083332Y-130952433D01*
X88909999Y-131465766D02*
X88909999Y-132712433D01*
X88909999Y-132712433D02*
X88983332Y-132859100D01*
X88983332Y-132859100D02*
X89056666Y-132932433D01*
X89056666Y-132932433D02*
X89203332Y-133005766D01*
X89203332Y-133005766D02*
X89423332Y-133005766D01*
X89423332Y-133005766D02*
X89569999Y-132932433D01*
X88909999Y-132419100D02*
X89056666Y-132492433D01*
X89056666Y-132492433D02*
X89349999Y-132492433D01*
X89349999Y-132492433D02*
X89496666Y-132419100D01*
X89496666Y-132419100D02*
X89569999Y-132345766D01*
X89569999Y-132345766D02*
X89643332Y-132199100D01*
X89643332Y-132199100D02*
X89643332Y-131759100D01*
X89643332Y-131759100D02*
X89569999Y-131612433D01*
X89569999Y-131612433D02*
X89496666Y-131539100D01*
X89496666Y-131539100D02*
X89349999Y-131465766D01*
X89349999Y-131465766D02*
X89056666Y-131465766D01*
X89056666Y-131465766D02*
X88909999Y-131539100D01*
D12*
X103150500Y-138509000D02*
X101965167Y-138509000D01*
X101965167Y-137598834D01*
X102325000Y-137598834D01*
X102325000Y-138149167D01*
X102811834Y-138149167D01*
X102811834Y-137387167D01*
X101965167Y-137387167D01*
X101965167Y-137027334D01*
X103150500Y-137027334D01*
X103150500Y-138509000D01*
%TA.AperFunction,EtchedComponent*%
G36*
X103150500Y-138509000D02*
G01*
X101965167Y-138509000D01*
X101965167Y-137598834D01*
X102325000Y-137598834D01*
X102325000Y-138149167D01*
X102811834Y-138149167D01*
X102811834Y-137387167D01*
X101965167Y-137387167D01*
X101965167Y-137027334D01*
X103150500Y-137027334D01*
X103150500Y-138509000D01*
G37*
%TD.AperFunction*%
X100398834Y-137387167D02*
X99573334Y-137387167D01*
X99573334Y-137598834D01*
X100123667Y-137598834D01*
X100123667Y-137937500D01*
X99573334Y-137937500D01*
X99573334Y-138149167D01*
X100398834Y-138149167D01*
X100398834Y-138509000D01*
X99213500Y-138509000D01*
X99213500Y-137027334D01*
X100398834Y-137027334D01*
X100398834Y-137387167D01*
%TA.AperFunction,EtchedComponent*%
G36*
X100398834Y-137387167D02*
G01*
X99573334Y-137387167D01*
X99573334Y-137598834D01*
X100123667Y-137598834D01*
X100123667Y-137937500D01*
X99573334Y-137937500D01*
X99573334Y-138149167D01*
X100398834Y-138149167D01*
X100398834Y-138509000D01*
X99213500Y-138509000D01*
X99213500Y-137027334D01*
X100398834Y-137027334D01*
X100398834Y-137387167D01*
G37*
%TD.AperFunction*%
X98176334Y-137524088D02*
X98674386Y-137027334D01*
X99023000Y-137027334D01*
X99023000Y-137248972D01*
X98764026Y-137508570D01*
X98505052Y-137768167D01*
X99023000Y-138287361D01*
X99023000Y-138509000D01*
X98695528Y-138509000D01*
X98176334Y-137991052D01*
X98176334Y-138509000D01*
X97837667Y-138509000D01*
X97837667Y-137027334D01*
X98176334Y-137027334D01*
X98176334Y-137524088D01*
%TA.AperFunction,EtchedComponent*%
G36*
X98176334Y-137524088D02*
G01*
X98674386Y-137027334D01*
X99023000Y-137027334D01*
X99023000Y-137248972D01*
X98764026Y-137508570D01*
X98505052Y-137768167D01*
X99023000Y-138287361D01*
X99023000Y-138509000D01*
X98695528Y-138509000D01*
X98176334Y-137991052D01*
X98176334Y-138509000D01*
X97837667Y-138509000D01*
X97837667Y-137027334D01*
X98176334Y-137027334D01*
X98176334Y-137524088D01*
G37*
%TD.AperFunction*%
X101785250Y-137376584D02*
X101367209Y-137382323D01*
X100949167Y-137388062D01*
X100949167Y-137598834D01*
X101499500Y-137598834D01*
X101499500Y-137937500D01*
X100949167Y-137937500D01*
X100949167Y-138148272D01*
X101367209Y-138154011D01*
X101785250Y-138159750D01*
X101785250Y-138498417D01*
X100589334Y-138509659D01*
X100589334Y-137027334D01*
X101797546Y-137027334D01*
X101785250Y-137376584D01*
%TA.AperFunction,EtchedComponent*%
G36*
X101785250Y-137376584D02*
G01*
X101367209Y-137382323D01*
X100949167Y-137388062D01*
X100949167Y-137598834D01*
X101499500Y-137598834D01*
X101499500Y-137937500D01*
X100949167Y-137937500D01*
X100949167Y-138148272D01*
X101367209Y-138154011D01*
X101785250Y-138159750D01*
X101785250Y-138498417D01*
X100589334Y-138509659D01*
X100589334Y-137027334D01*
X101797546Y-137027334D01*
X101785250Y-137376584D01*
G37*
%TD.AperFunction*%
X96599417Y-137047151D02*
X97710667Y-137047151D01*
X97710700Y-137341926D01*
X97710850Y-137597301D01*
X97711188Y-137816211D01*
X97711790Y-138001591D01*
X97712728Y-138156375D01*
X97714077Y-138283496D01*
X97715909Y-138385889D01*
X97718298Y-138466489D01*
X97721318Y-138528229D01*
X97725043Y-138574044D01*
X97729545Y-138606867D01*
X97734899Y-138629634D01*
X97741178Y-138645279D01*
X97748455Y-138656734D01*
X97751103Y-138660114D01*
X97768707Y-138679387D01*
X97790025Y-138693161D01*
X97822198Y-138702574D01*
X97872369Y-138708762D01*
X97947677Y-138712866D01*
X98055266Y-138716022D01*
X98109927Y-138717296D01*
X98428316Y-138724509D01*
X98442721Y-138820570D01*
X98448272Y-138888731D01*
X98449748Y-138980894D01*
X98446930Y-139078902D01*
X98446048Y-139094209D01*
X98442909Y-139230764D01*
X98451826Y-139337607D01*
X98472207Y-139410744D01*
X98497594Y-139443106D01*
X98525654Y-139447934D01*
X98590062Y-139452289D01*
X98684835Y-139455979D01*
X98803988Y-139458816D01*
X98941540Y-139460611D01*
X99068894Y-139461176D01*
X99217422Y-139461670D01*
X99352669Y-139462892D01*
X99468647Y-139464726D01*
X99559370Y-139467055D01*
X99618850Y-139469763D01*
X99640394Y-139472283D01*
X99652384Y-139486462D01*
X99659912Y-139521909D01*
X99663427Y-139584485D01*
X99663379Y-139680047D01*
X99661900Y-139752741D01*
X99661060Y-139907169D01*
X99667298Y-140022033D01*
X99680746Y-140099531D01*
X99683067Y-140107084D01*
X99702400Y-140157697D01*
X99726322Y-140184299D01*
X99768795Y-140196868D01*
X99816750Y-140202630D01*
X99858893Y-140204760D01*
X99936708Y-140206599D01*
X100043534Y-140208136D01*
X100172711Y-140209358D01*
X100317578Y-140210255D01*
X100471475Y-140210814D01*
X100627742Y-140211023D01*
X100779718Y-140210870D01*
X100920742Y-140210344D01*
X101044153Y-140209432D01*
X101143293Y-140208122D01*
X101211499Y-140206404D01*
X101234917Y-140205162D01*
X101272299Y-140200157D01*
X101299817Y-140188263D01*
X101319237Y-140163588D01*
X101332325Y-140120242D01*
X101340847Y-140052333D01*
X101346570Y-139953971D01*
X101351260Y-139819264D01*
X101351334Y-139816864D01*
X101361917Y-139472084D01*
X101947565Y-139461500D01*
X102101008Y-139458213D01*
X102240508Y-139454242D01*
X102360494Y-139449825D01*
X102455392Y-139445198D01*
X102519632Y-139440600D01*
X102547640Y-139436268D01*
X102548212Y-139435881D01*
X102566569Y-139395875D01*
X102579812Y-139323831D01*
X102586911Y-139229846D01*
X102586836Y-139124019D01*
X102584523Y-139080000D01*
X102580873Y-138985121D01*
X102581997Y-138892317D01*
X102587647Y-138821463D01*
X102587763Y-138820681D01*
X102602185Y-138724509D01*
X102920573Y-138717296D01*
X103043342Y-138714200D01*
X103130925Y-138710619D01*
X103190462Y-138705416D01*
X103229097Y-138697453D01*
X103253971Y-138685591D01*
X103272224Y-138668693D01*
X103279398Y-138660114D01*
X103286984Y-138649463D01*
X103293556Y-138635626D01*
X103299184Y-138615687D01*
X103303941Y-138586727D01*
X103307897Y-138545829D01*
X103311123Y-138490075D01*
X103313691Y-138416548D01*
X103315672Y-138322330D01*
X103317137Y-138204503D01*
X103318156Y-138060150D01*
X103318803Y-137886353D01*
X103319146Y-137680195D01*
X103319259Y-137438757D01*
X103319211Y-137159123D01*
X103319160Y-137030280D01*
X103319042Y-136730282D01*
X103318846Y-136469740D01*
X103318405Y-136245780D01*
X103317548Y-136055524D01*
X103316106Y-135896097D01*
X103313909Y-135764622D01*
X103310788Y-135658224D01*
X103306574Y-135574026D01*
X103301097Y-135509151D01*
X103294188Y-135460725D01*
X103285678Y-135425871D01*
X103275396Y-135401712D01*
X103263173Y-135385372D01*
X103248841Y-135373976D01*
X103232229Y-135364646D01*
X103220683Y-135358624D01*
X103173636Y-135345781D01*
X103097885Y-135337552D01*
X103006843Y-135334299D01*
X102913926Y-135336379D01*
X102832546Y-135344152D01*
X102812183Y-135347689D01*
X102743742Y-135361377D01*
X102748809Y-135892730D01*
X102750554Y-136074250D01*
X102751702Y-136218233D01*
X102751894Y-136329478D01*
X102750770Y-136412780D01*
X102747974Y-136472936D01*
X102743145Y-136514742D01*
X102735927Y-136542996D01*
X102725960Y-136562495D01*
X102712887Y-136578034D01*
X102696379Y-136594379D01*
X102647487Y-136630298D01*
X102585700Y-136644936D01*
X102546821Y-136646334D01*
X102475840Y-136643367D01*
X102419923Y-136631565D01*
X102377508Y-136606577D01*
X102347037Y-136564050D01*
X102326949Y-136499631D01*
X102315685Y-136408969D01*
X102311686Y-136287712D01*
X102313390Y-136131507D01*
X102316953Y-136004942D01*
X102320587Y-135864280D01*
X102322426Y-135731689D01*
X102322481Y-135615276D01*
X102320762Y-135523151D01*
X102317278Y-135463421D01*
X102316271Y-135455401D01*
X102305010Y-135394826D01*
X102289485Y-135365324D01*
X102261183Y-135355848D01*
X102239037Y-135355167D01*
X102176834Y-135355167D01*
X102176834Y-135927718D01*
X102176494Y-136120901D01*
X102174611Y-136275944D01*
X102169883Y-136397039D01*
X102161010Y-136488379D01*
X102146693Y-136554156D01*
X102125633Y-136598562D01*
X102096529Y-136625790D01*
X102058081Y-136640033D01*
X102008989Y-136645482D01*
X101954033Y-136646334D01*
X101870326Y-136635089D01*
X101804322Y-136596996D01*
X101802305Y-136595278D01*
X101742917Y-136544222D01*
X101736682Y-135949695D01*
X101730447Y-135355167D01*
X101607220Y-135355167D01*
X101600985Y-135946163D01*
X101594750Y-136537160D01*
X101543436Y-136591747D01*
X101502521Y-136626227D01*
X101454050Y-136642205D01*
X101384686Y-136645660D01*
X101324394Y-136643889D01*
X101276023Y-136636608D01*
X101238261Y-136619615D01*
X101209797Y-136588706D01*
X101189320Y-136539677D01*
X101175519Y-136468325D01*
X101167081Y-136370447D01*
X101162697Y-136241839D01*
X101161055Y-136078298D01*
X101160834Y-135928058D01*
X101160834Y-135355167D01*
X101005966Y-135355167D01*
X101018909Y-135908551D01*
X101022861Y-136104765D01*
X101023734Y-136262799D01*
X101020256Y-136386765D01*
X101011155Y-136480779D01*
X100995160Y-136548953D01*
X100971000Y-136595403D01*
X100937401Y-136624242D01*
X100893093Y-136639584D01*
X100836804Y-136645542D01*
X100790846Y-136646334D01*
X100716462Y-136639428D01*
X100663865Y-136614331D01*
X100641288Y-136594379D01*
X100624817Y-136577938D01*
X100611769Y-136562044D01*
X100601794Y-136541947D01*
X100594547Y-136512897D01*
X100589678Y-136470144D01*
X100586839Y-136408939D01*
X100585684Y-136324530D01*
X100585863Y-136212169D01*
X100587028Y-136067105D01*
X100588833Y-135884588D01*
X100588888Y-135879042D01*
X100594065Y-135355167D01*
X100436483Y-135355167D01*
X100441596Y-135889625D01*
X100443353Y-136071631D01*
X100444514Y-136216087D01*
X100444723Y-136327776D01*
X100443625Y-136411482D01*
X100440865Y-136471987D01*
X100436088Y-136514074D01*
X100428936Y-136542526D01*
X100419056Y-136562127D01*
X100406092Y-136577659D01*
X100389687Y-136593905D01*
X100389212Y-136594379D01*
X100340320Y-136630298D01*
X100278534Y-136644936D01*
X100239654Y-136646334D01*
X100174220Y-136644373D01*
X100121679Y-136635752D01*
X100080761Y-136616362D01*
X100050195Y-136582092D01*
X100028711Y-136528834D01*
X100015037Y-136452479D01*
X100007904Y-136348917D01*
X100006040Y-136214038D01*
X100008175Y-136043734D01*
X100011215Y-135907568D01*
X100024603Y-135355167D01*
X99869667Y-135355167D01*
X99869667Y-135928058D01*
X99869330Y-136108808D01*
X99867922Y-136252183D01*
X99864850Y-136363141D01*
X99859519Y-136446638D01*
X99851336Y-136507629D01*
X99839706Y-136551073D01*
X99824036Y-136581924D01*
X99803731Y-136605141D01*
X99786834Y-136619202D01*
X99746100Y-136634948D01*
X99682726Y-136644462D01*
X99653889Y-136645660D01*
X99574168Y-136638241D01*
X99514408Y-136610449D01*
X99495139Y-136595278D01*
X99435750Y-136544222D01*
X99429515Y-135949695D01*
X99423281Y-135355167D01*
X99300053Y-135355167D01*
X99293818Y-135949695D01*
X99287584Y-136544222D01*
X99228195Y-136595278D01*
X99162434Y-136634329D01*
X99079586Y-136646323D01*
X99076468Y-136646334D01*
X99016573Y-136645240D01*
X98968503Y-136639164D01*
X98930958Y-136623914D01*
X98902639Y-136595297D01*
X98882246Y-136549121D01*
X98868478Y-136481192D01*
X98860036Y-136387320D01*
X98855620Y-136263311D01*
X98853931Y-136104973D01*
X98853667Y-135927718D01*
X98853667Y-135355167D01*
X98791464Y-135355167D01*
X98753388Y-135358661D01*
X98732399Y-135376498D01*
X98720014Y-135419710D01*
X98714188Y-135455682D01*
X98710287Y-135507223D01*
X98708118Y-135592957D01*
X98707695Y-135704779D01*
X98709035Y-135834583D01*
X98712153Y-135974264D01*
X98713100Y-136006193D01*
X98717620Y-136188056D01*
X98717564Y-136332054D01*
X98711371Y-136442548D01*
X98697476Y-136523899D01*
X98674318Y-136580467D01*
X98640334Y-136616614D01*
X98593959Y-136636701D01*
X98533633Y-136645088D01*
X98483680Y-136646334D01*
X98409295Y-136639428D01*
X98356698Y-136614331D01*
X98334121Y-136594379D01*
X98317237Y-136577491D01*
X98303904Y-136561177D01*
X98293760Y-136540618D01*
X98286445Y-136510993D01*
X98281596Y-136467483D01*
X98278851Y-136405270D01*
X98277849Y-136319534D01*
X98278228Y-136205456D01*
X98279627Y-136058215D01*
X98281464Y-135892789D01*
X98287350Y-135361495D01*
X98218612Y-135347748D01*
X98136578Y-135337619D01*
X98038347Y-135334428D01*
X97940044Y-135337830D01*
X97857793Y-135347479D01*
X97822576Y-135356220D01*
X97769143Y-135388598D01*
X97734751Y-135431300D01*
X97729746Y-135456476D01*
X97725384Y-135509683D01*
X97721639Y-135592558D01*
X97718489Y-135706738D01*
X97715907Y-135853861D01*
X97713870Y-136035564D01*
X97712354Y-136253485D01*
X97711333Y-136509261D01*
X97710784Y-136804530D01*
X97710667Y-137047151D01*
X96599417Y-137047151D01*
X96599417Y-135214568D01*
X96663393Y-135089076D01*
X96748056Y-134967586D01*
X96861513Y-134872138D01*
X96995094Y-134809786D01*
X97013136Y-134804572D01*
X97044967Y-134801318D01*
X97115235Y-134798403D01*
X97224263Y-134795827D01*
X97372374Y-134793587D01*
X97559890Y-134791683D01*
X97787134Y-134790113D01*
X98054430Y-134788876D01*
X98362100Y-134787969D01*
X98710467Y-134787392D01*
X99099853Y-134787143D01*
X99530581Y-134787221D01*
X100002975Y-134787624D01*
X100517357Y-134788350D01*
X100552806Y-134788410D01*
X104010763Y-134794250D01*
X104136256Y-134858226D01*
X104259368Y-134943461D01*
X104351273Y-135056758D01*
X104410191Y-135195742D01*
X104419995Y-135236317D01*
X104423884Y-135270304D01*
X104427306Y-135333320D01*
X104430268Y-135426551D01*
X104432779Y-135551187D01*
X104434847Y-135708415D01*
X104436478Y-135899422D01*
X104437680Y-136125397D01*
X104438462Y-136387527D01*
X104438831Y-136687000D01*
X104438795Y-137025004D01*
X104438361Y-137402728D01*
X104437537Y-137821357D01*
X104437327Y-137909913D01*
X104431084Y-140469947D01*
X104366980Y-140595432D01*
X104284105Y-140712960D01*
X104170285Y-140801631D01*
X104025484Y-140861471D01*
X103962692Y-140876583D01*
X103928104Y-140879287D01*
X103853975Y-140881822D01*
X103743099Y-140884186D01*
X103598267Y-140886379D01*
X103422273Y-140888399D01*
X103217908Y-140890244D01*
X102987966Y-140891915D01*
X102735239Y-140893411D01*
X102462520Y-140894729D01*
X102172601Y-140895869D01*
X101868274Y-140896830D01*
X101552333Y-140897611D01*
X101227570Y-140898211D01*
X100896778Y-140898629D01*
X100562748Y-140898864D01*
X100228275Y-140898915D01*
X99896149Y-140898780D01*
X99569165Y-140898459D01*
X99250113Y-140897951D01*
X98941788Y-140897254D01*
X98646981Y-140896368D01*
X98368486Y-140895291D01*
X98109094Y-140894023D01*
X97871599Y-140892562D01*
X97658792Y-140890908D01*
X97473467Y-140889059D01*
X97318416Y-140887015D01*
X97196432Y-140884773D01*
X97110307Y-140882334D01*
X97062833Y-140879696D01*
X97058313Y-140879158D01*
X96921049Y-140842507D01*
X96809195Y-140774430D01*
X96718216Y-140671581D01*
X96673500Y-140595216D01*
X96599417Y-140449986D01*
X96599417Y-137047151D01*
%TA.AperFunction,EtchedComponent*%
G36*
X96599417Y-137047151D02*
G01*
X97710667Y-137047151D01*
X97710700Y-137341926D01*
X97710850Y-137597301D01*
X97711188Y-137816211D01*
X97711790Y-138001591D01*
X97712728Y-138156375D01*
X97714077Y-138283496D01*
X97715909Y-138385889D01*
X97718298Y-138466489D01*
X97721318Y-138528229D01*
X97725043Y-138574044D01*
X97729545Y-138606867D01*
X97734899Y-138629634D01*
X97741178Y-138645279D01*
X97748455Y-138656734D01*
X97751103Y-138660114D01*
X97768707Y-138679387D01*
X97790025Y-138693161D01*
X97822198Y-138702574D01*
X97872369Y-138708762D01*
X97947677Y-138712866D01*
X98055266Y-138716022D01*
X98109927Y-138717296D01*
X98428316Y-138724509D01*
X98442721Y-138820570D01*
X98448272Y-138888731D01*
X98449748Y-138980894D01*
X98446930Y-139078902D01*
X98446048Y-139094209D01*
X98442909Y-139230764D01*
X98451826Y-139337607D01*
X98472207Y-139410744D01*
X98497594Y-139443106D01*
X98525654Y-139447934D01*
X98590062Y-139452289D01*
X98684835Y-139455979D01*
X98803988Y-139458816D01*
X98941540Y-139460611D01*
X99068894Y-139461176D01*
X99217422Y-139461670D01*
X99352669Y-139462892D01*
X99468647Y-139464726D01*
X99559370Y-139467055D01*
X99618850Y-139469763D01*
X99640394Y-139472283D01*
X99652384Y-139486462D01*
X99659912Y-139521909D01*
X99663427Y-139584485D01*
X99663379Y-139680047D01*
X99661900Y-139752741D01*
X99661060Y-139907169D01*
X99667298Y-140022033D01*
X99680746Y-140099531D01*
X99683067Y-140107084D01*
X99702400Y-140157697D01*
X99726322Y-140184299D01*
X99768795Y-140196868D01*
X99816750Y-140202630D01*
X99858893Y-140204760D01*
X99936708Y-140206599D01*
X100043534Y-140208136D01*
X100172711Y-140209358D01*
X100317578Y-140210255D01*
X100471475Y-140210814D01*
X100627742Y-140211023D01*
X100779718Y-140210870D01*
X100920742Y-140210344D01*
X101044153Y-140209432D01*
X101143293Y-140208122D01*
X101211499Y-140206404D01*
X101234917Y-140205162D01*
X101272299Y-140200157D01*
X101299817Y-140188263D01*
X101319237Y-140163588D01*
X101332325Y-140120242D01*
X101340847Y-140052333D01*
X101346570Y-139953971D01*
X101351260Y-139819264D01*
X101351334Y-139816864D01*
X101361917Y-139472084D01*
X101947565Y-139461500D01*
X102101008Y-139458213D01*
X102240508Y-139454242D01*
X102360494Y-139449825D01*
X102455392Y-139445198D01*
X102519632Y-139440600D01*
X102547640Y-139436268D01*
X102548212Y-139435881D01*
X102566569Y-139395875D01*
X102579812Y-139323831D01*
X102586911Y-139229846D01*
X102586836Y-139124019D01*
X102584523Y-139080000D01*
X102580873Y-138985121D01*
X102581997Y-138892317D01*
X102587647Y-138821463D01*
X102587763Y-138820681D01*
X102602185Y-138724509D01*
X102920573Y-138717296D01*
X103043342Y-138714200D01*
X103130925Y-138710619D01*
X103190462Y-138705416D01*
X103229097Y-138697453D01*
X103253971Y-138685591D01*
X103272224Y-138668693D01*
X103279398Y-138660114D01*
X103286984Y-138649463D01*
X103293556Y-138635626D01*
X103299184Y-138615687D01*
X103303941Y-138586727D01*
X103307897Y-138545829D01*
X103311123Y-138490075D01*
X103313691Y-138416548D01*
X103315672Y-138322330D01*
X103317137Y-138204503D01*
X103318156Y-138060150D01*
X103318803Y-137886353D01*
X103319146Y-137680195D01*
X103319259Y-137438757D01*
X103319211Y-137159123D01*
X103319160Y-137030280D01*
X103319042Y-136730282D01*
X103318846Y-136469740D01*
X103318405Y-136245780D01*
X103317548Y-136055524D01*
X103316106Y-135896097D01*
X103313909Y-135764622D01*
X103310788Y-135658224D01*
X103306574Y-135574026D01*
X103301097Y-135509151D01*
X103294188Y-135460725D01*
X103285678Y-135425871D01*
X103275396Y-135401712D01*
X103263173Y-135385372D01*
X103248841Y-135373976D01*
X103232229Y-135364646D01*
X103220683Y-135358624D01*
X103173636Y-135345781D01*
X103097885Y-135337552D01*
X103006843Y-135334299D01*
X102913926Y-135336379D01*
X102832546Y-135344152D01*
X102812183Y-135347689D01*
X102743742Y-135361377D01*
X102748809Y-135892730D01*
X102750554Y-136074250D01*
X102751702Y-136218233D01*
X102751894Y-136329478D01*
X102750770Y-136412780D01*
X102747974Y-136472936D01*
X102743145Y-136514742D01*
X102735927Y-136542996D01*
X102725960Y-136562495D01*
X102712887Y-136578034D01*
X102696379Y-136594379D01*
X102647487Y-136630298D01*
X102585700Y-136644936D01*
X102546821Y-136646334D01*
X102475840Y-136643367D01*
X102419923Y-136631565D01*
X102377508Y-136606577D01*
X102347037Y-136564050D01*
X102326949Y-136499631D01*
X102315685Y-136408969D01*
X102311686Y-136287712D01*
X102313390Y-136131507D01*
X102316953Y-136004942D01*
X102320587Y-135864280D01*
X102322426Y-135731689D01*
X102322481Y-135615276D01*
X102320762Y-135523151D01*
X102317278Y-135463421D01*
X102316271Y-135455401D01*
X102305010Y-135394826D01*
X102289485Y-135365324D01*
X102261183Y-135355848D01*
X102239037Y-135355167D01*
X102176834Y-135355167D01*
X102176834Y-135927718D01*
X102176494Y-136120901D01*
X102174611Y-136275944D01*
X102169883Y-136397039D01*
X102161010Y-136488379D01*
X102146693Y-136554156D01*
X102125633Y-136598562D01*
X102096529Y-136625790D01*
X102058081Y-136640033D01*
X102008989Y-136645482D01*
X101954033Y-136646334D01*
X101870326Y-136635089D01*
X101804322Y-136596996D01*
X101802305Y-136595278D01*
X101742917Y-136544222D01*
X101736682Y-135949695D01*
X101730447Y-135355167D01*
X101607220Y-135355167D01*
X101600985Y-135946163D01*
X101594750Y-136537160D01*
X101543436Y-136591747D01*
X101502521Y-136626227D01*
X101454050Y-136642205D01*
X101384686Y-136645660D01*
X101324394Y-136643889D01*
X101276023Y-136636608D01*
X101238261Y-136619615D01*
X101209797Y-136588706D01*
X101189320Y-136539677D01*
X101175519Y-136468325D01*
X101167081Y-136370447D01*
X101162697Y-136241839D01*
X101161055Y-136078298D01*
X101160834Y-135928058D01*
X101160834Y-135355167D01*
X101005966Y-135355167D01*
X101018909Y-135908551D01*
X101022861Y-136104765D01*
X101023734Y-136262799D01*
X101020256Y-136386765D01*
X101011155Y-136480779D01*
X100995160Y-136548953D01*
X100971000Y-136595403D01*
X100937401Y-136624242D01*
X100893093Y-136639584D01*
X100836804Y-136645542D01*
X100790846Y-136646334D01*
X100716462Y-136639428D01*
X100663865Y-136614331D01*
X100641288Y-136594379D01*
X100624817Y-136577938D01*
X100611769Y-136562044D01*
X100601794Y-136541947D01*
X100594547Y-136512897D01*
X100589678Y-136470144D01*
X100586839Y-136408939D01*
X100585684Y-136324530D01*
X100585863Y-136212169D01*
X100587028Y-136067105D01*
X100588833Y-135884588D01*
X100588888Y-135879042D01*
X100594065Y-135355167D01*
X100436483Y-135355167D01*
X100441596Y-135889625D01*
X100443353Y-136071631D01*
X100444514Y-136216087D01*
X100444723Y-136327776D01*
X100443625Y-136411482D01*
X100440865Y-136471987D01*
X100436088Y-136514074D01*
X100428936Y-136542526D01*
X100419056Y-136562127D01*
X100406092Y-136577659D01*
X100389687Y-136593905D01*
X100389212Y-136594379D01*
X100340320Y-136630298D01*
X100278534Y-136644936D01*
X100239654Y-136646334D01*
X100174220Y-136644373D01*
X100121679Y-136635752D01*
X100080761Y-136616362D01*
X100050195Y-136582092D01*
X100028711Y-136528834D01*
X100015037Y-136452479D01*
X100007904Y-136348917D01*
X100006040Y-136214038D01*
X100008175Y-136043734D01*
X100011215Y-135907568D01*
X100024603Y-135355167D01*
X99869667Y-135355167D01*
X99869667Y-135928058D01*
X99869330Y-136108808D01*
X99867922Y-136252183D01*
X99864850Y-136363141D01*
X99859519Y-136446638D01*
X99851336Y-136507629D01*
X99839706Y-136551073D01*
X99824036Y-136581924D01*
X99803731Y-136605141D01*
X99786834Y-136619202D01*
X99746100Y-136634948D01*
X99682726Y-136644462D01*
X99653889Y-136645660D01*
X99574168Y-136638241D01*
X99514408Y-136610449D01*
X99495139Y-136595278D01*
X99435750Y-136544222D01*
X99429515Y-135949695D01*
X99423281Y-135355167D01*
X99300053Y-135355167D01*
X99293818Y-135949695D01*
X99287584Y-136544222D01*
X99228195Y-136595278D01*
X99162434Y-136634329D01*
X99079586Y-136646323D01*
X99076468Y-136646334D01*
X99016573Y-136645240D01*
X98968503Y-136639164D01*
X98930958Y-136623914D01*
X98902639Y-136595297D01*
X98882246Y-136549121D01*
X98868478Y-136481192D01*
X98860036Y-136387320D01*
X98855620Y-136263311D01*
X98853931Y-136104973D01*
X98853667Y-135927718D01*
X98853667Y-135355167D01*
X98791464Y-135355167D01*
X98753388Y-135358661D01*
X98732399Y-135376498D01*
X98720014Y-135419710D01*
X98714188Y-135455682D01*
X98710287Y-135507223D01*
X98708118Y-135592957D01*
X98707695Y-135704779D01*
X98709035Y-135834583D01*
X98712153Y-135974264D01*
X98713100Y-136006193D01*
X98717620Y-136188056D01*
X98717564Y-136332054D01*
X98711371Y-136442548D01*
X98697476Y-136523899D01*
X98674318Y-136580467D01*
X98640334Y-136616614D01*
X98593959Y-136636701D01*
X98533633Y-136645088D01*
X98483680Y-136646334D01*
X98409295Y-136639428D01*
X98356698Y-136614331D01*
X98334121Y-136594379D01*
X98317237Y-136577491D01*
X98303904Y-136561177D01*
X98293760Y-136540618D01*
X98286445Y-136510993D01*
X98281596Y-136467483D01*
X98278851Y-136405270D01*
X98277849Y-136319534D01*
X98278228Y-136205456D01*
X98279627Y-136058215D01*
X98281464Y-135892789D01*
X98287350Y-135361495D01*
X98218612Y-135347748D01*
X98136578Y-135337619D01*
X98038347Y-135334428D01*
X97940044Y-135337830D01*
X97857793Y-135347479D01*
X97822576Y-135356220D01*
X97769143Y-135388598D01*
X97734751Y-135431300D01*
X97729746Y-135456476D01*
X97725384Y-135509683D01*
X97721639Y-135592558D01*
X97718489Y-135706738D01*
X97715907Y-135853861D01*
X97713870Y-136035564D01*
X97712354Y-136253485D01*
X97711333Y-136509261D01*
X97710784Y-136804530D01*
X97710667Y-137047151D01*
X96599417Y-137047151D01*
X96599417Y-135214568D01*
X96663393Y-135089076D01*
X96748056Y-134967586D01*
X96861513Y-134872138D01*
X96995094Y-134809786D01*
X97013136Y-134804572D01*
X97044967Y-134801318D01*
X97115235Y-134798403D01*
X97224263Y-134795827D01*
X97372374Y-134793587D01*
X97559890Y-134791683D01*
X97787134Y-134790113D01*
X98054430Y-134788876D01*
X98362100Y-134787969D01*
X98710467Y-134787392D01*
X99099853Y-134787143D01*
X99530581Y-134787221D01*
X100002975Y-134787624D01*
X100517357Y-134788350D01*
X100552806Y-134788410D01*
X104010763Y-134794250D01*
X104136256Y-134858226D01*
X104259368Y-134943461D01*
X104351273Y-135056758D01*
X104410191Y-135195742D01*
X104419995Y-135236317D01*
X104423884Y-135270304D01*
X104427306Y-135333320D01*
X104430268Y-135426551D01*
X104432779Y-135551187D01*
X104434847Y-135708415D01*
X104436478Y-135899422D01*
X104437680Y-136125397D01*
X104438462Y-136387527D01*
X104438831Y-136687000D01*
X104438795Y-137025004D01*
X104438361Y-137402728D01*
X104437537Y-137821357D01*
X104437327Y-137909913D01*
X104431084Y-140469947D01*
X104366980Y-140595432D01*
X104284105Y-140712960D01*
X104170285Y-140801631D01*
X104025484Y-140861471D01*
X103962692Y-140876583D01*
X103928104Y-140879287D01*
X103853975Y-140881822D01*
X103743099Y-140884186D01*
X103598267Y-140886379D01*
X103422273Y-140888399D01*
X103217908Y-140890244D01*
X102987966Y-140891915D01*
X102735239Y-140893411D01*
X102462520Y-140894729D01*
X102172601Y-140895869D01*
X101868274Y-140896830D01*
X101552333Y-140897611D01*
X101227570Y-140898211D01*
X100896778Y-140898629D01*
X100562748Y-140898864D01*
X100228275Y-140898915D01*
X99896149Y-140898780D01*
X99569165Y-140898459D01*
X99250113Y-140897951D01*
X98941788Y-140897254D01*
X98646981Y-140896368D01*
X98368486Y-140895291D01*
X98109094Y-140894023D01*
X97871599Y-140892562D01*
X97658792Y-140890908D01*
X97473467Y-140889059D01*
X97318416Y-140887015D01*
X97196432Y-140884773D01*
X97110307Y-140882334D01*
X97062833Y-140879696D01*
X97058313Y-140879158D01*
X96921049Y-140842507D01*
X96809195Y-140774430D01*
X96718216Y-140671581D01*
X96673500Y-140595216D01*
X96599417Y-140449986D01*
X96599417Y-137047151D01*
G37*
%TD.AperFunction*%
X90767578Y-136878793D02*
X90782793Y-136899299D01*
X90779966Y-136930740D01*
X90770472Y-136942002D01*
X90743682Y-136946615D01*
X90722031Y-136936962D01*
X90715050Y-136910800D01*
X90720983Y-136885947D01*
X90743682Y-136874984D01*
X90767578Y-136878793D01*
%TA.AperFunction,EtchedComponent*%
G36*
X90767578Y-136878793D02*
G01*
X90782793Y-136899299D01*
X90779966Y-136930740D01*
X90770472Y-136942002D01*
X90743682Y-136946615D01*
X90722031Y-136936962D01*
X90715050Y-136910800D01*
X90720983Y-136885947D01*
X90743682Y-136874984D01*
X90767578Y-136878793D01*
G37*
%TD.AperFunction*%
X92804385Y-137666265D02*
X92841259Y-137688860D01*
X92869276Y-137721192D01*
X92880400Y-137755952D01*
X92872121Y-137780992D01*
X92844119Y-137814363D01*
X92800856Y-137848029D01*
X92747050Y-137877684D01*
X92699824Y-137895439D01*
X92654514Y-137899861D01*
X92620220Y-137884410D01*
X92593531Y-137848435D01*
X92590793Y-137843066D01*
X92581624Y-137818721D01*
X92584791Y-137797437D01*
X92601456Y-137767312D01*
X92632019Y-137730947D01*
X92678307Y-137695326D01*
X92728997Y-137669841D01*
X92775009Y-137660100D01*
X92804385Y-137666265D01*
%TA.AperFunction,EtchedComponent*%
G36*
X92804385Y-137666265D02*
G01*
X92841259Y-137688860D01*
X92869276Y-137721192D01*
X92880400Y-137755952D01*
X92872121Y-137780992D01*
X92844119Y-137814363D01*
X92800856Y-137848029D01*
X92747050Y-137877684D01*
X92699824Y-137895439D01*
X92654514Y-137899861D01*
X92620220Y-137884410D01*
X92593531Y-137848435D01*
X92590793Y-137843066D01*
X92581624Y-137818721D01*
X92584791Y-137797437D01*
X92601456Y-137767312D01*
X92632019Y-137730947D01*
X92678307Y-137695326D01*
X92728997Y-137669841D01*
X92775009Y-137660100D01*
X92804385Y-137666265D01*
G37*
%TD.AperFunction*%
X89119531Y-133703917D02*
X89147985Y-133722356D01*
X89159300Y-133747490D01*
X89155841Y-133757792D01*
X89136698Y-133784647D01*
X89104933Y-133819682D01*
X89065277Y-133858373D01*
X89022459Y-133896198D01*
X88981212Y-133928634D01*
X88946265Y-133951158D01*
X88929898Y-133959363D01*
X88891171Y-133972024D01*
X88867425Y-133966079D01*
X88856696Y-133941312D01*
X88856507Y-133934510D01*
X88867472Y-133901107D01*
X88893439Y-133859389D01*
X88929784Y-133814258D01*
X88971881Y-133770620D01*
X89015105Y-133733378D01*
X89054832Y-133707436D01*
X89086437Y-133697700D01*
X89119531Y-133703917D01*
%TA.AperFunction,EtchedComponent*%
G36*
X89119531Y-133703917D02*
G01*
X89147985Y-133722356D01*
X89159300Y-133747490D01*
X89155841Y-133757792D01*
X89136698Y-133784647D01*
X89104933Y-133819682D01*
X89065277Y-133858373D01*
X89022459Y-133896198D01*
X88981212Y-133928634D01*
X88946265Y-133951158D01*
X88929898Y-133959363D01*
X88891171Y-133972024D01*
X88867425Y-133966079D01*
X88856696Y-133941312D01*
X88856507Y-133934510D01*
X88867472Y-133901107D01*
X88893439Y-133859389D01*
X88929784Y-133814258D01*
X88971881Y-133770620D01*
X89015105Y-133733378D01*
X89054832Y-133707436D01*
X89086437Y-133697700D01*
X89119531Y-133703917D01*
G37*
%TD.AperFunction*%
X87254599Y-138000214D02*
X87256675Y-138002952D01*
X87270557Y-138031658D01*
X87283176Y-138077984D01*
X87294884Y-138143875D01*
X87306039Y-138231276D01*
X87316994Y-138342131D01*
X87321976Y-138389293D01*
X87330496Y-138449330D01*
X87339975Y-138499079D01*
X87349132Y-138531007D01*
X87362276Y-138565896D01*
X87366454Y-138596044D01*
X87355315Y-138617614D01*
X87327325Y-138638139D01*
X87304735Y-138651037D01*
X87273497Y-138661374D01*
X87247274Y-138653934D01*
X87216802Y-138627855D01*
X87202632Y-138610241D01*
X87178122Y-138555306D01*
X87162027Y-138478303D01*
X87154575Y-138380607D01*
X87155997Y-138263592D01*
X87157145Y-138241477D01*
X87165131Y-138146555D01*
X87176887Y-138072268D01*
X87192063Y-138019553D01*
X87210307Y-137989349D01*
X87231269Y-137982590D01*
X87254599Y-138000214D01*
%TA.AperFunction,EtchedComponent*%
G36*
X87254599Y-138000214D02*
G01*
X87256675Y-138002952D01*
X87270557Y-138031658D01*
X87283176Y-138077984D01*
X87294884Y-138143875D01*
X87306039Y-138231276D01*
X87316994Y-138342131D01*
X87321976Y-138389293D01*
X87330496Y-138449330D01*
X87339975Y-138499079D01*
X87349132Y-138531007D01*
X87362276Y-138565896D01*
X87366454Y-138596044D01*
X87355315Y-138617614D01*
X87327325Y-138638139D01*
X87304735Y-138651037D01*
X87273497Y-138661374D01*
X87247274Y-138653934D01*
X87216802Y-138627855D01*
X87202632Y-138610241D01*
X87178122Y-138555306D01*
X87162027Y-138478303D01*
X87154575Y-138380607D01*
X87155997Y-138263592D01*
X87157145Y-138241477D01*
X87165131Y-138146555D01*
X87176887Y-138072268D01*
X87192063Y-138019553D01*
X87210307Y-137989349D01*
X87231269Y-137982590D01*
X87254599Y-138000214D01*
G37*
%TD.AperFunction*%
X88905354Y-138775006D02*
X88998347Y-138781789D01*
X89090383Y-138791925D01*
X89176814Y-138805209D01*
X89252994Y-138821436D01*
X89313054Y-138838708D01*
X89386068Y-138864591D01*
X89456034Y-138894107D01*
X89519433Y-138925351D01*
X89572743Y-138956413D01*
X89612446Y-138985388D01*
X89635019Y-139010368D01*
X89636944Y-139029446D01*
X89626976Y-139037470D01*
X89606544Y-139042212D01*
X89572842Y-139043366D01*
X89522908Y-139040881D01*
X89453781Y-139034707D01*
X89362500Y-139024794D01*
X89253541Y-139011286D01*
X89121237Y-138991831D01*
X88999354Y-138970504D01*
X88889540Y-138947807D01*
X88793445Y-138924239D01*
X88712718Y-138900301D01*
X88649008Y-138876495D01*
X88603965Y-138853319D01*
X88579237Y-138831275D01*
X88576474Y-138810864D01*
X88597325Y-138792585D01*
X88616756Y-138785492D01*
X88667105Y-138776819D01*
X88735086Y-138772317D01*
X88816051Y-138771781D01*
X88905354Y-138775006D01*
%TA.AperFunction,EtchedComponent*%
G36*
X88905354Y-138775006D02*
G01*
X88998347Y-138781789D01*
X89090383Y-138791925D01*
X89176814Y-138805209D01*
X89252994Y-138821436D01*
X89313054Y-138838708D01*
X89386068Y-138864591D01*
X89456034Y-138894107D01*
X89519433Y-138925351D01*
X89572743Y-138956413D01*
X89612446Y-138985388D01*
X89635019Y-139010368D01*
X89636944Y-139029446D01*
X89626976Y-139037470D01*
X89606544Y-139042212D01*
X89572842Y-139043366D01*
X89522908Y-139040881D01*
X89453781Y-139034707D01*
X89362500Y-139024794D01*
X89253541Y-139011286D01*
X89121237Y-138991831D01*
X88999354Y-138970504D01*
X88889540Y-138947807D01*
X88793445Y-138924239D01*
X88712718Y-138900301D01*
X88649008Y-138876495D01*
X88603965Y-138853319D01*
X88579237Y-138831275D01*
X88576474Y-138810864D01*
X88597325Y-138792585D01*
X88616756Y-138785492D01*
X88667105Y-138776819D01*
X88735086Y-138772317D01*
X88816051Y-138771781D01*
X88905354Y-138775006D01*
G37*
%TD.AperFunction*%
X86786612Y-136407543D02*
X86840610Y-136423494D01*
X86860731Y-136429166D01*
X86927606Y-136437518D01*
X87001348Y-136435046D01*
X87070150Y-136421835D01*
X87091354Y-136421187D01*
X87120950Y-136432930D01*
X87131450Y-136442509D01*
X87140583Y-136460888D01*
X87144558Y-136491128D01*
X87144878Y-136539954D01*
X87140915Y-136592791D01*
X87129241Y-136661941D01*
X87112014Y-136730359D01*
X87091356Y-136789825D01*
X87069390Y-136832123D01*
X87062660Y-136840797D01*
X87041480Y-136855623D01*
X87018894Y-136850090D01*
X86992640Y-136822969D01*
X86960456Y-136773033D01*
X86933281Y-136728056D01*
X86899880Y-136681115D01*
X86867623Y-136649285D01*
X86831299Y-136627754D01*
X86785695Y-136611710D01*
X86770706Y-136607283D01*
X86710075Y-136584838D01*
X86673095Y-136560337D01*
X86658322Y-136531351D01*
X86664308Y-136495448D01*
X86689608Y-136450198D01*
X86696812Y-136440020D01*
X86721078Y-136414680D01*
X86748889Y-136404230D01*
X86786612Y-136407543D01*
%TA.AperFunction,EtchedComponent*%
G36*
X86786612Y-136407543D02*
G01*
X86840610Y-136423494D01*
X86860731Y-136429166D01*
X86927606Y-136437518D01*
X87001348Y-136435046D01*
X87070150Y-136421835D01*
X87091354Y-136421187D01*
X87120950Y-136432930D01*
X87131450Y-136442509D01*
X87140583Y-136460888D01*
X87144558Y-136491128D01*
X87144878Y-136539954D01*
X87140915Y-136592791D01*
X87129241Y-136661941D01*
X87112014Y-136730359D01*
X87091356Y-136789825D01*
X87069390Y-136832123D01*
X87062660Y-136840797D01*
X87041480Y-136855623D01*
X87018894Y-136850090D01*
X86992640Y-136822969D01*
X86960456Y-136773033D01*
X86933281Y-136728056D01*
X86899880Y-136681115D01*
X86867623Y-136649285D01*
X86831299Y-136627754D01*
X86785695Y-136611710D01*
X86770706Y-136607283D01*
X86710075Y-136584838D01*
X86673095Y-136560337D01*
X86658322Y-136531351D01*
X86664308Y-136495448D01*
X86689608Y-136450198D01*
X86696812Y-136440020D01*
X86721078Y-136414680D01*
X86748889Y-136404230D01*
X86786612Y-136407543D01*
G37*
%TD.AperFunction*%
X92692257Y-138168105D02*
X92696915Y-138174510D01*
X92715844Y-138217278D01*
X92730995Y-138279086D01*
X92741800Y-138354885D01*
X92747694Y-138439625D01*
X92748110Y-138528255D01*
X92742481Y-138615726D01*
X92738365Y-138651554D01*
X92727518Y-138715760D01*
X92711976Y-138769158D01*
X92689155Y-138821739D01*
X92674046Y-138849363D01*
X92630476Y-138911663D01*
X92577905Y-138970550D01*
X92522650Y-139019370D01*
X92471027Y-139051473D01*
X92461914Y-139055143D01*
X92416563Y-139064648D01*
X92368494Y-139064267D01*
X92326694Y-139054766D01*
X92300148Y-139036911D01*
X92294447Y-139027782D01*
X92282879Y-138982898D01*
X92286917Y-138920645D01*
X92306677Y-138840224D01*
X92342273Y-138740834D01*
X92355547Y-138707967D01*
X92406238Y-138589603D01*
X92455616Y-138485224D01*
X92501945Y-138398351D01*
X92543491Y-138332506D01*
X92558107Y-138310542D01*
X92583411Y-138265944D01*
X92600169Y-138227770D01*
X92602133Y-138222245D01*
X92620875Y-138186407D01*
X92643247Y-138161398D01*
X92657636Y-138152120D01*
X92674335Y-138150437D01*
X92692257Y-138168105D01*
%TA.AperFunction,EtchedComponent*%
G36*
X92692257Y-138168105D02*
G01*
X92696915Y-138174510D01*
X92715844Y-138217278D01*
X92730995Y-138279086D01*
X92741800Y-138354885D01*
X92747694Y-138439625D01*
X92748110Y-138528255D01*
X92742481Y-138615726D01*
X92738365Y-138651554D01*
X92727518Y-138715760D01*
X92711976Y-138769158D01*
X92689155Y-138821739D01*
X92674046Y-138849363D01*
X92630476Y-138911663D01*
X92577905Y-138970550D01*
X92522650Y-139019370D01*
X92471027Y-139051473D01*
X92461914Y-139055143D01*
X92416563Y-139064648D01*
X92368494Y-139064267D01*
X92326694Y-139054766D01*
X92300148Y-139036911D01*
X92294447Y-139027782D01*
X92282879Y-138982898D01*
X92286917Y-138920645D01*
X92306677Y-138840224D01*
X92342273Y-138740834D01*
X92355547Y-138707967D01*
X92406238Y-138589603D01*
X92455616Y-138485224D01*
X92501945Y-138398351D01*
X92543491Y-138332506D01*
X92558107Y-138310542D01*
X92583411Y-138265944D01*
X92600169Y-138227770D01*
X92602133Y-138222245D01*
X92620875Y-138186407D01*
X92643247Y-138161398D01*
X92657636Y-138152120D01*
X92674335Y-138150437D01*
X92692257Y-138168105D01*
G37*
%TD.AperFunction*%
X92874903Y-138188703D02*
X92900074Y-138211719D01*
X92915056Y-138249368D01*
X92924154Y-138309681D01*
X92926339Y-138386337D01*
X92922135Y-138475288D01*
X92912071Y-138572483D01*
X92896673Y-138673872D01*
X92876469Y-138775405D01*
X92851984Y-138873031D01*
X92823746Y-138962700D01*
X92792282Y-139040363D01*
X92775657Y-139074003D01*
X92731334Y-139151613D01*
X92680451Y-139227897D01*
X92626461Y-139298514D01*
X92572814Y-139359119D01*
X92522960Y-139405372D01*
X92480350Y-139432928D01*
X92479799Y-139433172D01*
X92448334Y-139445076D01*
X92425745Y-139450302D01*
X92414692Y-139449484D01*
X92375248Y-139433956D01*
X92333519Y-139403588D01*
X92295852Y-139364610D01*
X92268596Y-139323255D01*
X92258100Y-139285752D01*
X92259007Y-139272610D01*
X92270323Y-139242775D01*
X92297068Y-139215445D01*
X92342370Y-139187970D01*
X92409355Y-139157705D01*
X92468460Y-139132355D01*
X92567585Y-139083574D01*
X92644713Y-139035249D01*
X92701989Y-138985688D01*
X92741553Y-138933196D01*
X92765550Y-138876078D01*
X92767987Y-138864391D01*
X92772983Y-138824861D01*
X92778110Y-138766625D01*
X92783048Y-138694085D01*
X92787479Y-138611642D01*
X92791083Y-138523700D01*
X92792965Y-138472763D01*
X92796505Y-138391206D01*
X92800263Y-138319592D01*
X92804006Y-138261783D01*
X92807499Y-138221640D01*
X92810509Y-138203025D01*
X92819806Y-138190056D01*
X92845211Y-138181197D01*
X92874903Y-138188703D01*
%TA.AperFunction,EtchedComponent*%
G36*
X92874903Y-138188703D02*
G01*
X92900074Y-138211719D01*
X92915056Y-138249368D01*
X92924154Y-138309681D01*
X92926339Y-138386337D01*
X92922135Y-138475288D01*
X92912071Y-138572483D01*
X92896673Y-138673872D01*
X92876469Y-138775405D01*
X92851984Y-138873031D01*
X92823746Y-138962700D01*
X92792282Y-139040363D01*
X92775657Y-139074003D01*
X92731334Y-139151613D01*
X92680451Y-139227897D01*
X92626461Y-139298514D01*
X92572814Y-139359119D01*
X92522960Y-139405372D01*
X92480350Y-139432928D01*
X92479799Y-139433172D01*
X92448334Y-139445076D01*
X92425745Y-139450302D01*
X92414692Y-139449484D01*
X92375248Y-139433956D01*
X92333519Y-139403588D01*
X92295852Y-139364610D01*
X92268596Y-139323255D01*
X92258100Y-139285752D01*
X92259007Y-139272610D01*
X92270323Y-139242775D01*
X92297068Y-139215445D01*
X92342370Y-139187970D01*
X92409355Y-139157705D01*
X92468460Y-139132355D01*
X92567585Y-139083574D01*
X92644713Y-139035249D01*
X92701989Y-138985688D01*
X92741553Y-138933196D01*
X92765550Y-138876078D01*
X92767987Y-138864391D01*
X92772983Y-138824861D01*
X92778110Y-138766625D01*
X92783048Y-138694085D01*
X92787479Y-138611642D01*
X92791083Y-138523700D01*
X92792965Y-138472763D01*
X92796505Y-138391206D01*
X92800263Y-138319592D01*
X92804006Y-138261783D01*
X92807499Y-138221640D01*
X92810509Y-138203025D01*
X92819806Y-138190056D01*
X92845211Y-138181197D01*
X92874903Y-138188703D01*
G37*
%TD.AperFunction*%
X92348022Y-137987144D02*
X92359821Y-138009665D01*
X92366573Y-138033748D01*
X92371738Y-138098310D01*
X92365435Y-138181141D01*
X92347793Y-138279359D01*
X92345369Y-138290722D01*
X92334327Y-138355176D01*
X92326877Y-138420062D01*
X92324521Y-138472900D01*
X92324611Y-138492489D01*
X92322147Y-138531874D01*
X92314168Y-138568795D01*
X92298490Y-138611524D01*
X92272930Y-138668332D01*
X92262503Y-138691427D01*
X92233473Y-138762589D01*
X92205158Y-138840214D01*
X92182443Y-138911197D01*
X92136857Y-139051196D01*
X92068083Y-139218690D01*
X91988350Y-139373606D01*
X91899838Y-139511798D01*
X91804728Y-139629122D01*
X91795151Y-139639304D01*
X91761382Y-139672664D01*
X91733970Y-139696009D01*
X91718111Y-139704800D01*
X91711145Y-139703167D01*
X91688232Y-139686511D01*
X91663570Y-139658564D01*
X91643860Y-139627677D01*
X91635800Y-139602201D01*
X91636611Y-139594852D01*
X91643829Y-139564063D01*
X91656914Y-139519397D01*
X91673900Y-139467793D01*
X91684140Y-139437955D01*
X91700650Y-139385783D01*
X91708765Y-139348241D01*
X91708871Y-139319018D01*
X91701354Y-139291808D01*
X91686600Y-139260300D01*
X91681748Y-139250485D01*
X91664282Y-139200204D01*
X91665856Y-139156615D01*
X91686461Y-139111075D01*
X91696610Y-139095998D01*
X91724200Y-139071454D01*
X91753183Y-139070727D01*
X91784955Y-139094138D01*
X91820911Y-139142007D01*
X91845421Y-139178959D01*
X91861367Y-139197918D01*
X91871745Y-139200867D01*
X91880201Y-139190807D01*
X91880837Y-139189561D01*
X91886418Y-139162188D01*
X91888195Y-139115265D01*
X91885951Y-139053953D01*
X91884837Y-139033306D01*
X91883950Y-138979824D01*
X91885949Y-138935739D01*
X91890581Y-138908997D01*
X91895934Y-138896768D01*
X91907748Y-138884483D01*
X91929645Y-138880298D01*
X91969205Y-138881569D01*
X92005669Y-138883244D01*
X92027132Y-138880432D01*
X92036207Y-138869620D01*
X92039644Y-138847550D01*
X92043047Y-138824291D01*
X92060142Y-138758132D01*
X92087693Y-138682728D01*
X92122882Y-138606250D01*
X92135453Y-138581022D01*
X92149620Y-138546801D01*
X92157148Y-138513930D01*
X92159736Y-138473507D01*
X92159082Y-138416631D01*
X92158713Y-138400040D01*
X92158916Y-138346728D01*
X92162808Y-138308488D01*
X92171720Y-138277119D01*
X92186980Y-138244418D01*
X92195999Y-138226239D01*
X92216795Y-138177985D01*
X92231406Y-138135587D01*
X92236190Y-138119677D01*
X92259954Y-138063780D01*
X92289763Y-138018286D01*
X92321041Y-137990599D01*
X92332816Y-137985154D01*
X92348022Y-137987144D01*
%TA.AperFunction,EtchedComponent*%
G36*
X92348022Y-137987144D02*
G01*
X92359821Y-138009665D01*
X92366573Y-138033748D01*
X92371738Y-138098310D01*
X92365435Y-138181141D01*
X92347793Y-138279359D01*
X92345369Y-138290722D01*
X92334327Y-138355176D01*
X92326877Y-138420062D01*
X92324521Y-138472900D01*
X92324611Y-138492489D01*
X92322147Y-138531874D01*
X92314168Y-138568795D01*
X92298490Y-138611524D01*
X92272930Y-138668332D01*
X92262503Y-138691427D01*
X92233473Y-138762589D01*
X92205158Y-138840214D01*
X92182443Y-138911197D01*
X92136857Y-139051196D01*
X92068083Y-139218690D01*
X91988350Y-139373606D01*
X91899838Y-139511798D01*
X91804728Y-139629122D01*
X91795151Y-139639304D01*
X91761382Y-139672664D01*
X91733970Y-139696009D01*
X91718111Y-139704800D01*
X91711145Y-139703167D01*
X91688232Y-139686511D01*
X91663570Y-139658564D01*
X91643860Y-139627677D01*
X91635800Y-139602201D01*
X91636611Y-139594852D01*
X91643829Y-139564063D01*
X91656914Y-139519397D01*
X91673900Y-139467793D01*
X91684140Y-139437955D01*
X91700650Y-139385783D01*
X91708765Y-139348241D01*
X91708871Y-139319018D01*
X91701354Y-139291808D01*
X91686600Y-139260300D01*
X91681748Y-139250485D01*
X91664282Y-139200204D01*
X91665856Y-139156615D01*
X91686461Y-139111075D01*
X91696610Y-139095998D01*
X91724200Y-139071454D01*
X91753183Y-139070727D01*
X91784955Y-139094138D01*
X91820911Y-139142007D01*
X91845421Y-139178959D01*
X91861367Y-139197918D01*
X91871745Y-139200867D01*
X91880201Y-139190807D01*
X91880837Y-139189561D01*
X91886418Y-139162188D01*
X91888195Y-139115265D01*
X91885951Y-139053953D01*
X91884837Y-139033306D01*
X91883950Y-138979824D01*
X91885949Y-138935739D01*
X91890581Y-138908997D01*
X91895934Y-138896768D01*
X91907748Y-138884483D01*
X91929645Y-138880298D01*
X91969205Y-138881569D01*
X92005669Y-138883244D01*
X92027132Y-138880432D01*
X92036207Y-138869620D01*
X92039644Y-138847550D01*
X92043047Y-138824291D01*
X92060142Y-138758132D01*
X92087693Y-138682728D01*
X92122882Y-138606250D01*
X92135453Y-138581022D01*
X92149620Y-138546801D01*
X92157148Y-138513930D01*
X92159736Y-138473507D01*
X92159082Y-138416631D01*
X92158713Y-138400040D01*
X92158916Y-138346728D01*
X92162808Y-138308488D01*
X92171720Y-138277119D01*
X92186980Y-138244418D01*
X92195999Y-138226239D01*
X92216795Y-138177985D01*
X92231406Y-138135587D01*
X92236190Y-138119677D01*
X92259954Y-138063780D01*
X92289763Y-138018286D01*
X92321041Y-137990599D01*
X92332816Y-137985154D01*
X92348022Y-137987144D01*
G37*
%TD.AperFunction*%
X86585889Y-136684469D02*
X86612541Y-136703020D01*
X86641477Y-136734576D01*
X86666895Y-136772247D01*
X86682994Y-136809144D01*
X86686974Y-136825567D01*
X86694579Y-136903030D01*
X86688258Y-136986248D01*
X86668686Y-137063200D01*
X86617795Y-137220084D01*
X86576471Y-137411299D01*
X86559289Y-137598084D01*
X86566419Y-137779262D01*
X86572518Y-137828805D01*
X86584422Y-137894183D01*
X86599208Y-137938559D01*
X86617930Y-137964685D01*
X86641644Y-137975308D01*
X86653553Y-137975511D01*
X86666664Y-137966172D01*
X86669465Y-137942004D01*
X86662014Y-137900186D01*
X86644366Y-137837900D01*
X86641545Y-137828611D01*
X86614414Y-137701625D01*
X86610973Y-137580713D01*
X86631131Y-137463239D01*
X86647900Y-137408489D01*
X86675961Y-137333112D01*
X86708525Y-137258829D01*
X86743487Y-137189467D01*
X86778739Y-137128855D01*
X86812177Y-137080821D01*
X86841694Y-137049193D01*
X86865184Y-137037800D01*
X86880489Y-137048162D01*
X86902075Y-137076333D01*
X86926171Y-137116443D01*
X86949255Y-137162615D01*
X86967802Y-137208971D01*
X86970042Y-137215944D01*
X86983377Y-137283968D01*
X86988539Y-137367289D01*
X86986006Y-137458287D01*
X86976255Y-137549341D01*
X86959761Y-137632831D01*
X86937002Y-137701135D01*
X86932493Y-137712208D01*
X86917701Y-137756406D01*
X86901831Y-137812706D01*
X86887623Y-137871648D01*
X86883300Y-137890429D01*
X86866533Y-137952046D01*
X86847548Y-138009420D01*
X86829678Y-138052167D01*
X86818025Y-138075941D01*
X86802226Y-138116062D01*
X86797270Y-138150857D01*
X86804575Y-138184987D01*
X86825561Y-138223114D01*
X86861647Y-138269900D01*
X86914251Y-138330008D01*
X86920105Y-138336595D01*
X86945748Y-138369329D01*
X86956166Y-138394250D01*
X86954802Y-138418908D01*
X86943593Y-138448568D01*
X86919108Y-138493229D01*
X86887534Y-138541064D01*
X86854378Y-138583820D01*
X86825148Y-138613243D01*
X86796876Y-138630472D01*
X86771216Y-138638000D01*
X86756062Y-138634965D01*
X86720517Y-138613029D01*
X86678937Y-138572746D01*
X86633758Y-138517494D01*
X86587415Y-138450651D01*
X86542345Y-138375594D01*
X86500981Y-138295703D01*
X86465761Y-138214354D01*
X86418572Y-138077377D01*
X86369460Y-137879150D01*
X86341252Y-137678985D01*
X86334215Y-137480553D01*
X86348617Y-137287521D01*
X86384726Y-137103559D01*
X86389245Y-137086768D01*
X86415175Y-137000096D01*
X86443967Y-136917309D01*
X86474055Y-136841853D01*
X86503877Y-136777170D01*
X86531868Y-136726704D01*
X86556465Y-136693900D01*
X86576102Y-136682200D01*
X86585889Y-136684469D01*
%TA.AperFunction,EtchedComponent*%
G36*
X86585889Y-136684469D02*
G01*
X86612541Y-136703020D01*
X86641477Y-136734576D01*
X86666895Y-136772247D01*
X86682994Y-136809144D01*
X86686974Y-136825567D01*
X86694579Y-136903030D01*
X86688258Y-136986248D01*
X86668686Y-137063200D01*
X86617795Y-137220084D01*
X86576471Y-137411299D01*
X86559289Y-137598084D01*
X86566419Y-137779262D01*
X86572518Y-137828805D01*
X86584422Y-137894183D01*
X86599208Y-137938559D01*
X86617930Y-137964685D01*
X86641644Y-137975308D01*
X86653553Y-137975511D01*
X86666664Y-137966172D01*
X86669465Y-137942004D01*
X86662014Y-137900186D01*
X86644366Y-137837900D01*
X86641545Y-137828611D01*
X86614414Y-137701625D01*
X86610973Y-137580713D01*
X86631131Y-137463239D01*
X86647900Y-137408489D01*
X86675961Y-137333112D01*
X86708525Y-137258829D01*
X86743487Y-137189467D01*
X86778739Y-137128855D01*
X86812177Y-137080821D01*
X86841694Y-137049193D01*
X86865184Y-137037800D01*
X86880489Y-137048162D01*
X86902075Y-137076333D01*
X86926171Y-137116443D01*
X86949255Y-137162615D01*
X86967802Y-137208971D01*
X86970042Y-137215944D01*
X86983377Y-137283968D01*
X86988539Y-137367289D01*
X86986006Y-137458287D01*
X86976255Y-137549341D01*
X86959761Y-137632831D01*
X86937002Y-137701135D01*
X86932493Y-137712208D01*
X86917701Y-137756406D01*
X86901831Y-137812706D01*
X86887623Y-137871648D01*
X86883300Y-137890429D01*
X86866533Y-137952046D01*
X86847548Y-138009420D01*
X86829678Y-138052167D01*
X86818025Y-138075941D01*
X86802226Y-138116062D01*
X86797270Y-138150857D01*
X86804575Y-138184987D01*
X86825561Y-138223114D01*
X86861647Y-138269900D01*
X86914251Y-138330008D01*
X86920105Y-138336595D01*
X86945748Y-138369329D01*
X86956166Y-138394250D01*
X86954802Y-138418908D01*
X86943593Y-138448568D01*
X86919108Y-138493229D01*
X86887534Y-138541064D01*
X86854378Y-138583820D01*
X86825148Y-138613243D01*
X86796876Y-138630472D01*
X86771216Y-138638000D01*
X86756062Y-138634965D01*
X86720517Y-138613029D01*
X86678937Y-138572746D01*
X86633758Y-138517494D01*
X86587415Y-138450651D01*
X86542345Y-138375594D01*
X86500981Y-138295703D01*
X86465761Y-138214354D01*
X86418572Y-138077377D01*
X86369460Y-137879150D01*
X86341252Y-137678985D01*
X86334215Y-137480553D01*
X86348617Y-137287521D01*
X86384726Y-137103559D01*
X86389245Y-137086768D01*
X86415175Y-137000096D01*
X86443967Y-136917309D01*
X86474055Y-136841853D01*
X86503877Y-136777170D01*
X86531868Y-136726704D01*
X86556465Y-136693900D01*
X86576102Y-136682200D01*
X86585889Y-136684469D01*
G37*
%TD.AperFunction*%
X89498599Y-133736764D02*
X89540300Y-133738736D01*
X89550136Y-133739171D01*
X89634334Y-133747306D01*
X89694805Y-133762341D01*
X89731282Y-133784179D01*
X89743500Y-133812724D01*
X89740206Y-133828263D01*
X89724450Y-133845507D01*
X89713166Y-133855237D01*
X89705400Y-133880424D01*
X89698175Y-133902514D01*
X89668510Y-133921955D01*
X89645273Y-133936339D01*
X89614148Y-133965527D01*
X89584286Y-134001092D01*
X89561849Y-134035584D01*
X89553000Y-134061555D01*
X89562222Y-134076681D01*
X89587265Y-134078623D01*
X89623657Y-134069142D01*
X89666925Y-134050199D01*
X89712599Y-134023755D01*
X89756204Y-133991770D01*
X89793270Y-133956206D01*
X89809498Y-133938631D01*
X89839766Y-133912016D01*
X89872717Y-133893562D01*
X89912030Y-133882849D01*
X89961387Y-133879456D01*
X90024468Y-133882963D01*
X90104954Y-133892949D01*
X90206526Y-133908994D01*
X90256870Y-133916251D01*
X90330189Y-133924665D01*
X90409932Y-133932102D01*
X90485926Y-133937523D01*
X90534206Y-133940467D01*
X90591850Y-133945193D01*
X90636004Y-133951521D01*
X90673864Y-133960970D01*
X90712630Y-133975061D01*
X90759500Y-133995315D01*
X90825427Y-134024710D01*
X90899713Y-134057378D01*
X90956888Y-134081607D01*
X91000431Y-134098639D01*
X91033824Y-134109716D01*
X91060548Y-134116080D01*
X91084083Y-134118973D01*
X91107909Y-134119637D01*
X91139950Y-134120202D01*
X91166593Y-134123534D01*
X91192749Y-134131909D01*
X91223815Y-134147602D01*
X91265186Y-134172889D01*
X91322258Y-134210046D01*
X91361419Y-134237060D01*
X91410267Y-134277059D01*
X91454497Y-134323484D01*
X91502379Y-134384335D01*
X91508624Y-134392674D01*
X91550705Y-134446427D01*
X91602902Y-134510163D01*
X91659174Y-134576606D01*
X91713480Y-134638485D01*
X91736866Y-134664715D01*
X91820040Y-134761338D01*
X91888514Y-134846593D01*
X91941483Y-134919320D01*
X91978143Y-134978361D01*
X91997689Y-135022554D01*
X91999319Y-135050741D01*
X91987851Y-135060101D01*
X91952801Y-135076254D01*
X91895953Y-135097458D01*
X91818876Y-135123226D01*
X91723138Y-135153071D01*
X91610308Y-135186507D01*
X91481954Y-135223046D01*
X91339646Y-135262201D01*
X91184950Y-135303487D01*
X91095160Y-135327137D01*
X90904550Y-135377598D01*
X90735529Y-135422800D01*
X90585972Y-135463392D01*
X90453752Y-135500021D01*
X90336745Y-135533337D01*
X90232826Y-135563986D01*
X90139867Y-135592616D01*
X90055745Y-135619877D01*
X89978334Y-135646416D01*
X89905508Y-135672881D01*
X89835142Y-135699920D01*
X89765110Y-135728181D01*
X89693288Y-135758313D01*
X89619043Y-135789326D01*
X89547320Y-135817291D01*
X89490771Y-135836407D01*
X89445279Y-135848043D01*
X89406727Y-135853569D01*
X89395612Y-135854383D01*
X89350744Y-135854783D01*
X89312715Y-135847630D01*
X89275394Y-135830254D01*
X89232650Y-135799986D01*
X89178350Y-135754158D01*
X89117712Y-135705512D01*
X89058009Y-135668988D01*
X88993006Y-135642228D01*
X88916017Y-135622488D01*
X88820359Y-135607018D01*
X88724794Y-135597062D01*
X88568960Y-135590945D01*
X88407452Y-135595559D01*
X88244093Y-135610181D01*
X88082707Y-135634091D01*
X87927116Y-135666566D01*
X87781145Y-135706885D01*
X87648615Y-135754327D01*
X87533350Y-135808170D01*
X87439174Y-135867693D01*
X87408723Y-135889905D01*
X87367994Y-135917661D01*
X87336850Y-135936709D01*
X87295315Y-135953799D01*
X87253103Y-135954003D01*
X87207016Y-135933246D01*
X87185087Y-135917671D01*
X87163269Y-135889923D01*
X87157148Y-135854640D01*
X87166339Y-135807390D01*
X87190452Y-135743742D01*
X87195373Y-135732072D01*
X87214236Y-135683351D01*
X87227856Y-135641808D01*
X87233564Y-135615400D01*
X87233738Y-135611224D01*
X87230731Y-135592829D01*
X87215823Y-135583914D01*
X87182265Y-135579793D01*
X87170850Y-135578598D01*
X87135944Y-135570384D01*
X87114792Y-135558480D01*
X87110949Y-135553452D01*
X87107290Y-135543599D01*
X87109790Y-135529541D01*
X87120233Y-135506920D01*
X87140406Y-135471375D01*
X87172092Y-135418550D01*
X87181043Y-135402089D01*
X87201891Y-135352318D01*
X87216576Y-135301923D01*
X87220648Y-135285476D01*
X87241167Y-135232536D01*
X87275723Y-135170537D01*
X87325918Y-135096822D01*
X87393355Y-135008733D01*
X87421047Y-134972691D01*
X87441893Y-134940168D01*
X87450473Y-134915663D01*
X87449618Y-134893364D01*
X87447927Y-134881581D01*
X87451271Y-134860416D01*
X87467148Y-134837966D01*
X87499541Y-134807374D01*
X87511182Y-134797899D01*
X87555849Y-134767858D01*
X87611569Y-134736371D01*
X87668982Y-134708880D01*
X87693264Y-134698227D01*
X87775899Y-134659712D01*
X87875703Y-134610526D01*
X87989259Y-134552434D01*
X88113148Y-134487204D01*
X88243951Y-134416601D01*
X88378250Y-134342393D01*
X88385533Y-134338324D01*
X88467177Y-134293050D01*
X88562891Y-134240449D01*
X88665085Y-134184669D01*
X88766166Y-134129853D01*
X88858543Y-134080146D01*
X88890992Y-134062664D01*
X88972726Y-134017727D01*
X89051155Y-133973428D01*
X89121475Y-133932545D01*
X89178882Y-133897852D01*
X89218571Y-133872126D01*
X89249920Y-133850281D01*
X89310162Y-133808256D01*
X89355178Y-133777730D01*
X89389159Y-133756966D01*
X89416300Y-133744226D01*
X89440791Y-133737771D01*
X89466827Y-133735863D01*
X89498599Y-133736764D01*
%TA.AperFunction,EtchedComponent*%
G36*
X89498599Y-133736764D02*
G01*
X89540300Y-133738736D01*
X89550136Y-133739171D01*
X89634334Y-133747306D01*
X89694805Y-133762341D01*
X89731282Y-133784179D01*
X89743500Y-133812724D01*
X89740206Y-133828263D01*
X89724450Y-133845507D01*
X89713166Y-133855237D01*
X89705400Y-133880424D01*
X89698175Y-133902514D01*
X89668510Y-133921955D01*
X89645273Y-133936339D01*
X89614148Y-133965527D01*
X89584286Y-134001092D01*
X89561849Y-134035584D01*
X89553000Y-134061555D01*
X89562222Y-134076681D01*
X89587265Y-134078623D01*
X89623657Y-134069142D01*
X89666925Y-134050199D01*
X89712599Y-134023755D01*
X89756204Y-133991770D01*
X89793270Y-133956206D01*
X89809498Y-133938631D01*
X89839766Y-133912016D01*
X89872717Y-133893562D01*
X89912030Y-133882849D01*
X89961387Y-133879456D01*
X90024468Y-133882963D01*
X90104954Y-133892949D01*
X90206526Y-133908994D01*
X90256870Y-133916251D01*
X90330189Y-133924665D01*
X90409932Y-133932102D01*
X90485926Y-133937523D01*
X90534206Y-133940467D01*
X90591850Y-133945193D01*
X90636004Y-133951521D01*
X90673864Y-133960970D01*
X90712630Y-133975061D01*
X90759500Y-133995315D01*
X90825427Y-134024710D01*
X90899713Y-134057378D01*
X90956888Y-134081607D01*
X91000431Y-134098639D01*
X91033824Y-134109716D01*
X91060548Y-134116080D01*
X91084083Y-134118973D01*
X91107909Y-134119637D01*
X91139950Y-134120202D01*
X91166593Y-134123534D01*
X91192749Y-134131909D01*
X91223815Y-134147602D01*
X91265186Y-134172889D01*
X91322258Y-134210046D01*
X91361419Y-134237060D01*
X91410267Y-134277059D01*
X91454497Y-134323484D01*
X91502379Y-134384335D01*
X91508624Y-134392674D01*
X91550705Y-134446427D01*
X91602902Y-134510163D01*
X91659174Y-134576606D01*
X91713480Y-134638485D01*
X91736866Y-134664715D01*
X91820040Y-134761338D01*
X91888514Y-134846593D01*
X91941483Y-134919320D01*
X91978143Y-134978361D01*
X91997689Y-135022554D01*
X91999319Y-135050741D01*
X91987851Y-135060101D01*
X91952801Y-135076254D01*
X91895953Y-135097458D01*
X91818876Y-135123226D01*
X91723138Y-135153071D01*
X91610308Y-135186507D01*
X91481954Y-135223046D01*
X91339646Y-135262201D01*
X91184950Y-135303487D01*
X91095160Y-135327137D01*
X90904550Y-135377598D01*
X90735529Y-135422800D01*
X90585972Y-135463392D01*
X90453752Y-135500021D01*
X90336745Y-135533337D01*
X90232826Y-135563986D01*
X90139867Y-135592616D01*
X90055745Y-135619877D01*
X89978334Y-135646416D01*
X89905508Y-135672881D01*
X89835142Y-135699920D01*
X89765110Y-135728181D01*
X89693288Y-135758313D01*
X89619043Y-135789326D01*
X89547320Y-135817291D01*
X89490771Y-135836407D01*
X89445279Y-135848043D01*
X89406727Y-135853569D01*
X89395612Y-135854383D01*
X89350744Y-135854783D01*
X89312715Y-135847630D01*
X89275394Y-135830254D01*
X89232650Y-135799986D01*
X89178350Y-135754158D01*
X89117712Y-135705512D01*
X89058009Y-135668988D01*
X88993006Y-135642228D01*
X88916017Y-135622488D01*
X88820359Y-135607018D01*
X88724794Y-135597062D01*
X88568960Y-135590945D01*
X88407452Y-135595559D01*
X88244093Y-135610181D01*
X88082707Y-135634091D01*
X87927116Y-135666566D01*
X87781145Y-135706885D01*
X87648615Y-135754327D01*
X87533350Y-135808170D01*
X87439174Y-135867693D01*
X87408723Y-135889905D01*
X87367994Y-135917661D01*
X87336850Y-135936709D01*
X87295315Y-135953799D01*
X87253103Y-135954003D01*
X87207016Y-135933246D01*
X87185087Y-135917671D01*
X87163269Y-135889923D01*
X87157148Y-135854640D01*
X87166339Y-135807390D01*
X87190452Y-135743742D01*
X87195373Y-135732072D01*
X87214236Y-135683351D01*
X87227856Y-135641808D01*
X87233564Y-135615400D01*
X87233738Y-135611224D01*
X87230731Y-135592829D01*
X87215823Y-135583914D01*
X87182265Y-135579793D01*
X87170850Y-135578598D01*
X87135944Y-135570384D01*
X87114792Y-135558480D01*
X87110949Y-135553452D01*
X87107290Y-135543599D01*
X87109790Y-135529541D01*
X87120233Y-135506920D01*
X87140406Y-135471375D01*
X87172092Y-135418550D01*
X87181043Y-135402089D01*
X87201891Y-135352318D01*
X87216576Y-135301923D01*
X87220648Y-135285476D01*
X87241167Y-135232536D01*
X87275723Y-135170537D01*
X87325918Y-135096822D01*
X87393355Y-135008733D01*
X87421047Y-134972691D01*
X87441893Y-134940168D01*
X87450473Y-134915663D01*
X87449618Y-134893364D01*
X87447927Y-134881581D01*
X87451271Y-134860416D01*
X87467148Y-134837966D01*
X87499541Y-134807374D01*
X87511182Y-134797899D01*
X87555849Y-134767858D01*
X87611569Y-134736371D01*
X87668982Y-134708880D01*
X87693264Y-134698227D01*
X87775899Y-134659712D01*
X87875703Y-134610526D01*
X87989259Y-134552434D01*
X88113148Y-134487204D01*
X88243951Y-134416601D01*
X88378250Y-134342393D01*
X88385533Y-134338324D01*
X88467177Y-134293050D01*
X88562891Y-134240449D01*
X88665085Y-134184669D01*
X88766166Y-134129853D01*
X88858543Y-134080146D01*
X88890992Y-134062664D01*
X88972726Y-134017727D01*
X89051155Y-133973428D01*
X89121475Y-133932545D01*
X89178882Y-133897852D01*
X89218571Y-133872126D01*
X89249920Y-133850281D01*
X89310162Y-133808256D01*
X89355178Y-133777730D01*
X89389159Y-133756966D01*
X89416300Y-133744226D01*
X89440791Y-133737771D01*
X89466827Y-133735863D01*
X89498599Y-133736764D01*
G37*
%TD.AperFunction*%
X92061731Y-137047534D02*
X92061731Y-137047542D01*
X92055024Y-137081225D01*
X92043827Y-137116854D01*
X92034204Y-137146188D01*
X92026567Y-137182665D01*
X92028078Y-137216683D01*
X92039504Y-137256618D01*
X92061613Y-137310850D01*
X92062400Y-137312691D01*
X92070214Y-137334602D01*
X92075525Y-137359993D01*
X92078572Y-137393241D01*
X92079594Y-137438723D01*
X92078829Y-137500817D01*
X92076518Y-137583900D01*
X92074313Y-137645580D01*
X92069078Y-137745884D01*
X92062081Y-137825341D01*
X92052811Y-137886931D01*
X92040760Y-137933631D01*
X92025417Y-137968420D01*
X92006273Y-137994277D01*
X92004753Y-137995833D01*
X91979408Y-138017566D01*
X91938517Y-138048642D01*
X91887397Y-138085141D01*
X91831364Y-138123148D01*
X91806968Y-138139577D01*
X91734494Y-138192390D01*
X91673410Y-138243020D01*
X91629378Y-138286876D01*
X91622486Y-138294731D01*
X91568829Y-138345805D01*
X91517466Y-138374821D01*
X91464633Y-138384000D01*
X91445096Y-138387490D01*
X91403449Y-138407268D01*
X91355334Y-138441012D01*
X91306189Y-138484700D01*
X91261449Y-138534310D01*
X91247308Y-138552902D01*
X91211079Y-138606601D01*
X91175017Y-138667261D01*
X91141985Y-138729317D01*
X91114847Y-138787203D01*
X91096464Y-138835353D01*
X91089700Y-138868202D01*
X91089827Y-138874452D01*
X91096819Y-138914567D01*
X91111970Y-138944039D01*
X91131733Y-138955500D01*
X91132751Y-138955353D01*
X91150348Y-138945744D01*
X91182604Y-138923293D01*
X91225286Y-138891072D01*
X91274161Y-138852153D01*
X91297047Y-138833564D01*
X91404811Y-138748538D01*
X91497059Y-138680238D01*
X91573404Y-138628889D01*
X91633458Y-138594717D01*
X91676834Y-138577947D01*
X91703144Y-138578806D01*
X91712000Y-138597517D01*
X91710674Y-138610655D01*
X91700686Y-138651689D01*
X91682502Y-138708038D01*
X91658024Y-138774652D01*
X91629152Y-138846483D01*
X91597789Y-138918482D01*
X91565835Y-138985601D01*
X91565651Y-138985968D01*
X91538638Y-139041592D01*
X91516524Y-139090511D01*
X91512964Y-139099314D01*
X91501586Y-139127451D01*
X91496100Y-139147136D01*
X91495605Y-139150544D01*
X91484501Y-139174383D01*
X91461782Y-139209614D01*
X91431415Y-139249933D01*
X91404414Y-139283885D01*
X91383430Y-139313854D01*
X91373343Y-139337605D01*
X91371259Y-139362537D01*
X91374285Y-139396050D01*
X91378725Y-139428317D01*
X91390315Y-139480828D01*
X91404557Y-139514878D01*
X91420234Y-139527000D01*
X91424843Y-139525531D01*
X91439791Y-139507614D01*
X91454703Y-139475824D01*
X91466199Y-139438400D01*
X91470895Y-139403582D01*
X91471069Y-139396089D01*
X91478223Y-139357873D01*
X91494478Y-139339763D01*
X91517964Y-139344118D01*
X91528735Y-139355414D01*
X91545232Y-139393257D01*
X91559418Y-139452889D01*
X91570813Y-139532080D01*
X91578939Y-139628600D01*
X91586255Y-139749250D01*
X91488041Y-139810752D01*
X91445923Y-139835813D01*
X91375583Y-139868948D01*
X91315032Y-139882588D01*
X91259933Y-139876671D01*
X91205948Y-139851134D01*
X91148740Y-139805917D01*
X91121087Y-139781542D01*
X91082996Y-139752631D01*
X91059578Y-139742411D01*
X91051600Y-139751313D01*
X91055969Y-139761882D01*
X91070938Y-139788591D01*
X91092875Y-139824101D01*
X91102822Y-139839910D01*
X91119802Y-139871311D01*
X91129228Y-139901320D01*
X91133284Y-139938863D01*
X91134150Y-139992861D01*
X91134046Y-140006032D01*
X91131705Y-140055109D01*
X91126877Y-140092371D01*
X91120354Y-140111034D01*
X91104342Y-140121834D01*
X91063776Y-140131996D01*
X91015790Y-140130614D01*
X90970270Y-140117277D01*
X90959496Y-140112342D01*
X90932500Y-140101860D01*
X90919832Y-140100012D01*
X90916854Y-140110321D01*
X90911128Y-140139690D01*
X90904411Y-140180552D01*
X90892850Y-140256254D01*
X90831204Y-140278205D01*
X90810610Y-140286227D01*
X90771363Y-140305088D01*
X90744768Y-140322589D01*
X90739393Y-140327265D01*
X90717967Y-140337948D01*
X90695290Y-140329711D01*
X90677314Y-140318577D01*
X90644868Y-140298525D01*
X90625307Y-140290549D01*
X90602990Y-140294154D01*
X90569327Y-140311225D01*
X90544102Y-140324784D01*
X90507255Y-140337554D01*
X90477097Y-140334023D01*
X90445466Y-140314400D01*
X90432088Y-140304917D01*
X90397690Y-140291458D01*
X90356558Y-140292698D01*
X90301493Y-140308334D01*
X90246692Y-140327669D01*
X90194641Y-140276584D01*
X90167027Y-140251357D01*
X90131814Y-140229547D01*
X90102086Y-140229696D01*
X90073191Y-140252468D01*
X90040477Y-140298525D01*
X90015786Y-140335221D01*
X89985782Y-140374097D01*
X89961260Y-140400061D01*
X89920187Y-140423972D01*
X89867602Y-140428565D01*
X89809625Y-140408355D01*
X89746234Y-140363337D01*
X89722186Y-140343890D01*
X89693704Y-140329720D01*
X89669536Y-140334605D01*
X89642519Y-140358191D01*
X89612223Y-140382042D01*
X89578379Y-140396954D01*
X89553222Y-140398369D01*
X89506378Y-140394989D01*
X89446331Y-140387132D01*
X89379204Y-140375740D01*
X89311119Y-140361756D01*
X89248200Y-140346121D01*
X89184274Y-140329394D01*
X89134947Y-140319945D01*
X89093527Y-140317769D01*
X89051850Y-140322448D01*
X89001755Y-140333567D01*
X88997552Y-140334600D01*
X88934050Y-140346378D01*
X88884862Y-140348084D01*
X88853081Y-140339940D01*
X88841800Y-140322167D01*
X88847792Y-140306587D01*
X88866164Y-140276940D01*
X88892600Y-140241215D01*
X88901322Y-140230092D01*
X88929380Y-140190590D01*
X88942459Y-140164879D01*
X88939932Y-140154696D01*
X88921175Y-140161779D01*
X88906427Y-140171292D01*
X88874618Y-140193008D01*
X88837239Y-140219376D01*
X88802597Y-140242581D01*
X88772206Y-140256348D01*
X88737595Y-140262309D01*
X88688196Y-140263600D01*
X88643311Y-140265208D01*
X88587592Y-140270755D01*
X88543685Y-140278893D01*
X88528380Y-140282850D01*
X88497441Y-140287891D01*
X88475499Y-140282747D01*
X88451428Y-140265843D01*
X88450326Y-140264960D01*
X88412786Y-140239503D01*
X88371900Y-140217646D01*
X88367942Y-140215810D01*
X88326959Y-140191633D01*
X88289350Y-140162379D01*
X88271216Y-140148329D01*
X88228294Y-140123888D01*
X88181400Y-140104751D01*
X88137423Y-140089425D01*
X88097859Y-140069056D01*
X88076368Y-140043948D01*
X88071284Y-140009611D01*
X88080941Y-139961558D01*
X88103674Y-139895300D01*
X88116940Y-139853966D01*
X88128975Y-139787675D01*
X88128469Y-139729412D01*
X88116106Y-139683028D01*
X88092572Y-139652373D01*
X88058549Y-139641300D01*
X88046510Y-139641737D01*
X88032008Y-139648798D01*
X88034364Y-139669875D01*
X88043576Y-139710443D01*
X88045941Y-139794278D01*
X88026141Y-139871415D01*
X87985922Y-139938439D01*
X87927026Y-139991934D01*
X87851200Y-140028484D01*
X87821817Y-140038846D01*
X87784202Y-140054933D01*
X87761300Y-140068381D01*
X87760413Y-140069147D01*
X87733904Y-140084242D01*
X87713119Y-140076448D01*
X87694588Y-140044525D01*
X87693104Y-140041015D01*
X87676412Y-140009227D01*
X87654727Y-139987342D01*
X87621385Y-139970526D01*
X87569725Y-139953947D01*
X87554404Y-139949164D01*
X87491179Y-139917348D01*
X87448733Y-139871484D01*
X87426207Y-139810716D01*
X87420948Y-139785797D01*
X87406120Y-139744509D01*
X87382088Y-139716090D01*
X87342776Y-139691883D01*
X87339880Y-139690407D01*
X87317881Y-139678501D01*
X87303378Y-139666151D01*
X87294960Y-139648367D01*
X87291219Y-139620159D01*
X87290747Y-139576536D01*
X87292134Y-139512507D01*
X87292689Y-139485475D01*
X87292105Y-139445660D01*
X87287769Y-139421251D01*
X87277946Y-139405550D01*
X87260905Y-139391857D01*
X87221577Y-139363185D01*
X87178723Y-139325488D01*
X87153444Y-139288807D01*
X87143382Y-139246874D01*
X87146181Y-139193420D01*
X87159482Y-139122177D01*
X87172581Y-139069906D01*
X87174207Y-139065686D01*
X87854415Y-139065686D01*
X87872042Y-139070264D01*
X87908747Y-139059511D01*
X87964184Y-139033431D01*
X88038008Y-138992027D01*
X88169415Y-138914254D01*
X88273833Y-138934416D01*
X88314413Y-138942384D01*
X88382976Y-138956160D01*
X88458471Y-138971593D01*
X88530650Y-138986601D01*
X88536100Y-138987734D01*
X88610229Y-139001542D01*
X88698209Y-139015695D01*
X88789490Y-139028591D01*
X88873527Y-139038629D01*
X88891503Y-139040552D01*
X88977486Y-139051145D01*
X89044163Y-139062368D01*
X89096691Y-139075229D01*
X89140227Y-139090734D01*
X89145173Y-139092811D01*
X89273796Y-139141891D01*
X89387236Y-139174477D01*
X89488974Y-139191148D01*
X89582490Y-139192483D01*
X89671264Y-139179061D01*
X89712602Y-139169954D01*
X89772781Y-139161175D01*
X89824548Y-139162395D01*
X89877724Y-139174282D01*
X89942130Y-139197506D01*
X89961387Y-139204848D01*
X90025680Y-139226791D01*
X90097996Y-139248736D01*
X90166044Y-139266876D01*
X90195241Y-139273715D01*
X90260267Y-139287608D01*
X90320933Y-139298994D01*
X90367134Y-139305910D01*
X90405562Y-139309714D01*
X90429728Y-139309361D01*
X90439913Y-139302880D01*
X90442000Y-139288937D01*
X90441376Y-139280774D01*
X90434540Y-139247776D01*
X90422593Y-139208487D01*
X90413943Y-139181050D01*
X90409386Y-139145442D01*
X90420189Y-139126304D01*
X90447202Y-139120600D01*
X90476371Y-139114405D01*
X90490105Y-139099314D01*
X90483394Y-139080713D01*
X90479268Y-139077832D01*
X90453805Y-139069327D01*
X90417536Y-139063535D01*
X90390296Y-139059008D01*
X90351768Y-139042118D01*
X90309891Y-139008799D01*
X90304750Y-139004105D01*
X90267528Y-138974877D01*
X90230806Y-138958728D01*
X90181646Y-138949698D01*
X90166159Y-138947606D01*
X90123951Y-138938127D01*
X90091922Y-138921045D01*
X90058222Y-138890694D01*
X90045396Y-138877985D01*
X90019542Y-138856025D01*
X90001031Y-138849293D01*
X89983373Y-138854663D01*
X89967027Y-138860376D01*
X89945096Y-138855627D01*
X89914099Y-138835061D01*
X89906340Y-138829355D01*
X89867929Y-138805224D01*
X89833508Y-138788883D01*
X89825451Y-138785644D01*
X89803251Y-138771189D01*
X89779334Y-138745856D01*
X89750393Y-138705745D01*
X89713120Y-138646958D01*
X89689607Y-138619053D01*
X89661954Y-138600281D01*
X89646115Y-138592120D01*
X89613492Y-138563425D01*
X89588423Y-138527200D01*
X89578400Y-138493063D01*
X89573324Y-138462893D01*
X89549476Y-138427996D01*
X89510567Y-138406815D01*
X89461568Y-138401631D01*
X89407453Y-138414721D01*
X89406655Y-138415054D01*
X89364002Y-138430751D01*
X89339039Y-138432813D01*
X89327319Y-138419969D01*
X89324400Y-138390947D01*
X89326606Y-138351219D01*
X89337290Y-138315956D01*
X89360641Y-138289526D01*
X89400783Y-138267570D01*
X89461842Y-138245730D01*
X89473867Y-138241173D01*
X89513610Y-138220422D01*
X89552570Y-138193841D01*
X89568809Y-138181712D01*
X89599112Y-138162838D01*
X89619127Y-138155400D01*
X89638587Y-138163162D01*
X89668573Y-138190078D01*
X89702521Y-138232269D01*
X89736674Y-138285575D01*
X89760533Y-138323274D01*
X89779485Y-138342676D01*
X89790645Y-138338323D01*
X89794300Y-138310340D01*
X89795369Y-138293030D01*
X89807427Y-138264104D01*
X89835956Y-138248787D01*
X89884766Y-138244300D01*
X89902060Y-138243560D01*
X89960555Y-138226918D01*
X90006981Y-138188131D01*
X90041775Y-138126872D01*
X90056718Y-138082024D01*
X90063135Y-138022702D01*
X90048357Y-137977153D01*
X90012217Y-137944989D01*
X89954545Y-137925823D01*
X89903229Y-137911992D01*
X89837782Y-137886604D01*
X89774899Y-137855606D01*
X89725806Y-137823997D01*
X89723328Y-137821982D01*
X89697703Y-137785074D01*
X89694197Y-137736817D01*
X89712920Y-137678478D01*
X89728541Y-137649302D01*
X89749338Y-137625182D01*
X89777917Y-137610254D01*
X89820150Y-137601674D01*
X89881904Y-137596600D01*
X89991150Y-137590250D01*
X89995120Y-137542149D01*
X89995171Y-137541528D01*
X89994441Y-137508180D01*
X89982650Y-137481288D01*
X89955115Y-137450074D01*
X89925236Y-137424777D01*
X89891768Y-137410095D01*
X89855350Y-137411046D01*
X89812541Y-137428504D01*
X89759901Y-137463345D01*
X89693993Y-137516443D01*
X89689048Y-137520616D01*
X89604006Y-137584494D01*
X89519754Y-137630886D01*
X89426870Y-137665033D01*
X89426081Y-137665266D01*
X89371035Y-137676738D01*
X89306011Y-137683368D01*
X89239692Y-137684945D01*
X89180761Y-137681256D01*
X89137902Y-137672090D01*
X89110846Y-137660167D01*
X89040761Y-137613710D01*
X88974688Y-137548896D01*
X88917235Y-137470731D01*
X88873008Y-137384222D01*
X88858417Y-137350237D01*
X88837190Y-137312660D01*
X88816852Y-137296831D01*
X88794209Y-137300922D01*
X88766062Y-137323107D01*
X88760353Y-137328705D01*
X88734404Y-137362333D01*
X88730310Y-137392259D01*
X88746954Y-137424402D01*
X88757181Y-137448046D01*
X88764110Y-137491017D01*
X88764978Y-137540051D01*
X88759717Y-137584937D01*
X88748257Y-137615463D01*
X88735012Y-137627417D01*
X88703917Y-137638480D01*
X88653007Y-137644817D01*
X88644153Y-137645494D01*
X88602693Y-137650621D01*
X88581225Y-137658439D01*
X88575100Y-137670478D01*
X88574161Y-137687234D01*
X88571145Y-137724812D01*
X88566543Y-137776471D01*
X88560867Y-137836276D01*
X88556112Y-137885899D01*
X88552959Y-137941531D01*
X88557657Y-137978453D01*
X88573714Y-138000498D01*
X88604639Y-138011498D01*
X88653942Y-138015288D01*
X88725131Y-138015700D01*
X88857607Y-138015700D01*
X88852284Y-138127048D01*
X88850177Y-138162345D01*
X88843825Y-138216285D01*
X88832962Y-138257677D01*
X88815749Y-138294976D01*
X88793981Y-138327575D01*
X88763764Y-138358691D01*
X88734683Y-138376329D01*
X88712317Y-138376114D01*
X88712057Y-138375924D01*
X88708202Y-138360033D01*
X88707550Y-138326267D01*
X88710256Y-138281639D01*
X88713057Y-138241832D01*
X88711988Y-138205540D01*
X88704914Y-138193500D01*
X88701199Y-138194307D01*
X88680752Y-138209218D01*
X88652729Y-138238749D01*
X88621630Y-138277414D01*
X88591958Y-138319723D01*
X88568211Y-138360190D01*
X88556522Y-138380982D01*
X88534109Y-138412552D01*
X88515365Y-138429584D01*
X88501226Y-138432669D01*
X88464389Y-138436710D01*
X88410530Y-138440672D01*
X88344288Y-138444227D01*
X88270300Y-138447044D01*
X88048050Y-138453850D01*
X87975326Y-138561800D01*
X87954016Y-138594046D01*
X87927424Y-138636365D01*
X87909161Y-138668115D01*
X87902301Y-138684143D01*
X87902584Y-138686859D01*
X87917921Y-138701033D01*
X87953744Y-138710475D01*
X88006026Y-138714026D01*
X88036690Y-138716775D01*
X88061004Y-138728080D01*
X88062984Y-138745129D01*
X88042871Y-138764659D01*
X88000905Y-138783405D01*
X87982671Y-138790477D01*
X87966036Y-138803920D01*
X87955139Y-138828155D01*
X87945393Y-138870369D01*
X87928195Y-138928512D01*
X87890948Y-138993450D01*
X87877774Y-139010524D01*
X87856210Y-139045774D01*
X87854415Y-139065686D01*
X87174207Y-139065686D01*
X87208195Y-138977448D01*
X87257002Y-138903072D01*
X87321024Y-138843283D01*
X87356781Y-138815140D01*
X87415621Y-138762185D01*
X87470112Y-138705540D01*
X87517130Y-138649081D01*
X87553548Y-138596683D01*
X87576241Y-138552223D01*
X87582084Y-138519575D01*
X87571411Y-138498129D01*
X87536866Y-138478605D01*
X87535069Y-138478016D01*
X87503002Y-138464870D01*
X87482210Y-138451889D01*
X87478955Y-138444511D01*
X87472343Y-138414746D01*
X87464792Y-138367094D01*
X87457003Y-138306181D01*
X87449674Y-138236633D01*
X87445270Y-138192867D01*
X87432104Y-138089114D01*
X87416851Y-138006132D01*
X87398933Y-137940553D01*
X87382797Y-137885320D01*
X87366176Y-137813588D01*
X87355094Y-137748567D01*
X87354600Y-137744668D01*
X87345731Y-137685631D01*
X87333493Y-137623470D01*
X87316817Y-137554039D01*
X87294636Y-137473190D01*
X87265883Y-137376775D01*
X87229490Y-137260647D01*
X87215946Y-137217722D01*
X87187027Y-137120588D01*
X87167580Y-137041874D01*
X87157861Y-136977761D01*
X87158125Y-136924426D01*
X87168626Y-136878049D01*
X87189621Y-136834808D01*
X87221365Y-136790883D01*
X87264113Y-136742453D01*
X87271004Y-136734949D01*
X87311584Y-136687388D01*
X87348741Y-136638895D01*
X87375183Y-136598895D01*
X87385266Y-136581239D01*
X87409066Y-136541489D01*
X87426316Y-136522198D01*
X87442030Y-136522434D01*
X87461220Y-136541266D01*
X87488900Y-136577761D01*
X87494922Y-136585797D01*
X87606474Y-136722704D01*
X87716723Y-136835275D01*
X87825324Y-136923190D01*
X87931932Y-136986132D01*
X87983080Y-137008833D01*
X88063723Y-137036616D01*
X88148753Y-137054990D01*
X88244977Y-137065274D01*
X88359200Y-137068783D01*
X88422266Y-137068827D01*
X88475372Y-137067718D01*
X88514235Y-137064584D01*
X88544796Y-137058605D01*
X88572994Y-137048960D01*
X88604766Y-137034828D01*
X88626966Y-137024056D01*
X88669555Y-137000623D01*
X88712488Y-136972384D01*
X88760192Y-136936075D01*
X88817094Y-136888428D01*
X88887620Y-136826178D01*
X88902135Y-136813032D01*
X89026672Y-136686232D01*
X89084602Y-136611196D01*
X89882541Y-136611196D01*
X89892561Y-136625140D01*
X89919388Y-136629167D01*
X89963584Y-136626136D01*
X89990335Y-136621262D01*
X90054355Y-136599203D01*
X90131290Y-136561673D01*
X90162450Y-136545201D01*
X90283255Y-136489639D01*
X90409287Y-136443269D01*
X90534399Y-136407902D01*
X90652440Y-136385348D01*
X90757261Y-136377416D01*
X90774015Y-136377708D01*
X90879582Y-136391515D01*
X90987515Y-136423902D01*
X91092328Y-136471973D01*
X91188535Y-136532832D01*
X91270649Y-136603585D01*
X91333183Y-136681336D01*
X91345562Y-136702601D01*
X91362470Y-136739501D01*
X91369100Y-136766314D01*
X91363967Y-136785799D01*
X91341364Y-136815040D01*
X91308571Y-136838003D01*
X91274241Y-136847300D01*
X91260881Y-136844130D01*
X91227559Y-136829708D01*
X91182993Y-136806294D01*
X91133079Y-136776833D01*
X91087156Y-136748723D01*
X90992781Y-136695160D01*
X90910969Y-136656302D01*
X90837132Y-136630752D01*
X90766684Y-136617116D01*
X90695039Y-136613997D01*
X90617610Y-136620000D01*
X90603827Y-136621868D01*
X90543176Y-136633372D01*
X90480317Y-136649698D01*
X90419087Y-136669278D01*
X90363322Y-136690547D01*
X90316859Y-136711939D01*
X90283533Y-136731889D01*
X90267182Y-136748831D01*
X90271641Y-136761199D01*
X90274613Y-136761895D01*
X90297645Y-136759464D01*
X90336318Y-136750995D01*
X90384139Y-136737836D01*
X90387437Y-136736856D01*
X90520461Y-136710703D01*
X90656289Y-136709175D01*
X90792400Y-136732079D01*
X90926272Y-136779222D01*
X90926342Y-136779253D01*
X90969606Y-136802121D01*
X91009340Y-136829013D01*
X91040836Y-136855911D01*
X91059388Y-136878795D01*
X91060288Y-136893646D01*
X91053844Y-136894604D01*
X91027115Y-136890592D01*
X90985343Y-136880631D01*
X90934213Y-136865971D01*
X90933812Y-136865847D01*
X90869105Y-136847497D01*
X90814761Y-136836764D01*
X90758901Y-136831970D01*
X90689650Y-136831439D01*
X90674017Y-136831865D01*
X90622139Y-136835145D01*
X90559917Y-136840988D01*
X90492442Y-136848697D01*
X90424805Y-136857578D01*
X90362099Y-136866933D01*
X90309413Y-136876069D01*
X90271840Y-136884288D01*
X90254470Y-136890897D01*
X90252836Y-136894526D01*
X90264518Y-136904931D01*
X90296009Y-136915852D01*
X90343340Y-136926119D01*
X90402541Y-136934561D01*
X90456928Y-136941844D01*
X90494763Y-136950973D01*
X90523196Y-136964624D01*
X90550270Y-136985576D01*
X90564723Y-136997874D01*
X90590224Y-137017437D01*
X90604367Y-137025195D01*
X90619285Y-137026844D01*
X90652427Y-137031421D01*
X90696000Y-137037884D01*
X90739999Y-137044572D01*
X90793106Y-137052968D01*
X90827765Y-137059826D01*
X90848054Y-137066761D01*
X90858054Y-137075387D01*
X90861844Y-137087320D01*
X90863503Y-137104173D01*
X90867231Y-137125357D01*
X90880990Y-137144125D01*
X90911900Y-137155619D01*
X90938178Y-137164686D01*
X90975013Y-137183712D01*
X91006842Y-137206173D01*
X91027560Y-137227572D01*
X91031061Y-137243410D01*
X91022791Y-137248347D01*
X90997749Y-137251144D01*
X90954428Y-137249850D01*
X90890577Y-137244377D01*
X90803950Y-137234640D01*
X90753150Y-137228520D01*
X90816842Y-137259646D01*
X90817029Y-137259737D01*
X90879280Y-137283325D01*
X90961023Y-137302543D01*
X91063672Y-137317599D01*
X91188643Y-137328699D01*
X91337350Y-137336052D01*
X91401575Y-137338472D01*
X91473158Y-137341674D01*
X91534277Y-137344951D01*
X91579957Y-137348035D01*
X91605223Y-137350652D01*
X91629179Y-137352317D01*
X91652782Y-137342951D01*
X91678952Y-137316427D01*
X91715604Y-137266467D01*
X91754928Y-137193291D01*
X91781546Y-137118225D01*
X91793375Y-137047534D01*
X91788331Y-136987485D01*
X91785846Y-136979602D01*
X91761167Y-136935212D01*
X91722768Y-136891996D01*
X91678343Y-136857433D01*
X91635587Y-136839002D01*
X91616907Y-136834445D01*
X91595789Y-136823579D01*
X91581511Y-136803422D01*
X91570889Y-136768653D01*
X91560739Y-136713950D01*
X91554340Y-136681123D01*
X91515905Y-136566437D01*
X91454849Y-136459852D01*
X91372895Y-136363503D01*
X91271771Y-136279521D01*
X91153200Y-136210041D01*
X91073222Y-136171404D01*
X90981203Y-136127727D01*
X90907043Y-136093777D01*
X90848009Y-136068458D01*
X90801371Y-136050674D01*
X90764396Y-136039329D01*
X90734353Y-136033326D01*
X90708510Y-136031569D01*
X90665995Y-136036048D01*
X90589532Y-136059532D01*
X90498122Y-136103034D01*
X90392030Y-136166442D01*
X90353371Y-136191171D01*
X90296984Y-136225385D01*
X90249505Y-136250731D01*
X90203473Y-136271043D01*
X90151427Y-136290159D01*
X90140551Y-136294024D01*
X90096025Y-136313794D01*
X90057844Y-136339752D01*
X90021687Y-136376082D01*
X89983230Y-136426968D01*
X89938153Y-136496592D01*
X89910677Y-136542108D01*
X89888767Y-136584472D01*
X89882541Y-136611196D01*
X89084602Y-136611196D01*
X89131056Y-136551025D01*
X89218720Y-136402412D01*
X89293096Y-136235389D01*
X89340703Y-136112428D01*
X89553463Y-136016714D01*
X89698936Y-135952774D01*
X89847361Y-135891072D01*
X89995305Y-135833581D01*
X90146414Y-135779087D01*
X90304332Y-135726376D01*
X90472705Y-135674233D01*
X90655177Y-135621442D01*
X90855394Y-135566791D01*
X91077000Y-135509063D01*
X91533461Y-135385776D01*
X92010291Y-135243050D01*
X92149831Y-135199131D01*
X92228720Y-135282818D01*
X92235157Y-135289643D01*
X92270477Y-135326474D01*
X92293542Y-135347671D01*
X92308796Y-135355782D01*
X92320685Y-135353354D01*
X92333655Y-135342933D01*
X92351625Y-135322804D01*
X92357671Y-135299458D01*
X92347506Y-135269990D01*
X92320425Y-135228312D01*
X92307788Y-135210299D01*
X92292208Y-135183212D01*
X92289477Y-135163720D01*
X92297377Y-135143686D01*
X92297454Y-135143543D01*
X92311038Y-135109410D01*
X92320970Y-135069436D01*
X92326796Y-135046479D01*
X92344012Y-135024479D01*
X92370769Y-135025690D01*
X92407820Y-135049942D01*
X92414074Y-135055451D01*
X92452724Y-135101035D01*
X92483215Y-135155926D01*
X92501682Y-135211701D01*
X92504255Y-135259939D01*
X92502449Y-135287038D01*
X92509800Y-135327080D01*
X92530543Y-135378001D01*
X92534931Y-135387496D01*
X92552498Y-135437194D01*
X92552018Y-135471573D01*
X92532610Y-135493676D01*
X92493395Y-135506547D01*
X92468734Y-135513399D01*
X92450979Y-135528069D01*
X92457989Y-135546054D01*
X92489875Y-135565483D01*
X92492412Y-135566641D01*
X92530079Y-135595865D01*
X92563529Y-135647150D01*
X92574265Y-135666847D01*
X92596742Y-135697576D01*
X92614329Y-135705442D01*
X92626638Y-135702119D01*
X92679550Y-135693707D01*
X92721593Y-135700562D01*
X92761419Y-135723761D01*
X92789643Y-135750511D01*
X92830601Y-135813124D01*
X92865060Y-135899403D01*
X92893255Y-136009852D01*
X92899265Y-136041437D01*
X92909824Y-136109470D01*
X92918334Y-136180797D01*
X92924493Y-136250686D01*
X92927998Y-136314403D01*
X92928546Y-136367216D01*
X92925836Y-136404390D01*
X92919563Y-136421193D01*
X92915027Y-136423457D01*
X92893204Y-136419759D01*
X92873071Y-136393236D01*
X92856418Y-136346019D01*
X92845403Y-136310082D01*
X92829947Y-136281736D01*
X92815441Y-136276958D01*
X92803292Y-136294713D01*
X92794907Y-136333963D01*
X92791695Y-136393673D01*
X92791264Y-136424265D01*
X92788333Y-136459550D01*
X92781457Y-136478465D01*
X92769275Y-136486664D01*
X92757686Y-136490466D01*
X92731201Y-136502495D01*
X92710462Y-136520060D01*
X92693405Y-136547052D01*
X92677968Y-136587360D01*
X92662088Y-136644875D01*
X92643704Y-136723486D01*
X92631162Y-136775027D01*
X92616121Y-136827813D01*
X92602283Y-136867697D01*
X92591541Y-136888677D01*
X92583305Y-136897326D01*
X92568220Y-136904047D01*
X92549627Y-136891231D01*
X92543257Y-136884838D01*
X92533449Y-136871541D01*
X92522980Y-136851729D01*
X92510734Y-136822437D01*
X92495594Y-136780698D01*
X92476445Y-136723545D01*
X92452171Y-136648014D01*
X92421655Y-136551137D01*
X92401695Y-136486676D01*
X92383293Y-136424298D01*
X92371858Y-136380274D01*
X92366695Y-136351430D01*
X92367109Y-136334596D01*
X92372402Y-136326599D01*
X92379229Y-136323245D01*
X92407243Y-136325876D01*
X92437595Y-136353571D01*
X92470411Y-136406431D01*
X92480393Y-136424772D01*
X92497875Y-136450546D01*
X92507540Y-136454218D01*
X92509410Y-136437222D01*
X92503506Y-136400994D01*
X92489850Y-136346968D01*
X92468462Y-136276578D01*
X92467800Y-136274526D01*
X92440071Y-136178641D01*
X92425620Y-136104280D01*
X92424445Y-136051319D01*
X92436543Y-136019634D01*
X92461910Y-136009100D01*
X92483550Y-136005109D01*
X92492014Y-135988532D01*
X92478539Y-135959568D01*
X92447646Y-135929082D01*
X92403621Y-135915575D01*
X92352330Y-135926157D01*
X92317911Y-135947232D01*
X92292260Y-135983730D01*
X92280156Y-136036550D01*
X92280299Y-136108991D01*
X92280776Y-136115910D01*
X92282607Y-136160134D01*
X92279127Y-136189700D01*
X92267964Y-136214048D01*
X92246749Y-136242621D01*
X92232953Y-136260182D01*
X92214522Y-136284935D01*
X92207300Y-136296653D01*
X92207101Y-136300055D01*
X92201461Y-136328596D01*
X92189421Y-136373889D01*
X92172821Y-136430066D01*
X92153500Y-136491262D01*
X92133300Y-136551611D01*
X92114059Y-136605248D01*
X92097618Y-136646306D01*
X92052313Y-136749349D01*
X92060789Y-136896749D01*
X92063827Y-136958042D01*
X92064485Y-137008813D01*
X92061731Y-137047534D01*
%TA.AperFunction,EtchedComponent*%
G36*
X92061731Y-137047534D02*
G01*
X92061731Y-137047542D01*
X92055024Y-137081225D01*
X92043827Y-137116854D01*
X92034204Y-137146188D01*
X92026567Y-137182665D01*
X92028078Y-137216683D01*
X92039504Y-137256618D01*
X92061613Y-137310850D01*
X92062400Y-137312691D01*
X92070214Y-137334602D01*
X92075525Y-137359993D01*
X92078572Y-137393241D01*
X92079594Y-137438723D01*
X92078829Y-137500817D01*
X92076518Y-137583900D01*
X92074313Y-137645580D01*
X92069078Y-137745884D01*
X92062081Y-137825341D01*
X92052811Y-137886931D01*
X92040760Y-137933631D01*
X92025417Y-137968420D01*
X92006273Y-137994277D01*
X92004753Y-137995833D01*
X91979408Y-138017566D01*
X91938517Y-138048642D01*
X91887397Y-138085141D01*
X91831364Y-138123148D01*
X91806968Y-138139577D01*
X91734494Y-138192390D01*
X91673410Y-138243020D01*
X91629378Y-138286876D01*
X91622486Y-138294731D01*
X91568829Y-138345805D01*
X91517466Y-138374821D01*
X91464633Y-138384000D01*
X91445096Y-138387490D01*
X91403449Y-138407268D01*
X91355334Y-138441012D01*
X91306189Y-138484700D01*
X91261449Y-138534310D01*
X91247308Y-138552902D01*
X91211079Y-138606601D01*
X91175017Y-138667261D01*
X91141985Y-138729317D01*
X91114847Y-138787203D01*
X91096464Y-138835353D01*
X91089700Y-138868202D01*
X91089827Y-138874452D01*
X91096819Y-138914567D01*
X91111970Y-138944039D01*
X91131733Y-138955500D01*
X91132751Y-138955353D01*
X91150348Y-138945744D01*
X91182604Y-138923293D01*
X91225286Y-138891072D01*
X91274161Y-138852153D01*
X91297047Y-138833564D01*
X91404811Y-138748538D01*
X91497059Y-138680238D01*
X91573404Y-138628889D01*
X91633458Y-138594717D01*
X91676834Y-138577947D01*
X91703144Y-138578806D01*
X91712000Y-138597517D01*
X91710674Y-138610655D01*
X91700686Y-138651689D01*
X91682502Y-138708038D01*
X91658024Y-138774652D01*
X91629152Y-138846483D01*
X91597789Y-138918482D01*
X91565835Y-138985601D01*
X91565651Y-138985968D01*
X91538638Y-139041592D01*
X91516524Y-139090511D01*
X91512964Y-139099314D01*
X91501586Y-139127451D01*
X91496100Y-139147136D01*
X91495605Y-139150544D01*
X91484501Y-139174383D01*
X91461782Y-139209614D01*
X91431415Y-139249933D01*
X91404414Y-139283885D01*
X91383430Y-139313854D01*
X91373343Y-139337605D01*
X91371259Y-139362537D01*
X91374285Y-139396050D01*
X91378725Y-139428317D01*
X91390315Y-139480828D01*
X91404557Y-139514878D01*
X91420234Y-139527000D01*
X91424843Y-139525531D01*
X91439791Y-139507614D01*
X91454703Y-139475824D01*
X91466199Y-139438400D01*
X91470895Y-139403582D01*
X91471069Y-139396089D01*
X91478223Y-139357873D01*
X91494478Y-139339763D01*
X91517964Y-139344118D01*
X91528735Y-139355414D01*
X91545232Y-139393257D01*
X91559418Y-139452889D01*
X91570813Y-139532080D01*
X91578939Y-139628600D01*
X91586255Y-139749250D01*
X91488041Y-139810752D01*
X91445923Y-139835813D01*
X91375583Y-139868948D01*
X91315032Y-139882588D01*
X91259933Y-139876671D01*
X91205948Y-139851134D01*
X91148740Y-139805917D01*
X91121087Y-139781542D01*
X91082996Y-139752631D01*
X91059578Y-139742411D01*
X91051600Y-139751313D01*
X91055969Y-139761882D01*
X91070938Y-139788591D01*
X91092875Y-139824101D01*
X91102822Y-139839910D01*
X91119802Y-139871311D01*
X91129228Y-139901320D01*
X91133284Y-139938863D01*
X91134150Y-139992861D01*
X91134046Y-140006032D01*
X91131705Y-140055109D01*
X91126877Y-140092371D01*
X91120354Y-140111034D01*
X91104342Y-140121834D01*
X91063776Y-140131996D01*
X91015790Y-140130614D01*
X90970270Y-140117277D01*
X90959496Y-140112342D01*
X90932500Y-140101860D01*
X90919832Y-140100012D01*
X90916854Y-140110321D01*
X90911128Y-140139690D01*
X90904411Y-140180552D01*
X90892850Y-140256254D01*
X90831204Y-140278205D01*
X90810610Y-140286227D01*
X90771363Y-140305088D01*
X90744768Y-140322589D01*
X90739393Y-140327265D01*
X90717967Y-140337948D01*
X90695290Y-140329711D01*
X90677314Y-140318577D01*
X90644868Y-140298525D01*
X90625307Y-140290549D01*
X90602990Y-140294154D01*
X90569327Y-140311225D01*
X90544102Y-140324784D01*
X90507255Y-140337554D01*
X90477097Y-140334023D01*
X90445466Y-140314400D01*
X90432088Y-140304917D01*
X90397690Y-140291458D01*
X90356558Y-140292698D01*
X90301493Y-140308334D01*
X90246692Y-140327669D01*
X90194641Y-140276584D01*
X90167027Y-140251357D01*
X90131814Y-140229547D01*
X90102086Y-140229696D01*
X90073191Y-140252468D01*
X90040477Y-140298525D01*
X90015786Y-140335221D01*
X89985782Y-140374097D01*
X89961260Y-140400061D01*
X89920187Y-140423972D01*
X89867602Y-140428565D01*
X89809625Y-140408355D01*
X89746234Y-140363337D01*
X89722186Y-140343890D01*
X89693704Y-140329720D01*
X89669536Y-140334605D01*
X89642519Y-140358191D01*
X89612223Y-140382042D01*
X89578379Y-140396954D01*
X89553222Y-140398369D01*
X89506378Y-140394989D01*
X89446331Y-140387132D01*
X89379204Y-140375740D01*
X89311119Y-140361756D01*
X89248200Y-140346121D01*
X89184274Y-140329394D01*
X89134947Y-140319945D01*
X89093527Y-140317769D01*
X89051850Y-140322448D01*
X89001755Y-140333567D01*
X88997552Y-140334600D01*
X88934050Y-140346378D01*
X88884862Y-140348084D01*
X88853081Y-140339940D01*
X88841800Y-140322167D01*
X88847792Y-140306587D01*
X88866164Y-140276940D01*
X88892600Y-140241215D01*
X88901322Y-140230092D01*
X88929380Y-140190590D01*
X88942459Y-140164879D01*
X88939932Y-140154696D01*
X88921175Y-140161779D01*
X88906427Y-140171292D01*
X88874618Y-140193008D01*
X88837239Y-140219376D01*
X88802597Y-140242581D01*
X88772206Y-140256348D01*
X88737595Y-140262309D01*
X88688196Y-140263600D01*
X88643311Y-140265208D01*
X88587592Y-140270755D01*
X88543685Y-140278893D01*
X88528380Y-140282850D01*
X88497441Y-140287891D01*
X88475499Y-140282747D01*
X88451428Y-140265843D01*
X88450326Y-140264960D01*
X88412786Y-140239503D01*
X88371900Y-140217646D01*
X88367942Y-140215810D01*
X88326959Y-140191633D01*
X88289350Y-140162379D01*
X88271216Y-140148329D01*
X88228294Y-140123888D01*
X88181400Y-140104751D01*
X88137423Y-140089425D01*
X88097859Y-140069056D01*
X88076368Y-140043948D01*
X88071284Y-140009611D01*
X88080941Y-139961558D01*
X88103674Y-139895300D01*
X88116940Y-139853966D01*
X88128975Y-139787675D01*
X88128469Y-139729412D01*
X88116106Y-139683028D01*
X88092572Y-139652373D01*
X88058549Y-139641300D01*
X88046510Y-139641737D01*
X88032008Y-139648798D01*
X88034364Y-139669875D01*
X88043576Y-139710443D01*
X88045941Y-139794278D01*
X88026141Y-139871415D01*
X87985922Y-139938439D01*
X87927026Y-139991934D01*
X87851200Y-140028484D01*
X87821817Y-140038846D01*
X87784202Y-140054933D01*
X87761300Y-140068381D01*
X87760413Y-140069147D01*
X87733904Y-140084242D01*
X87713119Y-140076448D01*
X87694588Y-140044525D01*
X87693104Y-140041015D01*
X87676412Y-140009227D01*
X87654727Y-139987342D01*
X87621385Y-139970526D01*
X87569725Y-139953947D01*
X87554404Y-139949164D01*
X87491179Y-139917348D01*
X87448733Y-139871484D01*
X87426207Y-139810716D01*
X87420948Y-139785797D01*
X87406120Y-139744509D01*
X87382088Y-139716090D01*
X87342776Y-139691883D01*
X87339880Y-139690407D01*
X87317881Y-139678501D01*
X87303378Y-139666151D01*
X87294960Y-139648367D01*
X87291219Y-139620159D01*
X87290747Y-139576536D01*
X87292134Y-139512507D01*
X87292689Y-139485475D01*
X87292105Y-139445660D01*
X87287769Y-139421251D01*
X87277946Y-139405550D01*
X87260905Y-139391857D01*
X87221577Y-139363185D01*
X87178723Y-139325488D01*
X87153444Y-139288807D01*
X87143382Y-139246874D01*
X87146181Y-139193420D01*
X87159482Y-139122177D01*
X87172581Y-139069906D01*
X87174207Y-139065686D01*
X87854415Y-139065686D01*
X87872042Y-139070264D01*
X87908747Y-139059511D01*
X87964184Y-139033431D01*
X88038008Y-138992027D01*
X88169415Y-138914254D01*
X88273833Y-138934416D01*
X88314413Y-138942384D01*
X88382976Y-138956160D01*
X88458471Y-138971593D01*
X88530650Y-138986601D01*
X88536100Y-138987734D01*
X88610229Y-139001542D01*
X88698209Y-139015695D01*
X88789490Y-139028591D01*
X88873527Y-139038629D01*
X88891503Y-139040552D01*
X88977486Y-139051145D01*
X89044163Y-139062368D01*
X89096691Y-139075229D01*
X89140227Y-139090734D01*
X89145173Y-139092811D01*
X89273796Y-139141891D01*
X89387236Y-139174477D01*
X89488974Y-139191148D01*
X89582490Y-139192483D01*
X89671264Y-139179061D01*
X89712602Y-139169954D01*
X89772781Y-139161175D01*
X89824548Y-139162395D01*
X89877724Y-139174282D01*
X89942130Y-139197506D01*
X89961387Y-139204848D01*
X90025680Y-139226791D01*
X90097996Y-139248736D01*
X90166044Y-139266876D01*
X90195241Y-139273715D01*
X90260267Y-139287608D01*
X90320933Y-139298994D01*
X90367134Y-139305910D01*
X90405562Y-139309714D01*
X90429728Y-139309361D01*
X90439913Y-139302880D01*
X90442000Y-139288937D01*
X90441376Y-139280774D01*
X90434540Y-139247776D01*
X90422593Y-139208487D01*
X90413943Y-139181050D01*
X90409386Y-139145442D01*
X90420189Y-139126304D01*
X90447202Y-139120600D01*
X90476371Y-139114405D01*
X90490105Y-139099314D01*
X90483394Y-139080713D01*
X90479268Y-139077832D01*
X90453805Y-139069327D01*
X90417536Y-139063535D01*
X90390296Y-139059008D01*
X90351768Y-139042118D01*
X90309891Y-139008799D01*
X90304750Y-139004105D01*
X90267528Y-138974877D01*
X90230806Y-138958728D01*
X90181646Y-138949698D01*
X90166159Y-138947606D01*
X90123951Y-138938127D01*
X90091922Y-138921045D01*
X90058222Y-138890694D01*
X90045396Y-138877985D01*
X90019542Y-138856025D01*
X90001031Y-138849293D01*
X89983373Y-138854663D01*
X89967027Y-138860376D01*
X89945096Y-138855627D01*
X89914099Y-138835061D01*
X89906340Y-138829355D01*
X89867929Y-138805224D01*
X89833508Y-138788883D01*
X89825451Y-138785644D01*
X89803251Y-138771189D01*
X89779334Y-138745856D01*
X89750393Y-138705745D01*
X89713120Y-138646958D01*
X89689607Y-138619053D01*
X89661954Y-138600281D01*
X89646115Y-138592120D01*
X89613492Y-138563425D01*
X89588423Y-138527200D01*
X89578400Y-138493063D01*
X89573324Y-138462893D01*
X89549476Y-138427996D01*
X89510567Y-138406815D01*
X89461568Y-138401631D01*
X89407453Y-138414721D01*
X89406655Y-138415054D01*
X89364002Y-138430751D01*
X89339039Y-138432813D01*
X89327319Y-138419969D01*
X89324400Y-138390947D01*
X89326606Y-138351219D01*
X89337290Y-138315956D01*
X89360641Y-138289526D01*
X89400783Y-138267570D01*
X89461842Y-138245730D01*
X89473867Y-138241173D01*
X89513610Y-138220422D01*
X89552570Y-138193841D01*
X89568809Y-138181712D01*
X89599112Y-138162838D01*
X89619127Y-138155400D01*
X89638587Y-138163162D01*
X89668573Y-138190078D01*
X89702521Y-138232269D01*
X89736674Y-138285575D01*
X89760533Y-138323274D01*
X89779485Y-138342676D01*
X89790645Y-138338323D01*
X89794300Y-138310340D01*
X89795369Y-138293030D01*
X89807427Y-138264104D01*
X89835956Y-138248787D01*
X89884766Y-138244300D01*
X89902060Y-138243560D01*
X89960555Y-138226918D01*
X90006981Y-138188131D01*
X90041775Y-138126872D01*
X90056718Y-138082024D01*
X90063135Y-138022702D01*
X90048357Y-137977153D01*
X90012217Y-137944989D01*
X89954545Y-137925823D01*
X89903229Y-137911992D01*
X89837782Y-137886604D01*
X89774899Y-137855606D01*
X89725806Y-137823997D01*
X89723328Y-137821982D01*
X89697703Y-137785074D01*
X89694197Y-137736817D01*
X89712920Y-137678478D01*
X89728541Y-137649302D01*
X89749338Y-137625182D01*
X89777917Y-137610254D01*
X89820150Y-137601674D01*
X89881904Y-137596600D01*
X89991150Y-137590250D01*
X89995120Y-137542149D01*
X89995171Y-137541528D01*
X89994441Y-137508180D01*
X89982650Y-137481288D01*
X89955115Y-137450074D01*
X89925236Y-137424777D01*
X89891768Y-137410095D01*
X89855350Y-137411046D01*
X89812541Y-137428504D01*
X89759901Y-137463345D01*
X89693993Y-137516443D01*
X89689048Y-137520616D01*
X89604006Y-137584494D01*
X89519754Y-137630886D01*
X89426870Y-137665033D01*
X89426081Y-137665266D01*
X89371035Y-137676738D01*
X89306011Y-137683368D01*
X89239692Y-137684945D01*
X89180761Y-137681256D01*
X89137902Y-137672090D01*
X89110846Y-137660167D01*
X89040761Y-137613710D01*
X88974688Y-137548896D01*
X88917235Y-137470731D01*
X88873008Y-137384222D01*
X88858417Y-137350237D01*
X88837190Y-137312660D01*
X88816852Y-137296831D01*
X88794209Y-137300922D01*
X88766062Y-137323107D01*
X88760353Y-137328705D01*
X88734404Y-137362333D01*
X88730310Y-137392259D01*
X88746954Y-137424402D01*
X88757181Y-137448046D01*
X88764110Y-137491017D01*
X88764978Y-137540051D01*
X88759717Y-137584937D01*
X88748257Y-137615463D01*
X88735012Y-137627417D01*
X88703917Y-137638480D01*
X88653007Y-137644817D01*
X88644153Y-137645494D01*
X88602693Y-137650621D01*
X88581225Y-137658439D01*
X88575100Y-137670478D01*
X88574161Y-137687234D01*
X88571145Y-137724812D01*
X88566543Y-137776471D01*
X88560867Y-137836276D01*
X88556112Y-137885899D01*
X88552959Y-137941531D01*
X88557657Y-137978453D01*
X88573714Y-138000498D01*
X88604639Y-138011498D01*
X88653942Y-138015288D01*
X88725131Y-138015700D01*
X88857607Y-138015700D01*
X88852284Y-138127048D01*
X88850177Y-138162345D01*
X88843825Y-138216285D01*
X88832962Y-138257677D01*
X88815749Y-138294976D01*
X88793981Y-138327575D01*
X88763764Y-138358691D01*
X88734683Y-138376329D01*
X88712317Y-138376114D01*
X88712057Y-138375924D01*
X88708202Y-138360033D01*
X88707550Y-138326267D01*
X88710256Y-138281639D01*
X88713057Y-138241832D01*
X88711988Y-138205540D01*
X88704914Y-138193500D01*
X88701199Y-138194307D01*
X88680752Y-138209218D01*
X88652729Y-138238749D01*
X88621630Y-138277414D01*
X88591958Y-138319723D01*
X88568211Y-138360190D01*
X88556522Y-138380982D01*
X88534109Y-138412552D01*
X88515365Y-138429584D01*
X88501226Y-138432669D01*
X88464389Y-138436710D01*
X88410530Y-138440672D01*
X88344288Y-138444227D01*
X88270300Y-138447044D01*
X88048050Y-138453850D01*
X87975326Y-138561800D01*
X87954016Y-138594046D01*
X87927424Y-138636365D01*
X87909161Y-138668115D01*
X87902301Y-138684143D01*
X87902584Y-138686859D01*
X87917921Y-138701033D01*
X87953744Y-138710475D01*
X88006026Y-138714026D01*
X88036690Y-138716775D01*
X88061004Y-138728080D01*
X88062984Y-138745129D01*
X88042871Y-138764659D01*
X88000905Y-138783405D01*
X87982671Y-138790477D01*
X87966036Y-138803920D01*
X87955139Y-138828155D01*
X87945393Y-138870369D01*
X87928195Y-138928512D01*
X87890948Y-138993450D01*
X87877774Y-139010524D01*
X87856210Y-139045774D01*
X87854415Y-139065686D01*
X87174207Y-139065686D01*
X87208195Y-138977448D01*
X87257002Y-138903072D01*
X87321024Y-138843283D01*
X87356781Y-138815140D01*
X87415621Y-138762185D01*
X87470112Y-138705540D01*
X87517130Y-138649081D01*
X87553548Y-138596683D01*
X87576241Y-138552223D01*
X87582084Y-138519575D01*
X87571411Y-138498129D01*
X87536866Y-138478605D01*
X87535069Y-138478016D01*
X87503002Y-138464870D01*
X87482210Y-138451889D01*
X87478955Y-138444511D01*
X87472343Y-138414746D01*
X87464792Y-138367094D01*
X87457003Y-138306181D01*
X87449674Y-138236633D01*
X87445270Y-138192867D01*
X87432104Y-138089114D01*
X87416851Y-138006132D01*
X87398933Y-137940553D01*
X87382797Y-137885320D01*
X87366176Y-137813588D01*
X87355094Y-137748567D01*
X87354600Y-137744668D01*
X87345731Y-137685631D01*
X87333493Y-137623470D01*
X87316817Y-137554039D01*
X87294636Y-137473190D01*
X87265883Y-137376775D01*
X87229490Y-137260647D01*
X87215946Y-137217722D01*
X87187027Y-137120588D01*
X87167580Y-137041874D01*
X87157861Y-136977761D01*
X87158125Y-136924426D01*
X87168626Y-136878049D01*
X87189621Y-136834808D01*
X87221365Y-136790883D01*
X87264113Y-136742453D01*
X87271004Y-136734949D01*
X87311584Y-136687388D01*
X87348741Y-136638895D01*
X87375183Y-136598895D01*
X87385266Y-136581239D01*
X87409066Y-136541489D01*
X87426316Y-136522198D01*
X87442030Y-136522434D01*
X87461220Y-136541266D01*
X87488900Y-136577761D01*
X87494922Y-136585797D01*
X87606474Y-136722704D01*
X87716723Y-136835275D01*
X87825324Y-136923190D01*
X87931932Y-136986132D01*
X87983080Y-137008833D01*
X88063723Y-137036616D01*
X88148753Y-137054990D01*
X88244977Y-137065274D01*
X88359200Y-137068783D01*
X88422266Y-137068827D01*
X88475372Y-137067718D01*
X88514235Y-137064584D01*
X88544796Y-137058605D01*
X88572994Y-137048960D01*
X88604766Y-137034828D01*
X88626966Y-137024056D01*
X88669555Y-137000623D01*
X88712488Y-136972384D01*
X88760192Y-136936075D01*
X88817094Y-136888428D01*
X88887620Y-136826178D01*
X88902135Y-136813032D01*
X89026672Y-136686232D01*
X89084602Y-136611196D01*
X89882541Y-136611196D01*
X89892561Y-136625140D01*
X89919388Y-136629167D01*
X89963584Y-136626136D01*
X89990335Y-136621262D01*
X90054355Y-136599203D01*
X90131290Y-136561673D01*
X90162450Y-136545201D01*
X90283255Y-136489639D01*
X90409287Y-136443269D01*
X90534399Y-136407902D01*
X90652440Y-136385348D01*
X90757261Y-136377416D01*
X90774015Y-136377708D01*
X90879582Y-136391515D01*
X90987515Y-136423902D01*
X91092328Y-136471973D01*
X91188535Y-136532832D01*
X91270649Y-136603585D01*
X91333183Y-136681336D01*
X91345562Y-136702601D01*
X91362470Y-136739501D01*
X91369100Y-136766314D01*
X91363967Y-136785799D01*
X91341364Y-136815040D01*
X91308571Y-136838003D01*
X91274241Y-136847300D01*
X91260881Y-136844130D01*
X91227559Y-136829708D01*
X91182993Y-136806294D01*
X91133079Y-136776833D01*
X91087156Y-136748723D01*
X90992781Y-136695160D01*
X90910969Y-136656302D01*
X90837132Y-136630752D01*
X90766684Y-136617116D01*
X90695039Y-136613997D01*
X90617610Y-136620000D01*
X90603827Y-136621868D01*
X90543176Y-136633372D01*
X90480317Y-136649698D01*
X90419087Y-136669278D01*
X90363322Y-136690547D01*
X90316859Y-136711939D01*
X90283533Y-136731889D01*
X90267182Y-136748831D01*
X90271641Y-136761199D01*
X90274613Y-136761895D01*
X90297645Y-136759464D01*
X90336318Y-136750995D01*
X90384139Y-136737836D01*
X90387437Y-136736856D01*
X90520461Y-136710703D01*
X90656289Y-136709175D01*
X90792400Y-136732079D01*
X90926272Y-136779222D01*
X90926342Y-136779253D01*
X90969606Y-136802121D01*
X91009340Y-136829013D01*
X91040836Y-136855911D01*
X91059388Y-136878795D01*
X91060288Y-136893646D01*
X91053844Y-136894604D01*
X91027115Y-136890592D01*
X90985343Y-136880631D01*
X90934213Y-136865971D01*
X90933812Y-136865847D01*
X90869105Y-136847497D01*
X90814761Y-136836764D01*
X90758901Y-136831970D01*
X90689650Y-136831439D01*
X90674017Y-136831865D01*
X90622139Y-136835145D01*
X90559917Y-136840988D01*
X90492442Y-136848697D01*
X90424805Y-136857578D01*
X90362099Y-136866933D01*
X90309413Y-136876069D01*
X90271840Y-136884288D01*
X90254470Y-136890897D01*
X90252836Y-136894526D01*
X90264518Y-136904931D01*
X90296009Y-136915852D01*
X90343340Y-136926119D01*
X90402541Y-136934561D01*
X90456928Y-136941844D01*
X90494763Y-136950973D01*
X90523196Y-136964624D01*
X90550270Y-136985576D01*
X90564723Y-136997874D01*
X90590224Y-137017437D01*
X90604367Y-137025195D01*
X90619285Y-137026844D01*
X90652427Y-137031421D01*
X90696000Y-137037884D01*
X90739999Y-137044572D01*
X90793106Y-137052968D01*
X90827765Y-137059826D01*
X90848054Y-137066761D01*
X90858054Y-137075387D01*
X90861844Y-137087320D01*
X90863503Y-137104173D01*
X90867231Y-137125357D01*
X90880990Y-137144125D01*
X90911900Y-137155619D01*
X90938178Y-137164686D01*
X90975013Y-137183712D01*
X91006842Y-137206173D01*
X91027560Y-137227572D01*
X91031061Y-137243410D01*
X91022791Y-137248347D01*
X90997749Y-137251144D01*
X90954428Y-137249850D01*
X90890577Y-137244377D01*
X90803950Y-137234640D01*
X90753150Y-137228520D01*
X90816842Y-137259646D01*
X90817029Y-137259737D01*
X90879280Y-137283325D01*
X90961023Y-137302543D01*
X91063672Y-137317599D01*
X91188643Y-137328699D01*
X91337350Y-137336052D01*
X91401575Y-137338472D01*
X91473158Y-137341674D01*
X91534277Y-137344951D01*
X91579957Y-137348035D01*
X91605223Y-137350652D01*
X91629179Y-137352317D01*
X91652782Y-137342951D01*
X91678952Y-137316427D01*
X91715604Y-137266467D01*
X91754928Y-137193291D01*
X91781546Y-137118225D01*
X91793375Y-137047534D01*
X91788331Y-136987485D01*
X91785846Y-136979602D01*
X91761167Y-136935212D01*
X91722768Y-136891996D01*
X91678343Y-136857433D01*
X91635587Y-136839002D01*
X91616907Y-136834445D01*
X91595789Y-136823579D01*
X91581511Y-136803422D01*
X91570889Y-136768653D01*
X91560739Y-136713950D01*
X91554340Y-136681123D01*
X91515905Y-136566437D01*
X91454849Y-136459852D01*
X91372895Y-136363503D01*
X91271771Y-136279521D01*
X91153200Y-136210041D01*
X91073222Y-136171404D01*
X90981203Y-136127727D01*
X90907043Y-136093777D01*
X90848009Y-136068458D01*
X90801371Y-136050674D01*
X90764396Y-136039329D01*
X90734353Y-136033326D01*
X90708510Y-136031569D01*
X90665995Y-136036048D01*
X90589532Y-136059532D01*
X90498122Y-136103034D01*
X90392030Y-136166442D01*
X90353371Y-136191171D01*
X90296984Y-136225385D01*
X90249505Y-136250731D01*
X90203473Y-136271043D01*
X90151427Y-136290159D01*
X90140551Y-136294024D01*
X90096025Y-136313794D01*
X90057844Y-136339752D01*
X90021687Y-136376082D01*
X89983230Y-136426968D01*
X89938153Y-136496592D01*
X89910677Y-136542108D01*
X89888767Y-136584472D01*
X89882541Y-136611196D01*
X89084602Y-136611196D01*
X89131056Y-136551025D01*
X89218720Y-136402412D01*
X89293096Y-136235389D01*
X89340703Y-136112428D01*
X89553463Y-136016714D01*
X89698936Y-135952774D01*
X89847361Y-135891072D01*
X89995305Y-135833581D01*
X90146414Y-135779087D01*
X90304332Y-135726376D01*
X90472705Y-135674233D01*
X90655177Y-135621442D01*
X90855394Y-135566791D01*
X91077000Y-135509063D01*
X91533461Y-135385776D01*
X92010291Y-135243050D01*
X92149831Y-135199131D01*
X92228720Y-135282818D01*
X92235157Y-135289643D01*
X92270477Y-135326474D01*
X92293542Y-135347671D01*
X92308796Y-135355782D01*
X92320685Y-135353354D01*
X92333655Y-135342933D01*
X92351625Y-135322804D01*
X92357671Y-135299458D01*
X92347506Y-135269990D01*
X92320425Y-135228312D01*
X92307788Y-135210299D01*
X92292208Y-135183212D01*
X92289477Y-135163720D01*
X92297377Y-135143686D01*
X92297454Y-135143543D01*
X92311038Y-135109410D01*
X92320970Y-135069436D01*
X92326796Y-135046479D01*
X92344012Y-135024479D01*
X92370769Y-135025690D01*
X92407820Y-135049942D01*
X92414074Y-135055451D01*
X92452724Y-135101035D01*
X92483215Y-135155926D01*
X92501682Y-135211701D01*
X92504255Y-135259939D01*
X92502449Y-135287038D01*
X92509800Y-135327080D01*
X92530543Y-135378001D01*
X92534931Y-135387496D01*
X92552498Y-135437194D01*
X92552018Y-135471573D01*
X92532610Y-135493676D01*
X92493395Y-135506547D01*
X92468734Y-135513399D01*
X92450979Y-135528069D01*
X92457989Y-135546054D01*
X92489875Y-135565483D01*
X92492412Y-135566641D01*
X92530079Y-135595865D01*
X92563529Y-135647150D01*
X92574265Y-135666847D01*
X92596742Y-135697576D01*
X92614329Y-135705442D01*
X92626638Y-135702119D01*
X92679550Y-135693707D01*
X92721593Y-135700562D01*
X92761419Y-135723761D01*
X92789643Y-135750511D01*
X92830601Y-135813124D01*
X92865060Y-135899403D01*
X92893255Y-136009852D01*
X92899265Y-136041437D01*
X92909824Y-136109470D01*
X92918334Y-136180797D01*
X92924493Y-136250686D01*
X92927998Y-136314403D01*
X92928546Y-136367216D01*
X92925836Y-136404390D01*
X92919563Y-136421193D01*
X92915027Y-136423457D01*
X92893204Y-136419759D01*
X92873071Y-136393236D01*
X92856418Y-136346019D01*
X92845403Y-136310082D01*
X92829947Y-136281736D01*
X92815441Y-136276958D01*
X92803292Y-136294713D01*
X92794907Y-136333963D01*
X92791695Y-136393673D01*
X92791264Y-136424265D01*
X92788333Y-136459550D01*
X92781457Y-136478465D01*
X92769275Y-136486664D01*
X92757686Y-136490466D01*
X92731201Y-136502495D01*
X92710462Y-136520060D01*
X92693405Y-136547052D01*
X92677968Y-136587360D01*
X92662088Y-136644875D01*
X92643704Y-136723486D01*
X92631162Y-136775027D01*
X92616121Y-136827813D01*
X92602283Y-136867697D01*
X92591541Y-136888677D01*
X92583305Y-136897326D01*
X92568220Y-136904047D01*
X92549627Y-136891231D01*
X92543257Y-136884838D01*
X92533449Y-136871541D01*
X92522980Y-136851729D01*
X92510734Y-136822437D01*
X92495594Y-136780698D01*
X92476445Y-136723545D01*
X92452171Y-136648014D01*
X92421655Y-136551137D01*
X92401695Y-136486676D01*
X92383293Y-136424298D01*
X92371858Y-136380274D01*
X92366695Y-136351430D01*
X92367109Y-136334596D01*
X92372402Y-136326599D01*
X92379229Y-136323245D01*
X92407243Y-136325876D01*
X92437595Y-136353571D01*
X92470411Y-136406431D01*
X92480393Y-136424772D01*
X92497875Y-136450546D01*
X92507540Y-136454218D01*
X92509410Y-136437222D01*
X92503506Y-136400994D01*
X92489850Y-136346968D01*
X92468462Y-136276578D01*
X92467800Y-136274526D01*
X92440071Y-136178641D01*
X92425620Y-136104280D01*
X92424445Y-136051319D01*
X92436543Y-136019634D01*
X92461910Y-136009100D01*
X92483550Y-136005109D01*
X92492014Y-135988532D01*
X92478539Y-135959568D01*
X92447646Y-135929082D01*
X92403621Y-135915575D01*
X92352330Y-135926157D01*
X92317911Y-135947232D01*
X92292260Y-135983730D01*
X92280156Y-136036550D01*
X92280299Y-136108991D01*
X92280776Y-136115910D01*
X92282607Y-136160134D01*
X92279127Y-136189700D01*
X92267964Y-136214048D01*
X92246749Y-136242621D01*
X92232953Y-136260182D01*
X92214522Y-136284935D01*
X92207300Y-136296653D01*
X92207101Y-136300055D01*
X92201461Y-136328596D01*
X92189421Y-136373889D01*
X92172821Y-136430066D01*
X92153500Y-136491262D01*
X92133300Y-136551611D01*
X92114059Y-136605248D01*
X92097618Y-136646306D01*
X92052313Y-136749349D01*
X92060789Y-136896749D01*
X92063827Y-136958042D01*
X92064485Y-137008813D01*
X92061731Y-137047534D01*
G37*
%TD.AperFunction*%
%TD*%
D13*
%TO.P,REF\u002A\u002A,*%
%TO.N,*%
X128770000Y-23680000D03*
%TD*%
%TA.AperFunction,NonConductor*%
G36*
X129025957Y-19195684D02*
G01*
X129030926Y-19195860D01*
X129984400Y-19248810D01*
X129989377Y-19249186D01*
X130940029Y-19340499D01*
X130944914Y-19341068D01*
X131891188Y-19470610D01*
X131896081Y-19471380D01*
X132836410Y-19639045D01*
X132841260Y-19640013D01*
X133773780Y-19845665D01*
X133778631Y-19846839D01*
X134701905Y-20090358D01*
X134706751Y-20091744D01*
X135507630Y-20338639D01*
X135618961Y-20372960D01*
X135623851Y-20374579D01*
X135637537Y-20379429D01*
X136523509Y-20693404D01*
X136528349Y-20695234D01*
X137193720Y-20962964D01*
X137413825Y-21051529D01*
X137418670Y-21053599D01*
X138288289Y-21447220D01*
X138293107Y-21449528D01*
X139145146Y-21880349D01*
X139149886Y-21882876D01*
X139481713Y-22069238D01*
X139983007Y-22350776D01*
X139987742Y-22353575D01*
X140800054Y-22858431D01*
X140804684Y-22861454D01*
X141486292Y-23328731D01*
X141594758Y-23403090D01*
X141599355Y-23406398D01*
X142365470Y-23984747D01*
X142369969Y-23988310D01*
X143029033Y-24535507D01*
X143110661Y-24603279D01*
X143114830Y-24606900D01*
X143448309Y-24909909D01*
X143959630Y-25374511D01*
X143963421Y-25378105D01*
X144768818Y-26174362D01*
X144772417Y-26178071D01*
X145538909Y-27001796D01*
X145542294Y-27005587D01*
X146270659Y-27855677D01*
X146273837Y-27859541D01*
X146964550Y-28734808D01*
X146967502Y-28738704D01*
X147621178Y-29637769D01*
X147623914Y-29641689D01*
X148240931Y-30563686D01*
X148243434Y-30567582D01*
X148825062Y-31511112D01*
X148827357Y-31514991D01*
X149374247Y-32478908D01*
X149376369Y-32482809D01*
X149888540Y-33465979D01*
X149890448Y-33469801D01*
X150368878Y-34470924D01*
X150370629Y-34474754D01*
X150556735Y-34900798D01*
X150795366Y-35447087D01*
X150815294Y-35492706D01*
X150816851Y-35496436D01*
X151228788Y-36530058D01*
X151230167Y-36533681D01*
X151610329Y-37581716D01*
X151611577Y-37585329D01*
X151959936Y-38646633D01*
X151961025Y-38650124D01*
X152278568Y-39723394D01*
X152279540Y-39726865D01*
X152566295Y-40810958D01*
X152567108Y-40814209D01*
X152825014Y-41907973D01*
X152825751Y-41911303D01*
X153053810Y-43013356D01*
X153054412Y-43016460D01*
X153254626Y-44125807D01*
X153255143Y-44128895D01*
X153427487Y-45244251D01*
X153427909Y-45247219D01*
X153573373Y-46367386D01*
X153573720Y-46370341D01*
X153692273Y-47493812D01*
X153692549Y-47496762D01*
X153784233Y-48622771D01*
X153784418Y-48625392D01*
X153852185Y-49752503D01*
X153852324Y-49755343D01*
X153894183Y-50882340D01*
X153894252Y-50884966D01*
X153912194Y-52010737D01*
X153912209Y-52013263D01*
X153907225Y-53136409D01*
X153907185Y-53139060D01*
X153878278Y-54258475D01*
X153878190Y-54260925D01*
X153827349Y-55375446D01*
X153827212Y-55377919D01*
X153754431Y-56486385D01*
X153754250Y-56488777D01*
X153662596Y-57565595D01*
X153659975Y-57576674D01*
X153660114Y-57587855D01*
X153659678Y-57599897D01*
X153658729Y-57611049D01*
X153660544Y-57622286D01*
X153664124Y-57908700D01*
X153663786Y-57919539D01*
X153639855Y-58238107D01*
X153638786Y-58247507D01*
X153535186Y-58927020D01*
X153534575Y-58930664D01*
X153413765Y-59590461D01*
X153412027Y-59595065D01*
X153408185Y-59620592D01*
X153407540Y-59624463D01*
X153402892Y-59649854D01*
X153403044Y-59654765D01*
X153361235Y-59932675D01*
X153358909Y-59939712D01*
X153357428Y-59954921D01*
X153357428Y-59954923D01*
X153356894Y-59960405D01*
X153356100Y-59966815D01*
X153353011Y-59987345D01*
X153353551Y-59994734D01*
X153327106Y-60266370D01*
X153324566Y-60276211D01*
X153324335Y-60290639D01*
X153323769Y-60300652D01*
X153322370Y-60315041D01*
X153323787Y-60325110D01*
X153319612Y-60587800D01*
X153317696Y-60600033D01*
X153318493Y-60608177D01*
X153319066Y-60622221D01*
X153318935Y-60630407D01*
X153321845Y-60642442D01*
X153346432Y-60893749D01*
X153346135Y-60907889D01*
X153346420Y-60908989D01*
X153349780Y-60927955D01*
X153349892Y-60929101D01*
X153355026Y-60942277D01*
X153415421Y-61175857D01*
X153417216Y-61189598D01*
X153418216Y-61191966D01*
X153424024Y-61209131D01*
X153424671Y-61211634D01*
X153431591Y-61223647D01*
X153467638Y-61309026D01*
X153470808Y-61320959D01*
X153474876Y-61328192D01*
X153481023Y-61340727D01*
X153484253Y-61348376D01*
X153491747Y-61358188D01*
X153535906Y-61436698D01*
X153540551Y-61448486D01*
X153544828Y-61454340D01*
X153552779Y-61466698D01*
X153556338Y-61473026D01*
X153565136Y-61482135D01*
X153619669Y-61556773D01*
X153625627Y-61567854D01*
X153630744Y-61573369D01*
X153639972Y-61584560D01*
X153644421Y-61590649D01*
X153654167Y-61598608D01*
X153719448Y-61668952D01*
X153726780Y-61679398D01*
X153732064Y-61683869D01*
X153742858Y-61694178D01*
X153747575Y-61699261D01*
X153758347Y-61706106D01*
X153836287Y-61772050D01*
X153844477Y-61781233D01*
X153851268Y-61785782D01*
X153851270Y-61785784D01*
X153851487Y-61785929D01*
X153862565Y-61794284D01*
X153869015Y-61799741D01*
X153880101Y-61805091D01*
X153970804Y-61865835D01*
X153979761Y-61873893D01*
X153987960Y-61878188D01*
X153999427Y-61885004D01*
X154007129Y-61890162D01*
X154018476Y-61894173D01*
X154124147Y-61949527D01*
X154133234Y-61956169D01*
X154142351Y-61959885D01*
X154142352Y-61959886D01*
X154143944Y-61960534D01*
X154154671Y-61965517D01*
X154156182Y-61966309D01*
X154156183Y-61966309D01*
X154164923Y-61970888D01*
X154175857Y-61973543D01*
X154296908Y-62022889D01*
X154306171Y-62028430D01*
X154316280Y-62031535D01*
X154316281Y-62031536D01*
X154318459Y-62032205D01*
X154328861Y-62035915D01*
X154330955Y-62036769D01*
X154330955Y-62036768D01*
X154340739Y-62040758D01*
X154351404Y-62042329D01*
X154491109Y-62085258D01*
X154499741Y-62089506D01*
X154511725Y-62092229D01*
X154511726Y-62092230D01*
X154515171Y-62093013D01*
X154524091Y-62095393D01*
X154527486Y-62096437D01*
X154527488Y-62096436D01*
X154539230Y-62100046D01*
X154548826Y-62100664D01*
X154709636Y-62137226D01*
X154741860Y-62149467D01*
X155878351Y-62773999D01*
X155882630Y-62776462D01*
X157010659Y-63456164D01*
X157014868Y-63458817D01*
X157998578Y-64106730D01*
X158114027Y-64182769D01*
X158118098Y-64185568D01*
X159155495Y-64929889D01*
X159187366Y-64952756D01*
X159191442Y-64955809D01*
X159451540Y-65159141D01*
X160226784Y-65765186D01*
X160230730Y-65768403D01*
X161231221Y-66619120D01*
X161235116Y-66622577D01*
X162197713Y-67513677D01*
X162201472Y-67517306D01*
X162822580Y-68142893D01*
X163065348Y-68387412D01*
X163125216Y-68447711D01*
X163128913Y-68451601D01*
X163959237Y-69363833D01*
X164010795Y-69420476D01*
X164014371Y-69424583D01*
X164425930Y-69918797D01*
X164852409Y-70430926D01*
X164855861Y-70435265D01*
X165648731Y-71478929D01*
X165651194Y-71482285D01*
X166029306Y-72016307D01*
X166030983Y-72018737D01*
X166396700Y-72562244D01*
X166398234Y-72564579D01*
X166752021Y-73116823D01*
X166753654Y-73119444D01*
X167093521Y-73680225D01*
X167094920Y-73682593D01*
X167422891Y-74251870D01*
X167424382Y-74254533D01*
X167738327Y-74831855D01*
X167739753Y-74834555D01*
X168039787Y-75420217D01*
X168041131Y-75422921D01*
X168327297Y-76016713D01*
X168328567Y-76019432D01*
X168600858Y-76621255D01*
X168602053Y-76623985D01*
X168858440Y-77228958D01*
X168862003Y-77238422D01*
X169253469Y-78422589D01*
X169979391Y-80618472D01*
X169989432Y-80648844D01*
X169989897Y-80650280D01*
X170534319Y-82366961D01*
X170534689Y-82368147D01*
X171062147Y-84091076D01*
X171062523Y-84092327D01*
X171561180Y-85784635D01*
X171572002Y-85821360D01*
X171572400Y-85822740D01*
X172061842Y-87557665D01*
X172062241Y-87559112D01*
X172530641Y-89299785D01*
X172531070Y-89301427D01*
X172975448Y-91047778D01*
X172975887Y-91049557D01*
X173394278Y-92801706D01*
X173394705Y-92803554D01*
X173786125Y-94561348D01*
X173786550Y-94563337D01*
X174148945Y-96326595D01*
X174149363Y-96328722D01*
X174480771Y-98097465D01*
X174481174Y-98099730D01*
X174779628Y-99873881D01*
X174780009Y-99876290D01*
X175043507Y-101655894D01*
X175043848Y-101658374D01*
X175271377Y-103443082D01*
X175271690Y-103445771D01*
X175459843Y-105231516D01*
X175460455Y-105240302D01*
X175568221Y-108415029D01*
X175568251Y-108416042D01*
X175650213Y-111596725D01*
X175650233Y-111597621D01*
X175709215Y-114779321D01*
X175709227Y-114780100D01*
X175748216Y-117962151D01*
X175748222Y-117962852D01*
X175769214Y-121144768D01*
X175769217Y-121145352D01*
X175769235Y-121154739D01*
X175775197Y-124319020D01*
X175775216Y-124328616D01*
X175775215Y-124329141D01*
X175756246Y-130687234D01*
X175756219Y-130696220D01*
X175756217Y-130696746D01*
X175664463Y-143398563D01*
X175664361Y-143399072D01*
X175664219Y-143432358D01*
X175664217Y-143432718D01*
X175663972Y-143466780D01*
X175664070Y-143467285D01*
X175637360Y-149766810D01*
X175637140Y-149767923D01*
X175637215Y-149800595D01*
X175637214Y-149801397D01*
X175637078Y-149833806D01*
X175637295Y-149834910D01*
X175651802Y-155991954D01*
X175635149Y-156054315D01*
X175589410Y-156099859D01*
X175526977Y-156116243D01*
X81151226Y-155488566D01*
X81089589Y-155471688D01*
X81044542Y-155426358D01*
X81028051Y-155364618D01*
X81023616Y-143561239D01*
X81028541Y-137478963D01*
X85819405Y-137478963D01*
X85821197Y-137505155D01*
X85821408Y-137509222D01*
X85827642Y-137684994D01*
X85827720Y-137689730D01*
X85827652Y-137714278D01*
X85828121Y-137717604D01*
X85829256Y-137730501D01*
X85829376Y-137733884D01*
X85833724Y-137758019D01*
X85834475Y-137762700D01*
X85859208Y-137938209D01*
X85859800Y-137943119D01*
X85862198Y-137966995D01*
X85863139Y-137970793D01*
X85865563Y-137983300D01*
X85866108Y-137987168D01*
X85872797Y-138010188D01*
X85874083Y-138014968D01*
X85916014Y-138184210D01*
X85917445Y-138190736D01*
X85921111Y-138209907D01*
X85923840Y-138217828D01*
X85926961Y-138228392D01*
X85928972Y-138236512D01*
X85936329Y-138254631D01*
X85938675Y-138260889D01*
X85973411Y-138361721D01*
X85975818Y-138369536D01*
X85979937Y-138384667D01*
X85979938Y-138384670D01*
X85979939Y-138384672D01*
X85984801Y-138395903D01*
X85988243Y-138404771D01*
X85992225Y-138416332D01*
X85999389Y-138430277D01*
X86002884Y-138437671D01*
X86020423Y-138478182D01*
X86023736Y-138486679D01*
X86028090Y-138499186D01*
X86034833Y-138512210D01*
X86038507Y-138519951D01*
X86044338Y-138533418D01*
X86051274Y-138544696D01*
X86055766Y-138552642D01*
X86074649Y-138589113D01*
X86078841Y-138598067D01*
X86083209Y-138608458D01*
X86091773Y-138622719D01*
X86095576Y-138629530D01*
X86101235Y-138640459D01*
X86103227Y-138644305D01*
X86109780Y-138653474D01*
X86115203Y-138661740D01*
X86134487Y-138693855D01*
X86139100Y-138702256D01*
X86144494Y-138713050D01*
X86153525Y-138726075D01*
X86157921Y-138732879D01*
X86166090Y-138746483D01*
X86173722Y-138755853D01*
X86179463Y-138763486D01*
X86180782Y-138765388D01*
X86200206Y-138793403D01*
X86204491Y-138800024D01*
X86212988Y-138814115D01*
X86220256Y-138823004D01*
X86226154Y-138830831D01*
X86232680Y-138840244D01*
X86232683Y-138840247D01*
X86232685Y-138840250D01*
X86243896Y-138852308D01*
X86249062Y-138858232D01*
X86275961Y-138891128D01*
X86278045Y-138893748D01*
X86295347Y-138916114D01*
X86304545Y-138926120D01*
X86313289Y-138934145D01*
X86332514Y-138956564D01*
X86334721Y-138959864D01*
X86334722Y-138959865D01*
X86334723Y-138959866D01*
X86373329Y-138992102D01*
X86380110Y-138998203D01*
X86388913Y-139006731D01*
X86389594Y-139007391D01*
X86401530Y-139016034D01*
X86408260Y-139021270D01*
X86419587Y-139030728D01*
X86430814Y-139037656D01*
X86438402Y-139042735D01*
X86479136Y-139072233D01*
X86479137Y-139072233D01*
X86484575Y-139076171D01*
X86503952Y-139086348D01*
X86514999Y-139094336D01*
X86515000Y-139094336D01*
X86515001Y-139094337D01*
X86542115Y-139103942D01*
X86598553Y-139144648D01*
X86624179Y-139209346D01*
X86625252Y-139220895D01*
X86625253Y-139220895D01*
X86632007Y-139293544D01*
X86635163Y-139328327D01*
X86638654Y-139366803D01*
X86646946Y-139387802D01*
X86653717Y-139411751D01*
X86660643Y-139450918D01*
X86660644Y-139450921D01*
X86681789Y-139493534D01*
X86685943Y-139502851D01*
X86703518Y-139547072D01*
X86721762Y-139570390D01*
X86737275Y-139596128D01*
X86740215Y-139602696D01*
X86752391Y-139616962D01*
X86774118Y-139653765D01*
X86782060Y-139695758D01*
X86782519Y-139729224D01*
X86791833Y-139759410D01*
X86794612Y-139771467D01*
X86799257Y-139783470D01*
X86801647Y-139791215D01*
X86805741Y-139809074D01*
X86806887Y-139816587D01*
X86807600Y-139818113D01*
X86814602Y-139836953D01*
X86814628Y-139837045D01*
X86820730Y-139858697D01*
X86838849Y-139887581D01*
X86839491Y-139888604D01*
X86846794Y-139902017D01*
X86869382Y-139950372D01*
X86889136Y-139972777D01*
X86899509Y-139986315D01*
X86907241Y-139997990D01*
X86916001Y-140011219D01*
X86931830Y-140024560D01*
X86950901Y-140044688D01*
X86952420Y-140046701D01*
X86952421Y-140046702D01*
X86963157Y-140060931D01*
X86962935Y-140061098D01*
X86965206Y-140063399D01*
X86982443Y-140097176D01*
X86982926Y-140098643D01*
X86984136Y-140102313D01*
X86999818Y-140125045D01*
X87006833Y-140135213D01*
X87013714Y-140146415D01*
X87032803Y-140181540D01*
X87076664Y-140225579D01*
X87079785Y-140228830D01*
X87099042Y-140249637D01*
X87104734Y-140256239D01*
X87136869Y-140296290D01*
X87157176Y-140310453D01*
X87178523Y-140325342D01*
X87185682Y-140330730D01*
X87196643Y-140339617D01*
X87225130Y-140362714D01*
X87248249Y-140372371D01*
X87251263Y-140373630D01*
X87256890Y-140376146D01*
X87266550Y-140380757D01*
X87266552Y-140380759D01*
X87292839Y-140393308D01*
X87336707Y-140428329D01*
X87356002Y-140452747D01*
X87371736Y-140463895D01*
X87387880Y-140477543D01*
X87398813Y-140488514D01*
X87401497Y-140491207D01*
X87434094Y-140509080D01*
X87446148Y-140516621D01*
X87476485Y-140538117D01*
X87517816Y-140552312D01*
X87534997Y-140559706D01*
X87561308Y-140573470D01*
X87596159Y-140580402D01*
X87612232Y-140584741D01*
X87616138Y-140586083D01*
X87616825Y-140586114D01*
X87637788Y-140588867D01*
X87649153Y-140591360D01*
X87695986Y-140601634D01*
X87695988Y-140601633D01*
X87701013Y-140602736D01*
X87706127Y-140602278D01*
X87706131Y-140602279D01*
X87773489Y-140596251D01*
X87775894Y-140596061D01*
X87848412Y-140591003D01*
X87853199Y-140589119D01*
X87853204Y-140589119D01*
X87884489Y-140576809D01*
X87927441Y-140568225D01*
X87970704Y-140575112D01*
X87974737Y-140576518D01*
X88011478Y-140596859D01*
X88037077Y-140617381D01*
X88037708Y-140617810D01*
X88040669Y-140619498D01*
X88040671Y-140619500D01*
X88066868Y-140634439D01*
X88068509Y-140635375D01*
X88070056Y-140636272D01*
X88086760Y-140646127D01*
X88097171Y-140652998D01*
X88097425Y-140653185D01*
X88097427Y-140653186D01*
X88099195Y-140654131D01*
X88108410Y-140659580D01*
X88118544Y-140666179D01*
X88123316Y-140668392D01*
X88134138Y-140674076D01*
X88138662Y-140676745D01*
X88138665Y-140676746D01*
X88146304Y-140681253D01*
X88145718Y-140682245D01*
X88151120Y-140685430D01*
X88151357Y-140685030D01*
X88158994Y-140689532D01*
X88158996Y-140689534D01*
X88165367Y-140693290D01*
X88178285Y-140702047D01*
X88219586Y-140734013D01*
X88256154Y-140748326D01*
X88259717Y-140749721D01*
X88270614Y-140754604D01*
X88309042Y-140774097D01*
X88365375Y-140784571D01*
X88375383Y-140786865D01*
X88433233Y-140802682D01*
X88473170Y-140801934D01*
X88486309Y-140802385D01*
X88526126Y-140805878D01*
X88554079Y-140800265D01*
X88601833Y-140800056D01*
X88617570Y-140806399D01*
X88617840Y-140805499D01*
X88634915Y-140810617D01*
X88634916Y-140810618D01*
X88638719Y-140811758D01*
X88674347Y-140822438D01*
X88686296Y-140826697D01*
X88690039Y-140828252D01*
X88690042Y-140828252D01*
X88690045Y-140828254D01*
X88713156Y-140834176D01*
X88717849Y-140835477D01*
X88717952Y-140835507D01*
X88730021Y-140839804D01*
X88756047Y-140850617D01*
X88763996Y-140851479D01*
X88771451Y-140852990D01*
X88771814Y-140852992D01*
X88784535Y-140853713D01*
X88792968Y-140854627D01*
X88792969Y-140854628D01*
X88834980Y-140859185D01*
X88865959Y-140862548D01*
X88865962Y-140862547D01*
X88876736Y-140863717D01*
X88876767Y-140863718D01*
X88902880Y-140866551D01*
X88902880Y-140866550D01*
X88902882Y-140866551D01*
X88930421Y-140861609D01*
X88947284Y-140859763D01*
X88953296Y-140859519D01*
X88953419Y-140859514D01*
X88988552Y-140858296D01*
X88988557Y-140858294D01*
X88990086Y-140858242D01*
X88991584Y-140857964D01*
X88991586Y-140857964D01*
X89026140Y-140851554D01*
X89026277Y-140851529D01*
X89066869Y-140844249D01*
X89079396Y-140842657D01*
X89086076Y-140842152D01*
X89086273Y-140844760D01*
X89128238Y-140845518D01*
X89153741Y-140852192D01*
X89153745Y-140852192D01*
X89161968Y-140854344D01*
X89171481Y-140857294D01*
X89171832Y-140857366D01*
X89171835Y-140857367D01*
X89195043Y-140862133D01*
X89199914Y-140863239D01*
X89222924Y-140868957D01*
X89224838Y-140869150D01*
X89227147Y-140869384D01*
X89239627Y-140871291D01*
X89242032Y-140871785D01*
X89255012Y-140875192D01*
X89257081Y-140875857D01*
X89257082Y-140875857D01*
X89257085Y-140875858D01*
X89282467Y-140880165D01*
X89286664Y-140880951D01*
X89311865Y-140886128D01*
X89314021Y-140886256D01*
X89327201Y-140887756D01*
X89327332Y-140887779D01*
X89340126Y-140890640D01*
X89343295Y-140891527D01*
X89367715Y-140894721D01*
X89372334Y-140895416D01*
X89396614Y-140899537D01*
X89396615Y-140899537D01*
X89396621Y-140899538D01*
X89399908Y-140899620D01*
X89412814Y-140900623D01*
X89412906Y-140900635D01*
X89423280Y-140902439D01*
X89432794Y-140904515D01*
X89440360Y-140905060D01*
X89450970Y-140905827D01*
X89458132Y-140906553D01*
X89479829Y-140909392D01*
X89479832Y-140909185D01*
X89497681Y-140909419D01*
X89497684Y-140909420D01*
X89497843Y-140909422D01*
X89505121Y-140909732D01*
X89509502Y-140910049D01*
X89511674Y-140910206D01*
X89513412Y-140910344D01*
X89545393Y-140913121D01*
X89545395Y-140913120D01*
X89548840Y-140913420D01*
X89549448Y-140913424D01*
X89552892Y-140913179D01*
X89552896Y-140913180D01*
X89583533Y-140911007D01*
X89593946Y-140910708D01*
X89645332Y-140911396D01*
X89645333Y-140911395D01*
X89658882Y-140911577D01*
X89671672Y-140910049D01*
X89708904Y-140917126D01*
X89765311Y-140937161D01*
X89795384Y-140938836D01*
X89812203Y-140940935D01*
X89841769Y-140946702D01*
X89877377Y-140943381D01*
X89883197Y-140943655D01*
X89948717Y-140937160D01*
X89967086Y-140935339D01*
X89968453Y-140935211D01*
X90001453Y-140932329D01*
X90001459Y-140932327D01*
X90005815Y-140931947D01*
X90012498Y-140930837D01*
X90044308Y-140927685D01*
X90067015Y-140918499D01*
X90085240Y-140912717D01*
X90109102Y-140907133D01*
X90136907Y-140891376D01*
X90143021Y-140888425D01*
X90156594Y-140880523D01*
X90175372Y-140869590D01*
X90176533Y-140868924D01*
X90182292Y-140865661D01*
X90196776Y-140858654D01*
X90209159Y-140853628D01*
X90266836Y-140845020D01*
X90274479Y-140845704D01*
X90274481Y-140845703D01*
X90281588Y-140846339D01*
X90288542Y-140844757D01*
X90288546Y-140844758D01*
X90315391Y-140838653D01*
X90358583Y-140836566D01*
X90362867Y-140837112D01*
X90378278Y-140841108D01*
X90438773Y-140846859D01*
X90442700Y-140847295D01*
X90485363Y-140852738D01*
X90485365Y-140852737D01*
X90493332Y-140853754D01*
X90506783Y-140853324D01*
X90532154Y-140855736D01*
X90532154Y-140855735D01*
X90532155Y-140855736D01*
X90553026Y-140851704D01*
X90573286Y-140849496D01*
X90587938Y-140849112D01*
X90612364Y-140848472D01*
X90612458Y-140852058D01*
X90650910Y-140850896D01*
X90663772Y-140854200D01*
X90683266Y-140855876D01*
X90685401Y-140855704D01*
X90685402Y-140855705D01*
X90744438Y-140850972D01*
X90750068Y-140850650D01*
X90809276Y-140848629D01*
X90809278Y-140848628D01*
X90811423Y-140848555D01*
X90830592Y-140844672D01*
X90851767Y-140836566D01*
X90887893Y-140822736D01*
X90893206Y-140820840D01*
X90914231Y-140813880D01*
X90918489Y-140811756D01*
X90938646Y-140803820D01*
X90955830Y-140798739D01*
X90955832Y-140798737D01*
X90957941Y-140798114D01*
X90968022Y-140793000D01*
X90970488Y-140791120D01*
X90970492Y-140791119D01*
X90981233Y-140782932D01*
X91001075Y-140770579D01*
X91001388Y-140770424D01*
X91001390Y-140770422D01*
X91009334Y-140766463D01*
X91010388Y-140768577D01*
X91019484Y-140765052D01*
X91018365Y-140762544D01*
X91047105Y-140749721D01*
X91079481Y-140735276D01*
X91088395Y-140731707D01*
X91099700Y-140727682D01*
X91113823Y-140720240D01*
X91121044Y-140716732D01*
X91169496Y-140695116D01*
X91172013Y-140692973D01*
X91194594Y-140677688D01*
X91197514Y-140676150D01*
X91235584Y-140639198D01*
X91241543Y-140633780D01*
X91250921Y-140625797D01*
X91277292Y-140608598D01*
X91294357Y-140600342D01*
X91307464Y-140595666D01*
X91311697Y-140593238D01*
X91311699Y-140593238D01*
X91313237Y-140592356D01*
X91327976Y-140585155D01*
X91367073Y-140569165D01*
X91393709Y-140547894D01*
X91409399Y-140537226D01*
X91439800Y-140519797D01*
X91451188Y-140507926D01*
X91469814Y-140488509D01*
X91481919Y-140477455D01*
X91482459Y-140477025D01*
X91482460Y-140477022D01*
X91487519Y-140472984D01*
X91494979Y-140464526D01*
X91519868Y-140441975D01*
X91522382Y-140437863D01*
X91538685Y-140416718D01*
X91542022Y-140413241D01*
X91551150Y-140395665D01*
X96083081Y-140395665D01*
X96085801Y-140458427D01*
X96085917Y-140463796D01*
X96085917Y-140486714D01*
X96086626Y-140491648D01*
X96087771Y-140503914D01*
X96089594Y-140545976D01*
X96094226Y-140559547D01*
X96099608Y-140581942D01*
X96101650Y-140596140D01*
X96101650Y-140596141D01*
X96101651Y-140596143D01*
X96115194Y-140625800D01*
X96119140Y-140634439D01*
X96123690Y-140645873D01*
X96125306Y-140650608D01*
X96125307Y-140650611D01*
X96125308Y-140650612D01*
X96135715Y-140671014D01*
X96138049Y-140675846D01*
X96164150Y-140732998D01*
X96177263Y-140752462D01*
X96180931Y-140759653D01*
X96203788Y-140804464D01*
X96208156Y-140814004D01*
X96211821Y-140822997D01*
X96221036Y-140838735D01*
X96224485Y-140845036D01*
X96231997Y-140859762D01*
X96236792Y-140869160D01*
X96236625Y-140869244D01*
X96245299Y-140886968D01*
X96280042Y-140939830D01*
X96283404Y-140945245D01*
X96293652Y-140962744D01*
X96293654Y-140962747D01*
X96298423Y-140968735D01*
X96305050Y-140977882D01*
X96309264Y-140984295D01*
X96312689Y-140988166D01*
X96322704Y-140999489D01*
X96326800Y-141004369D01*
X96335911Y-141015808D01*
X96362990Y-141049812D01*
X96383221Y-141067901D01*
X96397391Y-141083919D01*
X96407155Y-141096502D01*
X96425552Y-141123645D01*
X96425553Y-141123646D01*
X96425554Y-141123647D01*
X96479062Y-141167767D01*
X96480367Y-141168860D01*
X96533201Y-141213703D01*
X96533202Y-141213703D01*
X96533203Y-141213704D01*
X96563172Y-141227021D01*
X96577282Y-141234411D01*
X96615190Y-141257483D01*
X96629587Y-141267718D01*
X96651429Y-141285720D01*
X96718077Y-141314191D01*
X96787111Y-141343699D01*
X96808077Y-141346191D01*
X96815209Y-141347039D01*
X96832562Y-141350369D01*
X96849054Y-141354772D01*
X96863990Y-141358760D01*
X96888989Y-141368526D01*
X96889281Y-141368584D01*
X96889284Y-141368586D01*
X96931911Y-141377151D01*
X96939481Y-141378922D01*
X96961155Y-141384718D01*
X96961157Y-141384718D01*
X96961239Y-141384740D01*
X96961319Y-141384749D01*
X96961325Y-141384751D01*
X96976904Y-141386599D01*
X96986713Y-141388165D01*
X96991790Y-141389185D01*
X96997676Y-141390368D01*
X97014303Y-141391291D01*
X97022085Y-141391969D01*
X97031101Y-141393043D01*
X97047576Y-141395005D01*
X97047824Y-141395015D01*
X97071113Y-141397780D01*
X97072256Y-141397586D01*
X97099802Y-141396042D01*
X97118484Y-141397081D01*
X97118493Y-141397080D01*
X97118599Y-141397086D01*
X97132644Y-141396672D01*
X97139498Y-141396866D01*
X97145319Y-141397419D01*
X97150271Y-141397509D01*
X97150278Y-141397511D01*
X97183935Y-141398128D01*
X97184829Y-141398149D01*
X97218606Y-141399107D01*
X97218610Y-141399106D01*
X97223567Y-141399247D01*
X97229410Y-141398964D01*
X97265028Y-141399619D01*
X97268198Y-141399897D01*
X97274923Y-141399985D01*
X97274926Y-141399986D01*
X97310046Y-141400448D01*
X97310469Y-141400455D01*
X97345698Y-141401103D01*
X97345701Y-141401102D01*
X97352419Y-141401226D01*
X97355588Y-141401048D01*
X97422078Y-141401925D01*
X97424072Y-141402091D01*
X97431617Y-141402166D01*
X97431622Y-141402167D01*
X97467609Y-141402525D01*
X97467772Y-141402527D01*
X97503419Y-141402998D01*
X97503422Y-141402997D01*
X97510962Y-141403097D01*
X97512938Y-141402977D01*
X97608707Y-141403933D01*
X97610092Y-141404045D01*
X97618076Y-141404106D01*
X97618078Y-141404107D01*
X97653871Y-141404384D01*
X97654146Y-141404460D01*
X97654147Y-141404387D01*
X97690391Y-141404749D01*
X97690394Y-141404748D01*
X97698362Y-141404828D01*
X97699739Y-141404741D01*
X97822494Y-141405695D01*
X97823502Y-141405775D01*
X97831713Y-141405825D01*
X97831717Y-141405826D01*
X97867764Y-141406047D01*
X97867764Y-141406102D01*
X97867970Y-141406048D01*
X97904331Y-141406332D01*
X97904331Y-141406331D01*
X97912532Y-141406396D01*
X97913561Y-141406329D01*
X98060744Y-141407234D01*
X98061523Y-141407295D01*
X98069852Y-141407335D01*
X98069860Y-141407337D01*
X98106151Y-141407514D01*
X98106152Y-141407514D01*
X98106152Y-141407555D01*
X98106308Y-141407514D01*
X98142658Y-141407739D01*
X98142663Y-141407738D01*
X98151057Y-141407790D01*
X98151848Y-141407737D01*
X98320686Y-141408562D01*
X98321332Y-141408612D01*
X98329772Y-141408644D01*
X98329776Y-141408645D01*
X98366332Y-141408785D01*
X98366462Y-141408820D01*
X98366463Y-141408786D01*
X98366762Y-141408787D01*
X98402699Y-141408964D01*
X98402707Y-141408962D01*
X98411138Y-141409004D01*
X98411773Y-141408962D01*
X98599490Y-141409687D01*
X98600036Y-141409729D01*
X98645085Y-141409864D01*
X98645086Y-141409864D01*
X98681719Y-141410006D01*
X98681719Y-141410005D01*
X98690273Y-141410039D01*
X98690813Y-141410001D01*
X98894690Y-141410613D01*
X98895152Y-141410649D01*
X98903895Y-141410668D01*
X98903903Y-141410670D01*
X98940973Y-141410753D01*
X98976968Y-141410862D01*
X98976970Y-141410861D01*
X98985725Y-141410888D01*
X98986192Y-141410855D01*
X99203483Y-141411346D01*
X99203900Y-141411378D01*
X99212568Y-141411391D01*
X99212571Y-141411392D01*
X99248687Y-141411448D01*
X99248870Y-141411449D01*
X99249331Y-141411450D01*
X99285676Y-141411533D01*
X99285677Y-141411532D01*
X99294537Y-141411553D01*
X99294957Y-141411522D01*
X99522857Y-141411885D01*
X99523234Y-141411914D01*
X99531934Y-141411922D01*
X99531937Y-141411923D01*
X99568693Y-141411959D01*
X99605071Y-141412017D01*
X99605072Y-141412016D01*
X99614052Y-141412031D01*
X99614437Y-141412003D01*
X99850260Y-141412235D01*
X99850628Y-141412262D01*
X99895405Y-141412279D01*
X99895451Y-141412279D01*
X99932369Y-141412316D01*
X99932374Y-141412315D01*
X99941341Y-141412324D01*
X99941696Y-141412297D01*
X100182584Y-141412396D01*
X100182935Y-141412421D01*
X100191621Y-141412419D01*
X100191629Y-141412421D01*
X100228623Y-141412415D01*
X100264790Y-141412430D01*
X100264793Y-141412429D01*
X100273751Y-141412433D01*
X100274097Y-141412407D01*
X100517305Y-141412370D01*
X100517655Y-141412395D01*
X100526377Y-141412388D01*
X100526385Y-141412390D01*
X100564029Y-141412363D01*
X100608368Y-141412357D01*
X100608704Y-141412331D01*
X100851463Y-141412160D01*
X100851819Y-141412186D01*
X100860700Y-141412174D01*
X100860703Y-141412175D01*
X100897273Y-141412128D01*
X100897274Y-141412128D01*
X100942688Y-141412097D01*
X100943038Y-141412070D01*
X101182585Y-141411767D01*
X101182955Y-141411794D01*
X101191792Y-141411777D01*
X101191795Y-141411778D01*
X101228657Y-141411709D01*
X101228658Y-141411709D01*
X101229640Y-141411707D01*
X101264943Y-141411664D01*
X101264943Y-141411663D01*
X101273768Y-141411653D01*
X101274138Y-141411625D01*
X101507745Y-141411193D01*
X101508130Y-141411221D01*
X101516874Y-141411199D01*
X101516878Y-141411200D01*
X101553582Y-141411109D01*
X101590006Y-141411042D01*
X101590008Y-141411041D01*
X101598979Y-141411025D01*
X101599368Y-141410995D01*
X101824197Y-141410440D01*
X101824628Y-141410470D01*
X101833170Y-141410442D01*
X101833172Y-141410443D01*
X101868690Y-141410330D01*
X101906267Y-141410238D01*
X101906275Y-141410236D01*
X101915062Y-141410215D01*
X101915492Y-141410182D01*
X102128819Y-141409509D01*
X102129311Y-141409542D01*
X102137890Y-141409508D01*
X102137896Y-141409509D01*
X102174566Y-141409364D01*
X102210947Y-141409250D01*
X102210947Y-141409249D01*
X102219529Y-141409223D01*
X102220016Y-141409186D01*
X102419076Y-141408403D01*
X102419626Y-141408441D01*
X102428273Y-141408399D01*
X102428278Y-141408400D01*
X102464022Y-141408227D01*
X102501263Y-141408081D01*
X102501265Y-141408080D01*
X102509834Y-141408047D01*
X102510403Y-141408002D01*
X102692433Y-141407123D01*
X102693105Y-141407169D01*
X102701553Y-141407118D01*
X102701555Y-141407119D01*
X102737244Y-141406907D01*
X102737379Y-141406934D01*
X102737379Y-141406907D01*
X102737378Y-141406907D01*
X102774444Y-141406728D01*
X102774446Y-141406727D01*
X102782847Y-141406687D01*
X102783529Y-141406633D01*
X102945767Y-141405673D01*
X102946602Y-141405728D01*
X102954969Y-141405667D01*
X102954975Y-141405668D01*
X102990972Y-141405406D01*
X102990972Y-141405445D01*
X102991137Y-141405405D01*
X103027729Y-141405189D01*
X103027736Y-141405187D01*
X103036186Y-141405138D01*
X103037019Y-141405071D01*
X103176601Y-141404057D01*
X103177698Y-141404128D01*
X103185817Y-141404054D01*
X103185821Y-141404055D01*
X103221911Y-141403728D01*
X103222128Y-141403770D01*
X103222128Y-141403727D01*
X103222129Y-141403727D01*
X103258362Y-141403464D01*
X103258368Y-141403463D01*
X103266482Y-141403404D01*
X103267570Y-141403316D01*
X103382086Y-141402282D01*
X103383601Y-141402376D01*
X103391438Y-141402286D01*
X103391445Y-141402287D01*
X103427493Y-141401873D01*
X103463631Y-141401547D01*
X103463632Y-141401546D01*
X103471476Y-141401476D01*
X103473002Y-141401350D01*
X103559752Y-141400355D01*
X103562010Y-141400486D01*
X103569317Y-141400375D01*
X103569322Y-141400376D01*
X103604875Y-141399837D01*
X103605099Y-141399834D01*
X103640882Y-141399424D01*
X103640887Y-141399423D01*
X103648208Y-141399339D01*
X103650465Y-141399147D01*
X103707231Y-141398287D01*
X103710979Y-141398487D01*
X103717325Y-141398351D01*
X103717329Y-141398352D01*
X103752130Y-141397609D01*
X103752832Y-141397596D01*
X103787594Y-141397071D01*
X103787599Y-141397070D01*
X103793943Y-141396974D01*
X103797660Y-141396638D01*
X103823455Y-141396089D01*
X103830844Y-141396412D01*
X103834815Y-141396276D01*
X103834822Y-141396277D01*
X103867499Y-141395159D01*
X103868923Y-141395120D01*
X103901636Y-141394423D01*
X103901638Y-141394422D01*
X103905605Y-141394338D01*
X103912980Y-141393603D01*
X103914131Y-141393564D01*
X103926447Y-141393757D01*
X103926905Y-141393787D01*
X103927063Y-141393798D01*
X103935429Y-141394882D01*
X103937059Y-141394729D01*
X103937063Y-141394730D01*
X103966213Y-141391999D01*
X103973489Y-141391534D01*
X103982356Y-141391232D01*
X103985975Y-141390584D01*
X103996240Y-141389187D01*
X104005754Y-141388296D01*
X104007513Y-141388145D01*
X104039327Y-141385659D01*
X104039333Y-141385657D01*
X104042514Y-141385409D01*
X104044026Y-141385170D01*
X104047136Y-141384421D01*
X104047140Y-141384421D01*
X104060589Y-141381183D01*
X104068425Y-141380399D01*
X104080512Y-141377323D01*
X104080518Y-141377324D01*
X104109431Y-141369968D01*
X104112666Y-141369194D01*
X104147201Y-141361443D01*
X104147201Y-141361442D01*
X104158468Y-141358914D01*
X104167114Y-141355546D01*
X104181341Y-141352123D01*
X104181347Y-141352120D01*
X104184586Y-141351341D01*
X104187664Y-141350069D01*
X104217789Y-141337618D01*
X104219220Y-141337039D01*
X104295643Y-141306605D01*
X104302441Y-141302636D01*
X104319635Y-141295530D01*
X104338296Y-141289497D01*
X104360895Y-141284125D01*
X104389756Y-141267636D01*
X104397677Y-141263757D01*
X104400342Y-141262178D01*
X104400346Y-141262177D01*
X104427683Y-141245987D01*
X104429280Y-141245058D01*
X104456893Y-141229284D01*
X104456895Y-141229281D01*
X104459593Y-141227741D01*
X104466886Y-141222770D01*
X104495474Y-141205841D01*
X104511315Y-141188853D01*
X104525780Y-141175615D01*
X104566047Y-141144246D01*
X104579740Y-141134978D01*
X104606676Y-141119261D01*
X104655624Y-141067446D01*
X104655866Y-141067192D01*
X104705313Y-141015808D01*
X104719727Y-140988157D01*
X104728329Y-140974040D01*
X104786534Y-140891499D01*
X104807560Y-140861741D01*
X104807562Y-140861736D01*
X104807692Y-140861553D01*
X104807797Y-140861345D01*
X104807801Y-140861341D01*
X104820970Y-140835505D01*
X104824090Y-140829384D01*
X104824138Y-140829290D01*
X104852318Y-140774124D01*
X104852786Y-140773205D01*
X104865452Y-140754470D01*
X104866823Y-140751485D01*
X104866825Y-140751484D01*
X104892145Y-140696393D01*
X104894384Y-140691780D01*
X104899255Y-140682245D01*
X104905077Y-140670848D01*
X104906496Y-140666694D01*
X104911162Y-140655019D01*
X104913188Y-140650612D01*
X104928492Y-140617317D01*
X104930625Y-140602736D01*
X104930654Y-140602540D01*
X104936020Y-140580362D01*
X104938017Y-140574521D01*
X104940850Y-140566237D01*
X104942670Y-140524778D01*
X104943858Y-140512261D01*
X104944325Y-140509071D01*
X104944493Y-140507923D01*
X104944549Y-140484380D01*
X104944667Y-140479311D01*
X104947329Y-140418718D01*
X104947328Y-140418714D01*
X104947472Y-140415441D01*
X104944773Y-140392989D01*
X104950703Y-137960848D01*
X104950707Y-137960817D01*
X104950818Y-137914220D01*
X104950818Y-137914214D01*
X104950929Y-137868498D01*
X104950945Y-137868290D01*
X104950963Y-137859096D01*
X104950964Y-137859092D01*
X104951038Y-137821474D01*
X104951123Y-137785851D01*
X104951122Y-137785845D01*
X104951143Y-137777070D01*
X104951125Y-137776819D01*
X104951769Y-137449353D01*
X104951807Y-137448847D01*
X104951817Y-137440046D01*
X104951818Y-137440042D01*
X104951860Y-137403363D01*
X104951932Y-137367015D01*
X104951931Y-137367009D01*
X104951948Y-137358437D01*
X104951912Y-137357925D01*
X104952030Y-137255310D01*
X104952241Y-137071042D01*
X104952290Y-137070395D01*
X104952295Y-137025119D01*
X104952295Y-137024990D01*
X104952312Y-137010427D01*
X104952337Y-136988870D01*
X104952336Y-136988864D01*
X104952346Y-136980280D01*
X104952298Y-136979635D01*
X104952326Y-136732264D01*
X104952386Y-136731421D01*
X104952359Y-136709117D01*
X104952331Y-136686208D01*
X104952335Y-136650331D01*
X104952334Y-136650325D01*
X104952335Y-136641922D01*
X104952274Y-136641074D01*
X104952237Y-136610803D01*
X104952016Y-136431926D01*
X104952093Y-136430833D01*
X104951961Y-136386314D01*
X104951960Y-136386096D01*
X104951958Y-136384204D01*
X104951916Y-136350170D01*
X104951915Y-136350163D01*
X104951905Y-136342119D01*
X104951825Y-136341013D01*
X104951569Y-136255160D01*
X104951311Y-136168753D01*
X104951410Y-136167288D01*
X104951175Y-136123038D01*
X104951174Y-136122746D01*
X104951045Y-136079253D01*
X104950933Y-136077783D01*
X104950888Y-136069388D01*
X104950207Y-135941280D01*
X104950337Y-135939279D01*
X104950252Y-135929336D01*
X104949965Y-135895701D01*
X104949775Y-135859967D01*
X104949774Y-135859965D01*
X104949735Y-135852477D01*
X104949579Y-135850496D01*
X104948704Y-135748191D01*
X104948878Y-135745362D01*
X104948320Y-135702967D01*
X104948316Y-135702701D01*
X104948015Y-135667308D01*
X104948014Y-135667303D01*
X104947955Y-135660340D01*
X104947721Y-135657520D01*
X104946805Y-135587795D01*
X104947036Y-135583582D01*
X104946784Y-135571094D01*
X104946216Y-135542927D01*
X104946204Y-135542134D01*
X104945898Y-135518846D01*
X104945752Y-135507713D01*
X104945751Y-135507708D01*
X104945672Y-135501681D01*
X104945300Y-135497487D01*
X104944507Y-135458068D01*
X104944814Y-135451323D01*
X104943625Y-135413888D01*
X104943590Y-135412586D01*
X104942924Y-135379491D01*
X104942923Y-135379488D01*
X104942835Y-135375091D01*
X104942179Y-135368381D01*
X104941766Y-135355391D01*
X104942108Y-135343364D01*
X104941971Y-135340844D01*
X104940436Y-135312589D01*
X104940321Y-135309948D01*
X104939381Y-135280309D01*
X104939379Y-135280302D01*
X104939136Y-135272621D01*
X104939175Y-135272129D01*
X104938649Y-135266580D01*
X104938147Y-135251278D01*
X104938230Y-135248413D01*
X104936214Y-135230802D01*
X104935597Y-135223477D01*
X104934637Y-135205790D01*
X104932635Y-135195766D01*
X104931038Y-135185570D01*
X104930865Y-135184058D01*
X104930621Y-135181706D01*
X104926921Y-135142577D01*
X104927242Y-135142546D01*
X104925522Y-135136035D01*
X104925523Y-135136031D01*
X104908371Y-135071077D01*
X104907752Y-135068622D01*
X104900333Y-135037913D01*
X104897912Y-135030584D01*
X104885573Y-135001478D01*
X104884619Y-134999162D01*
X104859706Y-134936764D01*
X104859703Y-134936761D01*
X104856189Y-134927958D01*
X104849862Y-134917237D01*
X104842471Y-134899801D01*
X104836588Y-134882461D01*
X104829920Y-134856684D01*
X104821430Y-134842480D01*
X104814621Y-134831089D01*
X104813228Y-134828341D01*
X104791504Y-134792409D01*
X104791180Y-134791870D01*
X104769725Y-134755972D01*
X104767953Y-134753452D01*
X104752516Y-134727916D01*
X104732882Y-134709936D01*
X104720326Y-134696604D01*
X104687263Y-134655845D01*
X104677006Y-134641144D01*
X104662878Y-134617405D01*
X104651340Y-134606691D01*
X104641727Y-134597764D01*
X104640906Y-134596888D01*
X104608618Y-134567021D01*
X104608444Y-134566860D01*
X104575945Y-134536682D01*
X104575007Y-134535930D01*
X104553862Y-134516370D01*
X104529111Y-134504080D01*
X104513679Y-134494971D01*
X104430857Y-134437630D01*
X104429999Y-134437030D01*
X104400364Y-134416131D01*
X104368035Y-134400002D01*
X104367074Y-134399518D01*
X104313690Y-134372303D01*
X104294976Y-134359675D01*
X104259606Y-134343450D01*
X104236839Y-134333006D01*
X104232236Y-134330778D01*
X104211263Y-134320086D01*
X104207123Y-134318674D01*
X104195458Y-134314023D01*
X104157760Y-134296731D01*
X104142953Y-134294576D01*
X104120794Y-134289234D01*
X104106629Y-134284404D01*
X104065183Y-134282617D01*
X104052683Y-134281442D01*
X104048354Y-134280812D01*
X104024809Y-134280772D01*
X104019688Y-134280657D01*
X103955810Y-134277906D01*
X103933395Y-134280618D01*
X100590399Y-134274973D01*
X100590395Y-134274971D01*
X100590395Y-134274973D01*
X100590195Y-134274972D01*
X100562996Y-134274925D01*
X100562816Y-134274913D01*
X100516329Y-134274847D01*
X100515938Y-134274847D01*
X100515935Y-134274846D01*
X100473346Y-134274775D01*
X100473175Y-134274786D01*
X100048997Y-134274188D01*
X100048655Y-134274163D01*
X100004016Y-134274125D01*
X100003883Y-134274125D01*
X100003881Y-134274124D01*
X99958563Y-134274061D01*
X99958209Y-134274085D01*
X99576222Y-134273759D01*
X99575805Y-134273729D01*
X99531045Y-134273721D01*
X99531033Y-134273721D01*
X99531031Y-134273720D01*
X99485975Y-134273683D01*
X99485551Y-134273712D01*
X99145166Y-134273650D01*
X99144665Y-134273615D01*
X99100589Y-134273641D01*
X99100500Y-134273641D01*
X99066276Y-134273636D01*
X99063221Y-134273636D01*
X99054963Y-134273635D01*
X99054440Y-134273671D01*
X98755384Y-134273863D01*
X98754750Y-134273818D01*
X98709625Y-134273891D01*
X98709625Y-134273892D01*
X98709624Y-134273892D01*
X98709568Y-134273892D01*
X98665084Y-134273921D01*
X98664449Y-134273967D01*
X98406292Y-134274394D01*
X98405470Y-134274338D01*
X98360718Y-134274470D01*
X98360563Y-134274470D01*
X98360560Y-134274471D01*
X98324526Y-134274531D01*
X98324524Y-134274531D01*
X98316317Y-134274545D01*
X98315515Y-134274603D01*
X98097848Y-134275244D01*
X98096810Y-134275175D01*
X98088777Y-134275212D01*
X98081831Y-134275244D01*
X98052959Y-134275377D01*
X98052756Y-134275377D01*
X98008190Y-134275508D01*
X98007111Y-134275589D01*
X97829606Y-134276410D01*
X97828193Y-134276317D01*
X97784784Y-134276617D01*
X97784504Y-134276619D01*
X97740185Y-134276824D01*
X97738749Y-134276935D01*
X97600864Y-134277887D01*
X97598866Y-134277761D01*
X97555652Y-134278199D01*
X97555256Y-134278202D01*
X97512156Y-134278500D01*
X97510138Y-134278661D01*
X97411141Y-134279666D01*
X97408093Y-134279487D01*
X97366221Y-134280120D01*
X97365610Y-134280128D01*
X97323669Y-134280554D01*
X97320634Y-134280810D01*
X97259351Y-134281737D01*
X97254286Y-134281473D01*
X97214943Y-134282403D01*
X97213893Y-134282424D01*
X97174325Y-134283023D01*
X97169274Y-134283482D01*
X97142975Y-134284103D01*
X97133088Y-134283720D01*
X97099554Y-134285111D01*
X97097347Y-134285182D01*
X97063947Y-134285971D01*
X97054120Y-134286996D01*
X97053483Y-134287022D01*
X97049927Y-134287170D01*
X97039714Y-134287173D01*
X97025468Y-134286590D01*
X97016035Y-134285701D01*
X96953806Y-134294377D01*
X96949292Y-134294922D01*
X96936680Y-134296211D01*
X96925109Y-134296850D01*
X96916996Y-134296917D01*
X96874741Y-134309707D01*
X96868860Y-134311330D01*
X96817113Y-134324251D01*
X96806008Y-134330761D01*
X96795745Y-134336149D01*
X96781493Y-134342801D01*
X96780079Y-134343450D01*
X96705031Y-134377338D01*
X96698568Y-134381509D01*
X96692294Y-134384438D01*
X96673036Y-134391553D01*
X96652912Y-134397144D01*
X96622709Y-134415937D01*
X96611971Y-134421756D01*
X96586413Y-134438483D01*
X96584024Y-134440008D01*
X96558104Y-134456137D01*
X96548308Y-134463422D01*
X96518534Y-134482908D01*
X96504987Y-134498808D01*
X96490430Y-134513273D01*
X96457970Y-134540580D01*
X96441240Y-134552438D01*
X96423237Y-134563078D01*
X96398964Y-134589059D01*
X96390128Y-134597447D01*
X96369762Y-134620267D01*
X96367863Y-134622346D01*
X96346997Y-134644681D01*
X96339445Y-134654240D01*
X96315770Y-134680771D01*
X96306803Y-134699671D01*
X96296508Y-134717410D01*
X96243170Y-134793950D01*
X96242771Y-134794519D01*
X96221758Y-134824313D01*
X96205374Y-134856899D01*
X96205064Y-134857511D01*
X96177220Y-134912129D01*
X96164175Y-134931500D01*
X96138025Y-134988759D01*
X96135707Y-134993558D01*
X96125256Y-135014060D01*
X96123669Y-135018713D01*
X96119106Y-135030186D01*
X96101650Y-135068410D01*
X96099598Y-135082683D01*
X96094226Y-135105049D01*
X96089570Y-135118702D01*
X96087762Y-135160678D01*
X96086616Y-135172982D01*
X96085917Y-135177845D01*
X96085917Y-135200844D01*
X96085802Y-135206181D01*
X96083092Y-135269081D01*
X96085917Y-135292259D01*
X96085917Y-140372371D01*
X96083081Y-140395665D01*
X91551150Y-140395665D01*
X91557959Y-140382555D01*
X91585487Y-140347151D01*
X91623816Y-140323853D01*
X91627552Y-140322428D01*
X91627551Y-140322428D01*
X91627555Y-140322427D01*
X91632315Y-140318808D01*
X91659759Y-140303021D01*
X91676939Y-140295881D01*
X91682041Y-140292844D01*
X91692614Y-140287226D01*
X91693651Y-140286737D01*
X91697975Y-140284701D01*
X91713862Y-140274222D01*
X91726209Y-140267481D01*
X91729443Y-140265455D01*
X91729447Y-140265454D01*
X91754428Y-140249809D01*
X91756802Y-140248359D01*
X91782176Y-140233263D01*
X91782177Y-140233262D01*
X91789808Y-140228722D01*
X91790310Y-140229566D01*
X91809514Y-140218329D01*
X91816846Y-140216625D01*
X91831603Y-140211013D01*
X91831606Y-140211013D01*
X91851273Y-140203533D01*
X91870932Y-140197864D01*
X91891574Y-140193721D01*
X91916167Y-140180799D01*
X91939922Y-140171302D01*
X91945434Y-140169735D01*
X91982232Y-140146527D01*
X91990694Y-140141645D01*
X92022292Y-140125046D01*
X92024243Y-140123156D01*
X92032390Y-140116755D01*
X92032188Y-140116518D01*
X92038946Y-140110761D01*
X92038949Y-140110760D01*
X92053197Y-140098625D01*
X92058627Y-140094258D01*
X92103128Y-140060503D01*
X92103414Y-140060115D01*
X92120573Y-140041726D01*
X92122271Y-140039799D01*
X92122279Y-140039793D01*
X92128668Y-140032545D01*
X92143552Y-140018380D01*
X92144027Y-140017874D01*
X92144032Y-140017871D01*
X92161187Y-139999631D01*
X92164302Y-139996437D01*
X92169875Y-139990931D01*
X92172727Y-139988206D01*
X92174765Y-139986320D01*
X92180495Y-139981017D01*
X92180497Y-139981013D01*
X92182925Y-139978767D01*
X92234669Y-139950100D01*
X92293805Y-139948667D01*
X92299568Y-139949935D01*
X92301268Y-139950324D01*
X92368353Y-139966190D01*
X92368356Y-139966189D01*
X92370015Y-139966582D01*
X92393853Y-139968345D01*
X92395543Y-139968201D01*
X92395545Y-139968202D01*
X92464159Y-139962385D01*
X92466034Y-139962242D01*
X92467499Y-139962141D01*
X92484298Y-139962123D01*
X92487767Y-139962355D01*
X92489185Y-139962039D01*
X92507569Y-139959374D01*
X92534765Y-139957498D01*
X92564770Y-139946390D01*
X92580872Y-139941644D01*
X92595687Y-139938349D01*
X92595688Y-139938348D01*
X92597808Y-139937877D01*
X92597951Y-139937822D01*
X92605054Y-139935947D01*
X92605947Y-139935677D01*
X92607006Y-139935432D01*
X92624834Y-139930728D01*
X92627928Y-139930275D01*
X92674446Y-139908869D01*
X92682351Y-139905561D01*
X92695849Y-139900455D01*
X92695851Y-139900453D01*
X92699210Y-139899183D01*
X92707423Y-139895344D01*
X92710011Y-139894340D01*
X92720009Y-139888395D01*
X92721849Y-139887581D01*
X92721851Y-139887579D01*
X92725073Y-139886153D01*
X92725395Y-139885979D01*
X92728358Y-139884062D01*
X92728364Y-139884060D01*
X92733321Y-139880853D01*
X92749231Y-139873231D01*
X92754357Y-139869685D01*
X92754362Y-139869684D01*
X92760246Y-139865613D01*
X92770837Y-139859050D01*
X92792634Y-139847016D01*
X92792636Y-139847013D01*
X92792826Y-139846909D01*
X92814678Y-139829423D01*
X92815539Y-139828884D01*
X92815539Y-139828882D01*
X92825637Y-139822558D01*
X92832251Y-139816876D01*
X92832649Y-139816619D01*
X92833465Y-139815907D01*
X92844407Y-139807399D01*
X92845283Y-139806793D01*
X92845285Y-139806790D01*
X92845288Y-139806789D01*
X92864988Y-139788510D01*
X92867793Y-139785989D01*
X92915996Y-139743980D01*
X92915997Y-139743978D01*
X92925878Y-139735367D01*
X92927264Y-139733780D01*
X92927087Y-139733623D01*
X92932968Y-139726976D01*
X92932973Y-139726973D01*
X92936538Y-139722943D01*
X92945054Y-139714228D01*
X92948986Y-139710581D01*
X92963182Y-139693026D01*
X92966678Y-139688894D01*
X92995985Y-139655786D01*
X93001997Y-139649461D01*
X93012090Y-139639573D01*
X93020485Y-139628590D01*
X93026138Y-139621723D01*
X93035302Y-139611372D01*
X93043045Y-139599597D01*
X93048128Y-139592435D01*
X93073231Y-139559601D01*
X93079407Y-139552147D01*
X93087261Y-139543391D01*
X93096245Y-139529921D01*
X93100855Y-139523470D01*
X93110690Y-139510608D01*
X93116437Y-139500331D01*
X93121482Y-139492085D01*
X93145537Y-139456020D01*
X93150833Y-139448679D01*
X93159028Y-139438159D01*
X93166277Y-139425463D01*
X93170792Y-139418159D01*
X93178900Y-139406005D01*
X93184641Y-139393979D01*
X93188844Y-139385949D01*
X93208457Y-139351606D01*
X93213915Y-139342908D01*
X93219737Y-139334433D01*
X93227561Y-139318600D01*
X93231021Y-139312098D01*
X93239776Y-139296769D01*
X93241743Y-139291786D01*
X93249955Y-139274869D01*
X93254418Y-139267214D01*
X93259349Y-139255039D01*
X93263090Y-139246707D01*
X93268903Y-139234947D01*
X93273509Y-139220864D01*
X93276420Y-139212902D01*
X93292145Y-139174088D01*
X93295275Y-139167012D01*
X93302503Y-139151969D01*
X93305891Y-139141206D01*
X93309229Y-139131920D01*
X93313461Y-139121477D01*
X93317457Y-139105291D01*
X93319552Y-139097826D01*
X93333782Y-139052640D01*
X93337298Y-139042916D01*
X93337370Y-139042741D01*
X93341124Y-139033571D01*
X93345452Y-139016310D01*
X93347453Y-139009230D01*
X93348033Y-139007388D01*
X93352803Y-138992244D01*
X93354436Y-138982264D01*
X93356526Y-138972158D01*
X93367292Y-138929233D01*
X93370626Y-138918161D01*
X93372928Y-138911639D01*
X93377030Y-138891020D01*
X93378357Y-138885112D01*
X93383477Y-138864703D01*
X93384186Y-138857828D01*
X93385909Y-138846398D01*
X93394256Y-138804450D01*
X93397178Y-138792770D01*
X93398838Y-138787281D01*
X93402168Y-138765345D01*
X93403135Y-138759828D01*
X93407466Y-138738070D01*
X93407775Y-138732311D01*
X93409002Y-138720351D01*
X93410111Y-138713050D01*
X93415187Y-138679619D01*
X93417515Y-138668043D01*
X93419057Y-138661901D01*
X93419058Y-138661899D01*
X93421277Y-138640451D01*
X93422024Y-138634604D01*
X93425264Y-138613276D01*
X93425313Y-138606945D01*
X93425969Y-138595146D01*
X93430052Y-138555720D01*
X93431623Y-138545077D01*
X93433329Y-138536213D01*
X93434221Y-138517326D01*
X93434739Y-138510449D01*
X93436687Y-138491646D01*
X93436329Y-138482631D01*
X93436369Y-138471863D01*
X93438257Y-138431926D01*
X93438928Y-138423649D01*
X93440677Y-138408415D01*
X93440318Y-138395838D01*
X93440405Y-138386459D01*
X93441000Y-138373896D01*
X93439535Y-138358622D01*
X93439020Y-138350327D01*
X93437638Y-138301823D01*
X93437594Y-138299270D01*
X93437387Y-138269401D01*
X93437377Y-138267937D01*
X93436649Y-138259790D01*
X93436399Y-138258345D01*
X93436399Y-138258341D01*
X93432796Y-138237519D01*
X93431135Y-138210225D01*
X93431588Y-138201124D01*
X93420754Y-138156062D01*
X93418710Y-138145588D01*
X93417334Y-138136462D01*
X93411943Y-138118560D01*
X93410111Y-138111789D01*
X93403672Y-138085006D01*
X93404112Y-138084900D01*
X93398838Y-138072485D01*
X93394234Y-138059759D01*
X93385453Y-138030600D01*
X93383022Y-138026874D01*
X93363341Y-137969880D01*
X93372868Y-137910344D01*
X93381547Y-137890060D01*
X93385444Y-137857369D01*
X93387222Y-137848820D01*
X93387749Y-137838035D01*
X93388112Y-137834998D01*
X93389155Y-137827987D01*
X93398885Y-137773441D01*
X93398785Y-137772528D01*
X93398921Y-137744346D01*
X93399029Y-137743439D01*
X93396849Y-137730501D01*
X93389823Y-137688806D01*
X93388838Y-137681710D01*
X93382810Y-137626660D01*
X93382810Y-137626658D01*
X93364828Y-137583489D01*
X93361195Y-137573598D01*
X93360666Y-137571944D01*
X93359816Y-137569169D01*
X93342212Y-137509222D01*
X93341170Y-137505673D01*
X93321725Y-137475418D01*
X93314530Y-137462610D01*
X93298809Y-137430273D01*
X93256334Y-137383578D01*
X93245213Y-137369406D01*
X93225951Y-137340801D01*
X93174383Y-137298018D01*
X93172357Y-137296300D01*
X93108250Y-137240754D01*
X93108705Y-137240227D01*
X93079837Y-137217160D01*
X93056058Y-137161701D01*
X93061271Y-137101585D01*
X93062059Y-137099302D01*
X93069094Y-137082869D01*
X93075375Y-137070711D01*
X93075378Y-137070701D01*
X93075797Y-137069891D01*
X93087610Y-137035449D01*
X93087751Y-137035039D01*
X93092220Y-137022156D01*
X93096151Y-137012231D01*
X93099900Y-137003848D01*
X93105047Y-136985778D01*
X93107137Y-136979161D01*
X93113288Y-136961437D01*
X93114421Y-136955580D01*
X93121082Y-136932960D01*
X93121419Y-136932122D01*
X93121420Y-136932115D01*
X93122828Y-136928609D01*
X93146738Y-136890747D01*
X93174718Y-136869721D01*
X93174432Y-136869307D01*
X93181735Y-136864246D01*
X93181742Y-136864243D01*
X93184067Y-136862632D01*
X93195257Y-136855729D01*
X93230331Y-136836593D01*
X93230333Y-136836590D01*
X93230919Y-136836271D01*
X93240212Y-136828976D01*
X93243654Y-136825199D01*
X93264710Y-136806779D01*
X93272630Y-136801294D01*
X93297731Y-136770218D01*
X93306524Y-136760444D01*
X93334774Y-136732212D01*
X93342692Y-136717720D01*
X93355034Y-136699277D01*
X93365415Y-136686427D01*
X93380745Y-136649536D01*
X93386437Y-136637665D01*
X93387786Y-136635196D01*
X93387788Y-136635193D01*
X93390840Y-136627015D01*
X93398256Y-136610813D01*
X93411658Y-136586351D01*
X93414470Y-136573506D01*
X93421099Y-136552432D01*
X93422080Y-136550072D01*
X93423793Y-136534300D01*
X93425913Y-136521285D01*
X93427431Y-136514322D01*
X93427455Y-136514210D01*
X93435307Y-136478352D01*
X93435307Y-136478349D01*
X93437115Y-136470093D01*
X93437209Y-136469431D01*
X93443283Y-136441556D01*
X93441881Y-136421871D01*
X93442448Y-136403401D01*
X93442398Y-136398613D01*
X93442399Y-136398610D01*
X93442293Y-136388400D01*
X93442615Y-136378105D01*
X93443357Y-136367928D01*
X93442927Y-136361792D01*
X93442116Y-136350236D01*
X93441820Y-136342908D01*
X93441794Y-136340418D01*
X93442264Y-136328255D01*
X93442740Y-136322867D01*
X93441501Y-136300358D01*
X93441322Y-136294841D01*
X93441089Y-136272353D01*
X93440474Y-136268369D01*
X93439209Y-136242639D01*
X93439234Y-136242191D01*
X93436931Y-136216062D01*
X93436644Y-136212051D01*
X93435201Y-136185813D01*
X93434933Y-136184480D01*
X93432551Y-136157115D01*
X93432568Y-136156428D01*
X93429381Y-136129726D01*
X93428991Y-136125964D01*
X93426628Y-136099137D01*
X93426397Y-136098154D01*
X93423988Y-136084519D01*
X93423775Y-136082732D01*
X93422907Y-136069388D01*
X93422881Y-136067006D01*
X93418967Y-136041791D01*
X93418374Y-136037464D01*
X93415357Y-136012170D01*
X93414761Y-136009944D01*
X93410666Y-135983464D01*
X93410579Y-135981527D01*
X93405738Y-135956093D01*
X93405031Y-135951997D01*
X93401058Y-135926393D01*
X93401056Y-135926388D01*
X93400466Y-135922582D01*
X93399959Y-135918724D01*
X93399883Y-135918427D01*
X93399883Y-135918424D01*
X93395678Y-135901954D01*
X93394017Y-135894495D01*
X93390839Y-135877789D01*
X93387285Y-135867442D01*
X93384421Y-135857859D01*
X93363579Y-135776212D01*
X93363251Y-135774897D01*
X93355554Y-135743049D01*
X93355552Y-135743045D01*
X93354780Y-135739849D01*
X93353521Y-135736809D01*
X93340974Y-135706523D01*
X93340479Y-135705306D01*
X93334675Y-135690772D01*
X93327241Y-135663420D01*
X93327169Y-135662946D01*
X93303570Y-135612360D01*
X93300803Y-135605964D01*
X93293853Y-135588561D01*
X93289249Y-135580572D01*
X93284319Y-135571094D01*
X93280427Y-135562750D01*
X93270189Y-135547100D01*
X93266520Y-135541130D01*
X93245285Y-135504280D01*
X93238347Y-135490036D01*
X93210159Y-135454413D01*
X93203626Y-135445345D01*
X93199263Y-135438675D01*
X93186091Y-135423719D01*
X93181915Y-135418719D01*
X93169534Y-135403072D01*
X93169532Y-135403071D01*
X93169529Y-135403066D01*
X93163737Y-135397577D01*
X93155979Y-135389531D01*
X93150480Y-135383287D01*
X93142252Y-135372869D01*
X93137488Y-135366125D01*
X93127169Y-135356327D01*
X93126192Y-135355710D01*
X93126191Y-135355709D01*
X93119787Y-135351666D01*
X93108964Y-135343993D01*
X93102465Y-135338841D01*
X93094202Y-135331675D01*
X93088000Y-135325797D01*
X93081899Y-135321480D01*
X93040021Y-135270189D01*
X93032113Y-135252214D01*
X93028720Y-135243651D01*
X93027470Y-135240115D01*
X93024136Y-135211399D01*
X93023300Y-135211549D01*
X93014112Y-135160176D01*
X93012908Y-135149753D01*
X93012497Y-135147685D01*
X93012497Y-135147678D01*
X93006507Y-135117523D01*
X93006086Y-135115287D01*
X93000700Y-135085162D01*
X93000698Y-135085157D01*
X93000331Y-135083102D01*
X92997653Y-135072948D01*
X92997298Y-135071161D01*
X92990957Y-135039238D01*
X92984449Y-135026789D01*
X92978472Y-135013511D01*
X92968079Y-134986249D01*
X92966230Y-134981053D01*
X92959149Y-134959666D01*
X92959147Y-134959661D01*
X92956740Y-134954833D01*
X92951856Y-134943699D01*
X92949942Y-134938677D01*
X92948879Y-134936764D01*
X92939001Y-134918981D01*
X92936437Y-134914114D01*
X92934982Y-134911197D01*
X92927210Y-134891084D01*
X92926909Y-134890605D01*
X92926909Y-134890603D01*
X92919448Y-134878715D01*
X92913528Y-134868169D01*
X92909814Y-134860720D01*
X92909811Y-134860717D01*
X92908904Y-134858897D01*
X92898481Y-134845308D01*
X92896697Y-134842465D01*
X92893351Y-134836801D01*
X92883785Y-134819579D01*
X92878809Y-134813032D01*
X92872510Y-134803926D01*
X92868138Y-134796959D01*
X92867337Y-134796014D01*
X92864462Y-134792623D01*
X92863588Y-134791236D01*
X92853427Y-134779312D01*
X92849080Y-134773912D01*
X92806105Y-134717363D01*
X92806635Y-134716960D01*
X92802718Y-134713508D01*
X92787876Y-134700428D01*
X92787755Y-134700304D01*
X92778701Y-134692329D01*
X92753840Y-134670430D01*
X92699216Y-134622061D01*
X92699214Y-134622060D01*
X92696402Y-134619570D01*
X92672934Y-134603542D01*
X92635058Y-134584129D01*
X92623706Y-134577529D01*
X92621269Y-134575933D01*
X92598639Y-134565368D01*
X92594542Y-134563362D01*
X92535251Y-134532975D01*
X92525569Y-134529847D01*
X92481560Y-134523143D01*
X92472685Y-134520737D01*
X92461760Y-134519719D01*
X92450091Y-134518069D01*
X92430673Y-134514374D01*
X92427741Y-134514242D01*
X92414682Y-134512955D01*
X92375112Y-134506927D01*
X92368424Y-134507832D01*
X92340325Y-134508416D01*
X92323615Y-134506861D01*
X92270521Y-134489247D01*
X92240358Y-134459684D01*
X92238958Y-134460890D01*
X92233171Y-134454167D01*
X92216272Y-134434535D01*
X92213596Y-134431317D01*
X92206406Y-134422365D01*
X92197400Y-134411152D01*
X92197396Y-134411148D01*
X92195914Y-134409763D01*
X92186580Y-134400043D01*
X92152143Y-134360037D01*
X92146311Y-134352335D01*
X92144591Y-134350405D01*
X92144588Y-134350401D01*
X92123850Y-134327140D01*
X92122433Y-134325522D01*
X92099947Y-134299401D01*
X92093200Y-134292676D01*
X92048826Y-134242113D01*
X92047403Y-134240462D01*
X91998144Y-134182301D01*
X91996833Y-134180727D01*
X91952434Y-134126513D01*
X91950768Y-134124434D01*
X91935125Y-134104452D01*
X91932508Y-134100575D01*
X91910605Y-134072739D01*
X91908802Y-134070390D01*
X91890865Y-134046439D01*
X91882477Y-134036994D01*
X91867532Y-134018001D01*
X91863996Y-134013277D01*
X91851611Y-133995869D01*
X91847070Y-133991103D01*
X91839402Y-133982252D01*
X91835334Y-133977082D01*
X91819888Y-133962363D01*
X91815654Y-133958128D01*
X91786292Y-133927309D01*
X91784657Y-133925559D01*
X91762635Y-133901532D01*
X91758309Y-133897518D01*
X91732669Y-133877336D01*
X91730807Y-133875842D01*
X91701669Y-133851984D01*
X91696005Y-133847052D01*
X91683226Y-133835226D01*
X91674595Y-133829272D01*
X91666454Y-133823147D01*
X91651548Y-133810942D01*
X91615587Y-133762556D01*
X91606694Y-133702929D01*
X91626972Y-133646156D01*
X91671627Y-133605655D01*
X91694825Y-133599841D01*
X91703667Y-133591000D01*
X91703667Y-129969000D01*
X87656334Y-129969000D01*
X87656334Y-133591000D01*
X88195042Y-133591000D01*
X88257413Y-133607828D01*
X88302855Y-133653744D01*
X88319035Y-133716286D01*
X88301562Y-133778479D01*
X88255177Y-133823443D01*
X88250269Y-133826164D01*
X88250268Y-133826165D01*
X88218895Y-133843562D01*
X88212545Y-133847052D01*
X88181358Y-133864190D01*
X88179379Y-133865473D01*
X88175442Y-133867656D01*
X88173651Y-133868493D01*
X88142463Y-133885918D01*
X88136120Y-133889461D01*
X88135915Y-133889576D01*
X88114069Y-133901690D01*
X88113906Y-133901780D01*
X87998313Y-133965652D01*
X87997240Y-133966238D01*
X87872171Y-134033745D01*
X87871043Y-134034347D01*
X87753347Y-134096316D01*
X87752052Y-134096988D01*
X87646123Y-134151179D01*
X87644464Y-134152012D01*
X87555124Y-134196042D01*
X87552691Y-134197208D01*
X87494696Y-134224238D01*
X87481086Y-134229517D01*
X87456752Y-134241169D01*
X87453026Y-134242878D01*
X87429046Y-134253399D01*
X87427557Y-134254325D01*
X87415642Y-134260854D01*
X87411368Y-134262900D01*
X87402857Y-134266590D01*
X87390908Y-134271247D01*
X87377744Y-134278685D01*
X87370305Y-134282563D01*
X87356676Y-134289089D01*
X87346037Y-134296203D01*
X87338123Y-134301076D01*
X87321278Y-134310595D01*
X87314139Y-134314328D01*
X87309330Y-134316647D01*
X87299742Y-134321270D01*
X87289827Y-134327938D01*
X87281651Y-134332987D01*
X87271247Y-134338867D01*
X87258588Y-134348633D01*
X87252052Y-134353345D01*
X87238297Y-134362596D01*
X87232896Y-134366029D01*
X87215509Y-134376461D01*
X87209548Y-134381313D01*
X87200491Y-134388023D01*
X87194136Y-134392297D01*
X87189111Y-134396838D01*
X87177439Y-134406169D01*
X87173669Y-134408827D01*
X87168098Y-134414088D01*
X87145319Y-134431114D01*
X87145136Y-134431220D01*
X87106559Y-134471942D01*
X87101684Y-134476810D01*
X87087875Y-134489851D01*
X87082939Y-134496067D01*
X87065746Y-134513765D01*
X87063964Y-134515266D01*
X87048158Y-134539123D01*
X87041893Y-134547749D01*
X87019115Y-134576430D01*
X87018702Y-134577450D01*
X87014201Y-134587283D01*
X87010412Y-134594689D01*
X87003396Y-134606691D01*
X86982412Y-134638366D01*
X86976961Y-134656020D01*
X86968883Y-134675889D01*
X86960475Y-134692329D01*
X86956711Y-134712206D01*
X86926402Y-134772793D01*
X86922147Y-134777447D01*
X86911448Y-134793159D01*
X86907419Y-134798736D01*
X86895858Y-134813837D01*
X86891506Y-134821608D01*
X86885816Y-134830800D01*
X86860870Y-134867434D01*
X86857001Y-134872803D01*
X86845065Y-134888464D01*
X86841050Y-134895666D01*
X86835246Y-134905066D01*
X86830608Y-134911877D01*
X86821960Y-134929552D01*
X86818893Y-134935418D01*
X86793218Y-134981484D01*
X86792972Y-134981923D01*
X86775131Y-135013629D01*
X86762181Y-135047450D01*
X86761999Y-135047922D01*
X86743653Y-135095255D01*
X86742935Y-135097065D01*
X86729881Y-135129235D01*
X86729261Y-135131196D01*
X86723875Y-135154518D01*
X86710897Y-135187821D01*
X86697599Y-135211251D01*
X86696098Y-135213823D01*
X86676604Y-135246326D01*
X86676523Y-135246277D01*
X86673372Y-135252234D01*
X86669406Y-135258350D01*
X86666589Y-135264451D01*
X86656050Y-135282923D01*
X86645302Y-135298487D01*
X86633530Y-135334154D01*
X86628366Y-135347250D01*
X86628179Y-135347654D01*
X86620334Y-135373971D01*
X86619231Y-135377480D01*
X86619147Y-135377734D01*
X86616876Y-135384027D01*
X86612097Y-135396225D01*
X86610521Y-135403869D01*
X86607882Y-135411870D01*
X86607683Y-135411804D01*
X86605970Y-135418056D01*
X86599856Y-135434377D01*
X86596603Y-135452132D01*
X86596519Y-135472514D01*
X86595488Y-135483939D01*
X86594492Y-135513939D01*
X86594231Y-135518846D01*
X86589505Y-135583615D01*
X86590684Y-135596704D01*
X86603166Y-135645106D01*
X86605356Y-135659073D01*
X86606463Y-135662160D01*
X86610936Y-135677806D01*
X86613124Y-135687932D01*
X86614455Y-135691516D01*
X86618283Y-135703720D01*
X86620013Y-135710429D01*
X86620838Y-135713823D01*
X86629056Y-135749865D01*
X86632238Y-135757799D01*
X86632945Y-135760532D01*
X86631461Y-135760915D01*
X86641739Y-135796196D01*
X86642016Y-135805753D01*
X86633311Y-135855119D01*
X86605773Y-135897004D01*
X86563903Y-135924564D01*
X86556055Y-135927686D01*
X86551668Y-135929336D01*
X86507672Y-135944939D01*
X86507671Y-135944939D01*
X86501980Y-135946958D01*
X86487200Y-135955080D01*
X86462655Y-135964845D01*
X86445270Y-135978456D01*
X86428529Y-135989501D01*
X86409177Y-136000129D01*
X86389656Y-136019745D01*
X86382238Y-136025471D01*
X86348640Y-136060909D01*
X86346494Y-136063117D01*
X86346217Y-136063395D01*
X86331700Y-136075871D01*
X86326469Y-136079706D01*
X86319731Y-136088521D01*
X86309119Y-136100675D01*
X86303587Y-136106234D01*
X86300930Y-136110504D01*
X86278627Y-136142015D01*
X86278277Y-136142507D01*
X86276673Y-136144750D01*
X86274331Y-136147918D01*
X86259326Y-136167550D01*
X86258968Y-136168191D01*
X86251610Y-136179784D01*
X86236214Y-136201308D01*
X86233927Y-136207871D01*
X86219625Y-136236417D01*
X86197354Y-136269421D01*
X86180674Y-136321853D01*
X86178252Y-136328755D01*
X86175561Y-136335755D01*
X86161806Y-136361792D01*
X86141076Y-136391767D01*
X86138298Y-136395623D01*
X86122061Y-136417278D01*
X86121626Y-136417854D01*
X86099724Y-136446711D01*
X86082379Y-136478419D01*
X86082029Y-136479054D01*
X86065397Y-136509039D01*
X86061039Y-136516299D01*
X86052929Y-136528819D01*
X86047481Y-136540635D01*
X86043321Y-136548840D01*
X86037014Y-136560213D01*
X86031703Y-136574168D01*
X86028421Y-136581975D01*
X86026405Y-136586351D01*
X86019781Y-136600718D01*
X86014647Y-136610649D01*
X86010677Y-136617546D01*
X86003279Y-136636099D01*
X86000713Y-136642074D01*
X85992355Y-136660205D01*
X85990085Y-136667832D01*
X85986421Y-136678377D01*
X85978576Y-136698054D01*
X85973523Y-136709117D01*
X85971025Y-136713944D01*
X85963652Y-136735145D01*
X85961716Y-136740336D01*
X85953384Y-136761233D01*
X85952107Y-136766527D01*
X85948687Y-136778171D01*
X85940523Y-136801647D01*
X85935938Y-136812993D01*
X85933744Y-136817732D01*
X85927240Y-136839472D01*
X85925565Y-136844654D01*
X85918104Y-136866107D01*
X85917110Y-136871225D01*
X85914186Y-136883107D01*
X85907805Y-136904436D01*
X85902947Y-136917820D01*
X85902933Y-136917852D01*
X85895686Y-136944776D01*
X85894753Y-136948063D01*
X85893492Y-136952278D01*
X85891739Y-136957683D01*
X85887914Y-136968613D01*
X85885082Y-136983041D01*
X85883147Y-136991366D01*
X85879325Y-137005568D01*
X85877741Y-137018696D01*
X85876313Y-137027717D01*
X85846169Y-137181290D01*
X85845577Y-137184132D01*
X85839063Y-137213641D01*
X85837708Y-137223686D01*
X85836164Y-137253894D01*
X85835982Y-137256790D01*
X85822917Y-137431901D01*
X85822547Y-137435959D01*
X85819735Y-137462053D01*
X85819794Y-137463708D01*
X85819529Y-137477306D01*
X85819405Y-137478963D01*
X81028541Y-137478963D01*
X81033286Y-131619230D01*
X81033327Y-131619041D01*
X81033317Y-131582742D01*
X81033317Y-131582602D01*
X81033345Y-131547940D01*
X81033307Y-131547748D01*
X81033073Y-130697068D01*
X81030025Y-119639837D01*
X81030143Y-119639259D01*
X81030052Y-119614777D01*
X81030053Y-119614776D01*
X81030016Y-119604767D01*
X81030014Y-119594855D01*
X81030013Y-119594853D01*
X81030009Y-119570623D01*
X81029890Y-119570037D01*
X81024064Y-117962395D01*
X80986622Y-107630142D01*
X80986633Y-107627951D01*
X81013787Y-105712108D01*
X81013846Y-105709679D01*
X81078629Y-103791742D01*
X81078734Y-103789336D01*
X81182445Y-101870645D01*
X81182612Y-101868069D01*
X81183753Y-101852864D01*
X81326537Y-99950315D01*
X81326754Y-99947791D01*
X81512299Y-98032654D01*
X81512582Y-98030044D01*
X81740924Y-96119277D01*
X81741295Y-96116455D01*
X81741547Y-96114694D01*
X82013818Y-94211693D01*
X82014269Y-94208788D01*
X82015060Y-94204072D01*
X82332272Y-92311743D01*
X82332803Y-92308803D01*
X82697591Y-90421006D01*
X82698211Y-90418008D01*
X83111046Y-88541293D01*
X83111792Y-88538108D01*
X83114672Y-88526494D01*
X83574064Y-86674054D01*
X83574908Y-86670839D01*
X84087938Y-84821125D01*
X84088887Y-84817881D01*
X84653827Y-82984120D01*
X84654943Y-82980678D01*
X85273276Y-81164574D01*
X85274530Y-81161066D01*
X85283058Y-81138297D01*
X85947725Y-79363649D01*
X85948706Y-79361120D01*
X86305818Y-78470979D01*
X86306450Y-78469439D01*
X86661021Y-77624692D01*
X86661630Y-77623789D01*
X86675407Y-77590522D01*
X86680584Y-77579569D01*
X87930477Y-75238870D01*
X87931605Y-75236807D01*
X87953437Y-75197745D01*
X88729980Y-73808347D01*
X88732341Y-73804306D01*
X89390697Y-72725999D01*
X89392198Y-72723605D01*
X89420373Y-72679757D01*
X90211418Y-71448675D01*
X90218123Y-71441148D01*
X90225051Y-71428195D01*
X90230080Y-71419634D01*
X90238011Y-71407291D01*
X90241324Y-71397767D01*
X90658149Y-70618401D01*
X90661902Y-70611872D01*
X91139434Y-69836785D01*
X91143267Y-69830943D01*
X91667556Y-69079004D01*
X91671352Y-69073849D01*
X92238344Y-68344677D01*
X92242059Y-68340128D01*
X92446864Y-68101087D01*
X92847725Y-67633219D01*
X92851263Y-67629266D01*
X93491675Y-66944393D01*
X93495027Y-66940947D01*
X94166117Y-66277603D01*
X94169276Y-66274590D01*
X94867057Y-65632464D01*
X94870001Y-65629842D01*
X95590410Y-65008483D01*
X95593106Y-65006225D01*
X96332155Y-64405295D01*
X96334568Y-64403384D01*
X97088117Y-63822389D01*
X97090290Y-63820753D01*
X97854206Y-63259446D01*
X97856194Y-63258016D01*
X98626576Y-62715859D01*
X98628317Y-62714657D01*
X99400434Y-62191543D01*
X99402564Y-62190134D01*
X100933010Y-61201348D01*
X100944163Y-61194937D01*
X100945020Y-61194502D01*
X100954732Y-61189571D01*
X100954732Y-61189569D01*
X100956439Y-61187577D01*
X100966105Y-61168068D01*
X100966656Y-61165506D01*
X100966655Y-61165505D01*
X100966657Y-61165504D01*
X100964519Y-61153819D01*
X100962868Y-61141089D01*
X100913675Y-60504621D01*
X100913438Y-60500770D01*
X100883975Y-59858062D01*
X100883866Y-59854561D01*
X100872946Y-59211690D01*
X100872935Y-59208523D01*
X100879085Y-58566652D01*
X100879201Y-58562338D01*
X100892902Y-58254213D01*
X100936419Y-57275563D01*
X100936716Y-57270900D01*
X101043338Y-55985251D01*
X101043679Y-55981757D01*
X101109507Y-55392323D01*
X101187236Y-54696315D01*
X101187497Y-54694171D01*
X101355485Y-53409462D01*
X101355623Y-53408439D01*
X101356062Y-53405297D01*
X101710129Y-50871544D01*
X101712517Y-50864018D01*
X101713722Y-50849367D01*
X101713723Y-50849366D01*
X101714142Y-50844262D01*
X101714913Y-50837320D01*
X101715621Y-50832255D01*
X101715620Y-50832251D01*
X101717653Y-50817705D01*
X101716974Y-50809837D01*
X101793122Y-49884367D01*
X101793312Y-49882277D01*
X101889207Y-48926411D01*
X101889453Y-48924176D01*
X101890623Y-48914327D01*
X102003181Y-47966898D01*
X102003449Y-47964810D01*
X102135327Y-47006977D01*
X102135655Y-47004755D01*
X102286044Y-46047509D01*
X102286432Y-46045186D01*
X102287422Y-46039598D01*
X102455640Y-45089427D01*
X102456091Y-45087020D01*
X102644522Y-44133403D01*
X102645016Y-44131033D01*
X102853071Y-43180735D01*
X102853616Y-43178363D01*
X103081593Y-42232078D01*
X103082234Y-42229542D01*
X103085829Y-42215906D01*
X103330250Y-41288673D01*
X103330977Y-41286037D01*
X103467538Y-40810958D01*
X103599726Y-40351089D01*
X103600492Y-40348535D01*
X103890139Y-39420528D01*
X103890975Y-39417953D01*
X104201899Y-38497729D01*
X104202844Y-38495039D01*
X104535435Y-37583799D01*
X104536470Y-37581069D01*
X104890938Y-36679466D01*
X104892080Y-36676668D01*
X105268861Y-35785833D01*
X105270123Y-35782954D01*
X105669429Y-34903823D01*
X105670854Y-34900798D01*
X105686628Y-34868429D01*
X106093178Y-34034158D01*
X106094666Y-34031211D01*
X106540339Y-33177974D01*
X106541971Y-33174954D01*
X107011245Y-32336192D01*
X107013072Y-32333038D01*
X107506277Y-31509635D01*
X107508232Y-31506480D01*
X108025920Y-30699167D01*
X108027977Y-30696069D01*
X108570173Y-29905990D01*
X108572445Y-29902790D01*
X109139733Y-29130699D01*
X109142153Y-29127517D01*
X109734811Y-28374418D01*
X109737398Y-28371244D01*
X110355696Y-27638052D01*
X110358470Y-27634876D01*
X111002836Y-26922536D01*
X111005754Y-26919423D01*
X111676578Y-26228725D01*
X111679693Y-26225632D01*
X112377132Y-25557501D01*
X112380442Y-25554445D01*
X113105062Y-24909896D01*
X113108557Y-24906904D01*
X113860606Y-24286768D01*
X113864240Y-24283885D01*
X114646022Y-23687646D01*
X114646979Y-23686926D01*
X114656303Y-23680000D01*
X125256685Y-23680000D01*
X125275931Y-24047243D01*
X125333457Y-24410452D01*
X125428639Y-24765675D01*
X125560426Y-25108993D01*
X125727381Y-25436662D01*
X125927665Y-25745071D01*
X125927668Y-25745075D01*
X126159098Y-26030867D01*
X126419133Y-26290902D01*
X126704925Y-26522332D01*
X126704927Y-26522333D01*
X126704928Y-26522334D01*
X127013337Y-26722618D01*
X127252916Y-26844689D01*
X127341006Y-26889573D01*
X127684326Y-27021361D01*
X128039541Y-27116541D01*
X128402759Y-27174069D01*
X128770000Y-27193315D01*
X129137241Y-27174069D01*
X129500459Y-27116541D01*
X129855674Y-27021361D01*
X130198994Y-26889573D01*
X130526658Y-26722620D01*
X130526657Y-26722620D01*
X130526662Y-26722618D01*
X130680866Y-26622476D01*
X130835075Y-26522332D01*
X131120867Y-26290902D01*
X131380902Y-26030867D01*
X131612332Y-25745075D01*
X131787690Y-25475047D01*
X131812618Y-25436662D01*
X131877160Y-25309991D01*
X131979573Y-25108994D01*
X132111361Y-24765674D01*
X132206541Y-24410459D01*
X132264069Y-24047241D01*
X132283315Y-23680000D01*
X132264069Y-23312759D01*
X132206541Y-22949541D01*
X132111361Y-22594326D01*
X131979573Y-22251006D01*
X131812618Y-21923338D01*
X131612334Y-21614928D01*
X131612332Y-21614925D01*
X131380902Y-21329133D01*
X131120867Y-21069098D01*
X130835075Y-20837668D01*
X130835073Y-20837667D01*
X130835071Y-20837665D01*
X130526662Y-20637381D01*
X130198993Y-20470426D01*
X129855675Y-20338639D01*
X129500452Y-20243457D01*
X129137243Y-20185931D01*
X128770000Y-20166685D01*
X128402756Y-20185931D01*
X128039547Y-20243457D01*
X127684324Y-20338639D01*
X127341006Y-20470426D01*
X127013338Y-20637381D01*
X126704928Y-20837665D01*
X126419129Y-21069101D01*
X126159101Y-21329129D01*
X125927665Y-21614928D01*
X125727381Y-21923338D01*
X125560426Y-22251006D01*
X125428639Y-22594324D01*
X125333457Y-22949547D01*
X125275931Y-23312756D01*
X125256685Y-23680000D01*
X114656303Y-23680000D01*
X115425759Y-23108416D01*
X115430602Y-23104995D01*
X116230178Y-22568602D01*
X116235025Y-22565514D01*
X117056074Y-22069226D01*
X117061044Y-22066377D01*
X117902122Y-21610047D01*
X117907103Y-21607491D01*
X118766622Y-21191013D01*
X118771655Y-21188713D01*
X119647850Y-20811967D01*
X119652821Y-20809959D01*
X120544369Y-20472826D01*
X120549380Y-20471056D01*
X121454363Y-20173446D01*
X121459411Y-20171907D01*
X122376255Y-19913732D01*
X122381280Y-19912431D01*
X123308379Y-19693528D01*
X123313436Y-19692446D01*
X124249305Y-19512735D01*
X124254347Y-19511875D01*
X125197140Y-19371226D01*
X125202163Y-19370583D01*
X126150380Y-19268892D01*
X126155360Y-19268461D01*
X127107347Y-19205604D01*
X127112304Y-19205378D01*
X128066393Y-19181245D01*
X128071330Y-19181220D01*
X129025957Y-19195684D01*
G37*
%TD.AperFunction*%
%TA.AperFunction,NonConductor*%
G36*
X88570416Y-136104897D02*
G01*
X88579046Y-136105236D01*
X88642808Y-136125863D01*
X88686524Y-136176656D01*
X88697427Y-136242778D01*
X88672331Y-136304917D01*
X88643405Y-136342384D01*
X88633720Y-136353495D01*
X88549229Y-136439522D01*
X88542818Y-136445601D01*
X88483499Y-136497958D01*
X88481050Y-136500063D01*
X88449643Y-136526361D01*
X88412386Y-136547833D01*
X88370036Y-136555289D01*
X88369238Y-136555289D01*
X88365431Y-136555231D01*
X88284891Y-136552757D01*
X88275520Y-136552113D01*
X88270570Y-136551584D01*
X88237051Y-136548001D01*
X88224045Y-136545906D01*
X88209294Y-136542719D01*
X88195089Y-136538753D01*
X88180794Y-136533828D01*
X88158142Y-136523369D01*
X88126864Y-136504902D01*
X88111886Y-136494502D01*
X88068411Y-136459308D01*
X88057841Y-136449692D01*
X88056217Y-136448034D01*
X88012506Y-136403401D01*
X87993705Y-136384204D01*
X87986166Y-136375768D01*
X87977939Y-136365671D01*
X87952241Y-136310449D01*
X87955936Y-136249653D01*
X87988135Y-136197951D01*
X88041060Y-136167820D01*
X88044289Y-136166928D01*
X88051899Y-136165086D01*
X88161093Y-136142295D01*
X88169305Y-136140581D01*
X88176459Y-136139305D01*
X88301135Y-136120834D01*
X88308216Y-136119993D01*
X88433965Y-136108738D01*
X88441454Y-136108296D01*
X88562021Y-136104852D01*
X88570416Y-136104897D01*
G37*
%TD.AperFunction*%
%TA.AperFunction,NonConductor*%
G36*
X100871918Y-139036295D02*
G01*
X100917446Y-139079166D01*
X100936263Y-139138805D01*
X100923581Y-139200041D01*
X100914878Y-139217646D01*
X100909230Y-139227837D01*
X100886200Y-139265138D01*
X100882872Y-139277278D01*
X100874449Y-139299434D01*
X100868868Y-139310724D01*
X100861301Y-139353900D01*
X100858753Y-139365267D01*
X100847166Y-139407543D01*
X100848219Y-139465807D01*
X100848181Y-139471851D01*
X100844946Y-139577232D01*
X100827122Y-139637575D01*
X100781975Y-139681402D01*
X100721129Y-139697427D01*
X100627762Y-139697521D01*
X100627471Y-139697521D01*
X100472587Y-139697314D01*
X100472303Y-139697313D01*
X100320538Y-139696762D01*
X100320216Y-139696674D01*
X100320216Y-139696761D01*
X100319438Y-139696756D01*
X100300968Y-139696641D01*
X100247533Y-139684166D01*
X100204712Y-139649853D01*
X100180892Y-139600421D01*
X100180831Y-139579136D01*
X100178369Y-139579301D01*
X100177216Y-139561987D01*
X100176942Y-139553680D01*
X100176945Y-139548017D01*
X100176382Y-139544088D01*
X100175402Y-139534736D01*
X100172490Y-139490993D01*
X100172417Y-139489799D01*
X100171239Y-139468832D01*
X100170544Y-139456444D01*
X100170543Y-139456442D01*
X100170394Y-139453778D01*
X100169839Y-139451168D01*
X100169839Y-139451158D01*
X100169397Y-139449080D01*
X100166700Y-139421820D01*
X100166737Y-139418827D01*
X100154577Y-139375492D01*
X100152414Y-139366505D01*
X100148698Y-139348066D01*
X100148696Y-139348063D01*
X100148247Y-139345832D01*
X100145524Y-139339708D01*
X100143019Y-139332889D01*
X100140027Y-139323637D01*
X100133236Y-139299434D01*
X100126846Y-139276657D01*
X100122820Y-139270223D01*
X100111545Y-139247213D01*
X100108928Y-139240088D01*
X100099851Y-139227837D01*
X100094281Y-139220319D01*
X100070367Y-139157095D01*
X100083167Y-139090722D01*
X100128877Y-139040924D01*
X100193914Y-139022500D01*
X100487915Y-139022500D01*
X100492950Y-139021775D01*
X100502574Y-139023159D01*
X100515504Y-139023159D01*
X100546749Y-139023159D01*
X100552298Y-139023529D01*
X100557430Y-139023480D01*
X100557438Y-139023482D01*
X100591025Y-139023166D01*
X100591266Y-139023164D01*
X100592431Y-139023159D01*
X100677028Y-139023159D01*
X100682775Y-139022302D01*
X100811257Y-139021095D01*
X100871918Y-139036295D01*
G37*
%TD.AperFunction*%
M02*
