%TF.GenerationSoftware,KiCad,Pcbnew,7.0.1*%
%TF.CreationDate,2023-09-13T18:48:41-05:00*%
%TF.ProjectId,Bsides-STL-Badge,42736964-6573-42d5-9354-4c2d42616467,rev?*%
%TF.SameCoordinates,Original*%
%TF.FileFunction,Profile,NP*%
%FSLAX46Y46*%
G04 Gerber Fmt 4.6, Leading zero omitted, Abs format (unit mm)*
G04 Created by KiCad (PCBNEW 7.0.1) date 2023-09-13 18:48:41*
%MOMM*%
%LPD*%
G01*
G04 APERTURE LIST*
%TA.AperFunction,Profile*%
%ADD10C,0.100000*%
%TD*%
G04 APERTURE END LIST*
D10*
X86632017Y-77563314D02*
X86259417Y-78451014D01*
X86259417Y-78451014D02*
X85901117Y-79344114D01*
X85901117Y-79344114D02*
X85226317Y-81145814D01*
X85226317Y-81145814D02*
X84606317Y-82966814D01*
X84606317Y-82966814D02*
X84039917Y-84805314D01*
X84039917Y-84805314D02*
X83525617Y-86659614D01*
X83525617Y-86659614D02*
X83062217Y-88528214D01*
X83062217Y-88528214D02*
X82648417Y-90409314D01*
X82648417Y-90409314D02*
X82282817Y-92301314D01*
X82282817Y-92301314D02*
X81964117Y-94202514D01*
X81964117Y-94202514D02*
X81691017Y-96111314D01*
X81691017Y-96111314D02*
X81462217Y-98025914D01*
X81462217Y-98025914D02*
X81276317Y-99944714D01*
X81276317Y-99944714D02*
X81132117Y-101866114D01*
X81132117Y-101866114D02*
X81028217Y-103788314D01*
X81028217Y-103788314D02*
X80963317Y-105709714D01*
X80963317Y-105709714D02*
X80936117Y-107628714D01*
X80936117Y-107628714D02*
X80979517Y-119604914D01*
X80979517Y-119604914D02*
X80982817Y-131582914D01*
X80982817Y-131582914D02*
X80973117Y-143560914D01*
X80973117Y-143560914D02*
X80977617Y-155537914D01*
X80977617Y-155537914D02*
X175702717Y-156167914D01*
X175702717Y-156167914D02*
X175687717Y-149800914D01*
X175687717Y-149800914D02*
X175714717Y-143432914D01*
X175714717Y-143432914D02*
X175806717Y-130696914D01*
X175806717Y-130696914D02*
X175825717Y-124328914D01*
X175825717Y-124328914D02*
X175819717Y-121144914D01*
X175819717Y-121144914D02*
X175798717Y-117961914D01*
X175798717Y-117961914D02*
X175759717Y-114778914D01*
X175759717Y-114778914D02*
X175700717Y-111596214D01*
X175700717Y-111596214D02*
X175618717Y-108414014D01*
X175618717Y-108414014D02*
X175510717Y-105232414D01*
X175510717Y-105232414D02*
X175321717Y-103438614D01*
X175321717Y-103438614D02*
X175093717Y-101650214D01*
X175093717Y-101650214D02*
X174829717Y-99867214D01*
X174829717Y-99867214D02*
X174530717Y-98089814D01*
X174530717Y-98089814D02*
X174198717Y-96317914D01*
X174198717Y-96317914D02*
X173835717Y-94551714D01*
X173835717Y-94551714D02*
X173443717Y-92791314D01*
X173443717Y-92791314D02*
X173024717Y-91036614D01*
X173024717Y-91036614D02*
X172579717Y-89287814D01*
X172579717Y-89287814D02*
X172110717Y-87544914D01*
X172110717Y-87544914D02*
X171620717Y-85808014D01*
X171620717Y-85808014D02*
X171110717Y-84077214D01*
X171110717Y-84077214D02*
X170582717Y-82352514D01*
X170582717Y-82352514D02*
X170037717Y-80634014D01*
X170037717Y-80634014D02*
X168907717Y-77215814D01*
X168907717Y-77215814D02*
X168647717Y-76602314D01*
X168647717Y-76602314D02*
X168373717Y-75996714D01*
X168373717Y-75996714D02*
X168085717Y-75399114D01*
X168085717Y-75399114D02*
X167783717Y-74809614D01*
X167783717Y-74809614D02*
X167467717Y-74228514D01*
X167467717Y-74228514D02*
X167137717Y-73655714D01*
X167137717Y-73655714D02*
X166795717Y-73091414D01*
X166795717Y-73091414D02*
X166439717Y-72535714D01*
X166439717Y-72535714D02*
X166071717Y-71988814D01*
X166071717Y-71988814D02*
X165690717Y-71450714D01*
X165690717Y-71450714D02*
X164893717Y-70401614D01*
X164893717Y-70401614D02*
X164050717Y-69389314D01*
X164050717Y-69389314D02*
X163163717Y-68414814D01*
X163163717Y-68414814D02*
X162234717Y-67479114D01*
X162234717Y-67479114D02*
X161266717Y-66583014D01*
X161266717Y-66583014D02*
X160260717Y-65727614D01*
X160260717Y-65727614D02*
X159219717Y-64913814D01*
X159219717Y-64913814D02*
X158144717Y-64142514D01*
X158144717Y-64142514D02*
X157039717Y-63414714D01*
X157039717Y-63414714D02*
X155905717Y-62731414D01*
X155905717Y-62731414D02*
X154744717Y-62093414D01*
X154744717Y-62093414D02*
X154532717Y-62045214D01*
X154532717Y-62045214D02*
X154340717Y-61986214D01*
X154340717Y-61986214D02*
X154170717Y-61916914D01*
X154170717Y-61916914D02*
X154019717Y-61837814D01*
X154019717Y-61837814D02*
X153887717Y-61749414D01*
X153887717Y-61749414D02*
X153772717Y-61652114D01*
X153772717Y-61652114D02*
X153674717Y-61546514D01*
X153674717Y-61546514D02*
X153591717Y-61432914D01*
X153591717Y-61432914D02*
X153523717Y-61312014D01*
X153523717Y-61312014D02*
X153469717Y-61184114D01*
X153469717Y-61184114D02*
X153398717Y-60909514D01*
X153398717Y-60909514D02*
X153369717Y-60613114D01*
X153369717Y-60613114D02*
X153374717Y-60298514D01*
X153374717Y-60298514D02*
X153406717Y-59969814D01*
X153406717Y-59969814D02*
X153457717Y-59630814D01*
X153457717Y-59630814D02*
X153584717Y-58937214D01*
X153584717Y-58937214D02*
X153689717Y-58248514D01*
X153689717Y-58248514D02*
X153714717Y-57915714D01*
X153714717Y-57915714D02*
X153710717Y-57595714D01*
X153710717Y-57595714D02*
X153804717Y-56491314D01*
X153804717Y-56491314D02*
X153877717Y-55379514D01*
X153877717Y-55379514D02*
X153928717Y-54261514D01*
X153928717Y-54261514D02*
X153957717Y-53138514D01*
X153957717Y-53138514D02*
X153962717Y-52011714D01*
X153962717Y-52011714D02*
X153944717Y-50882314D01*
X153944717Y-50882314D02*
X153902717Y-49751514D01*
X153902717Y-49751514D02*
X153834717Y-48620514D01*
X153834717Y-48620514D02*
X153742717Y-47490614D01*
X153742717Y-47490614D02*
X153623717Y-46362914D01*
X153623717Y-46362914D02*
X153477717Y-45238614D01*
X153477717Y-45238614D02*
X153304717Y-44119014D01*
X153304717Y-44119014D02*
X153103717Y-43005314D01*
X153103717Y-43005314D02*
X152874717Y-41898714D01*
X152874717Y-41898714D02*
X152615717Y-40800314D01*
X152615717Y-40800314D02*
X152327717Y-39711514D01*
X152327717Y-39711514D02*
X152008717Y-38633314D01*
X152008717Y-38633314D02*
X151658717Y-37567014D01*
X151658717Y-37567014D02*
X151276717Y-36513914D01*
X151276717Y-36513914D02*
X150862717Y-35475114D01*
X150862717Y-35475114D02*
X150415717Y-34451814D01*
X150415717Y-34451814D02*
X149934717Y-33445314D01*
X149934717Y-33445314D02*
X149419717Y-32456714D01*
X149419717Y-32456714D02*
X148869717Y-31487314D01*
X148869717Y-31487314D02*
X148284717Y-30538314D01*
X148284717Y-30538314D02*
X147664017Y-29610814D01*
X147664017Y-29610814D02*
X147006317Y-28706214D01*
X147006317Y-28706214D02*
X146311317Y-27825514D01*
X146311317Y-27825514D02*
X145578317Y-26970014D01*
X145578317Y-26970014D02*
X144806917Y-26141014D01*
X144806917Y-26141014D02*
X143996317Y-25339614D01*
X143996317Y-25339614D02*
X143145917Y-24566914D01*
X143145917Y-24566914D02*
X142399117Y-23946874D01*
X142399117Y-23946874D02*
X141626617Y-23363704D01*
X141626617Y-23363704D02*
X140830017Y-22817594D01*
X140830017Y-22817594D02*
X140011117Y-22308644D01*
X140011117Y-22308644D02*
X139171317Y-21836994D01*
X139171317Y-21836994D02*
X138312517Y-21402754D01*
X138312517Y-21402754D02*
X137436117Y-21006064D01*
X137436117Y-21006064D02*
X136543817Y-20647024D01*
X136543817Y-20647024D02*
X135637317Y-20325774D01*
X135637317Y-20325774D02*
X134718217Y-20042434D01*
X134718217Y-20042434D02*
X133788117Y-19797114D01*
X133788117Y-19797114D02*
X132848717Y-19589944D01*
X132848717Y-19589944D02*
X131901517Y-19421054D01*
X131901517Y-19421054D02*
X130948317Y-19290564D01*
X130948317Y-19290564D02*
X129990717Y-19198584D01*
X129990717Y-19198584D02*
X129030217Y-19145244D01*
X129030217Y-19145244D02*
X128068617Y-19130674D01*
X128068617Y-19130674D02*
X127107517Y-19154984D01*
X127107517Y-19154984D02*
X126148517Y-19218304D01*
X126148517Y-19218304D02*
X125193217Y-19320754D01*
X125193217Y-19320754D02*
X124243317Y-19462464D01*
X124243317Y-19462464D02*
X123300317Y-19643544D01*
X123300317Y-19643544D02*
X122366117Y-19864124D01*
X122366117Y-19864124D02*
X121442117Y-20124314D01*
X121442117Y-20124314D02*
X120530017Y-20424264D01*
X120530017Y-20424264D02*
X119631417Y-20764064D01*
X119631417Y-20764064D02*
X118748117Y-21143864D01*
X118748117Y-21143864D02*
X117881517Y-21563774D01*
X117881517Y-21563774D02*
X117033417Y-22023914D01*
X117033417Y-22023914D02*
X116205417Y-22524404D01*
X116205417Y-22524404D02*
X115399017Y-23065374D01*
X115399017Y-23065374D02*
X114616117Y-23646944D01*
X114616117Y-23646944D02*
X113831017Y-24245714D01*
X113831017Y-24245714D02*
X113073917Y-24870014D01*
X113073917Y-24870014D02*
X112344517Y-25518814D01*
X112344517Y-25518814D02*
X111642517Y-26191314D01*
X111642517Y-26191314D02*
X110967417Y-26886414D01*
X110967417Y-26886414D02*
X110319017Y-27603214D01*
X110319017Y-27603214D02*
X109696917Y-28340914D01*
X109696917Y-28340914D02*
X109100717Y-29098514D01*
X109100717Y-29098514D02*
X108530117Y-29875114D01*
X108530117Y-29875114D02*
X107984817Y-30669714D01*
X107984817Y-30669714D02*
X107464317Y-31481414D01*
X107464317Y-31481414D02*
X106968417Y-32309314D01*
X106968417Y-32309314D02*
X106496717Y-33152414D01*
X106496717Y-33152414D02*
X106048817Y-34009914D01*
X106048817Y-34009914D02*
X105624417Y-34880814D01*
X105624417Y-34880814D02*
X105223217Y-35764114D01*
X105223217Y-35764114D02*
X104844717Y-36659014D01*
X104844717Y-36659014D02*
X104488717Y-37564514D01*
X104488717Y-37564514D02*
X104154717Y-38479614D01*
X104154717Y-38479614D02*
X103842517Y-39403614D01*
X103842517Y-39403614D02*
X103551717Y-40335314D01*
X103551717Y-40335314D02*
X103281917Y-41273914D01*
X103281917Y-41273914D02*
X103032917Y-42218514D01*
X103032917Y-42218514D02*
X102804117Y-43168214D01*
X102804117Y-43168214D02*
X102595317Y-44121914D01*
X102595317Y-44121914D02*
X102406217Y-45078914D01*
X102406217Y-45078914D02*
X102236417Y-46038014D01*
X102236417Y-46038014D02*
X102085517Y-46998514D01*
X102085517Y-46998514D02*
X101953217Y-47959414D01*
X101953217Y-47959414D02*
X101839117Y-48919814D01*
X101839117Y-48919814D02*
X101742917Y-49878714D01*
X101742917Y-49878714D02*
X101664217Y-50835214D01*
X101664217Y-50835214D02*
X101305517Y-53402114D01*
X101305517Y-53402114D02*
X101137217Y-54689214D01*
X101137217Y-54689214D02*
X100993217Y-55978614D01*
X100993217Y-55978614D02*
X100886117Y-57270014D01*
X100886117Y-57270014D02*
X100828617Y-58563114D01*
X100828617Y-58563114D02*
X100822417Y-59210314D01*
X100822417Y-59210314D02*
X100833417Y-59857914D01*
X100833417Y-59857914D02*
X100863117Y-60505814D01*
X100863117Y-60505814D02*
X100913217Y-61154014D01*
X100913217Y-61154014D02*
X99373617Y-62148714D01*
X99373617Y-62148714D02*
X98598717Y-62673714D01*
X98598717Y-62673714D02*
X97825717Y-63217714D01*
X97825717Y-63217714D02*
X97058817Y-63781214D01*
X97058817Y-63781214D02*
X96302017Y-64364714D01*
X96302017Y-64364714D02*
X95559317Y-64968614D01*
X95559317Y-64968614D02*
X94834917Y-65593414D01*
X94834917Y-65593414D02*
X94132817Y-66239514D01*
X94132817Y-66239514D02*
X93457117Y-66907414D01*
X93457117Y-66907414D02*
X92811817Y-67597514D01*
X92811817Y-67597514D02*
X92201017Y-68310414D01*
X92201017Y-68310414D02*
X91628717Y-69046414D01*
X91628717Y-69046414D02*
X91099017Y-69806114D01*
X91099017Y-69806114D02*
X90616117Y-70589914D01*
X90616117Y-70589914D02*
X90183817Y-71398214D01*
X90183817Y-71398214D02*
X89348617Y-72698014D01*
X89348617Y-72698014D02*
X88687517Y-73780814D01*
X88687517Y-73780814D02*
X87886717Y-75213614D01*
X87886717Y-75213614D02*
X86632017Y-77563314D01*
X86632017Y-77563314D02*
X86632017Y-77563314D01*
X86632017Y-77563314D02*
X86632017Y-77563314D01*
M02*
