%TF.GenerationSoftware,KiCad,Pcbnew,7.0.1*%
%TF.CreationDate,2023-08-30T08:14:35-05:00*%
%TF.ProjectId,Bsides-STL-Badge,42736964-6573-42d5-9354-4c2d42616467,rev?*%
%TF.SameCoordinates,Original*%
%TF.FileFunction,Legend,Bot*%
%TF.FilePolarity,Positive*%
%FSLAX46Y46*%
G04 Gerber Fmt 4.6, Leading zero omitted, Abs format (unit mm)*
G04 Created by KiCad (PCBNEW 7.0.1) date 2023-08-30 08:14:35*
%MOMM*%
%LPD*%
G01*
G04 APERTURE LIST*
%ADD10C,0.010000*%
G04 APERTURE END LIST*
%TO.C,G\u002A\u002A\u002A*%
D10*
X130133591Y-80409744D02*
X130197500Y-80798518D01*
X130184211Y-81010827D01*
X130103243Y-81133657D01*
X129998761Y-80854679D01*
X129984900Y-80516178D01*
X130071823Y-80351666D01*
X130133591Y-80409744D01*
G36*
X130133591Y-80409744D02*
G01*
X130197500Y-80798518D01*
X130184211Y-81010827D01*
X130103243Y-81133657D01*
X129998761Y-80854679D01*
X129984900Y-80516178D01*
X130071823Y-80351666D01*
X130133591Y-80409744D01*
G37*
X135809146Y-77814413D02*
X135921844Y-77897912D01*
X135954180Y-78219009D01*
X135934286Y-78937855D01*
X135928992Y-79854049D01*
X135991245Y-80490077D01*
X136032197Y-80694838D01*
X136012826Y-80874434D01*
X135860591Y-80916111D01*
X135799356Y-80913602D01*
X135686179Y-80829375D01*
X135649430Y-80505531D01*
X135660914Y-79781912D01*
X135664269Y-79620472D01*
X135651254Y-78785183D01*
X135593761Y-78229690D01*
X135553659Y-78023543D01*
X135578827Y-77852198D01*
X135736478Y-77811666D01*
X135809146Y-77814413D01*
G36*
X135809146Y-77814413D02*
G01*
X135921844Y-77897912D01*
X135954180Y-78219009D01*
X135934286Y-78937855D01*
X135928992Y-79854049D01*
X135991245Y-80490077D01*
X136032197Y-80694838D01*
X136012826Y-80874434D01*
X135860591Y-80916111D01*
X135799356Y-80913602D01*
X135686179Y-80829375D01*
X135649430Y-80505531D01*
X135660914Y-79781912D01*
X135664269Y-79620472D01*
X135651254Y-78785183D01*
X135593761Y-78229690D01*
X135553659Y-78023543D01*
X135578827Y-77852198D01*
X135736478Y-77811666D01*
X135809146Y-77814413D01*
G37*
X128777491Y-79336093D02*
X128797942Y-79934237D01*
X128669942Y-80845555D01*
X128645096Y-80942829D01*
X128472651Y-81209981D01*
X128272443Y-81055631D01*
X128085241Y-80542842D01*
X127951813Y-79734679D01*
X127955589Y-79481481D01*
X128252813Y-79481481D01*
X128269272Y-80000281D01*
X128333266Y-80482110D01*
X128418873Y-80597362D01*
X128497173Y-80254549D01*
X128515795Y-80031355D01*
X128522500Y-79336093D01*
X128469265Y-78758421D01*
X128371875Y-78517222D01*
X128365859Y-78517760D01*
X128279952Y-78760268D01*
X128252813Y-79481481D01*
X127955589Y-79481481D01*
X127959321Y-79231212D01*
X128058729Y-78579871D01*
X128211243Y-78038041D01*
X128371875Y-77811666D01*
X128379068Y-77812511D01*
X128529529Y-78043902D01*
X128685005Y-78561567D01*
X128767345Y-79039351D01*
X128777491Y-79336093D01*
G36*
X128777491Y-79336093D02*
G01*
X128797942Y-79934237D01*
X128669942Y-80845555D01*
X128645096Y-80942829D01*
X128472651Y-81209981D01*
X128272443Y-81055631D01*
X128085241Y-80542842D01*
X127951813Y-79734679D01*
X127955589Y-79481481D01*
X128252813Y-79481481D01*
X128269272Y-80000281D01*
X128333266Y-80482110D01*
X128418873Y-80597362D01*
X128497173Y-80254549D01*
X128515795Y-80031355D01*
X128522500Y-79336093D01*
X128469265Y-78758421D01*
X128371875Y-78517222D01*
X128365859Y-78517760D01*
X128279952Y-78760268D01*
X128252813Y-79481481D01*
X127955589Y-79481481D01*
X127959321Y-79231212D01*
X128058729Y-78579871D01*
X128211243Y-78038041D01*
X128371875Y-77811666D01*
X128379068Y-77812511D01*
X128529529Y-78043902D01*
X128685005Y-78561567D01*
X128767345Y-79039351D01*
X128777491Y-79336093D01*
G37*
X129363862Y-77839933D02*
X129580133Y-78000350D01*
X129734844Y-78278740D01*
X129833135Y-78805626D01*
X129878812Y-79607400D01*
X129848318Y-80383706D01*
X129741094Y-80900760D01*
X129734297Y-80914477D01*
X129555109Y-81092146D01*
X129325036Y-81126450D01*
X129267533Y-81107730D01*
X129089057Y-80916428D01*
X129018154Y-80492777D01*
X129004469Y-80168403D01*
X129032970Y-80097925D01*
X129144921Y-80429026D01*
X129230105Y-80641235D01*
X129407364Y-80736425D01*
X129549279Y-80416953D01*
X129624628Y-79784452D01*
X129602188Y-78940555D01*
X129552282Y-78663089D01*
X129406797Y-78401107D01*
X129245011Y-78412133D01*
X129138595Y-78728888D01*
X129094513Y-78918349D01*
X129018156Y-78671808D01*
X128982680Y-78430203D01*
X128977110Y-78036808D01*
X129000860Y-77954186D01*
X129149586Y-77817781D01*
X129363862Y-77839933D01*
G36*
X129363862Y-77839933D02*
G01*
X129580133Y-78000350D01*
X129734844Y-78278740D01*
X129833135Y-78805626D01*
X129878812Y-79607400D01*
X129848318Y-80383706D01*
X129741094Y-80900760D01*
X129734297Y-80914477D01*
X129555109Y-81092146D01*
X129325036Y-81126450D01*
X129267533Y-81107730D01*
X129089057Y-80916428D01*
X129018154Y-80492777D01*
X129004469Y-80168403D01*
X129032970Y-80097925D01*
X129144921Y-80429026D01*
X129230105Y-80641235D01*
X129407364Y-80736425D01*
X129549279Y-80416953D01*
X129624628Y-79784452D01*
X129602188Y-78940555D01*
X129552282Y-78663089D01*
X129406797Y-78401107D01*
X129245011Y-78412133D01*
X129138595Y-78728888D01*
X129094513Y-78918349D01*
X129018156Y-78671808D01*
X128982680Y-78430203D01*
X128977110Y-78036808D01*
X129000860Y-77954186D01*
X129149586Y-77817781D01*
X129363862Y-77839933D01*
G37*
X132936641Y-77818159D02*
X133115782Y-77881769D01*
X133195556Y-78054491D01*
X133213750Y-78386040D01*
X133212427Y-78549142D01*
X133175379Y-78811251D01*
X133055000Y-78658333D01*
X133028247Y-78608754D01*
X132940188Y-78522702D01*
X132903553Y-78773390D01*
X132896250Y-79474376D01*
X132898755Y-79811613D01*
X132937795Y-80454286D01*
X133035157Y-80721568D01*
X133061052Y-80767007D01*
X132997124Y-80831333D01*
X132816875Y-80861092D01*
X132703299Y-80856371D01*
X132568290Y-80810039D01*
X132558907Y-80729200D01*
X132577608Y-80683764D01*
X132635558Y-80214315D01*
X132658125Y-79425037D01*
X132652477Y-78830444D01*
X132623830Y-78503830D01*
X132562875Y-78601888D01*
X132477054Y-78850591D01*
X132376163Y-78867455D01*
X132340625Y-78376111D01*
X132345282Y-78178088D01*
X132393471Y-77942092D01*
X132524899Y-77836166D01*
X132777188Y-77811666D01*
X132936641Y-77818159D01*
G36*
X132936641Y-77818159D02*
G01*
X133115782Y-77881769D01*
X133195556Y-78054491D01*
X133213750Y-78386040D01*
X133212427Y-78549142D01*
X133175379Y-78811251D01*
X133055000Y-78658333D01*
X133028247Y-78608754D01*
X132940188Y-78522702D01*
X132903553Y-78773390D01*
X132896250Y-79474376D01*
X132898755Y-79811613D01*
X132937795Y-80454286D01*
X133035157Y-80721568D01*
X133061052Y-80767007D01*
X132997124Y-80831333D01*
X132816875Y-80861092D01*
X132703299Y-80856371D01*
X132568290Y-80810039D01*
X132558907Y-80729200D01*
X132577608Y-80683764D01*
X132635558Y-80214315D01*
X132658125Y-79425037D01*
X132652477Y-78830444D01*
X132623830Y-78503830D01*
X132562875Y-78601888D01*
X132477054Y-78850591D01*
X132376163Y-78867455D01*
X132340625Y-78376111D01*
X132345282Y-78178088D01*
X132393471Y-77942092D01*
X132524899Y-77836166D01*
X132777188Y-77811666D01*
X132936641Y-77818159D01*
G37*
X140560754Y-79165640D02*
X140535901Y-79738377D01*
X140595687Y-80634299D01*
X140617556Y-80787576D01*
X140630068Y-81062248D01*
X140547577Y-81175930D01*
X140338267Y-81198333D01*
X140228769Y-81184327D01*
X139912755Y-80923394D01*
X139712869Y-80358546D01*
X139643125Y-79523553D01*
X139643147Y-79505000D01*
X140000313Y-79505000D01*
X140001204Y-79627434D01*
X140045797Y-80284887D01*
X140132408Y-80609194D01*
X140225876Y-80538947D01*
X140291037Y-80012736D01*
X140306607Y-79165640D01*
X140252353Y-78580795D01*
X140132527Y-78434420D01*
X140124788Y-78440412D01*
X140029726Y-78749669D01*
X140000313Y-79505000D01*
X139643147Y-79505000D01*
X139643154Y-79499127D01*
X139693716Y-78708542D01*
X139855064Y-78199662D01*
X140148513Y-77904195D01*
X140271382Y-77850218D01*
X140499527Y-77873761D01*
X140625314Y-78081883D01*
X140622510Y-78444673D01*
X140577755Y-78773854D01*
X140560754Y-79165640D01*
G36*
X140560754Y-79165640D02*
G01*
X140535901Y-79738377D01*
X140595687Y-80634299D01*
X140617556Y-80787576D01*
X140630068Y-81062248D01*
X140547577Y-81175930D01*
X140338267Y-81198333D01*
X140228769Y-81184327D01*
X139912755Y-80923394D01*
X139712869Y-80358546D01*
X139643125Y-79523553D01*
X139643147Y-79505000D01*
X140000313Y-79505000D01*
X140001204Y-79627434D01*
X140045797Y-80284887D01*
X140132408Y-80609194D01*
X140225876Y-80538947D01*
X140291037Y-80012736D01*
X140306607Y-79165640D01*
X140252353Y-78580795D01*
X140132527Y-78434420D01*
X140124788Y-78440412D01*
X140029726Y-78749669D01*
X140000313Y-79505000D01*
X139643147Y-79505000D01*
X139643154Y-79499127D01*
X139693716Y-78708542D01*
X139855064Y-78199662D01*
X140148513Y-77904195D01*
X140271382Y-77850218D01*
X140499527Y-77873761D01*
X140625314Y-78081883D01*
X140622510Y-78444673D01*
X140577755Y-78773854D01*
X140560754Y-79165640D01*
G37*
X141627201Y-79422739D02*
X141650992Y-79579293D01*
X141747077Y-80380283D01*
X141786250Y-80950577D01*
X141783998Y-81039345D01*
X141728099Y-81211689D01*
X141638570Y-81049198D01*
X141571124Y-80633888D01*
X141520206Y-80306754D01*
X141385467Y-80069444D01*
X141292204Y-80175364D01*
X141190938Y-80633888D01*
X141147984Y-80965695D01*
X141071211Y-81198333D01*
X141035141Y-81185621D01*
X140964194Y-80920095D01*
X140984783Y-80279109D01*
X141084035Y-79347232D01*
X141310000Y-79347232D01*
X141311553Y-79489723D01*
X141349048Y-79774748D01*
X141425673Y-79524501D01*
X141436459Y-79422739D01*
X141390670Y-79084511D01*
X141349053Y-79056557D01*
X141310000Y-79347232D01*
X141084035Y-79347232D01*
X141097458Y-79221204D01*
X141197047Y-78450483D01*
X141271072Y-78040600D01*
X141335413Y-77994730D01*
X141416528Y-78230747D01*
X141416710Y-78231397D01*
X141530152Y-78784150D01*
X141627201Y-79422739D01*
G36*
X141627201Y-79422739D02*
G01*
X141650992Y-79579293D01*
X141747077Y-80380283D01*
X141786250Y-80950577D01*
X141783998Y-81039345D01*
X141728099Y-81211689D01*
X141638570Y-81049198D01*
X141571124Y-80633888D01*
X141520206Y-80306754D01*
X141385467Y-80069444D01*
X141292204Y-80175364D01*
X141190938Y-80633888D01*
X141147984Y-80965695D01*
X141071211Y-81198333D01*
X141035141Y-81185621D01*
X140964194Y-80920095D01*
X140984783Y-80279109D01*
X141084035Y-79347232D01*
X141310000Y-79347232D01*
X141311553Y-79489723D01*
X141349048Y-79774748D01*
X141425673Y-79524501D01*
X141436459Y-79422739D01*
X141390670Y-79084511D01*
X141349053Y-79056557D01*
X141310000Y-79347232D01*
X141084035Y-79347232D01*
X141097458Y-79221204D01*
X141197047Y-78450483D01*
X141271072Y-78040600D01*
X141335413Y-77994730D01*
X141416528Y-78230747D01*
X141416710Y-78231397D01*
X141530152Y-78784150D01*
X141627201Y-79422739D01*
G37*
X139112192Y-77852172D02*
X139321713Y-78086444D01*
X139363530Y-78181621D01*
X139494591Y-78832167D01*
X139526026Y-79686425D01*
X139446480Y-80522662D01*
X139369921Y-80856561D01*
X139220449Y-81127347D01*
X138975861Y-81198333D01*
X138924489Y-81197438D01*
X138728623Y-81140427D01*
X138633494Y-80928652D01*
X138590627Y-80470533D01*
X138599334Y-79856112D01*
X138711215Y-79537939D01*
X138908907Y-79659592D01*
X138956228Y-79734498D01*
X139006225Y-79878280D01*
X138908907Y-79992703D01*
X138821163Y-80120464D01*
X138775297Y-80430929D01*
X138869219Y-80713345D01*
X138870055Y-80714405D01*
X139052352Y-80694954D01*
X139191101Y-80242106D01*
X139246250Y-79486212D01*
X139245626Y-79388139D01*
X139182530Y-78675695D01*
X139035230Y-78405330D01*
X138831132Y-78633347D01*
X138708987Y-78835924D01*
X138621425Y-78742937D01*
X138638641Y-78247171D01*
X138706548Y-78003259D01*
X138886746Y-77829242D01*
X139112192Y-77852172D01*
G36*
X139112192Y-77852172D02*
G01*
X139321713Y-78086444D01*
X139363530Y-78181621D01*
X139494591Y-78832167D01*
X139526026Y-79686425D01*
X139446480Y-80522662D01*
X139369921Y-80856561D01*
X139220449Y-81127347D01*
X138975861Y-81198333D01*
X138924489Y-81197438D01*
X138728623Y-81140427D01*
X138633494Y-80928652D01*
X138590627Y-80470533D01*
X138599334Y-79856112D01*
X138711215Y-79537939D01*
X138908907Y-79659592D01*
X138956228Y-79734498D01*
X139006225Y-79878280D01*
X138908907Y-79992703D01*
X138821163Y-80120464D01*
X138775297Y-80430929D01*
X138869219Y-80713345D01*
X138870055Y-80714405D01*
X139052352Y-80694954D01*
X139191101Y-80242106D01*
X139246250Y-79486212D01*
X139245626Y-79388139D01*
X139182530Y-78675695D01*
X139035230Y-78405330D01*
X138831132Y-78633347D01*
X138708987Y-78835924D01*
X138621425Y-78742937D01*
X138638641Y-78247171D01*
X138706548Y-78003259D01*
X138886746Y-77829242D01*
X139112192Y-77852172D01*
G37*
X138232686Y-79208952D02*
X138219541Y-79965615D01*
X138239119Y-80498483D01*
X138303495Y-80673937D01*
X138321337Y-80693133D01*
X138264886Y-80785699D01*
X138095313Y-80916111D01*
X138022998Y-80962970D01*
X137842978Y-81088574D01*
X137764461Y-81158284D01*
X137756825Y-81175994D01*
X137659820Y-81105450D01*
X137551374Y-80783880D01*
X137500000Y-80406138D01*
X137517903Y-80123585D01*
X137595250Y-80295222D01*
X137625459Y-80389448D01*
X137778814Y-80615345D01*
X137916509Y-80538333D01*
X137976250Y-80177639D01*
X137947566Y-79887812D01*
X137817500Y-79868995D01*
X137717093Y-79897011D01*
X137658750Y-79619689D01*
X137688776Y-79388103D01*
X137817500Y-79222777D01*
X137910076Y-79144205D01*
X137976250Y-78799444D01*
X137972040Y-78689347D01*
X137886858Y-78418615D01*
X137738273Y-78428089D01*
X137587546Y-78728888D01*
X137570733Y-78785055D01*
X137508220Y-78893048D01*
X137512854Y-78517222D01*
X137552210Y-78191555D01*
X137670634Y-77973447D01*
X137906155Y-77868396D01*
X138271194Y-77784015D01*
X138232686Y-79208952D01*
G36*
X138232686Y-79208952D02*
G01*
X138219541Y-79965615D01*
X138239119Y-80498483D01*
X138303495Y-80673937D01*
X138321337Y-80693133D01*
X138264886Y-80785699D01*
X138095313Y-80916111D01*
X138022998Y-80962970D01*
X137842978Y-81088574D01*
X137764461Y-81158284D01*
X137756825Y-81175994D01*
X137659820Y-81105450D01*
X137551374Y-80783880D01*
X137500000Y-80406138D01*
X137517903Y-80123585D01*
X137595250Y-80295222D01*
X137625459Y-80389448D01*
X137778814Y-80615345D01*
X137916509Y-80538333D01*
X137976250Y-80177639D01*
X137947566Y-79887812D01*
X137817500Y-79868995D01*
X137717093Y-79897011D01*
X137658750Y-79619689D01*
X137688776Y-79388103D01*
X137817500Y-79222777D01*
X137910076Y-79144205D01*
X137976250Y-78799444D01*
X137972040Y-78689347D01*
X137886858Y-78418615D01*
X137738273Y-78428089D01*
X137587546Y-78728888D01*
X137570733Y-78785055D01*
X137508220Y-78893048D01*
X137512854Y-78517222D01*
X137552210Y-78191555D01*
X137670634Y-77973447D01*
X137906155Y-77868396D01*
X138271194Y-77784015D01*
X138232686Y-79208952D01*
G37*
X127669242Y-77911956D02*
X127694292Y-78257392D01*
X127678735Y-79030560D01*
X127672927Y-79246335D01*
X127676714Y-80063005D01*
X127727718Y-80472655D01*
X127758131Y-80555619D01*
X127816250Y-80930996D01*
X127775857Y-81075691D01*
X127637657Y-81097883D01*
X127529650Y-80979375D01*
X127479856Y-80746876D01*
X127497136Y-80542417D01*
X127546635Y-79977620D01*
X127571271Y-79601835D01*
X127554145Y-79316134D01*
X127490497Y-79460356D01*
X127411969Y-80023679D01*
X127376569Y-80358130D01*
X127294496Y-80834088D01*
X127213537Y-80759384D01*
X127118604Y-80140000D01*
X127025311Y-79363888D01*
X127061609Y-80281111D01*
X127074647Y-80787806D01*
X127039827Y-81123223D01*
X126921297Y-81198390D01*
X126845707Y-81176992D01*
X126779188Y-81004124D01*
X126750713Y-80540781D01*
X126744688Y-79650243D01*
X126755711Y-78919952D01*
X126812291Y-78155966D01*
X126905563Y-77888312D01*
X127022685Y-78139680D01*
X127150811Y-78932763D01*
X127235042Y-79630527D01*
X127347657Y-78795103D01*
X127351212Y-78769147D01*
X127467566Y-78169716D01*
X127589278Y-77871345D01*
X127593868Y-77868326D01*
X127669242Y-77911956D01*
G36*
X127669242Y-77911956D02*
G01*
X127694292Y-78257392D01*
X127678735Y-79030560D01*
X127672927Y-79246335D01*
X127676714Y-80063005D01*
X127727718Y-80472655D01*
X127758131Y-80555619D01*
X127816250Y-80930996D01*
X127775857Y-81075691D01*
X127637657Y-81097883D01*
X127529650Y-80979375D01*
X127479856Y-80746876D01*
X127497136Y-80542417D01*
X127546635Y-79977620D01*
X127571271Y-79601835D01*
X127554145Y-79316134D01*
X127490497Y-79460356D01*
X127411969Y-80023679D01*
X127376569Y-80358130D01*
X127294496Y-80834088D01*
X127213537Y-80759384D01*
X127118604Y-80140000D01*
X127025311Y-79363888D01*
X127061609Y-80281111D01*
X127074647Y-80787806D01*
X127039827Y-81123223D01*
X126921297Y-81198390D01*
X126845707Y-81176992D01*
X126779188Y-81004124D01*
X126750713Y-80540781D01*
X126744688Y-79650243D01*
X126755711Y-78919952D01*
X126812291Y-78155966D01*
X126905563Y-77888312D01*
X127022685Y-78139680D01*
X127150811Y-78932763D01*
X127235042Y-79630527D01*
X127347657Y-78795103D01*
X127351212Y-78769147D01*
X127467566Y-78169716D01*
X127589278Y-77871345D01*
X127593868Y-77868326D01*
X127669242Y-77911956D01*
G37*
X137187338Y-78607406D02*
X137182500Y-78949413D01*
X137185720Y-79422211D01*
X137221481Y-80196383D01*
X137301563Y-80531829D01*
X137357458Y-80637784D01*
X137420625Y-80946305D01*
X137385712Y-81057474D01*
X137244202Y-81162375D01*
X137051385Y-81196621D01*
X136870041Y-81152831D01*
X136762947Y-81023624D01*
X136756557Y-80839167D01*
X136829822Y-80436427D01*
X136908676Y-80002782D01*
X136853949Y-79649818D01*
X136647913Y-79372464D01*
X136513776Y-79215889D01*
X136311879Y-78756193D01*
X136240221Y-78304702D01*
X136562289Y-78304702D01*
X136562461Y-78307862D01*
X136635859Y-78678509D01*
X136765634Y-78885251D01*
X136888998Y-78878184D01*
X136943160Y-78607406D01*
X136935974Y-78411917D01*
X136871796Y-77841097D01*
X136837475Y-77702721D01*
X136710811Y-77594561D01*
X136595967Y-77829845D01*
X136562289Y-78304702D01*
X136240221Y-78304702D01*
X136224174Y-78203592D01*
X136261226Y-77663226D01*
X136433605Y-77240236D01*
X136473526Y-77192433D01*
X136684145Y-77045405D01*
X136933040Y-76977716D01*
X137171337Y-76989020D01*
X137350157Y-77078970D01*
X137420625Y-77247222D01*
X137407193Y-77377052D01*
X137301563Y-77529444D01*
X137238756Y-77622359D01*
X137195098Y-78058914D01*
X137187338Y-78607406D01*
G36*
X137187338Y-78607406D02*
G01*
X137182500Y-78949413D01*
X137185720Y-79422211D01*
X137221481Y-80196383D01*
X137301563Y-80531829D01*
X137357458Y-80637784D01*
X137420625Y-80946305D01*
X137385712Y-81057474D01*
X137244202Y-81162375D01*
X137051385Y-81196621D01*
X136870041Y-81152831D01*
X136762947Y-81023624D01*
X136756557Y-80839167D01*
X136829822Y-80436427D01*
X136908676Y-80002782D01*
X136853949Y-79649818D01*
X136647913Y-79372464D01*
X136513776Y-79215889D01*
X136311879Y-78756193D01*
X136240221Y-78304702D01*
X136562289Y-78304702D01*
X136562461Y-78307862D01*
X136635859Y-78678509D01*
X136765634Y-78885251D01*
X136888998Y-78878184D01*
X136943160Y-78607406D01*
X136935974Y-78411917D01*
X136871796Y-77841097D01*
X136837475Y-77702721D01*
X136710811Y-77594561D01*
X136595967Y-77829845D01*
X136562289Y-78304702D01*
X136240221Y-78304702D01*
X136224174Y-78203592D01*
X136261226Y-77663226D01*
X136433605Y-77240236D01*
X136473526Y-77192433D01*
X136684145Y-77045405D01*
X136933040Y-76977716D01*
X137171337Y-76989020D01*
X137350157Y-77078970D01*
X137420625Y-77247222D01*
X137407193Y-77377052D01*
X137301563Y-77529444D01*
X137238756Y-77622359D01*
X137195098Y-78058914D01*
X137187338Y-78607406D01*
G37*
X142991405Y-78093888D02*
X142986856Y-78154519D01*
X142976875Y-79081666D01*
X142983951Y-79720473D01*
X142986761Y-79784624D01*
X143012782Y-80378715D01*
X143056250Y-80633888D01*
X143075073Y-80641449D01*
X143135625Y-80898303D01*
X143135116Y-80909461D01*
X143053647Y-81014690D01*
X142866563Y-81062437D01*
X142622112Y-81057815D01*
X142368542Y-81005935D01*
X142154101Y-80911909D01*
X142027037Y-80780848D01*
X141994573Y-80659513D01*
X141950499Y-80125455D01*
X141956702Y-79558905D01*
X142225536Y-79558905D01*
X142268086Y-80106551D01*
X142326034Y-80413849D01*
X142404199Y-80611608D01*
X142479527Y-80554500D01*
X142617858Y-80229402D01*
X142668841Y-79784624D01*
X142623827Y-79391854D01*
X142474167Y-79222777D01*
X142314398Y-79280699D01*
X142225536Y-79558905D01*
X141956702Y-79558905D01*
X141957329Y-79501683D01*
X142016924Y-79098041D01*
X142049862Y-78929648D01*
X142051093Y-78426670D01*
X142049888Y-78141531D01*
X142311501Y-78141531D01*
X142316106Y-78472633D01*
X142318028Y-78479377D01*
X142459134Y-78682844D01*
X142597182Y-78527575D01*
X142659375Y-78093888D01*
X142638709Y-77764655D01*
X142550032Y-77529444D01*
X142524071Y-77537458D01*
X142397779Y-77761437D01*
X142311501Y-78141531D01*
X142049888Y-78141531D01*
X142049685Y-78093567D01*
X142132437Y-77561905D01*
X142171345Y-77471618D01*
X142355220Y-77243404D01*
X142600750Y-77085130D01*
X142854122Y-77014973D01*
X143061524Y-77051111D01*
X143169142Y-77211722D01*
X143181102Y-77382218D01*
X143100622Y-77529444D01*
X143093835Y-77530015D01*
X143022827Y-77675124D01*
X142991405Y-78093888D01*
G36*
X142991405Y-78093888D02*
G01*
X142986856Y-78154519D01*
X142976875Y-79081666D01*
X142983951Y-79720473D01*
X142986761Y-79784624D01*
X143012782Y-80378715D01*
X143056250Y-80633888D01*
X143075073Y-80641449D01*
X143135625Y-80898303D01*
X143135116Y-80909461D01*
X143053647Y-81014690D01*
X142866563Y-81062437D01*
X142622112Y-81057815D01*
X142368542Y-81005935D01*
X142154101Y-80911909D01*
X142027037Y-80780848D01*
X141994573Y-80659513D01*
X141950499Y-80125455D01*
X141956702Y-79558905D01*
X142225536Y-79558905D01*
X142268086Y-80106551D01*
X142326034Y-80413849D01*
X142404199Y-80611608D01*
X142479527Y-80554500D01*
X142617858Y-80229402D01*
X142668841Y-79784624D01*
X142623827Y-79391854D01*
X142474167Y-79222777D01*
X142314398Y-79280699D01*
X142225536Y-79558905D01*
X141956702Y-79558905D01*
X141957329Y-79501683D01*
X142016924Y-79098041D01*
X142049862Y-78929648D01*
X142051093Y-78426670D01*
X142049888Y-78141531D01*
X142311501Y-78141531D01*
X142316106Y-78472633D01*
X142318028Y-78479377D01*
X142459134Y-78682844D01*
X142597182Y-78527575D01*
X142659375Y-78093888D01*
X142638709Y-77764655D01*
X142550032Y-77529444D01*
X142524071Y-77537458D01*
X142397779Y-77761437D01*
X142311501Y-78141531D01*
X142049888Y-78141531D01*
X142049685Y-78093567D01*
X142132437Y-77561905D01*
X142171345Y-77471618D01*
X142355220Y-77243404D01*
X142600750Y-77085130D01*
X142854122Y-77014973D01*
X143061524Y-77051111D01*
X143169142Y-77211722D01*
X143181102Y-77382218D01*
X143100622Y-77529444D01*
X143093835Y-77530015D01*
X143022827Y-77675124D01*
X142991405Y-78093888D01*
G37*
X132041465Y-80234074D02*
X132042042Y-80277092D01*
X132111096Y-80658749D01*
X132133529Y-80717034D01*
X132123471Y-80863055D01*
X131963307Y-80911789D01*
X131918237Y-80919888D01*
X131663660Y-81116742D01*
X131407682Y-81493264D01*
X131106174Y-81881282D01*
X130779610Y-81838197D01*
X130496871Y-81281108D01*
X130468565Y-81181972D01*
X130376591Y-80501358D01*
X130427814Y-79822020D01*
X130614219Y-79280577D01*
X130744340Y-79000894D01*
X130825414Y-78667320D01*
X130801306Y-78471308D01*
X130664359Y-78527819D01*
X130544650Y-78588957D01*
X130531574Y-78335171D01*
X130577904Y-78109668D01*
X130732717Y-77893797D01*
X130918578Y-77916212D01*
X131061588Y-78196279D01*
X131080810Y-78279945D01*
X131117776Y-78519426D01*
X131092270Y-78764985D01*
X130982860Y-79127848D01*
X130768112Y-79719237D01*
X130652815Y-80148410D01*
X130637961Y-80709351D01*
X130644077Y-80759145D01*
X130777582Y-81205337D01*
X130984472Y-81442305D01*
X131189511Y-81378738D01*
X131254039Y-81181663D01*
X131303574Y-80642772D01*
X131291286Y-80122361D01*
X131565066Y-80122361D01*
X131643528Y-80493853D01*
X131738732Y-80543135D01*
X131785000Y-80234074D01*
X131768666Y-80014454D01*
X131659323Y-79787222D01*
X131599612Y-79834472D01*
X131565066Y-80122361D01*
X131291286Y-80122361D01*
X131289838Y-80061043D01*
X131209532Y-79711312D01*
X131195440Y-79663350D01*
X131267153Y-79527888D01*
X131447657Y-79380765D01*
X131501516Y-79344114D01*
X131709914Y-79094195D01*
X131785000Y-78774637D01*
X131780348Y-78664683D01*
X131693770Y-78412885D01*
X131545020Y-78431846D01*
X131396296Y-78728888D01*
X131379483Y-78785055D01*
X131316970Y-78893048D01*
X131321604Y-78517222D01*
X131361687Y-78188683D01*
X131480702Y-77972583D01*
X131716880Y-77868109D01*
X132083895Y-77783441D01*
X132042262Y-79096736D01*
X132031757Y-79510807D01*
X132041465Y-80234074D01*
G36*
X132041465Y-80234074D02*
G01*
X132042042Y-80277092D01*
X132111096Y-80658749D01*
X132133529Y-80717034D01*
X132123471Y-80863055D01*
X131963307Y-80911789D01*
X131918237Y-80919888D01*
X131663660Y-81116742D01*
X131407682Y-81493264D01*
X131106174Y-81881282D01*
X130779610Y-81838197D01*
X130496871Y-81281108D01*
X130468565Y-81181972D01*
X130376591Y-80501358D01*
X130427814Y-79822020D01*
X130614219Y-79280577D01*
X130744340Y-79000894D01*
X130825414Y-78667320D01*
X130801306Y-78471308D01*
X130664359Y-78527819D01*
X130544650Y-78588957D01*
X130531574Y-78335171D01*
X130577904Y-78109668D01*
X130732717Y-77893797D01*
X130918578Y-77916212D01*
X131061588Y-78196279D01*
X131080810Y-78279945D01*
X131117776Y-78519426D01*
X131092270Y-78764985D01*
X130982860Y-79127848D01*
X130768112Y-79719237D01*
X130652815Y-80148410D01*
X130637961Y-80709351D01*
X130644077Y-80759145D01*
X130777582Y-81205337D01*
X130984472Y-81442305D01*
X131189511Y-81378738D01*
X131254039Y-81181663D01*
X131303574Y-80642772D01*
X131291286Y-80122361D01*
X131565066Y-80122361D01*
X131643528Y-80493853D01*
X131738732Y-80543135D01*
X131785000Y-80234074D01*
X131768666Y-80014454D01*
X131659323Y-79787222D01*
X131599612Y-79834472D01*
X131565066Y-80122361D01*
X131291286Y-80122361D01*
X131289838Y-80061043D01*
X131209532Y-79711312D01*
X131195440Y-79663350D01*
X131267153Y-79527888D01*
X131447657Y-79380765D01*
X131501516Y-79344114D01*
X131709914Y-79094195D01*
X131785000Y-78774637D01*
X131780348Y-78664683D01*
X131693770Y-78412885D01*
X131545020Y-78431846D01*
X131396296Y-78728888D01*
X131379483Y-78785055D01*
X131316970Y-78893048D01*
X131321604Y-78517222D01*
X131361687Y-78188683D01*
X131480702Y-77972583D01*
X131716880Y-77868109D01*
X132083895Y-77783441D01*
X132042262Y-79096736D01*
X132031757Y-79510807D01*
X132041465Y-80234074D01*
G37*
X135209512Y-78964074D02*
X135202147Y-79103435D01*
X135204612Y-79790625D01*
X135236811Y-80405053D01*
X135297344Y-80729200D01*
X135318128Y-80828719D01*
X135217969Y-80893830D01*
X135060760Y-80888719D01*
X134953147Y-80755162D01*
X134944175Y-80422222D01*
X134945913Y-80394367D01*
X134940781Y-80102001D01*
X134858823Y-80223969D01*
X134689404Y-80775000D01*
X134521409Y-81224871D01*
X134219886Y-81480555D01*
X134075419Y-81454936D01*
X133975777Y-81279767D01*
X133958309Y-80845555D01*
X133959136Y-80751933D01*
X133919094Y-80323006D01*
X133769375Y-80210555D01*
X133639939Y-80293411D01*
X133570938Y-80633888D01*
X133570911Y-80643434D01*
X133519249Y-80981036D01*
X133423065Y-81043047D01*
X133362727Y-80775000D01*
X133362260Y-80671989D01*
X133397774Y-80104883D01*
X133452331Y-79580351D01*
X133728193Y-79580351D01*
X133771867Y-79787222D01*
X133807211Y-79739531D01*
X133848750Y-79363888D01*
X133845303Y-79171013D01*
X133817555Y-78940555D01*
X133797011Y-78992550D01*
X133740671Y-79363888D01*
X133728193Y-79580351D01*
X133452331Y-79580351D01*
X133474522Y-79366995D01*
X133570047Y-78635355D01*
X133661889Y-78086997D01*
X133727589Y-77898950D01*
X133779279Y-78057271D01*
X133891862Y-78602283D01*
X134019866Y-79363888D01*
X134023095Y-79383104D01*
X134119293Y-79957020D01*
X134240038Y-80534474D01*
X134320751Y-80746777D01*
X134412861Y-80708024D01*
X134532208Y-80556140D01*
X134593034Y-80199398D01*
X134601230Y-79816888D01*
X134541995Y-79194432D01*
X134518269Y-79048204D01*
X134507014Y-78846613D01*
X134735899Y-78846613D01*
X134749890Y-79025067D01*
X134829669Y-79388495D01*
X134918180Y-79377847D01*
X134960000Y-78964074D01*
X134938165Y-78613511D01*
X134835118Y-78376111D01*
X134770092Y-78443823D01*
X134735899Y-78846613D01*
X134507014Y-78846613D01*
X134493726Y-78608592D01*
X134598140Y-78217811D01*
X134772612Y-77945066D01*
X134994911Y-77823880D01*
X135198188Y-77869739D01*
X135317188Y-78093888D01*
X135329591Y-78203211D01*
X135282185Y-78376111D01*
X135230817Y-78561002D01*
X135209512Y-78964074D01*
G36*
X135209512Y-78964074D02*
G01*
X135202147Y-79103435D01*
X135204612Y-79790625D01*
X135236811Y-80405053D01*
X135297344Y-80729200D01*
X135318128Y-80828719D01*
X135217969Y-80893830D01*
X135060760Y-80888719D01*
X134953147Y-80755162D01*
X134944175Y-80422222D01*
X134945913Y-80394367D01*
X134940781Y-80102001D01*
X134858823Y-80223969D01*
X134689404Y-80775000D01*
X134521409Y-81224871D01*
X134219886Y-81480555D01*
X134075419Y-81454936D01*
X133975777Y-81279767D01*
X133958309Y-80845555D01*
X133959136Y-80751933D01*
X133919094Y-80323006D01*
X133769375Y-80210555D01*
X133639939Y-80293411D01*
X133570938Y-80633888D01*
X133570911Y-80643434D01*
X133519249Y-80981036D01*
X133423065Y-81043047D01*
X133362727Y-80775000D01*
X133362260Y-80671989D01*
X133397774Y-80104883D01*
X133452331Y-79580351D01*
X133728193Y-79580351D01*
X133771867Y-79787222D01*
X133807211Y-79739531D01*
X133848750Y-79363888D01*
X133845303Y-79171013D01*
X133817555Y-78940555D01*
X133797011Y-78992550D01*
X133740671Y-79363888D01*
X133728193Y-79580351D01*
X133452331Y-79580351D01*
X133474522Y-79366995D01*
X133570047Y-78635355D01*
X133661889Y-78086997D01*
X133727589Y-77898950D01*
X133779279Y-78057271D01*
X133891862Y-78602283D01*
X134019866Y-79363888D01*
X134023095Y-79383104D01*
X134119293Y-79957020D01*
X134240038Y-80534474D01*
X134320751Y-80746777D01*
X134412861Y-80708024D01*
X134532208Y-80556140D01*
X134593034Y-80199398D01*
X134601230Y-79816888D01*
X134541995Y-79194432D01*
X134518269Y-79048204D01*
X134507014Y-78846613D01*
X134735899Y-78846613D01*
X134749890Y-79025067D01*
X134829669Y-79388495D01*
X134918180Y-79377847D01*
X134960000Y-78964074D01*
X134938165Y-78613511D01*
X134835118Y-78376111D01*
X134770092Y-78443823D01*
X134735899Y-78846613D01*
X134507014Y-78846613D01*
X134493726Y-78608592D01*
X134598140Y-78217811D01*
X134772612Y-77945066D01*
X134994911Y-77823880D01*
X135198188Y-77869739D01*
X135317188Y-78093888D01*
X135329591Y-78203211D01*
X135282185Y-78376111D01*
X135230817Y-78561002D01*
X135209512Y-78964074D01*
G37*
X136805376Y-87269684D02*
X136805981Y-87274985D01*
X136807909Y-87326776D01*
X136789743Y-87357400D01*
X136736975Y-87371555D01*
X136635101Y-87373937D01*
X136469615Y-87369244D01*
X136225384Y-87361191D01*
X136225384Y-87573160D01*
X136223317Y-87657765D01*
X136213860Y-87760395D01*
X136199333Y-87811180D01*
X136183106Y-87824771D01*
X136148922Y-87832274D01*
X136096274Y-87812025D01*
X136010735Y-87757303D01*
X135877881Y-87661385D01*
X135855460Y-87644942D01*
X135742353Y-87564023D01*
X135658117Y-87507069D01*
X135619582Y-87485539D01*
X135617910Y-87486016D01*
X135605315Y-87527188D01*
X135600154Y-87614492D01*
X135600141Y-87617550D01*
X135586292Y-87720428D01*
X135554191Y-87789409D01*
X135504750Y-87816846D01*
X135453100Y-87787865D01*
X135417826Y-87697492D01*
X135404769Y-87554897D01*
X135404769Y-87360286D01*
X135145507Y-87374066D01*
X135073707Y-87377218D01*
X134953440Y-87375472D01*
X134883497Y-87358391D01*
X134844927Y-87322737D01*
X134824698Y-87271981D01*
X134826602Y-87267057D01*
X135669519Y-87267057D01*
X135781375Y-87358691D01*
X135890484Y-87445780D01*
X135969337Y-87493949D01*
X136010956Y-87483491D01*
X136027218Y-87410153D01*
X136030000Y-87269684D01*
X136029415Y-87154622D01*
X136019778Y-87068450D01*
X135987549Y-87046029D01*
X135919129Y-87081342D01*
X135800913Y-87168375D01*
X135669519Y-87267057D01*
X134826602Y-87267057D01*
X134853497Y-87197516D01*
X134862623Y-87187665D01*
X134915058Y-87159686D01*
X135004964Y-87151478D01*
X135151964Y-87160617D01*
X135400544Y-87183830D01*
X135412426Y-86953684D01*
X135418083Y-86865724D01*
X135431994Y-86774859D01*
X135457798Y-86733400D01*
X135502461Y-86723539D01*
X135547084Y-86733427D01*
X135580326Y-86783045D01*
X135600154Y-86891788D01*
X135619692Y-87060038D01*
X135864228Y-86877955D01*
X135890288Y-86858696D01*
X136033448Y-86762247D01*
X136130091Y-86722306D01*
X136188663Y-86740813D01*
X136217612Y-86819710D01*
X136225384Y-86960936D01*
X136225384Y-87181247D01*
X136792000Y-87153385D01*
X136804365Y-87260846D01*
X136805376Y-87269684D01*
G36*
X136805376Y-87269684D02*
G01*
X136805981Y-87274985D01*
X136807909Y-87326776D01*
X136789743Y-87357400D01*
X136736975Y-87371555D01*
X136635101Y-87373937D01*
X136469615Y-87369244D01*
X136225384Y-87361191D01*
X136225384Y-87573160D01*
X136223317Y-87657765D01*
X136213860Y-87760395D01*
X136199333Y-87811180D01*
X136183106Y-87824771D01*
X136148922Y-87832274D01*
X136096274Y-87812025D01*
X136010735Y-87757303D01*
X135877881Y-87661385D01*
X135855460Y-87644942D01*
X135742353Y-87564023D01*
X135658117Y-87507069D01*
X135619582Y-87485539D01*
X135617910Y-87486016D01*
X135605315Y-87527188D01*
X135600154Y-87614492D01*
X135600141Y-87617550D01*
X135586292Y-87720428D01*
X135554191Y-87789409D01*
X135504750Y-87816846D01*
X135453100Y-87787865D01*
X135417826Y-87697492D01*
X135404769Y-87554897D01*
X135404769Y-87360286D01*
X135145507Y-87374066D01*
X135073707Y-87377218D01*
X134953440Y-87375472D01*
X134883497Y-87358391D01*
X134844927Y-87322737D01*
X134824698Y-87271981D01*
X134826602Y-87267057D01*
X135669519Y-87267057D01*
X135781375Y-87358691D01*
X135890484Y-87445780D01*
X135969337Y-87493949D01*
X136010956Y-87483491D01*
X136027218Y-87410153D01*
X136030000Y-87269684D01*
X136029415Y-87154622D01*
X136019778Y-87068450D01*
X135987549Y-87046029D01*
X135919129Y-87081342D01*
X135800913Y-87168375D01*
X135669519Y-87267057D01*
X134826602Y-87267057D01*
X134853497Y-87197516D01*
X134862623Y-87187665D01*
X134915058Y-87159686D01*
X135004964Y-87151478D01*
X135151964Y-87160617D01*
X135400544Y-87183830D01*
X135412426Y-86953684D01*
X135418083Y-86865724D01*
X135431994Y-86774859D01*
X135457798Y-86733400D01*
X135502461Y-86723539D01*
X135547084Y-86733427D01*
X135580326Y-86783045D01*
X135600154Y-86891788D01*
X135619692Y-87060038D01*
X135864228Y-86877955D01*
X135890288Y-86858696D01*
X136033448Y-86762247D01*
X136130091Y-86722306D01*
X136188663Y-86740813D01*
X136217612Y-86819710D01*
X136225384Y-86960936D01*
X136225384Y-87181247D01*
X136792000Y-87153385D01*
X136804365Y-87260846D01*
X136805376Y-87269684D01*
G37*
X134964872Y-83171940D02*
X134859694Y-83329713D01*
X134788193Y-83432524D01*
X134710048Y-83544890D01*
X134696240Y-83564745D01*
X134604127Y-83692896D01*
X134560429Y-83753692D01*
X134513997Y-83818291D01*
X134457870Y-83894142D01*
X134345708Y-84045720D01*
X134318802Y-84082082D01*
X134287497Y-84123205D01*
X134155135Y-84297085D01*
X134116493Y-84347848D01*
X134000128Y-84496154D01*
X133969306Y-84535437D01*
X133912905Y-84607320D01*
X133876220Y-84652462D01*
X133765074Y-84789231D01*
X133713877Y-84852231D01*
X133681574Y-84890522D01*
X133648403Y-84929843D01*
X133617909Y-84964736D01*
X133510073Y-85088133D01*
X133352778Y-85262646D01*
X133185406Y-85444077D01*
X133016849Y-85623124D01*
X132855993Y-85790480D01*
X132711730Y-85936843D01*
X132592948Y-86052907D01*
X132508536Y-86129368D01*
X132467383Y-86156923D01*
X132459411Y-86154246D01*
X132404649Y-86112223D01*
X132317258Y-86029790D01*
X132212070Y-85920670D01*
X132200415Y-85908201D01*
X132068077Y-85778775D01*
X131929761Y-85660912D01*
X131813594Y-85578747D01*
X131738683Y-85537317D01*
X131654379Y-85503055D01*
X131558452Y-85483664D01*
X131428739Y-85475040D01*
X131243077Y-85473077D01*
X131071043Y-85474597D01*
X130936975Y-85482515D01*
X130836041Y-85501400D01*
X130744765Y-85535810D01*
X130639675Y-85590308D01*
X130543294Y-85649780D01*
X130383504Y-85767289D01*
X130287907Y-85851360D01*
X130245472Y-85888679D01*
X130210863Y-85927789D01*
X130098119Y-86055197D01*
X129901168Y-86362052D01*
X129783574Y-86645385D01*
X129760607Y-86700724D01*
X129680618Y-87056357D01*
X129665380Y-87414093D01*
X129688666Y-87563692D01*
X129719077Y-87759077D01*
X129736176Y-87823236D01*
X129766215Y-87958091D01*
X129764580Y-88050039D01*
X129721792Y-88118702D01*
X129628374Y-88183699D01*
X129474846Y-88264651D01*
X129279029Y-88358658D01*
X129141404Y-88409921D01*
X129061229Y-88418032D01*
X129035231Y-88383880D01*
X129020208Y-88355376D01*
X128960822Y-88278650D01*
X128866784Y-88169684D01*
X128749361Y-88041956D01*
X128666328Y-87952810D01*
X128542857Y-87815545D01*
X128441480Y-87697297D01*
X128378363Y-87616602D01*
X128348489Y-87563692D01*
X128527231Y-87563692D01*
X128528366Y-87573033D01*
X128566308Y-87602769D01*
X128575648Y-87601634D01*
X128605384Y-87563692D01*
X128604249Y-87554352D01*
X128566308Y-87524616D01*
X128556967Y-87525751D01*
X128527231Y-87563692D01*
X128348489Y-87563692D01*
X128311315Y-87497852D01*
X128230473Y-87253632D01*
X128188132Y-86958918D01*
X128186729Y-86645385D01*
X128331846Y-86645385D01*
X128351384Y-86664923D01*
X128370923Y-86645385D01*
X128351384Y-86625846D01*
X128331846Y-86645385D01*
X128186729Y-86645385D01*
X128186642Y-86625846D01*
X128192182Y-86545005D01*
X128205475Y-86416164D01*
X128455989Y-86416164D01*
X128488154Y-86430462D01*
X128508841Y-86427642D01*
X128514205Y-86404410D01*
X128508478Y-86399734D01*
X128462102Y-86404410D01*
X128455989Y-86416164D01*
X128205475Y-86416164D01*
X128212425Y-86348802D01*
X128605384Y-86348802D01*
X128611285Y-86395783D01*
X128620287Y-86404410D01*
X128651062Y-86433907D01*
X128722915Y-86410666D01*
X128820473Y-86329066D01*
X128937368Y-86192112D01*
X128945326Y-86181602D01*
X129035656Y-86053199D01*
X129083523Y-85966812D01*
X129088123Y-85927789D01*
X129048651Y-85941480D01*
X128964300Y-86013234D01*
X128944888Y-86031319D01*
X128868009Y-86093411D01*
X128818169Y-86119146D01*
X128783735Y-86128060D01*
X128703487Y-86185061D01*
X128634619Y-86268806D01*
X128605384Y-86348802D01*
X128212425Y-86348802D01*
X128212705Y-86346089D01*
X128241170Y-86149463D01*
X128274556Y-85970234D01*
X128295444Y-85883385D01*
X128839846Y-85883385D01*
X128841074Y-85907358D01*
X128859199Y-85917506D01*
X128918000Y-85883385D01*
X128925485Y-85878489D01*
X128953482Y-85851360D01*
X128908231Y-85844906D01*
X128872066Y-85850541D01*
X128839846Y-85883385D01*
X128295444Y-85883385D01*
X128309845Y-85823509D01*
X128344017Y-85724395D01*
X128374055Y-85688000D01*
X128397054Y-85666462D01*
X128410000Y-85595558D01*
X128410696Y-85584962D01*
X128433943Y-85496219D01*
X128483513Y-85367404D01*
X128550371Y-85222531D01*
X128596353Y-85133275D01*
X128659697Y-85026539D01*
X128705178Y-84979144D01*
X128739581Y-84982481D01*
X128791359Y-85006000D01*
X128796345Y-85000555D01*
X131109222Y-85000555D01*
X131137399Y-84998477D01*
X131159876Y-84985729D01*
X132618102Y-84985729D01*
X132619789Y-85026109D01*
X132682528Y-85074524D01*
X132740263Y-85108746D01*
X132782177Y-85106905D01*
X132816559Y-85047670D01*
X132821918Y-85035479D01*
X132833927Y-84964736D01*
X132786690Y-84915577D01*
X132781787Y-84912577D01*
X132716027Y-84895390D01*
X132652658Y-84942431D01*
X132618102Y-84985729D01*
X131159876Y-84985729D01*
X131201209Y-84962286D01*
X131245742Y-84922850D01*
X131259701Y-84890522D01*
X131231523Y-84892600D01*
X131167714Y-84928791D01*
X131123181Y-84968228D01*
X131109222Y-85000555D01*
X128796345Y-85000555D01*
X128822522Y-84971971D01*
X128815840Y-84883035D01*
X128815088Y-84879728D01*
X128831849Y-84784083D01*
X128840520Y-84768907D01*
X129278041Y-84768907D01*
X129282718Y-84815282D01*
X129294471Y-84821396D01*
X129308769Y-84789231D01*
X129305949Y-84768544D01*
X129282718Y-84763180D01*
X129278041Y-84768907D01*
X128840520Y-84768907D01*
X128911404Y-84644851D01*
X128951963Y-84592763D01*
X131307506Y-84592763D01*
X131337260Y-84648233D01*
X131386111Y-84695771D01*
X131439346Y-84700192D01*
X131465785Y-84652462D01*
X133568154Y-84652462D01*
X133587692Y-84672000D01*
X133607231Y-84652462D01*
X133587692Y-84632923D01*
X133568154Y-84652462D01*
X131465785Y-84652462D01*
X131478787Y-84628990D01*
X131481033Y-84621545D01*
X131483243Y-84535437D01*
X131437910Y-84501184D01*
X131359682Y-84530856D01*
X131340189Y-84545795D01*
X131307506Y-84592763D01*
X128951963Y-84592763D01*
X129027190Y-84496154D01*
X129074308Y-84496154D01*
X129093846Y-84515692D01*
X129113384Y-84496154D01*
X129093846Y-84476616D01*
X129074308Y-84496154D01*
X129027190Y-84496154D01*
X129052703Y-84463389D01*
X129160181Y-84345087D01*
X130800604Y-84345087D01*
X130832769Y-84359385D01*
X130853456Y-84356565D01*
X130856769Y-84342217D01*
X131660879Y-84342217D01*
X131669186Y-84355454D01*
X131731538Y-84320308D01*
X131759023Y-84297085D01*
X131743614Y-84281829D01*
X131729992Y-84283155D01*
X131672923Y-84320308D01*
X131665762Y-84333333D01*
X131660879Y-84342217D01*
X130856769Y-84342217D01*
X130858820Y-84333333D01*
X130853093Y-84328657D01*
X130806718Y-84333333D01*
X130800604Y-84345087D01*
X129160181Y-84345087D01*
X129254694Y-84241055D01*
X129357326Y-84138336D01*
X133115756Y-84138336D01*
X133132203Y-84179765D01*
X133149368Y-84185927D01*
X133198136Y-84162038D01*
X133210891Y-84123205D01*
X133186787Y-84090966D01*
X133134251Y-84113349D01*
X133115756Y-84138336D01*
X129357326Y-84138336D01*
X129405657Y-84089964D01*
X131856184Y-84089964D01*
X131882653Y-84128821D01*
X131947644Y-84133928D01*
X132024152Y-84100891D01*
X132031813Y-84095178D01*
X132074071Y-84045720D01*
X132050747Y-83998655D01*
X131986470Y-83977416D01*
X131910509Y-84006421D01*
X131859213Y-84074054D01*
X131856184Y-84089964D01*
X129405657Y-84089964D01*
X129516324Y-83979204D01*
X129555078Y-83943373D01*
X133665968Y-83943373D01*
X133683763Y-83987152D01*
X133709602Y-83990983D01*
X133749103Y-83949869D01*
X133761643Y-83894142D01*
X133740742Y-83866938D01*
X133689055Y-83905577D01*
X133665968Y-83943373D01*
X129555078Y-83943373D01*
X129683573Y-83824568D01*
X129772779Y-83753692D01*
X133763538Y-83753692D01*
X133783077Y-83773231D01*
X133802615Y-83753692D01*
X133783077Y-83734154D01*
X133763538Y-83753692D01*
X129772779Y-83753692D01*
X129871145Y-83675539D01*
X130559231Y-83675539D01*
X130560365Y-83691111D01*
X130592623Y-83732937D01*
X130649348Y-83709165D01*
X130659249Y-83692896D01*
X130647029Y-83642779D01*
X130596001Y-83616923D01*
X130579108Y-83623518D01*
X130559231Y-83675539D01*
X129871145Y-83675539D01*
X129993625Y-83578227D01*
X133267732Y-83578227D01*
X133300350Y-83621294D01*
X133360178Y-83647780D01*
X133449155Y-83647495D01*
X133504131Y-83597385D01*
X133516020Y-83544890D01*
X133494367Y-83466566D01*
X133489356Y-83463269D01*
X134056250Y-83463269D01*
X134073429Y-83502815D01*
X134130659Y-83512289D01*
X134200686Y-83484270D01*
X134206072Y-83480259D01*
X134242151Y-83432524D01*
X134213962Y-83370953D01*
X134208929Y-83364253D01*
X134166179Y-83330822D01*
X134122140Y-83355998D01*
X134062924Y-83446752D01*
X134056250Y-83463269D01*
X133489356Y-83463269D01*
X133434001Y-83426847D01*
X133358628Y-83436092D01*
X133291956Y-83504662D01*
X133290535Y-83507333D01*
X133267732Y-83578227D01*
X129993625Y-83578227D01*
X130144634Y-83458248D01*
X130490322Y-83237956D01*
X131074950Y-83237956D01*
X131101068Y-83308660D01*
X131157714Y-83321707D01*
X131240647Y-83262269D01*
X131261544Y-83238559D01*
X131280310Y-83187077D01*
X134427846Y-83187077D01*
X134428294Y-83195920D01*
X134445078Y-83226154D01*
X134451347Y-83224356D01*
X134486461Y-83187077D01*
X134492567Y-83171940D01*
X134469229Y-83148000D01*
X134457887Y-83149502D01*
X134441897Y-83169502D01*
X134427846Y-83187077D01*
X131280310Y-83187077D01*
X131286717Y-83169502D01*
X131247121Y-83130269D01*
X131152429Y-83134835D01*
X131092122Y-83165851D01*
X131074950Y-83237956D01*
X130490322Y-83237956D01*
X130639915Y-83142627D01*
X131154416Y-82886609D01*
X131673138Y-82699096D01*
X131925592Y-82627380D01*
X132145870Y-82570845D01*
X132343845Y-82529506D01*
X132539607Y-82500395D01*
X132753247Y-82480547D01*
X133004858Y-82466996D01*
X133314530Y-82456775D01*
X133350834Y-82455778D01*
X133616879Y-82449309D01*
X133824834Y-82447071D01*
X133992583Y-82450184D01*
X134138009Y-82459771D01*
X134278996Y-82476951D01*
X134433426Y-82502848D01*
X134619182Y-82538581D01*
X134739240Y-82562421D01*
X134929831Y-82601401D01*
X135060509Y-82631238D01*
X135142539Y-82655655D01*
X135187185Y-82678372D01*
X135205712Y-82703113D01*
X135209385Y-82733599D01*
X135208889Y-82740094D01*
X135178957Y-82818384D01*
X135106890Y-82948263D01*
X134998523Y-83121463D01*
X134964872Y-83171940D01*
G36*
X134964872Y-83171940D02*
G01*
X134859694Y-83329713D01*
X134788193Y-83432524D01*
X134710048Y-83544890D01*
X134696240Y-83564745D01*
X134604127Y-83692896D01*
X134560429Y-83753692D01*
X134513997Y-83818291D01*
X134457870Y-83894142D01*
X134345708Y-84045720D01*
X134318802Y-84082082D01*
X134287497Y-84123205D01*
X134155135Y-84297085D01*
X134116493Y-84347848D01*
X134000128Y-84496154D01*
X133969306Y-84535437D01*
X133912905Y-84607320D01*
X133876220Y-84652462D01*
X133765074Y-84789231D01*
X133713877Y-84852231D01*
X133681574Y-84890522D01*
X133648403Y-84929843D01*
X133617909Y-84964736D01*
X133510073Y-85088133D01*
X133352778Y-85262646D01*
X133185406Y-85444077D01*
X133016849Y-85623124D01*
X132855993Y-85790480D01*
X132711730Y-85936843D01*
X132592948Y-86052907D01*
X132508536Y-86129368D01*
X132467383Y-86156923D01*
X132459411Y-86154246D01*
X132404649Y-86112223D01*
X132317258Y-86029790D01*
X132212070Y-85920670D01*
X132200415Y-85908201D01*
X132068077Y-85778775D01*
X131929761Y-85660912D01*
X131813594Y-85578747D01*
X131738683Y-85537317D01*
X131654379Y-85503055D01*
X131558452Y-85483664D01*
X131428739Y-85475040D01*
X131243077Y-85473077D01*
X131071043Y-85474597D01*
X130936975Y-85482515D01*
X130836041Y-85501400D01*
X130744765Y-85535810D01*
X130639675Y-85590308D01*
X130543294Y-85649780D01*
X130383504Y-85767289D01*
X130287907Y-85851360D01*
X130245472Y-85888679D01*
X130210863Y-85927789D01*
X130098119Y-86055197D01*
X129901168Y-86362052D01*
X129783574Y-86645385D01*
X129760607Y-86700724D01*
X129680618Y-87056357D01*
X129665380Y-87414093D01*
X129688666Y-87563692D01*
X129719077Y-87759077D01*
X129736176Y-87823236D01*
X129766215Y-87958091D01*
X129764580Y-88050039D01*
X129721792Y-88118702D01*
X129628374Y-88183699D01*
X129474846Y-88264651D01*
X129279029Y-88358658D01*
X129141404Y-88409921D01*
X129061229Y-88418032D01*
X129035231Y-88383880D01*
X129020208Y-88355376D01*
X128960822Y-88278650D01*
X128866784Y-88169684D01*
X128749361Y-88041956D01*
X128666328Y-87952810D01*
X128542857Y-87815545D01*
X128441480Y-87697297D01*
X128378363Y-87616602D01*
X128348489Y-87563692D01*
X128527231Y-87563692D01*
X128528366Y-87573033D01*
X128566308Y-87602769D01*
X128575648Y-87601634D01*
X128605384Y-87563692D01*
X128604249Y-87554352D01*
X128566308Y-87524616D01*
X128556967Y-87525751D01*
X128527231Y-87563692D01*
X128348489Y-87563692D01*
X128311315Y-87497852D01*
X128230473Y-87253632D01*
X128188132Y-86958918D01*
X128186729Y-86645385D01*
X128331846Y-86645385D01*
X128351384Y-86664923D01*
X128370923Y-86645385D01*
X128351384Y-86625846D01*
X128331846Y-86645385D01*
X128186729Y-86645385D01*
X128186642Y-86625846D01*
X128192182Y-86545005D01*
X128205475Y-86416164D01*
X128455989Y-86416164D01*
X128488154Y-86430462D01*
X128508841Y-86427642D01*
X128514205Y-86404410D01*
X128508478Y-86399734D01*
X128462102Y-86404410D01*
X128455989Y-86416164D01*
X128205475Y-86416164D01*
X128212425Y-86348802D01*
X128605384Y-86348802D01*
X128611285Y-86395783D01*
X128620287Y-86404410D01*
X128651062Y-86433907D01*
X128722915Y-86410666D01*
X128820473Y-86329066D01*
X128937368Y-86192112D01*
X128945326Y-86181602D01*
X129035656Y-86053199D01*
X129083523Y-85966812D01*
X129088123Y-85927789D01*
X129048651Y-85941480D01*
X128964300Y-86013234D01*
X128944888Y-86031319D01*
X128868009Y-86093411D01*
X128818169Y-86119146D01*
X128783735Y-86128060D01*
X128703487Y-86185061D01*
X128634619Y-86268806D01*
X128605384Y-86348802D01*
X128212425Y-86348802D01*
X128212705Y-86346089D01*
X128241170Y-86149463D01*
X128274556Y-85970234D01*
X128295444Y-85883385D01*
X128839846Y-85883385D01*
X128841074Y-85907358D01*
X128859199Y-85917506D01*
X128918000Y-85883385D01*
X128925485Y-85878489D01*
X128953482Y-85851360D01*
X128908231Y-85844906D01*
X128872066Y-85850541D01*
X128839846Y-85883385D01*
X128295444Y-85883385D01*
X128309845Y-85823509D01*
X128344017Y-85724395D01*
X128374055Y-85688000D01*
X128397054Y-85666462D01*
X128410000Y-85595558D01*
X128410696Y-85584962D01*
X128433943Y-85496219D01*
X128483513Y-85367404D01*
X128550371Y-85222531D01*
X128596353Y-85133275D01*
X128659697Y-85026539D01*
X128705178Y-84979144D01*
X128739581Y-84982481D01*
X128791359Y-85006000D01*
X128796345Y-85000555D01*
X131109222Y-85000555D01*
X131137399Y-84998477D01*
X131159876Y-84985729D01*
X132618102Y-84985729D01*
X132619789Y-85026109D01*
X132682528Y-85074524D01*
X132740263Y-85108746D01*
X132782177Y-85106905D01*
X132816559Y-85047670D01*
X132821918Y-85035479D01*
X132833927Y-84964736D01*
X132786690Y-84915577D01*
X132781787Y-84912577D01*
X132716027Y-84895390D01*
X132652658Y-84942431D01*
X132618102Y-84985729D01*
X131159876Y-84985729D01*
X131201209Y-84962286D01*
X131245742Y-84922850D01*
X131259701Y-84890522D01*
X131231523Y-84892600D01*
X131167714Y-84928791D01*
X131123181Y-84968228D01*
X131109222Y-85000555D01*
X128796345Y-85000555D01*
X128822522Y-84971971D01*
X128815840Y-84883035D01*
X128815088Y-84879728D01*
X128831849Y-84784083D01*
X128840520Y-84768907D01*
X129278041Y-84768907D01*
X129282718Y-84815282D01*
X129294471Y-84821396D01*
X129308769Y-84789231D01*
X129305949Y-84768544D01*
X129282718Y-84763180D01*
X129278041Y-84768907D01*
X128840520Y-84768907D01*
X128911404Y-84644851D01*
X128951963Y-84592763D01*
X131307506Y-84592763D01*
X131337260Y-84648233D01*
X131386111Y-84695771D01*
X131439346Y-84700192D01*
X131465785Y-84652462D01*
X133568154Y-84652462D01*
X133587692Y-84672000D01*
X133607231Y-84652462D01*
X133587692Y-84632923D01*
X133568154Y-84652462D01*
X131465785Y-84652462D01*
X131478787Y-84628990D01*
X131481033Y-84621545D01*
X131483243Y-84535437D01*
X131437910Y-84501184D01*
X131359682Y-84530856D01*
X131340189Y-84545795D01*
X131307506Y-84592763D01*
X128951963Y-84592763D01*
X129027190Y-84496154D01*
X129074308Y-84496154D01*
X129093846Y-84515692D01*
X129113384Y-84496154D01*
X129093846Y-84476616D01*
X129074308Y-84496154D01*
X129027190Y-84496154D01*
X129052703Y-84463389D01*
X129160181Y-84345087D01*
X130800604Y-84345087D01*
X130832769Y-84359385D01*
X130853456Y-84356565D01*
X130856769Y-84342217D01*
X131660879Y-84342217D01*
X131669186Y-84355454D01*
X131731538Y-84320308D01*
X131759023Y-84297085D01*
X131743614Y-84281829D01*
X131729992Y-84283155D01*
X131672923Y-84320308D01*
X131665762Y-84333333D01*
X131660879Y-84342217D01*
X130856769Y-84342217D01*
X130858820Y-84333333D01*
X130853093Y-84328657D01*
X130806718Y-84333333D01*
X130800604Y-84345087D01*
X129160181Y-84345087D01*
X129254694Y-84241055D01*
X129357326Y-84138336D01*
X133115756Y-84138336D01*
X133132203Y-84179765D01*
X133149368Y-84185927D01*
X133198136Y-84162038D01*
X133210891Y-84123205D01*
X133186787Y-84090966D01*
X133134251Y-84113349D01*
X133115756Y-84138336D01*
X129357326Y-84138336D01*
X129405657Y-84089964D01*
X131856184Y-84089964D01*
X131882653Y-84128821D01*
X131947644Y-84133928D01*
X132024152Y-84100891D01*
X132031813Y-84095178D01*
X132074071Y-84045720D01*
X132050747Y-83998655D01*
X131986470Y-83977416D01*
X131910509Y-84006421D01*
X131859213Y-84074054D01*
X131856184Y-84089964D01*
X129405657Y-84089964D01*
X129516324Y-83979204D01*
X129555078Y-83943373D01*
X133665968Y-83943373D01*
X133683763Y-83987152D01*
X133709602Y-83990983D01*
X133749103Y-83949869D01*
X133761643Y-83894142D01*
X133740742Y-83866938D01*
X133689055Y-83905577D01*
X133665968Y-83943373D01*
X129555078Y-83943373D01*
X129683573Y-83824568D01*
X129772779Y-83753692D01*
X133763538Y-83753692D01*
X133783077Y-83773231D01*
X133802615Y-83753692D01*
X133783077Y-83734154D01*
X133763538Y-83753692D01*
X129772779Y-83753692D01*
X129871145Y-83675539D01*
X130559231Y-83675539D01*
X130560365Y-83691111D01*
X130592623Y-83732937D01*
X130649348Y-83709165D01*
X130659249Y-83692896D01*
X130647029Y-83642779D01*
X130596001Y-83616923D01*
X130579108Y-83623518D01*
X130559231Y-83675539D01*
X129871145Y-83675539D01*
X129993625Y-83578227D01*
X133267732Y-83578227D01*
X133300350Y-83621294D01*
X133360178Y-83647780D01*
X133449155Y-83647495D01*
X133504131Y-83597385D01*
X133516020Y-83544890D01*
X133494367Y-83466566D01*
X133489356Y-83463269D01*
X134056250Y-83463269D01*
X134073429Y-83502815D01*
X134130659Y-83512289D01*
X134200686Y-83484270D01*
X134206072Y-83480259D01*
X134242151Y-83432524D01*
X134213962Y-83370953D01*
X134208929Y-83364253D01*
X134166179Y-83330822D01*
X134122140Y-83355998D01*
X134062924Y-83446752D01*
X134056250Y-83463269D01*
X133489356Y-83463269D01*
X133434001Y-83426847D01*
X133358628Y-83436092D01*
X133291956Y-83504662D01*
X133290535Y-83507333D01*
X133267732Y-83578227D01*
X129993625Y-83578227D01*
X130144634Y-83458248D01*
X130490322Y-83237956D01*
X131074950Y-83237956D01*
X131101068Y-83308660D01*
X131157714Y-83321707D01*
X131240647Y-83262269D01*
X131261544Y-83238559D01*
X131280310Y-83187077D01*
X134427846Y-83187077D01*
X134428294Y-83195920D01*
X134445078Y-83226154D01*
X134451347Y-83224356D01*
X134486461Y-83187077D01*
X134492567Y-83171940D01*
X134469229Y-83148000D01*
X134457887Y-83149502D01*
X134441897Y-83169502D01*
X134427846Y-83187077D01*
X131280310Y-83187077D01*
X131286717Y-83169502D01*
X131247121Y-83130269D01*
X131152429Y-83134835D01*
X131092122Y-83165851D01*
X131074950Y-83237956D01*
X130490322Y-83237956D01*
X130639915Y-83142627D01*
X131154416Y-82886609D01*
X131673138Y-82699096D01*
X131925592Y-82627380D01*
X132145870Y-82570845D01*
X132343845Y-82529506D01*
X132539607Y-82500395D01*
X132753247Y-82480547D01*
X133004858Y-82466996D01*
X133314530Y-82456775D01*
X133350834Y-82455778D01*
X133616879Y-82449309D01*
X133824834Y-82447071D01*
X133992583Y-82450184D01*
X134138009Y-82459771D01*
X134278996Y-82476951D01*
X134433426Y-82502848D01*
X134619182Y-82538581D01*
X134739240Y-82562421D01*
X134929831Y-82601401D01*
X135060509Y-82631238D01*
X135142539Y-82655655D01*
X135187185Y-82678372D01*
X135205712Y-82703113D01*
X135209385Y-82733599D01*
X135208889Y-82740094D01*
X135178957Y-82818384D01*
X135106890Y-82948263D01*
X134998523Y-83121463D01*
X134964872Y-83171940D01*
G37*
X136887012Y-83499692D02*
X136907805Y-83514184D01*
X137073713Y-83643506D01*
X137377502Y-83914038D01*
X137536486Y-84077617D01*
X137669898Y-84214886D01*
X137936372Y-84529540D01*
X138022560Y-84648494D01*
X138162394Y-84841489D01*
X138268854Y-85023692D01*
X138333435Y-85134222D01*
X138372592Y-85217621D01*
X138378740Y-85232103D01*
X138447540Y-85394166D01*
X138527082Y-85597583D01*
X138596982Y-85791623D01*
X138599470Y-85798530D01*
X138606231Y-85818340D01*
X138661462Y-85984945D01*
X138699320Y-86118099D01*
X138723149Y-86240123D01*
X138734218Y-86352308D01*
X138736292Y-86373336D01*
X138738960Y-86450000D01*
X138742094Y-86540061D01*
X138743897Y-86762616D01*
X138744175Y-86842551D01*
X138743148Y-87008718D01*
X138740946Y-87053148D01*
X138736077Y-87151445D01*
X138719304Y-87272436D01*
X138718402Y-87278943D01*
X138685566Y-87399423D01*
X138633009Y-87521096D01*
X138556172Y-87652173D01*
X138494081Y-87739539D01*
X138450498Y-87800865D01*
X138411137Y-87850257D01*
X138311426Y-87975383D01*
X138162262Y-88151109D01*
X138134397Y-88183937D01*
X137914854Y-88434740D01*
X137648237Y-88736000D01*
X137610074Y-88779310D01*
X137429896Y-88994460D01*
X137398953Y-89031409D01*
X137329300Y-89126769D01*
X137242917Y-89245034D01*
X137234467Y-89256603D01*
X137104720Y-89474509D01*
X137075934Y-89536504D01*
X136997819Y-89704744D01*
X136901868Y-89966923D01*
X136895391Y-89986462D01*
X136895169Y-89987134D01*
X136863726Y-90084154D01*
X136845814Y-90139426D01*
X136839238Y-90162308D01*
X136809798Y-90264760D01*
X136784694Y-90380653D01*
X136768073Y-90504621D01*
X136764650Y-90553077D01*
X136758576Y-90639080D01*
X136757510Y-90654183D01*
X136751833Y-90811924D01*
X136750577Y-90846855D01*
X136744846Y-91100154D01*
X136744742Y-91104555D01*
X136744547Y-91112816D01*
X136740086Y-91302134D01*
X136733641Y-91514708D01*
X136726715Y-91691919D01*
X136719875Y-91819506D01*
X136713689Y-91883209D01*
X136711180Y-91889908D01*
X136660952Y-91943960D01*
X136559683Y-92022587D01*
X136422720Y-92116092D01*
X136265408Y-92214777D01*
X136103095Y-92308944D01*
X135951125Y-92388894D01*
X135824846Y-92444929D01*
X135717384Y-92485450D01*
X135717384Y-92013631D01*
X135716798Y-91923900D01*
X135704645Y-91662165D01*
X135673583Y-91467483D01*
X135619414Y-91332162D01*
X135537939Y-91248509D01*
X135424959Y-91208833D01*
X135276276Y-91205442D01*
X135256017Y-91207022D01*
X135155554Y-91225138D01*
X135093231Y-91272308D01*
X135036806Y-91370796D01*
X135025086Y-91396412D01*
X134997995Y-91476294D01*
X134977516Y-91579947D01*
X134961984Y-91720966D01*
X134949738Y-91912948D01*
X134939113Y-92169487D01*
X134916308Y-92814767D01*
X134779538Y-92850513D01*
X134706205Y-92868874D01*
X134561540Y-92903117D01*
X134408308Y-92937715D01*
X134305303Y-92957794D01*
X134142693Y-92981679D01*
X134011516Y-92992278D01*
X133849187Y-92995385D01*
X133835670Y-92456259D01*
X133829280Y-92255201D01*
X133819030Y-92079655D01*
X133804130Y-91956548D01*
X133782803Y-91871996D01*
X133753275Y-91812111D01*
X133694326Y-91743486D01*
X133571678Y-91678460D01*
X133436485Y-91677448D01*
X133306678Y-91738862D01*
X133200188Y-91861112D01*
X133198856Y-91863403D01*
X133165213Y-91932244D01*
X133142653Y-92012184D01*
X133129026Y-92119974D01*
X133122182Y-92272371D01*
X133119970Y-92486128D01*
X133118769Y-92975846D01*
X132962461Y-92985813D01*
X132910532Y-92985478D01*
X132773060Y-92971877D01*
X132599539Y-92944727D01*
X132415384Y-92907659D01*
X132024615Y-92819539D01*
X132023746Y-92174769D01*
X132022984Y-91998940D01*
X132019432Y-91794153D01*
X132011913Y-91645281D01*
X131999221Y-91539039D01*
X131980149Y-91462147D01*
X131953490Y-91401321D01*
X131927393Y-91366698D01*
X134506000Y-91366698D01*
X134506001Y-91367137D01*
X134528500Y-91393136D01*
X134592635Y-91357915D01*
X134694406Y-91263662D01*
X134732725Y-91221935D01*
X134786901Y-91150517D01*
X134798713Y-91112816D01*
X134794324Y-91111213D01*
X134748303Y-91133212D01*
X134674795Y-91188552D01*
X134595464Y-91258441D01*
X134531977Y-91324087D01*
X134506000Y-91366698D01*
X131927393Y-91366698D01*
X131882703Y-91307409D01*
X131756451Y-91226154D01*
X131614291Y-91200735D01*
X131510757Y-91225550D01*
X131476704Y-91233712D01*
X131364171Y-91327648D01*
X131349166Y-91348993D01*
X131319361Y-91406174D01*
X131298674Y-91481003D01*
X131284829Y-91588608D01*
X131275547Y-91744114D01*
X131268550Y-91962648D01*
X131260487Y-92184096D01*
X131247999Y-92355032D01*
X131231285Y-92454905D01*
X131209935Y-92487379D01*
X131208706Y-92487308D01*
X131155375Y-92466936D01*
X131049902Y-92415491D01*
X130906985Y-92340443D01*
X130741324Y-92249261D01*
X130646294Y-92195183D01*
X130482871Y-92096392D01*
X130372893Y-92018199D01*
X130304595Y-91951654D01*
X130266210Y-91887805D01*
X130265519Y-91886126D01*
X130242771Y-91792139D01*
X130227075Y-91636741D01*
X130218065Y-91414427D01*
X130216157Y-91205173D01*
X130841724Y-91205173D01*
X130850548Y-91224457D01*
X130904049Y-91265633D01*
X130962211Y-91250763D01*
X130981895Y-91225550D01*
X130977962Y-91177674D01*
X130907667Y-91158769D01*
X130860986Y-91168302D01*
X130841724Y-91205173D01*
X130216157Y-91205173D01*
X130215377Y-91119692D01*
X131770615Y-91119692D01*
X131771063Y-91128536D01*
X131787848Y-91158769D01*
X131794116Y-91156971D01*
X131829231Y-91119692D01*
X131835337Y-91104555D01*
X131811998Y-91080616D01*
X131800656Y-91082117D01*
X131770615Y-91119692D01*
X130215377Y-91119692D01*
X130213884Y-90949692D01*
X134587339Y-90949692D01*
X134602085Y-90999862D01*
X134622353Y-91019541D01*
X134693921Y-91040296D01*
X134719692Y-91038879D01*
X134733604Y-91024442D01*
X134684699Y-90982084D01*
X134672295Y-90974788D01*
X134927260Y-90974788D01*
X134969347Y-91024442D01*
X134991611Y-91050709D01*
X135022435Y-91069378D01*
X135060436Y-91072140D01*
X135112309Y-91039648D01*
X135199615Y-90962790D01*
X135285988Y-90875720D01*
X135319308Y-90811924D01*
X135285197Y-90777993D01*
X135183154Y-90768000D01*
X135091994Y-90778064D01*
X134987191Y-90824090D01*
X134952806Y-90865692D01*
X134929033Y-90894456D01*
X134927260Y-90974788D01*
X134672295Y-90974788D01*
X134623785Y-90946255D01*
X134587339Y-90949692D01*
X130213884Y-90949692D01*
X130213306Y-90883887D01*
X130212472Y-90865692D01*
X131731538Y-90865692D01*
X131751077Y-90885231D01*
X131770615Y-90865692D01*
X131751077Y-90846154D01*
X131731538Y-90865692D01*
X130212472Y-90865692D01*
X130197287Y-90534453D01*
X130192447Y-90493484D01*
X130955337Y-90493484D01*
X130964512Y-90548568D01*
X131028154Y-90572616D01*
X131073579Y-90579943D01*
X131106308Y-90611692D01*
X131107443Y-90621033D01*
X131145384Y-90650769D01*
X131162640Y-90650351D01*
X131180631Y-90639080D01*
X131173841Y-90596292D01*
X131159313Y-90553077D01*
X135639231Y-90553077D01*
X135658769Y-90572616D01*
X135678308Y-90553077D01*
X135658769Y-90533539D01*
X135639231Y-90553077D01*
X131159313Y-90553077D01*
X131141759Y-90500858D01*
X131116412Y-90437913D01*
X131079575Y-90401830D01*
X131024528Y-90418248D01*
X131001230Y-90432955D01*
X130955337Y-90493484D01*
X130192447Y-90493484D01*
X130161848Y-90234454D01*
X130145931Y-90162308D01*
X131145384Y-90162308D01*
X131164923Y-90181846D01*
X131184461Y-90162308D01*
X136147231Y-90162308D01*
X136166769Y-90181846D01*
X136186308Y-90162308D01*
X136166769Y-90142769D01*
X136147231Y-90162308D01*
X131184461Y-90162308D01*
X131164923Y-90142769D01*
X131145384Y-90162308D01*
X130145931Y-90162308D01*
X130137818Y-90125537D01*
X134623231Y-90125537D01*
X134624247Y-90129437D01*
X134662308Y-90142769D01*
X134673018Y-90141179D01*
X134701384Y-90101386D01*
X134698316Y-90087252D01*
X134662308Y-90084154D01*
X134650613Y-90092174D01*
X134623231Y-90125537D01*
X130137818Y-90125537D01*
X130119306Y-90041628D01*
X135217087Y-90041628D01*
X135246256Y-90085929D01*
X135309157Y-90097074D01*
X135349544Y-90084154D01*
X136030000Y-90084154D01*
X136047232Y-90101386D01*
X136049538Y-90103692D01*
X136069077Y-90084154D01*
X136049538Y-90064616D01*
X136030000Y-90084154D01*
X135349544Y-90084154D01*
X135375977Y-90075698D01*
X135416902Y-90022440D01*
X135423196Y-89991216D01*
X135411887Y-89966138D01*
X136194656Y-89966138D01*
X136197186Y-89991216D01*
X136199333Y-90012513D01*
X136211087Y-90018626D01*
X136225384Y-89986462D01*
X136222564Y-89965774D01*
X136199333Y-89960410D01*
X136194656Y-89966138D01*
X135411887Y-89966138D01*
X135406960Y-89955213D01*
X135333662Y-89954853D01*
X135261174Y-89978334D01*
X135218283Y-90026685D01*
X135217087Y-90041628D01*
X130119306Y-90041628D01*
X130102722Y-89966462D01*
X130015642Y-89713046D01*
X129946190Y-89563858D01*
X130978952Y-89563858D01*
X131057962Y-89642869D01*
X131070744Y-89654362D01*
X131170940Y-89712092D01*
X131293142Y-89750437D01*
X131387937Y-89763843D01*
X131433023Y-89754533D01*
X131437107Y-89716651D01*
X131431926Y-89687388D01*
X131421913Y-89606362D01*
X131394040Y-89556620D01*
X131324208Y-89496358D01*
X131269283Y-89466392D01*
X132951416Y-89466392D01*
X132986841Y-89606990D01*
X133056518Y-89716651D01*
X133068034Y-89734777D01*
X133196287Y-89863430D01*
X133317950Y-89944134D01*
X133487766Y-89987213D01*
X133654559Y-89961053D01*
X133803467Y-89868735D01*
X133919631Y-89713345D01*
X133965022Y-89603557D01*
X133991864Y-89439435D01*
X134839132Y-89439435D01*
X134845027Y-89501820D01*
X134848916Y-89510164D01*
X134894503Y-89548529D01*
X134948714Y-89554509D01*
X134974923Y-89522323D01*
X134974425Y-89516171D01*
X134950074Y-89475174D01*
X135834615Y-89475174D01*
X135853974Y-89522323D01*
X135859517Y-89535824D01*
X135932483Y-89590480D01*
X136020231Y-89604775D01*
X136090822Y-89581406D01*
X136098592Y-89536504D01*
X136035651Y-89464037D01*
X136013099Y-89447487D01*
X135935445Y-89423148D01*
X135865199Y-89432973D01*
X135834615Y-89475174D01*
X134950074Y-89475174D01*
X134943872Y-89464733D01*
X134890098Y-89425321D01*
X134847020Y-89424006D01*
X134844010Y-89429893D01*
X134839132Y-89439435D01*
X133991864Y-89439435D01*
X133993425Y-89429893D01*
X133985887Y-89353550D01*
X135053318Y-89353550D01*
X135080856Y-89361231D01*
X135115746Y-89347710D01*
X135175292Y-89292846D01*
X135201385Y-89258638D01*
X135203913Y-89245034D01*
X135150769Y-89281789D01*
X135097046Y-89320990D01*
X135056333Y-89350173D01*
X135053318Y-89353550D01*
X133985887Y-89353550D01*
X133973713Y-89230243D01*
X133939010Y-89106445D01*
X137015272Y-89106445D01*
X137019949Y-89152821D01*
X137031702Y-89158934D01*
X137046000Y-89126769D01*
X137043180Y-89106082D01*
X137019949Y-89100718D01*
X137015272Y-89106445D01*
X133939010Y-89106445D01*
X133911198Y-89007232D01*
X134545077Y-89007232D01*
X134549111Y-89028875D01*
X134588607Y-89068482D01*
X134637319Y-89060579D01*
X134647928Y-89048412D01*
X134657585Y-88994460D01*
X134603692Y-88970462D01*
X134576762Y-88974599D01*
X134545077Y-89007232D01*
X133911198Y-89007232D01*
X133905548Y-88987075D01*
X133803280Y-88709702D01*
X133753146Y-88599231D01*
X134349692Y-88599231D01*
X134369231Y-88618769D01*
X134388769Y-88599231D01*
X134369231Y-88579692D01*
X134349692Y-88599231D01*
X133753146Y-88599231D01*
X133701364Y-88485127D01*
X133605639Y-88332891D01*
X133514381Y-88250291D01*
X133425866Y-88234621D01*
X133420568Y-88235729D01*
X133383056Y-88251452D01*
X133346702Y-88287549D01*
X133305880Y-88354615D01*
X133254963Y-88463246D01*
X133188324Y-88624037D01*
X133100335Y-88847583D01*
X133012699Y-89092054D01*
X132960466Y-89299305D01*
X132956053Y-89380769D01*
X132951416Y-89466392D01*
X131269283Y-89466392D01*
X131256301Y-89459309D01*
X131194242Y-89458994D01*
X131104223Y-89499078D01*
X130978952Y-89563858D01*
X129946190Y-89563858D01*
X129896340Y-89456776D01*
X129853523Y-89380769D01*
X131106308Y-89380769D01*
X131125846Y-89400308D01*
X131145384Y-89380769D01*
X131125846Y-89361231D01*
X131106308Y-89380769D01*
X129853523Y-89380769D01*
X129740550Y-89180223D01*
X129620253Y-88979676D01*
X129918474Y-88838051D01*
X130216696Y-88696427D01*
X130420175Y-88812846D01*
X130431700Y-88819386D01*
X130713316Y-88943420D01*
X130990732Y-88993252D01*
X131275572Y-88971030D01*
X131477341Y-88918482D01*
X131787653Y-88777321D01*
X132054646Y-88573106D01*
X132276445Y-88308282D01*
X132451178Y-87985293D01*
X132576973Y-87606584D01*
X132651956Y-87174598D01*
X132656401Y-87134093D01*
X132675580Y-87009827D01*
X132679883Y-86998518D01*
X134299526Y-86998518D01*
X134305852Y-87340638D01*
X134365660Y-87661385D01*
X134408753Y-87791002D01*
X134543192Y-88078136D01*
X134719308Y-88345796D01*
X134925043Y-88579380D01*
X134949015Y-88599231D01*
X135148337Y-88764289D01*
X135377128Y-88885920D01*
X135694469Y-88970893D01*
X136000536Y-88981908D01*
X136288733Y-88916881D01*
X136558404Y-88775960D01*
X136604602Y-88736000D01*
X137397692Y-88736000D01*
X137404305Y-88753977D01*
X137456308Y-88775077D01*
X137483272Y-88770668D01*
X137514923Y-88736000D01*
X137508310Y-88718024D01*
X137456308Y-88696923D01*
X137429343Y-88701332D01*
X137397692Y-88736000D01*
X136604602Y-88736000D01*
X136808895Y-88559294D01*
X136844034Y-88521397D01*
X137016082Y-88301096D01*
X137073897Y-88188795D01*
X137535919Y-88188795D01*
X137541238Y-88225409D01*
X137572016Y-88191387D01*
X137572190Y-88191110D01*
X137625391Y-88167943D01*
X137716355Y-88170450D01*
X137777175Y-88174340D01*
X137820018Y-88151109D01*
X137800193Y-88105543D01*
X137717549Y-88052657D01*
X137666053Y-88014319D01*
X137629516Y-87915888D01*
X137623990Y-87886502D01*
X137605080Y-87913804D01*
X137599257Y-87932617D01*
X137574356Y-88013077D01*
X137564361Y-88052154D01*
X137556016Y-88084787D01*
X137535919Y-88188795D01*
X137073897Y-88188795D01*
X137136267Y-88067646D01*
X137141013Y-88052154D01*
X137436769Y-88052154D01*
X137456308Y-88071692D01*
X137475846Y-88052154D01*
X137456308Y-88032616D01*
X137436769Y-88052154D01*
X137141013Y-88052154D01*
X137170232Y-87956768D01*
X137436769Y-87956768D01*
X137437888Y-87965492D01*
X137475846Y-87993539D01*
X137494521Y-87986083D01*
X137514923Y-87932617D01*
X137509300Y-87904705D01*
X137475846Y-87895846D01*
X137465174Y-87903845D01*
X137436769Y-87956768D01*
X137170232Y-87956768D01*
X137199259Y-87862010D01*
X137873527Y-87862010D01*
X137905692Y-87876308D01*
X137926379Y-87873488D01*
X137931743Y-87850257D01*
X137926016Y-87845580D01*
X137879641Y-87850257D01*
X137873527Y-87862010D01*
X137199259Y-87862010D01*
X137221435Y-87789615D01*
X137231708Y-87739539D01*
X137632154Y-87739539D01*
X137651692Y-87759077D01*
X137671231Y-87739539D01*
X137651692Y-87720000D01*
X137632154Y-87739539D01*
X137231708Y-87739539D01*
X137246840Y-87665781D01*
X137278274Y-87272436D01*
X137258416Y-87090765D01*
X137602388Y-87090765D01*
X137603543Y-87177341D01*
X137610449Y-87212000D01*
X137633284Y-87180601D01*
X137649293Y-87104594D01*
X137653456Y-87018447D01*
X137646073Y-86980083D01*
X138345119Y-86980083D01*
X138355077Y-87016616D01*
X138356348Y-87018447D01*
X138363105Y-87028183D01*
X138398766Y-87055692D01*
X138404111Y-87053148D01*
X138394154Y-87016616D01*
X138386125Y-87005048D01*
X138350464Y-86977539D01*
X138345119Y-86980083D01*
X137646073Y-86980083D01*
X137641567Y-86956669D01*
X137632754Y-86944595D01*
X137613445Y-86961743D01*
X137603445Y-87055839D01*
X137602388Y-87090765D01*
X137258416Y-87090765D01*
X137236268Y-86888152D01*
X137123360Y-86522129D01*
X137057578Y-86399266D01*
X137244339Y-86399266D01*
X137264554Y-86469874D01*
X137283800Y-86510489D01*
X137308896Y-86526212D01*
X137347007Y-86473724D01*
X137354618Y-86461158D01*
X137364330Y-86430462D01*
X137983846Y-86430462D01*
X137990459Y-86448438D01*
X138042461Y-86469539D01*
X138069426Y-86465130D01*
X138083239Y-86450000D01*
X138140154Y-86450000D01*
X138159692Y-86469539D01*
X138179231Y-86450000D01*
X138159692Y-86430462D01*
X138140154Y-86450000D01*
X138083239Y-86450000D01*
X138101077Y-86430462D01*
X138094464Y-86412485D01*
X138042461Y-86391385D01*
X138015497Y-86395793D01*
X138006928Y-86405178D01*
X137983846Y-86430462D01*
X137364330Y-86430462D01*
X137372329Y-86405178D01*
X137331645Y-86374402D01*
X137297800Y-86365152D01*
X137249191Y-86370552D01*
X137244339Y-86399266D01*
X137057578Y-86399266D01*
X137032436Y-86352308D01*
X137534461Y-86352308D01*
X137542460Y-86362980D01*
X137595383Y-86391385D01*
X137604107Y-86390266D01*
X137632154Y-86352308D01*
X137624698Y-86333633D01*
X137571232Y-86313231D01*
X137543320Y-86318854D01*
X137534461Y-86352308D01*
X137032436Y-86352308D01*
X136942089Y-86183565D01*
X136694993Y-85881657D01*
X136687706Y-85874378D01*
X136621987Y-85821070D01*
X138001843Y-85821070D01*
X138002327Y-85881673D01*
X138011733Y-85894968D01*
X138071286Y-85919079D01*
X138150008Y-85867948D01*
X138203903Y-85837943D01*
X138309107Y-85833426D01*
X138318977Y-85835221D01*
X138392642Y-85834419D01*
X138413692Y-85791623D01*
X138408338Y-85759224D01*
X138358754Y-85698474D01*
X138283740Y-85677595D01*
X138216758Y-85709845D01*
X138216150Y-85710138D01*
X138179905Y-85740225D01*
X138117212Y-85750717D01*
X138108278Y-85748160D01*
X138046566Y-85765844D01*
X138001843Y-85821070D01*
X136621987Y-85821070D01*
X136483766Y-85708953D01*
X137535138Y-85708953D01*
X137575737Y-85742052D01*
X137625003Y-85759426D01*
X137663813Y-85757398D01*
X137671231Y-85709845D01*
X137662321Y-85662725D01*
X137617572Y-85629842D01*
X137557430Y-85664328D01*
X137535138Y-85708953D01*
X136483766Y-85708953D01*
X136425269Y-85661503D01*
X136143627Y-85518471D01*
X135851955Y-85444431D01*
X135559428Y-85438532D01*
X135275221Y-85499924D01*
X135008508Y-85627754D01*
X134768464Y-85821171D01*
X134564265Y-86079325D01*
X134436250Y-86338402D01*
X134343916Y-86657087D01*
X134299526Y-86998518D01*
X132679883Y-86998518D01*
X132708620Y-86922993D01*
X132770861Y-86844374D01*
X132877644Y-86744752D01*
X133032807Y-86601187D01*
X133267380Y-86371409D01*
X133521927Y-86110699D01*
X133780841Y-85835703D01*
X134028512Y-85563069D01*
X134249332Y-85309447D01*
X134303005Y-85243856D01*
X137170143Y-85243856D01*
X137202308Y-85258154D01*
X137222995Y-85255334D01*
X137228359Y-85232103D01*
X137222631Y-85227426D01*
X137176256Y-85232103D01*
X137170143Y-85243856D01*
X134303005Y-85243856D01*
X134427692Y-85091483D01*
X134443677Y-85071294D01*
X134527352Y-84975474D01*
X134590024Y-84919800D01*
X134619167Y-84915769D01*
X134673637Y-84989207D01*
X134769769Y-85023094D01*
X134796719Y-85003369D01*
X135022349Y-85003369D01*
X135027026Y-85049744D01*
X135038779Y-85055857D01*
X135053077Y-85023692D01*
X135050257Y-85003005D01*
X135027026Y-84997641D01*
X135022349Y-85003369D01*
X134796719Y-85003369D01*
X134807256Y-84995657D01*
X134817277Y-84927535D01*
X134799484Y-84850662D01*
X134755849Y-84797066D01*
X134744590Y-84788309D01*
X134737149Y-84757794D01*
X134756970Y-84703602D01*
X134809352Y-84616322D01*
X134849922Y-84557976D01*
X137163231Y-84557976D01*
X137163298Y-84559337D01*
X137193052Y-84565503D01*
X137260621Y-84531835D01*
X137330094Y-84500133D01*
X137407434Y-84491482D01*
X137456826Y-84511509D01*
X137454832Y-84557157D01*
X137439171Y-84572912D01*
X137377058Y-84579295D01*
X137349037Y-84575482D01*
X137285904Y-84606826D01*
X137274919Y-84628149D01*
X137303967Y-84648422D01*
X137400278Y-84654238D01*
X137432866Y-84654107D01*
X137519320Y-84652118D01*
X137554000Y-84648494D01*
X137551722Y-84640436D01*
X137531405Y-84579883D01*
X137496875Y-84480840D01*
X137483998Y-84440748D01*
X137460156Y-84328640D01*
X137460749Y-84251235D01*
X137468699Y-84224925D01*
X137469827Y-84205323D01*
X137437778Y-84251923D01*
X137386724Y-84295437D01*
X137293501Y-84320308D01*
X137266939Y-84321023D01*
X137213188Y-84340267D01*
X137213620Y-84398423D01*
X137218856Y-84447880D01*
X137198639Y-84498421D01*
X137191468Y-84503635D01*
X137163231Y-84557976D01*
X134849922Y-84557976D01*
X134899592Y-84486544D01*
X135032991Y-84304858D01*
X135175766Y-84107691D01*
X135248461Y-84107691D01*
X135248842Y-84113154D01*
X135271462Y-84121759D01*
X135310808Y-84079809D01*
X135320316Y-84057971D01*
X135293576Y-84062576D01*
X135276217Y-84074639D01*
X135248461Y-84107691D01*
X135175766Y-84107691D01*
X135182730Y-84098074D01*
X135340844Y-83870923D01*
X135404769Y-83870923D01*
X135424308Y-83890462D01*
X135443846Y-83870923D01*
X135424308Y-83851385D01*
X135404769Y-83870923D01*
X135340844Y-83870923D01*
X135349846Y-83857991D01*
X135420978Y-83752162D01*
X136842772Y-83752162D01*
X136848173Y-83786419D01*
X136867179Y-83812958D01*
X136883006Y-83870923D01*
X136889692Y-83895415D01*
X136890330Y-83902596D01*
X136930172Y-83965499D01*
X137012927Y-84024369D01*
X137050494Y-84042495D01*
X137090663Y-84057971D01*
X137147847Y-84080003D01*
X137189391Y-84077617D01*
X137169651Y-84034967D01*
X137149967Y-83995243D01*
X137147199Y-83907967D01*
X137152934Y-83876978D01*
X137132279Y-83779508D01*
X137055260Y-83722675D01*
X136935930Y-83719045D01*
X136908675Y-83725015D01*
X136842772Y-83752162D01*
X135420978Y-83752162D01*
X135509891Y-83619880D01*
X135587125Y-83499692D01*
X136518461Y-83499692D01*
X136526482Y-83511387D01*
X136559845Y-83538769D01*
X136563744Y-83537753D01*
X136577077Y-83499692D01*
X136575487Y-83488982D01*
X136535694Y-83460616D01*
X136521560Y-83463684D01*
X136518461Y-83499692D01*
X135587125Y-83499692D01*
X135642436Y-83413619D01*
X135661505Y-83382929D01*
X135761130Y-83223466D01*
X135844399Y-83091596D01*
X135903077Y-83000288D01*
X135928927Y-82962509D01*
X135941337Y-82960529D01*
X136010298Y-82983420D01*
X136125025Y-83037857D01*
X136271881Y-83116151D01*
X136437225Y-83210618D01*
X136607420Y-83313570D01*
X136768826Y-83417321D01*
X136887012Y-83499692D01*
G36*
X136887012Y-83499692D02*
G01*
X136907805Y-83514184D01*
X137073713Y-83643506D01*
X137377502Y-83914038D01*
X137536486Y-84077617D01*
X137669898Y-84214886D01*
X137936372Y-84529540D01*
X138022560Y-84648494D01*
X138162394Y-84841489D01*
X138268854Y-85023692D01*
X138333435Y-85134222D01*
X138372592Y-85217621D01*
X138378740Y-85232103D01*
X138447540Y-85394166D01*
X138527082Y-85597583D01*
X138596982Y-85791623D01*
X138599470Y-85798530D01*
X138606231Y-85818340D01*
X138661462Y-85984945D01*
X138699320Y-86118099D01*
X138723149Y-86240123D01*
X138734218Y-86352308D01*
X138736292Y-86373336D01*
X138738960Y-86450000D01*
X138742094Y-86540061D01*
X138743897Y-86762616D01*
X138744175Y-86842551D01*
X138743148Y-87008718D01*
X138740946Y-87053148D01*
X138736077Y-87151445D01*
X138719304Y-87272436D01*
X138718402Y-87278943D01*
X138685566Y-87399423D01*
X138633009Y-87521096D01*
X138556172Y-87652173D01*
X138494081Y-87739539D01*
X138450498Y-87800865D01*
X138411137Y-87850257D01*
X138311426Y-87975383D01*
X138162262Y-88151109D01*
X138134397Y-88183937D01*
X137914854Y-88434740D01*
X137648237Y-88736000D01*
X137610074Y-88779310D01*
X137429896Y-88994460D01*
X137398953Y-89031409D01*
X137329300Y-89126769D01*
X137242917Y-89245034D01*
X137234467Y-89256603D01*
X137104720Y-89474509D01*
X137075934Y-89536504D01*
X136997819Y-89704744D01*
X136901868Y-89966923D01*
X136895391Y-89986462D01*
X136895169Y-89987134D01*
X136863726Y-90084154D01*
X136845814Y-90139426D01*
X136839238Y-90162308D01*
X136809798Y-90264760D01*
X136784694Y-90380653D01*
X136768073Y-90504621D01*
X136764650Y-90553077D01*
X136758576Y-90639080D01*
X136757510Y-90654183D01*
X136751833Y-90811924D01*
X136750577Y-90846855D01*
X136744846Y-91100154D01*
X136744742Y-91104555D01*
X136744547Y-91112816D01*
X136740086Y-91302134D01*
X136733641Y-91514708D01*
X136726715Y-91691919D01*
X136719875Y-91819506D01*
X136713689Y-91883209D01*
X136711180Y-91889908D01*
X136660952Y-91943960D01*
X136559683Y-92022587D01*
X136422720Y-92116092D01*
X136265408Y-92214777D01*
X136103095Y-92308944D01*
X135951125Y-92388894D01*
X135824846Y-92444929D01*
X135717384Y-92485450D01*
X135717384Y-92013631D01*
X135716798Y-91923900D01*
X135704645Y-91662165D01*
X135673583Y-91467483D01*
X135619414Y-91332162D01*
X135537939Y-91248509D01*
X135424959Y-91208833D01*
X135276276Y-91205442D01*
X135256017Y-91207022D01*
X135155554Y-91225138D01*
X135093231Y-91272308D01*
X135036806Y-91370796D01*
X135025086Y-91396412D01*
X134997995Y-91476294D01*
X134977516Y-91579947D01*
X134961984Y-91720966D01*
X134949738Y-91912948D01*
X134939113Y-92169487D01*
X134916308Y-92814767D01*
X134779538Y-92850513D01*
X134706205Y-92868874D01*
X134561540Y-92903117D01*
X134408308Y-92937715D01*
X134305303Y-92957794D01*
X134142693Y-92981679D01*
X134011516Y-92992278D01*
X133849187Y-92995385D01*
X133835670Y-92456259D01*
X133829280Y-92255201D01*
X133819030Y-92079655D01*
X133804130Y-91956548D01*
X133782803Y-91871996D01*
X133753275Y-91812111D01*
X133694326Y-91743486D01*
X133571678Y-91678460D01*
X133436485Y-91677448D01*
X133306678Y-91738862D01*
X133200188Y-91861112D01*
X133198856Y-91863403D01*
X133165213Y-91932244D01*
X133142653Y-92012184D01*
X133129026Y-92119974D01*
X133122182Y-92272371D01*
X133119970Y-92486128D01*
X133118769Y-92975846D01*
X132962461Y-92985813D01*
X132910532Y-92985478D01*
X132773060Y-92971877D01*
X132599539Y-92944727D01*
X132415384Y-92907659D01*
X132024615Y-92819539D01*
X132023746Y-92174769D01*
X132022984Y-91998940D01*
X132019432Y-91794153D01*
X132011913Y-91645281D01*
X131999221Y-91539039D01*
X131980149Y-91462147D01*
X131953490Y-91401321D01*
X131927393Y-91366698D01*
X134506000Y-91366698D01*
X134506001Y-91367137D01*
X134528500Y-91393136D01*
X134592635Y-91357915D01*
X134694406Y-91263662D01*
X134732725Y-91221935D01*
X134786901Y-91150517D01*
X134798713Y-91112816D01*
X134794324Y-91111213D01*
X134748303Y-91133212D01*
X134674795Y-91188552D01*
X134595464Y-91258441D01*
X134531977Y-91324087D01*
X134506000Y-91366698D01*
X131927393Y-91366698D01*
X131882703Y-91307409D01*
X131756451Y-91226154D01*
X131614291Y-91200735D01*
X131510757Y-91225550D01*
X131476704Y-91233712D01*
X131364171Y-91327648D01*
X131349166Y-91348993D01*
X131319361Y-91406174D01*
X131298674Y-91481003D01*
X131284829Y-91588608D01*
X131275547Y-91744114D01*
X131268550Y-91962648D01*
X131260487Y-92184096D01*
X131247999Y-92355032D01*
X131231285Y-92454905D01*
X131209935Y-92487379D01*
X131208706Y-92487308D01*
X131155375Y-92466936D01*
X131049902Y-92415491D01*
X130906985Y-92340443D01*
X130741324Y-92249261D01*
X130646294Y-92195183D01*
X130482871Y-92096392D01*
X130372893Y-92018199D01*
X130304595Y-91951654D01*
X130266210Y-91887805D01*
X130265519Y-91886126D01*
X130242771Y-91792139D01*
X130227075Y-91636741D01*
X130218065Y-91414427D01*
X130216157Y-91205173D01*
X130841724Y-91205173D01*
X130850548Y-91224457D01*
X130904049Y-91265633D01*
X130962211Y-91250763D01*
X130981895Y-91225550D01*
X130977962Y-91177674D01*
X130907667Y-91158769D01*
X130860986Y-91168302D01*
X130841724Y-91205173D01*
X130216157Y-91205173D01*
X130215377Y-91119692D01*
X131770615Y-91119692D01*
X131771063Y-91128536D01*
X131787848Y-91158769D01*
X131794116Y-91156971D01*
X131829231Y-91119692D01*
X131835337Y-91104555D01*
X131811998Y-91080616D01*
X131800656Y-91082117D01*
X131770615Y-91119692D01*
X130215377Y-91119692D01*
X130213884Y-90949692D01*
X134587339Y-90949692D01*
X134602085Y-90999862D01*
X134622353Y-91019541D01*
X134693921Y-91040296D01*
X134719692Y-91038879D01*
X134733604Y-91024442D01*
X134684699Y-90982084D01*
X134672295Y-90974788D01*
X134927260Y-90974788D01*
X134969347Y-91024442D01*
X134991611Y-91050709D01*
X135022435Y-91069378D01*
X135060436Y-91072140D01*
X135112309Y-91039648D01*
X135199615Y-90962790D01*
X135285988Y-90875720D01*
X135319308Y-90811924D01*
X135285197Y-90777993D01*
X135183154Y-90768000D01*
X135091994Y-90778064D01*
X134987191Y-90824090D01*
X134952806Y-90865692D01*
X134929033Y-90894456D01*
X134927260Y-90974788D01*
X134672295Y-90974788D01*
X134623785Y-90946255D01*
X134587339Y-90949692D01*
X130213884Y-90949692D01*
X130213306Y-90883887D01*
X130212472Y-90865692D01*
X131731538Y-90865692D01*
X131751077Y-90885231D01*
X131770615Y-90865692D01*
X131751077Y-90846154D01*
X131731538Y-90865692D01*
X130212472Y-90865692D01*
X130197287Y-90534453D01*
X130192447Y-90493484D01*
X130955337Y-90493484D01*
X130964512Y-90548568D01*
X131028154Y-90572616D01*
X131073579Y-90579943D01*
X131106308Y-90611692D01*
X131107443Y-90621033D01*
X131145384Y-90650769D01*
X131162640Y-90650351D01*
X131180631Y-90639080D01*
X131173841Y-90596292D01*
X131159313Y-90553077D01*
X135639231Y-90553077D01*
X135658769Y-90572616D01*
X135678308Y-90553077D01*
X135658769Y-90533539D01*
X135639231Y-90553077D01*
X131159313Y-90553077D01*
X131141759Y-90500858D01*
X131116412Y-90437913D01*
X131079575Y-90401830D01*
X131024528Y-90418248D01*
X131001230Y-90432955D01*
X130955337Y-90493484D01*
X130192447Y-90493484D01*
X130161848Y-90234454D01*
X130145931Y-90162308D01*
X131145384Y-90162308D01*
X131164923Y-90181846D01*
X131184461Y-90162308D01*
X136147231Y-90162308D01*
X136166769Y-90181846D01*
X136186308Y-90162308D01*
X136166769Y-90142769D01*
X136147231Y-90162308D01*
X131184461Y-90162308D01*
X131164923Y-90142769D01*
X131145384Y-90162308D01*
X130145931Y-90162308D01*
X130137818Y-90125537D01*
X134623231Y-90125537D01*
X134624247Y-90129437D01*
X134662308Y-90142769D01*
X134673018Y-90141179D01*
X134701384Y-90101386D01*
X134698316Y-90087252D01*
X134662308Y-90084154D01*
X134650613Y-90092174D01*
X134623231Y-90125537D01*
X130137818Y-90125537D01*
X130119306Y-90041628D01*
X135217087Y-90041628D01*
X135246256Y-90085929D01*
X135309157Y-90097074D01*
X135349544Y-90084154D01*
X136030000Y-90084154D01*
X136047232Y-90101386D01*
X136049538Y-90103692D01*
X136069077Y-90084154D01*
X136049538Y-90064616D01*
X136030000Y-90084154D01*
X135349544Y-90084154D01*
X135375977Y-90075698D01*
X135416902Y-90022440D01*
X135423196Y-89991216D01*
X135411887Y-89966138D01*
X136194656Y-89966138D01*
X136197186Y-89991216D01*
X136199333Y-90012513D01*
X136211087Y-90018626D01*
X136225384Y-89986462D01*
X136222564Y-89965774D01*
X136199333Y-89960410D01*
X136194656Y-89966138D01*
X135411887Y-89966138D01*
X135406960Y-89955213D01*
X135333662Y-89954853D01*
X135261174Y-89978334D01*
X135218283Y-90026685D01*
X135217087Y-90041628D01*
X130119306Y-90041628D01*
X130102722Y-89966462D01*
X130015642Y-89713046D01*
X129946190Y-89563858D01*
X130978952Y-89563858D01*
X131057962Y-89642869D01*
X131070744Y-89654362D01*
X131170940Y-89712092D01*
X131293142Y-89750437D01*
X131387937Y-89763843D01*
X131433023Y-89754533D01*
X131437107Y-89716651D01*
X131431926Y-89687388D01*
X131421913Y-89606362D01*
X131394040Y-89556620D01*
X131324208Y-89496358D01*
X131269283Y-89466392D01*
X132951416Y-89466392D01*
X132986841Y-89606990D01*
X133056518Y-89716651D01*
X133068034Y-89734777D01*
X133196287Y-89863430D01*
X133317950Y-89944134D01*
X133487766Y-89987213D01*
X133654559Y-89961053D01*
X133803467Y-89868735D01*
X133919631Y-89713345D01*
X133965022Y-89603557D01*
X133991864Y-89439435D01*
X134839132Y-89439435D01*
X134845027Y-89501820D01*
X134848916Y-89510164D01*
X134894503Y-89548529D01*
X134948714Y-89554509D01*
X134974923Y-89522323D01*
X134974425Y-89516171D01*
X134950074Y-89475174D01*
X135834615Y-89475174D01*
X135853974Y-89522323D01*
X135859517Y-89535824D01*
X135932483Y-89590480D01*
X136020231Y-89604775D01*
X136090822Y-89581406D01*
X136098592Y-89536504D01*
X136035651Y-89464037D01*
X136013099Y-89447487D01*
X135935445Y-89423148D01*
X135865199Y-89432973D01*
X135834615Y-89475174D01*
X134950074Y-89475174D01*
X134943872Y-89464733D01*
X134890098Y-89425321D01*
X134847020Y-89424006D01*
X134844010Y-89429893D01*
X134839132Y-89439435D01*
X133991864Y-89439435D01*
X133993425Y-89429893D01*
X133985887Y-89353550D01*
X135053318Y-89353550D01*
X135080856Y-89361231D01*
X135115746Y-89347710D01*
X135175292Y-89292846D01*
X135201385Y-89258638D01*
X135203913Y-89245034D01*
X135150769Y-89281789D01*
X135097046Y-89320990D01*
X135056333Y-89350173D01*
X135053318Y-89353550D01*
X133985887Y-89353550D01*
X133973713Y-89230243D01*
X133939010Y-89106445D01*
X137015272Y-89106445D01*
X137019949Y-89152821D01*
X137031702Y-89158934D01*
X137046000Y-89126769D01*
X137043180Y-89106082D01*
X137019949Y-89100718D01*
X137015272Y-89106445D01*
X133939010Y-89106445D01*
X133911198Y-89007232D01*
X134545077Y-89007232D01*
X134549111Y-89028875D01*
X134588607Y-89068482D01*
X134637319Y-89060579D01*
X134647928Y-89048412D01*
X134657585Y-88994460D01*
X134603692Y-88970462D01*
X134576762Y-88974599D01*
X134545077Y-89007232D01*
X133911198Y-89007232D01*
X133905548Y-88987075D01*
X133803280Y-88709702D01*
X133753146Y-88599231D01*
X134349692Y-88599231D01*
X134369231Y-88618769D01*
X134388769Y-88599231D01*
X134369231Y-88579692D01*
X134349692Y-88599231D01*
X133753146Y-88599231D01*
X133701364Y-88485127D01*
X133605639Y-88332891D01*
X133514381Y-88250291D01*
X133425866Y-88234621D01*
X133420568Y-88235729D01*
X133383056Y-88251452D01*
X133346702Y-88287549D01*
X133305880Y-88354615D01*
X133254963Y-88463246D01*
X133188324Y-88624037D01*
X133100335Y-88847583D01*
X133012699Y-89092054D01*
X132960466Y-89299305D01*
X132956053Y-89380769D01*
X132951416Y-89466392D01*
X131269283Y-89466392D01*
X131256301Y-89459309D01*
X131194242Y-89458994D01*
X131104223Y-89499078D01*
X130978952Y-89563858D01*
X129946190Y-89563858D01*
X129896340Y-89456776D01*
X129853523Y-89380769D01*
X131106308Y-89380769D01*
X131125846Y-89400308D01*
X131145384Y-89380769D01*
X131125846Y-89361231D01*
X131106308Y-89380769D01*
X129853523Y-89380769D01*
X129740550Y-89180223D01*
X129620253Y-88979676D01*
X129918474Y-88838051D01*
X130216696Y-88696427D01*
X130420175Y-88812846D01*
X130431700Y-88819386D01*
X130713316Y-88943420D01*
X130990732Y-88993252D01*
X131275572Y-88971030D01*
X131477341Y-88918482D01*
X131787653Y-88777321D01*
X132054646Y-88573106D01*
X132276445Y-88308282D01*
X132451178Y-87985293D01*
X132576973Y-87606584D01*
X132651956Y-87174598D01*
X132656401Y-87134093D01*
X132675580Y-87009827D01*
X132679883Y-86998518D01*
X134299526Y-86998518D01*
X134305852Y-87340638D01*
X134365660Y-87661385D01*
X134408753Y-87791002D01*
X134543192Y-88078136D01*
X134719308Y-88345796D01*
X134925043Y-88579380D01*
X134949015Y-88599231D01*
X135148337Y-88764289D01*
X135377128Y-88885920D01*
X135694469Y-88970893D01*
X136000536Y-88981908D01*
X136288733Y-88916881D01*
X136558404Y-88775960D01*
X136604602Y-88736000D01*
X137397692Y-88736000D01*
X137404305Y-88753977D01*
X137456308Y-88775077D01*
X137483272Y-88770668D01*
X137514923Y-88736000D01*
X137508310Y-88718024D01*
X137456308Y-88696923D01*
X137429343Y-88701332D01*
X137397692Y-88736000D01*
X136604602Y-88736000D01*
X136808895Y-88559294D01*
X136844034Y-88521397D01*
X137016082Y-88301096D01*
X137073897Y-88188795D01*
X137535919Y-88188795D01*
X137541238Y-88225409D01*
X137572016Y-88191387D01*
X137572190Y-88191110D01*
X137625391Y-88167943D01*
X137716355Y-88170450D01*
X137777175Y-88174340D01*
X137820018Y-88151109D01*
X137800193Y-88105543D01*
X137717549Y-88052657D01*
X137666053Y-88014319D01*
X137629516Y-87915888D01*
X137623990Y-87886502D01*
X137605080Y-87913804D01*
X137599257Y-87932617D01*
X137574356Y-88013077D01*
X137564361Y-88052154D01*
X137556016Y-88084787D01*
X137535919Y-88188795D01*
X137073897Y-88188795D01*
X137136267Y-88067646D01*
X137141013Y-88052154D01*
X137436769Y-88052154D01*
X137456308Y-88071692D01*
X137475846Y-88052154D01*
X137456308Y-88032616D01*
X137436769Y-88052154D01*
X137141013Y-88052154D01*
X137170232Y-87956768D01*
X137436769Y-87956768D01*
X137437888Y-87965492D01*
X137475846Y-87993539D01*
X137494521Y-87986083D01*
X137514923Y-87932617D01*
X137509300Y-87904705D01*
X137475846Y-87895846D01*
X137465174Y-87903845D01*
X137436769Y-87956768D01*
X137170232Y-87956768D01*
X137199259Y-87862010D01*
X137873527Y-87862010D01*
X137905692Y-87876308D01*
X137926379Y-87873488D01*
X137931743Y-87850257D01*
X137926016Y-87845580D01*
X137879641Y-87850257D01*
X137873527Y-87862010D01*
X137199259Y-87862010D01*
X137221435Y-87789615D01*
X137231708Y-87739539D01*
X137632154Y-87739539D01*
X137651692Y-87759077D01*
X137671231Y-87739539D01*
X137651692Y-87720000D01*
X137632154Y-87739539D01*
X137231708Y-87739539D01*
X137246840Y-87665781D01*
X137278274Y-87272436D01*
X137258416Y-87090765D01*
X137602388Y-87090765D01*
X137603543Y-87177341D01*
X137610449Y-87212000D01*
X137633284Y-87180601D01*
X137649293Y-87104594D01*
X137653456Y-87018447D01*
X137646073Y-86980083D01*
X138345119Y-86980083D01*
X138355077Y-87016616D01*
X138356348Y-87018447D01*
X138363105Y-87028183D01*
X138398766Y-87055692D01*
X138404111Y-87053148D01*
X138394154Y-87016616D01*
X138386125Y-87005048D01*
X138350464Y-86977539D01*
X138345119Y-86980083D01*
X137646073Y-86980083D01*
X137641567Y-86956669D01*
X137632754Y-86944595D01*
X137613445Y-86961743D01*
X137603445Y-87055839D01*
X137602388Y-87090765D01*
X137258416Y-87090765D01*
X137236268Y-86888152D01*
X137123360Y-86522129D01*
X137057578Y-86399266D01*
X137244339Y-86399266D01*
X137264554Y-86469874D01*
X137283800Y-86510489D01*
X137308896Y-86526212D01*
X137347007Y-86473724D01*
X137354618Y-86461158D01*
X137364330Y-86430462D01*
X137983846Y-86430462D01*
X137990459Y-86448438D01*
X138042461Y-86469539D01*
X138069426Y-86465130D01*
X138083239Y-86450000D01*
X138140154Y-86450000D01*
X138159692Y-86469539D01*
X138179231Y-86450000D01*
X138159692Y-86430462D01*
X138140154Y-86450000D01*
X138083239Y-86450000D01*
X138101077Y-86430462D01*
X138094464Y-86412485D01*
X138042461Y-86391385D01*
X138015497Y-86395793D01*
X138006928Y-86405178D01*
X137983846Y-86430462D01*
X137364330Y-86430462D01*
X137372329Y-86405178D01*
X137331645Y-86374402D01*
X137297800Y-86365152D01*
X137249191Y-86370552D01*
X137244339Y-86399266D01*
X137057578Y-86399266D01*
X137032436Y-86352308D01*
X137534461Y-86352308D01*
X137542460Y-86362980D01*
X137595383Y-86391385D01*
X137604107Y-86390266D01*
X137632154Y-86352308D01*
X137624698Y-86333633D01*
X137571232Y-86313231D01*
X137543320Y-86318854D01*
X137534461Y-86352308D01*
X137032436Y-86352308D01*
X136942089Y-86183565D01*
X136694993Y-85881657D01*
X136687706Y-85874378D01*
X136621987Y-85821070D01*
X138001843Y-85821070D01*
X138002327Y-85881673D01*
X138011733Y-85894968D01*
X138071286Y-85919079D01*
X138150008Y-85867948D01*
X138203903Y-85837943D01*
X138309107Y-85833426D01*
X138318977Y-85835221D01*
X138392642Y-85834419D01*
X138413692Y-85791623D01*
X138408338Y-85759224D01*
X138358754Y-85698474D01*
X138283740Y-85677595D01*
X138216758Y-85709845D01*
X138216150Y-85710138D01*
X138179905Y-85740225D01*
X138117212Y-85750717D01*
X138108278Y-85748160D01*
X138046566Y-85765844D01*
X138001843Y-85821070D01*
X136621987Y-85821070D01*
X136483766Y-85708953D01*
X137535138Y-85708953D01*
X137575737Y-85742052D01*
X137625003Y-85759426D01*
X137663813Y-85757398D01*
X137671231Y-85709845D01*
X137662321Y-85662725D01*
X137617572Y-85629842D01*
X137557430Y-85664328D01*
X137535138Y-85708953D01*
X136483766Y-85708953D01*
X136425269Y-85661503D01*
X136143627Y-85518471D01*
X135851955Y-85444431D01*
X135559428Y-85438532D01*
X135275221Y-85499924D01*
X135008508Y-85627754D01*
X134768464Y-85821171D01*
X134564265Y-86079325D01*
X134436250Y-86338402D01*
X134343916Y-86657087D01*
X134299526Y-86998518D01*
X132679883Y-86998518D01*
X132708620Y-86922993D01*
X132770861Y-86844374D01*
X132877644Y-86744752D01*
X133032807Y-86601187D01*
X133267380Y-86371409D01*
X133521927Y-86110699D01*
X133780841Y-85835703D01*
X134028512Y-85563069D01*
X134249332Y-85309447D01*
X134303005Y-85243856D01*
X137170143Y-85243856D01*
X137202308Y-85258154D01*
X137222995Y-85255334D01*
X137228359Y-85232103D01*
X137222631Y-85227426D01*
X137176256Y-85232103D01*
X137170143Y-85243856D01*
X134303005Y-85243856D01*
X134427692Y-85091483D01*
X134443677Y-85071294D01*
X134527352Y-84975474D01*
X134590024Y-84919800D01*
X134619167Y-84915769D01*
X134673637Y-84989207D01*
X134769769Y-85023094D01*
X134796719Y-85003369D01*
X135022349Y-85003369D01*
X135027026Y-85049744D01*
X135038779Y-85055857D01*
X135053077Y-85023692D01*
X135050257Y-85003005D01*
X135027026Y-84997641D01*
X135022349Y-85003369D01*
X134796719Y-85003369D01*
X134807256Y-84995657D01*
X134817277Y-84927535D01*
X134799484Y-84850662D01*
X134755849Y-84797066D01*
X134744590Y-84788309D01*
X134737149Y-84757794D01*
X134756970Y-84703602D01*
X134809352Y-84616322D01*
X134849922Y-84557976D01*
X137163231Y-84557976D01*
X137163298Y-84559337D01*
X137193052Y-84565503D01*
X137260621Y-84531835D01*
X137330094Y-84500133D01*
X137407434Y-84491482D01*
X137456826Y-84511509D01*
X137454832Y-84557157D01*
X137439171Y-84572912D01*
X137377058Y-84579295D01*
X137349037Y-84575482D01*
X137285904Y-84606826D01*
X137274919Y-84628149D01*
X137303967Y-84648422D01*
X137400278Y-84654238D01*
X137432866Y-84654107D01*
X137519320Y-84652118D01*
X137554000Y-84648494D01*
X137551722Y-84640436D01*
X137531405Y-84579883D01*
X137496875Y-84480840D01*
X137483998Y-84440748D01*
X137460156Y-84328640D01*
X137460749Y-84251235D01*
X137468699Y-84224925D01*
X137469827Y-84205323D01*
X137437778Y-84251923D01*
X137386724Y-84295437D01*
X137293501Y-84320308D01*
X137266939Y-84321023D01*
X137213188Y-84340267D01*
X137213620Y-84398423D01*
X137218856Y-84447880D01*
X137198639Y-84498421D01*
X137191468Y-84503635D01*
X137163231Y-84557976D01*
X134849922Y-84557976D01*
X134899592Y-84486544D01*
X135032991Y-84304858D01*
X135175766Y-84107691D01*
X135248461Y-84107691D01*
X135248842Y-84113154D01*
X135271462Y-84121759D01*
X135310808Y-84079809D01*
X135320316Y-84057971D01*
X135293576Y-84062576D01*
X135276217Y-84074639D01*
X135248461Y-84107691D01*
X135175766Y-84107691D01*
X135182730Y-84098074D01*
X135340844Y-83870923D01*
X135404769Y-83870923D01*
X135424308Y-83890462D01*
X135443846Y-83870923D01*
X135424308Y-83851385D01*
X135404769Y-83870923D01*
X135340844Y-83870923D01*
X135349846Y-83857991D01*
X135420978Y-83752162D01*
X136842772Y-83752162D01*
X136848173Y-83786419D01*
X136867179Y-83812958D01*
X136883006Y-83870923D01*
X136889692Y-83895415D01*
X136890330Y-83902596D01*
X136930172Y-83965499D01*
X137012927Y-84024369D01*
X137050494Y-84042495D01*
X137090663Y-84057971D01*
X137147847Y-84080003D01*
X137189391Y-84077617D01*
X137169651Y-84034967D01*
X137149967Y-83995243D01*
X137147199Y-83907967D01*
X137152934Y-83876978D01*
X137132279Y-83779508D01*
X137055260Y-83722675D01*
X136935930Y-83719045D01*
X136908675Y-83725015D01*
X136842772Y-83752162D01*
X135420978Y-83752162D01*
X135509891Y-83619880D01*
X135587125Y-83499692D01*
X136518461Y-83499692D01*
X136526482Y-83511387D01*
X136559845Y-83538769D01*
X136563744Y-83537753D01*
X136577077Y-83499692D01*
X136575487Y-83488982D01*
X136535694Y-83460616D01*
X136521560Y-83463684D01*
X136518461Y-83499692D01*
X135587125Y-83499692D01*
X135642436Y-83413619D01*
X135661505Y-83382929D01*
X135761130Y-83223466D01*
X135844399Y-83091596D01*
X135903077Y-83000288D01*
X135928927Y-82962509D01*
X135941337Y-82960529D01*
X136010298Y-82983420D01*
X136125025Y-83037857D01*
X136271881Y-83116151D01*
X136437225Y-83210618D01*
X136607420Y-83313570D01*
X136768826Y-83417321D01*
X136887012Y-83499692D01*
G37*
%TD*%
M02*
