%TF.GenerationSoftware,KiCad,Pcbnew,7.0.1*%
%TF.CreationDate,2023-08-30T08:14:35-05:00*%
%TF.ProjectId,Bsides-STL-Badge,42736964-6573-42d5-9354-4c2d42616467,rev?*%
%TF.SameCoordinates,Original*%
%TF.FileFunction,Profile,NP*%
%FSLAX46Y46*%
G04 Gerber Fmt 4.6, Leading zero omitted, Abs format (unit mm)*
G04 Created by KiCad (PCBNEW 7.0.1) date 2023-08-30 08:14:35*
%MOMM*%
%LPD*%
G01*
G04 APERTURE LIST*
%TA.AperFunction,Profile*%
%ADD10C,0.100000*%
%TD*%
G04 APERTURE END LIST*
D10*
X159654143Y-52872700D02*
X159535143Y-51745000D01*
X133018943Y-24537070D02*
X132059943Y-24600390D01*
X107654343Y-55260800D02*
X107575643Y-56217300D01*
X106797543Y-62652100D02*
X106740043Y-63945200D01*
X153575443Y-34992900D02*
X152917743Y-34088300D01*
X159601143Y-63630600D02*
X159626143Y-63297800D01*
X180741143Y-105249300D02*
X180442143Y-103471900D01*
X159381143Y-66566200D02*
X159310143Y-66291600D01*
X146741443Y-28199680D02*
X145922543Y-27690730D01*
X178022143Y-92927000D02*
X177532143Y-91190100D01*
X100746343Y-70975500D02*
X100044243Y-71621600D01*
X151489743Y-32352100D02*
X150718343Y-31523100D01*
X181530143Y-113796100D02*
X181422143Y-110614500D01*
X181731143Y-126527000D02*
X181710143Y-123344000D01*
X95260043Y-78080100D02*
X94598943Y-79162900D01*
X86884543Y-148943000D02*
X86889043Y-160920000D01*
X112879843Y-37691400D02*
X112408143Y-38534500D01*
X159856143Y-56264400D02*
X159814143Y-55133600D01*
X103737143Y-68599800D02*
X102970243Y-69163300D01*
X140629643Y-25424520D02*
X139699543Y-25179200D01*
X87187743Y-105326800D02*
X87043543Y-107248200D01*
X92170843Y-83833100D02*
X91812543Y-84726200D01*
X157920143Y-44015400D02*
X157570143Y-42949100D01*
X181614143Y-161550000D02*
X181599143Y-155183000D01*
X89951343Y-90187400D02*
X89437043Y-92041700D01*
X86847543Y-113010800D02*
X86890943Y-124987000D01*
X136859743Y-24672650D02*
X135902143Y-24580670D01*
X145082743Y-27219080D02*
X144223943Y-26784840D01*
X159535143Y-51745000D02*
X159389143Y-50620700D01*
X134941643Y-24527330D02*
X133980043Y-24512760D01*
X159622143Y-62977800D02*
X159716143Y-61873400D01*
X112408143Y-38534500D02*
X111960243Y-39392000D01*
X159310143Y-66291600D02*
X159281143Y-65995200D01*
X120527543Y-29029030D02*
X119742443Y-29627800D01*
X125542843Y-26146150D02*
X124659543Y-26525950D01*
X109463143Y-45717400D02*
X109193343Y-46656000D01*
X87373643Y-103408000D02*
X87187743Y-105326800D01*
X86890943Y-124987000D02*
X86894243Y-136965000D01*
X178936143Y-96418700D02*
X178491143Y-94669900D01*
X119742443Y-29627800D02*
X118985343Y-30252100D01*
X128277543Y-25246210D02*
X127353543Y-25506400D01*
X174285143Y-81378800D02*
X173997143Y-80781200D01*
X159931143Y-67219900D02*
X159799143Y-67131500D01*
X92543443Y-82945400D02*
X92543443Y-82945400D01*
X181005143Y-107032300D02*
X180741143Y-105249300D01*
X171602143Y-76832800D02*
X170805143Y-75783700D01*
X174819143Y-82597900D02*
X174559143Y-81984400D01*
X122116843Y-27906490D02*
X121310443Y-28447460D01*
X91812543Y-84726200D02*
X91137743Y-86527900D01*
X108317643Y-50461000D02*
X108147843Y-51420100D01*
X97010443Y-75188200D02*
X96527543Y-75972000D01*
X115012143Y-34480600D02*
X114441543Y-35257200D01*
X87875543Y-99584600D02*
X87602443Y-101493400D01*
X127353543Y-25506400D02*
X126441443Y-25806350D01*
X106824643Y-66536100D02*
X105285043Y-67530800D01*
X149057343Y-29949000D02*
X148310543Y-29328960D01*
X158527143Y-46182400D02*
X158239143Y-45093600D01*
X164056143Y-69524600D02*
X162951143Y-68796800D01*
X155331143Y-37838800D02*
X154781143Y-36869400D01*
X172707143Y-78473500D02*
X172351143Y-77917800D01*
X159746143Y-54002600D02*
X159654143Y-52872700D01*
X92543443Y-82945400D02*
X92170843Y-83833100D01*
X106733843Y-64592400D02*
X106744843Y-65240000D01*
X144223943Y-26784840D02*
X143347543Y-26388150D01*
X147538043Y-28745790D02*
X146741443Y-28199680D01*
X152917743Y-34088300D02*
X152222743Y-33207600D01*
X139699543Y-25179200D02*
X138760143Y-24972030D01*
X173379143Y-79610600D02*
X173049143Y-79037800D01*
X173049143Y-79037800D02*
X172707143Y-78473500D01*
X118255943Y-30900900D02*
X117553943Y-31573400D01*
X181671143Y-120161000D02*
X181612143Y-116978300D01*
X106904643Y-61360700D02*
X106797543Y-62652100D01*
X91137743Y-86527900D02*
X90517743Y-88348900D01*
X158786143Y-47280800D02*
X158527143Y-46182400D01*
X111535843Y-40262900D02*
X111134643Y-41146200D01*
X104510143Y-68055800D02*
X103737143Y-68599800D01*
X159874143Y-57393800D02*
X159856143Y-56264400D01*
X87043543Y-107248200D02*
X86939643Y-109170400D01*
X94598943Y-79162900D02*
X93798143Y-80595700D01*
X159626143Y-63297800D02*
X159622143Y-62977800D01*
X159369143Y-65012900D02*
X159496143Y-64319300D01*
X102213443Y-69746800D02*
X101470743Y-70350700D01*
X107750543Y-54301900D02*
X107654343Y-55260800D01*
X117553943Y-31573400D02*
X116878843Y-32268500D01*
X172351143Y-77917800D02*
X171983143Y-77370900D01*
X106774543Y-65887900D02*
X106824643Y-66536100D01*
X154196143Y-35920400D02*
X153575443Y-34992900D01*
X142455243Y-26029110D02*
X141548743Y-25707860D01*
X110756143Y-42041100D02*
X110400143Y-42946600D01*
X96095243Y-76780300D02*
X95260043Y-78080100D01*
X88973643Y-93910300D02*
X88559843Y-95791400D01*
X157570143Y-42949100D02*
X157188143Y-41896000D01*
X113375743Y-36863500D02*
X112879843Y-37691400D01*
X107575643Y-56217300D02*
X107216943Y-58784200D01*
X159869143Y-58520600D02*
X159874143Y-57393800D01*
X156774143Y-40857200D02*
X156327143Y-39833900D01*
X159789143Y-60761600D02*
X159840143Y-59643600D01*
X110066143Y-43861700D02*
X109753943Y-44785700D01*
X160656143Y-67475500D02*
X160444143Y-67427300D01*
X93798143Y-80595700D02*
X92543443Y-82945400D01*
X123792943Y-26945860D02*
X122944843Y-27406000D01*
X132059943Y-24600390D02*
X131104643Y-24702840D01*
X96527543Y-75972000D02*
X96095243Y-76780300D01*
X122944843Y-27406000D02*
X122116843Y-27906490D01*
X159684143Y-67034200D02*
X159586143Y-66928600D01*
X159586143Y-66928600D02*
X159503143Y-66815000D01*
X92543443Y-82945400D02*
X92543443Y-82945400D01*
X181626143Y-148815000D02*
X181718143Y-136079000D01*
X159814143Y-55133600D02*
X159746143Y-54002600D01*
X135902143Y-24580670D02*
X134941643Y-24527330D01*
X169075143Y-73796900D02*
X168146143Y-72861200D01*
X173695143Y-80191700D02*
X173379143Y-79610600D01*
X171983143Y-77370900D02*
X171602143Y-76832800D01*
X159216143Y-49501100D02*
X159015143Y-48387400D01*
X149907743Y-30721700D02*
X149057343Y-29949000D01*
X181422143Y-110614500D02*
X181233143Y-108820700D01*
X107864643Y-53341500D02*
X107750543Y-54301900D01*
X116230443Y-32985300D02*
X115608343Y-33723000D01*
X89437043Y-92041700D02*
X88973643Y-93910300D01*
X181737143Y-129711000D02*
X181731143Y-126527000D01*
X173997143Y-80781200D02*
X173695143Y-80191700D01*
X179355143Y-98173400D02*
X178936143Y-96418700D01*
X133980043Y-24512760D02*
X133018943Y-24537070D01*
X113896243Y-36051800D02*
X113375743Y-36863500D01*
X108944343Y-47600600D02*
X108715543Y-48550300D01*
X159389143Y-50620700D02*
X159216143Y-49501100D01*
X170805143Y-75783700D02*
X169962143Y-74771400D01*
X162951143Y-68796800D02*
X161817143Y-68113500D01*
X141548743Y-25707860D02*
X140629643Y-25424520D01*
X180110143Y-101700000D02*
X179747143Y-99933800D01*
X159318143Y-65351900D02*
X159369143Y-65012900D01*
X107216943Y-58784200D02*
X107048643Y-60071300D01*
X108715543Y-48550300D02*
X108506743Y-49504000D01*
X177532143Y-91190100D02*
X177022143Y-89459300D01*
X105285043Y-67530800D02*
X104510143Y-68055800D01*
X110400143Y-42946600D02*
X110066143Y-43861700D01*
X169962143Y-74771400D02*
X169075143Y-73796900D01*
X145922543Y-27690730D02*
X145082743Y-27219080D01*
X111134643Y-41146200D02*
X110756143Y-42041100D01*
X148310543Y-29328960D02*
X147538043Y-28745790D01*
X100044243Y-71621600D02*
X99368543Y-72289500D01*
X114441543Y-35257200D02*
X113896243Y-36051800D01*
X152222743Y-33207600D02*
X151489743Y-32352100D01*
X129211743Y-25025630D02*
X128277543Y-25246210D01*
X175949143Y-86016100D02*
X174819143Y-82597900D01*
X150718343Y-31523100D02*
X149907743Y-30721700D01*
X102970243Y-69163300D02*
X102213443Y-69746800D01*
X156327143Y-39833900D02*
X155846143Y-38827400D01*
X88194243Y-97683400D02*
X87875543Y-99584600D01*
X154781143Y-36869400D02*
X154196143Y-35920400D01*
X159496143Y-64319300D02*
X159601143Y-63630600D01*
X157188143Y-41896000D02*
X156774143Y-40857200D01*
X155846143Y-38827400D02*
X155331143Y-37838800D01*
X88559843Y-95791400D02*
X88194243Y-97683400D01*
X165131143Y-70295900D02*
X164056143Y-69524600D01*
X176494143Y-87734600D02*
X175949143Y-86016100D01*
X177022143Y-89459300D02*
X176494143Y-87734600D01*
X99368543Y-72289500D02*
X98723243Y-72979600D01*
X159435143Y-66694100D02*
X159381143Y-66566200D01*
X116878843Y-32268500D02*
X116230443Y-32985300D01*
X158239143Y-45093600D02*
X157920143Y-44015400D01*
X159286143Y-65680600D02*
X159318143Y-65351900D01*
X87602443Y-101493400D02*
X87373643Y-103408000D01*
X180442143Y-103471900D02*
X180110143Y-101700000D01*
X121310443Y-28447460D02*
X120527543Y-29029030D01*
X101470743Y-70350700D02*
X100746343Y-70975500D01*
X97540143Y-74428500D02*
X97010443Y-75188200D01*
X181612143Y-116978300D02*
X181530143Y-113796100D01*
X160252143Y-67368300D02*
X160082143Y-67299000D01*
X166172143Y-71109700D02*
X165131143Y-70295900D01*
X159840143Y-59643600D02*
X159869143Y-58520600D01*
X106740043Y-63945200D02*
X106733843Y-64592400D01*
X98723243Y-72979600D02*
X98112443Y-73692500D01*
X98112443Y-73692500D02*
X97540143Y-74428500D01*
X159015143Y-48387400D02*
X158786143Y-47280800D01*
X108147843Y-51420100D02*
X107996943Y-52380600D01*
X137812943Y-24803140D02*
X136859743Y-24672650D01*
X161817143Y-68113500D02*
X160656143Y-67475500D01*
X160444143Y-67427300D02*
X160252143Y-67368300D01*
X86894243Y-136965000D02*
X86884543Y-148943000D01*
X109753943Y-44785700D02*
X109463143Y-45717400D01*
X167178143Y-71965100D02*
X166172143Y-71109700D01*
X108506743Y-49504000D02*
X108317643Y-50461000D01*
X174559143Y-81984400D02*
X174285143Y-81378800D01*
X126441443Y-25806350D02*
X125542843Y-26146150D01*
X178491143Y-94669900D02*
X178022143Y-92927000D01*
X138760143Y-24972030D02*
X137812943Y-24803140D01*
X86889043Y-160920000D02*
X181614143Y-161550000D01*
X106744843Y-65240000D02*
X106774543Y-65887900D01*
X159799143Y-67131500D02*
X159684143Y-67034200D01*
X86939643Y-109170400D02*
X86874743Y-111091800D01*
X124659543Y-26525950D02*
X123792943Y-26945860D01*
X107048643Y-60071300D02*
X106904643Y-61360700D01*
X181599143Y-155183000D02*
X181626143Y-148815000D01*
X143347543Y-26388150D02*
X142455243Y-26029110D01*
X131104643Y-24702840D02*
X130154743Y-24844550D01*
X179747143Y-99933800D02*
X179355143Y-98173400D01*
X181233143Y-108820700D02*
X181005143Y-107032300D01*
X159281143Y-65995200D02*
X159286143Y-65680600D01*
X160082143Y-67299000D02*
X159931143Y-67219900D01*
X130154743Y-24844550D02*
X129211743Y-25025630D01*
X181718143Y-136079000D02*
X181737143Y-129711000D01*
X90517743Y-88348900D02*
X89951343Y-90187400D01*
X159716143Y-61873400D02*
X159789143Y-60761600D01*
X181710143Y-123344000D02*
X181671143Y-120161000D01*
X86874743Y-111091800D02*
X86847543Y-113010800D01*
X159503143Y-66815000D02*
X159435143Y-66694100D01*
X109193343Y-46656000D02*
X108944343Y-47600600D01*
X115608343Y-33723000D02*
X115012143Y-34480600D01*
X118985343Y-30252100D02*
X118255943Y-30900900D01*
X168146143Y-72861200D02*
X167178143Y-71965100D01*
X111960243Y-39392000D02*
X111535843Y-40262900D01*
X107996943Y-52380600D02*
X107864643Y-53341500D01*
M02*
