%TF.GenerationSoftware,KiCad,Pcbnew,7.0.1*%
%TF.CreationDate,2023-08-30T08:14:35-05:00*%
%TF.ProjectId,Bsides-STL-Badge,42736964-6573-42d5-9354-4c2d42616467,rev?*%
%TF.SameCoordinates,Original*%
%TF.FileFunction,Copper,L2,Bot*%
%TF.FilePolarity,Positive*%
%FSLAX46Y46*%
G04 Gerber Fmt 4.6, Leading zero omitted, Abs format (unit mm)*
G04 Created by KiCad (PCBNEW 7.0.1) date 2023-08-30 08:14:35*
%MOMM*%
%LPD*%
G01*
G04 APERTURE LIST*
%ADD10C,0.250000*%
%TA.AperFunction,NonConductor*%
%ADD11C,0.250000*%
%TD*%
%TA.AperFunction,EtchedComponent*%
%ADD12C,0.010000*%
%TD*%
%TA.AperFunction,ComponentPad*%
%ADD13C,6.000000*%
%TD*%
G04 APERTURE END LIST*
D10*
%TO.C,G\u002A\u002A\u002A*%
D11*
X110368619Y-149132634D02*
X109781952Y-149132634D01*
X110148619Y-150159301D02*
X110148619Y-148839301D01*
X110148619Y-148839301D02*
X110075286Y-148692634D01*
X110075286Y-148692634D02*
X109928619Y-148619301D01*
X109928619Y-148619301D02*
X109781952Y-148619301D01*
X108608619Y-149132634D02*
X108608619Y-150379301D01*
X108608619Y-150379301D02*
X108681952Y-150525968D01*
X108681952Y-150525968D02*
X108755286Y-150599301D01*
X108755286Y-150599301D02*
X108901952Y-150672634D01*
X108901952Y-150672634D02*
X109121952Y-150672634D01*
X109121952Y-150672634D02*
X109268619Y-150599301D01*
X108608619Y-150085968D02*
X108755286Y-150159301D01*
X108755286Y-150159301D02*
X109048619Y-150159301D01*
X109048619Y-150159301D02*
X109195286Y-150085968D01*
X109195286Y-150085968D02*
X109268619Y-150012634D01*
X109268619Y-150012634D02*
X109341952Y-149865968D01*
X109341952Y-149865968D02*
X109341952Y-149425968D01*
X109341952Y-149425968D02*
X109268619Y-149279301D01*
X109268619Y-149279301D02*
X109195286Y-149205968D01*
X109195286Y-149205968D02*
X109048619Y-149132634D01*
X109048619Y-149132634D02*
X108755286Y-149132634D01*
X108755286Y-149132634D02*
X108608619Y-149205968D01*
D12*
X110466198Y-154545661D02*
X110481413Y-154566167D01*
X110478586Y-154597608D01*
X110469092Y-154608870D01*
X110442302Y-154613483D01*
X110420651Y-154603830D01*
X110413670Y-154577668D01*
X110419603Y-154552815D01*
X110442302Y-154541852D01*
X110466198Y-154545661D01*
%TA.AperFunction,EtchedComponent*%
G36*
X110466198Y-154545661D02*
G01*
X110481413Y-154566167D01*
X110478586Y-154597608D01*
X110469092Y-154608870D01*
X110442302Y-154613483D01*
X110420651Y-154603830D01*
X110413670Y-154577668D01*
X110419603Y-154552815D01*
X110442302Y-154541852D01*
X110466198Y-154545661D01*
G37*
%TD.AperFunction*%
X112503005Y-155333133D02*
X112539879Y-155355728D01*
X112567896Y-155388060D01*
X112579020Y-155422820D01*
X112570741Y-155447860D01*
X112542739Y-155481231D01*
X112499476Y-155514897D01*
X112445670Y-155544552D01*
X112398444Y-155562307D01*
X112353134Y-155566729D01*
X112318840Y-155551278D01*
X112292151Y-155515303D01*
X112289413Y-155509934D01*
X112280244Y-155485589D01*
X112283411Y-155464305D01*
X112300076Y-155434180D01*
X112330639Y-155397815D01*
X112376927Y-155362194D01*
X112427617Y-155336709D01*
X112473629Y-155326968D01*
X112503005Y-155333133D01*
%TA.AperFunction,EtchedComponent*%
G36*
X112503005Y-155333133D02*
G01*
X112539879Y-155355728D01*
X112567896Y-155388060D01*
X112579020Y-155422820D01*
X112570741Y-155447860D01*
X112542739Y-155481231D01*
X112499476Y-155514897D01*
X112445670Y-155544552D01*
X112398444Y-155562307D01*
X112353134Y-155566729D01*
X112318840Y-155551278D01*
X112292151Y-155515303D01*
X112289413Y-155509934D01*
X112280244Y-155485589D01*
X112283411Y-155464305D01*
X112300076Y-155434180D01*
X112330639Y-155397815D01*
X112376927Y-155362194D01*
X112427617Y-155336709D01*
X112473629Y-155326968D01*
X112503005Y-155333133D01*
G37*
%TD.AperFunction*%
X108818151Y-151370785D02*
X108846605Y-151389224D01*
X108857920Y-151414358D01*
X108854461Y-151424660D01*
X108835318Y-151451515D01*
X108803553Y-151486550D01*
X108763897Y-151525241D01*
X108721079Y-151563066D01*
X108679832Y-151595502D01*
X108644885Y-151618026D01*
X108628518Y-151626231D01*
X108589791Y-151638892D01*
X108566045Y-151632947D01*
X108555316Y-151608180D01*
X108555127Y-151601378D01*
X108566092Y-151567975D01*
X108592059Y-151526257D01*
X108628404Y-151481126D01*
X108670501Y-151437488D01*
X108713725Y-151400246D01*
X108753452Y-151374304D01*
X108785057Y-151364568D01*
X108818151Y-151370785D01*
%TA.AperFunction,EtchedComponent*%
G36*
X108818151Y-151370785D02*
G01*
X108846605Y-151389224D01*
X108857920Y-151414358D01*
X108854461Y-151424660D01*
X108835318Y-151451515D01*
X108803553Y-151486550D01*
X108763897Y-151525241D01*
X108721079Y-151563066D01*
X108679832Y-151595502D01*
X108644885Y-151618026D01*
X108628518Y-151626231D01*
X108589791Y-151638892D01*
X108566045Y-151632947D01*
X108555316Y-151608180D01*
X108555127Y-151601378D01*
X108566092Y-151567975D01*
X108592059Y-151526257D01*
X108628404Y-151481126D01*
X108670501Y-151437488D01*
X108713725Y-151400246D01*
X108753452Y-151374304D01*
X108785057Y-151364568D01*
X108818151Y-151370785D01*
G37*
%TD.AperFunction*%
X106953219Y-155667082D02*
X106955295Y-155669820D01*
X106969177Y-155698526D01*
X106981796Y-155744852D01*
X106993504Y-155810743D01*
X107004659Y-155898144D01*
X107015614Y-156008999D01*
X107020596Y-156056161D01*
X107029116Y-156116198D01*
X107038595Y-156165947D01*
X107047752Y-156197875D01*
X107060896Y-156232764D01*
X107065074Y-156262912D01*
X107053935Y-156284482D01*
X107025945Y-156305007D01*
X107003355Y-156317905D01*
X106972117Y-156328242D01*
X106945894Y-156320802D01*
X106915422Y-156294723D01*
X106901252Y-156277109D01*
X106876742Y-156222174D01*
X106860647Y-156145171D01*
X106853195Y-156047475D01*
X106854617Y-155930460D01*
X106855765Y-155908345D01*
X106863751Y-155813423D01*
X106875507Y-155739136D01*
X106890683Y-155686421D01*
X106908927Y-155656217D01*
X106929889Y-155649458D01*
X106953219Y-155667082D01*
%TA.AperFunction,EtchedComponent*%
G36*
X106953219Y-155667082D02*
G01*
X106955295Y-155669820D01*
X106969177Y-155698526D01*
X106981796Y-155744852D01*
X106993504Y-155810743D01*
X107004659Y-155898144D01*
X107015614Y-156008999D01*
X107020596Y-156056161D01*
X107029116Y-156116198D01*
X107038595Y-156165947D01*
X107047752Y-156197875D01*
X107060896Y-156232764D01*
X107065074Y-156262912D01*
X107053935Y-156284482D01*
X107025945Y-156305007D01*
X107003355Y-156317905D01*
X106972117Y-156328242D01*
X106945894Y-156320802D01*
X106915422Y-156294723D01*
X106901252Y-156277109D01*
X106876742Y-156222174D01*
X106860647Y-156145171D01*
X106853195Y-156047475D01*
X106854617Y-155930460D01*
X106855765Y-155908345D01*
X106863751Y-155813423D01*
X106875507Y-155739136D01*
X106890683Y-155686421D01*
X106908927Y-155656217D01*
X106929889Y-155649458D01*
X106953219Y-155667082D01*
G37*
%TD.AperFunction*%
X108603974Y-156441874D02*
X108696967Y-156448657D01*
X108789003Y-156458793D01*
X108875434Y-156472077D01*
X108951614Y-156488304D01*
X109011674Y-156505576D01*
X109084688Y-156531459D01*
X109154654Y-156560975D01*
X109218053Y-156592219D01*
X109271363Y-156623281D01*
X109311066Y-156652256D01*
X109333639Y-156677236D01*
X109335564Y-156696314D01*
X109325596Y-156704338D01*
X109305164Y-156709080D01*
X109271462Y-156710234D01*
X109221528Y-156707749D01*
X109152401Y-156701575D01*
X109061120Y-156691662D01*
X108952161Y-156678154D01*
X108819857Y-156658699D01*
X108697974Y-156637372D01*
X108588160Y-156614675D01*
X108492065Y-156591107D01*
X108411338Y-156567169D01*
X108347628Y-156543363D01*
X108302585Y-156520187D01*
X108277857Y-156498143D01*
X108275094Y-156477732D01*
X108295945Y-156459453D01*
X108315376Y-156452360D01*
X108365725Y-156443687D01*
X108433706Y-156439185D01*
X108514671Y-156438649D01*
X108603974Y-156441874D01*
%TA.AperFunction,EtchedComponent*%
G36*
X108603974Y-156441874D02*
G01*
X108696967Y-156448657D01*
X108789003Y-156458793D01*
X108875434Y-156472077D01*
X108951614Y-156488304D01*
X109011674Y-156505576D01*
X109084688Y-156531459D01*
X109154654Y-156560975D01*
X109218053Y-156592219D01*
X109271363Y-156623281D01*
X109311066Y-156652256D01*
X109333639Y-156677236D01*
X109335564Y-156696314D01*
X109325596Y-156704338D01*
X109305164Y-156709080D01*
X109271462Y-156710234D01*
X109221528Y-156707749D01*
X109152401Y-156701575D01*
X109061120Y-156691662D01*
X108952161Y-156678154D01*
X108819857Y-156658699D01*
X108697974Y-156637372D01*
X108588160Y-156614675D01*
X108492065Y-156591107D01*
X108411338Y-156567169D01*
X108347628Y-156543363D01*
X108302585Y-156520187D01*
X108277857Y-156498143D01*
X108275094Y-156477732D01*
X108295945Y-156459453D01*
X108315376Y-156452360D01*
X108365725Y-156443687D01*
X108433706Y-156439185D01*
X108514671Y-156438649D01*
X108603974Y-156441874D01*
G37*
%TD.AperFunction*%
X106485232Y-154074411D02*
X106539230Y-154090362D01*
X106559351Y-154096034D01*
X106626226Y-154104386D01*
X106699968Y-154101914D01*
X106768770Y-154088703D01*
X106789974Y-154088055D01*
X106819570Y-154099798D01*
X106830070Y-154109377D01*
X106839203Y-154127756D01*
X106843178Y-154157996D01*
X106843498Y-154206822D01*
X106839535Y-154259659D01*
X106827861Y-154328809D01*
X106810634Y-154397227D01*
X106789976Y-154456693D01*
X106768010Y-154498991D01*
X106761280Y-154507665D01*
X106740100Y-154522491D01*
X106717514Y-154516958D01*
X106691260Y-154489837D01*
X106659076Y-154439901D01*
X106631901Y-154394924D01*
X106598500Y-154347983D01*
X106566243Y-154316153D01*
X106529919Y-154294622D01*
X106484315Y-154278578D01*
X106469326Y-154274151D01*
X106408695Y-154251706D01*
X106371715Y-154227205D01*
X106356942Y-154198219D01*
X106362928Y-154162316D01*
X106388228Y-154117066D01*
X106395432Y-154106888D01*
X106419698Y-154081548D01*
X106447509Y-154071098D01*
X106485232Y-154074411D01*
%TA.AperFunction,EtchedComponent*%
G36*
X106485232Y-154074411D02*
G01*
X106539230Y-154090362D01*
X106559351Y-154096034D01*
X106626226Y-154104386D01*
X106699968Y-154101914D01*
X106768770Y-154088703D01*
X106789974Y-154088055D01*
X106819570Y-154099798D01*
X106830070Y-154109377D01*
X106839203Y-154127756D01*
X106843178Y-154157996D01*
X106843498Y-154206822D01*
X106839535Y-154259659D01*
X106827861Y-154328809D01*
X106810634Y-154397227D01*
X106789976Y-154456693D01*
X106768010Y-154498991D01*
X106761280Y-154507665D01*
X106740100Y-154522491D01*
X106717514Y-154516958D01*
X106691260Y-154489837D01*
X106659076Y-154439901D01*
X106631901Y-154394924D01*
X106598500Y-154347983D01*
X106566243Y-154316153D01*
X106529919Y-154294622D01*
X106484315Y-154278578D01*
X106469326Y-154274151D01*
X106408695Y-154251706D01*
X106371715Y-154227205D01*
X106356942Y-154198219D01*
X106362928Y-154162316D01*
X106388228Y-154117066D01*
X106395432Y-154106888D01*
X106419698Y-154081548D01*
X106447509Y-154071098D01*
X106485232Y-154074411D01*
G37*
%TD.AperFunction*%
X112390877Y-155834973D02*
X112395535Y-155841378D01*
X112414464Y-155884146D01*
X112429615Y-155945954D01*
X112440420Y-156021753D01*
X112446314Y-156106493D01*
X112446730Y-156195123D01*
X112441101Y-156282594D01*
X112436985Y-156318422D01*
X112426138Y-156382628D01*
X112410596Y-156436026D01*
X112387775Y-156488607D01*
X112372666Y-156516231D01*
X112329096Y-156578531D01*
X112276525Y-156637418D01*
X112221270Y-156686238D01*
X112169647Y-156718341D01*
X112160534Y-156722011D01*
X112115183Y-156731516D01*
X112067114Y-156731135D01*
X112025314Y-156721634D01*
X111998768Y-156703779D01*
X111993067Y-156694650D01*
X111981499Y-156649766D01*
X111985537Y-156587513D01*
X112005297Y-156507092D01*
X112040893Y-156407702D01*
X112054167Y-156374835D01*
X112104858Y-156256471D01*
X112154236Y-156152092D01*
X112200565Y-156065219D01*
X112242111Y-155999374D01*
X112256727Y-155977410D01*
X112282031Y-155932812D01*
X112298789Y-155894638D01*
X112300753Y-155889113D01*
X112319495Y-155853275D01*
X112341867Y-155828266D01*
X112356256Y-155818988D01*
X112372955Y-155817305D01*
X112390877Y-155834973D01*
%TA.AperFunction,EtchedComponent*%
G36*
X112390877Y-155834973D02*
G01*
X112395535Y-155841378D01*
X112414464Y-155884146D01*
X112429615Y-155945954D01*
X112440420Y-156021753D01*
X112446314Y-156106493D01*
X112446730Y-156195123D01*
X112441101Y-156282594D01*
X112436985Y-156318422D01*
X112426138Y-156382628D01*
X112410596Y-156436026D01*
X112387775Y-156488607D01*
X112372666Y-156516231D01*
X112329096Y-156578531D01*
X112276525Y-156637418D01*
X112221270Y-156686238D01*
X112169647Y-156718341D01*
X112160534Y-156722011D01*
X112115183Y-156731516D01*
X112067114Y-156731135D01*
X112025314Y-156721634D01*
X111998768Y-156703779D01*
X111993067Y-156694650D01*
X111981499Y-156649766D01*
X111985537Y-156587513D01*
X112005297Y-156507092D01*
X112040893Y-156407702D01*
X112054167Y-156374835D01*
X112104858Y-156256471D01*
X112154236Y-156152092D01*
X112200565Y-156065219D01*
X112242111Y-155999374D01*
X112256727Y-155977410D01*
X112282031Y-155932812D01*
X112298789Y-155894638D01*
X112300753Y-155889113D01*
X112319495Y-155853275D01*
X112341867Y-155828266D01*
X112356256Y-155818988D01*
X112372955Y-155817305D01*
X112390877Y-155834973D01*
G37*
%TD.AperFunction*%
X112573523Y-155855571D02*
X112598694Y-155878587D01*
X112613676Y-155916236D01*
X112622774Y-155976549D01*
X112624959Y-156053205D01*
X112620755Y-156142156D01*
X112610691Y-156239351D01*
X112595293Y-156340740D01*
X112575089Y-156442273D01*
X112550604Y-156539899D01*
X112522366Y-156629568D01*
X112490902Y-156707231D01*
X112474277Y-156740871D01*
X112429954Y-156818481D01*
X112379071Y-156894765D01*
X112325081Y-156965382D01*
X112271434Y-157025987D01*
X112221580Y-157072240D01*
X112178970Y-157099796D01*
X112178419Y-157100040D01*
X112146954Y-157111944D01*
X112124365Y-157117170D01*
X112113312Y-157116352D01*
X112073868Y-157100824D01*
X112032139Y-157070456D01*
X111994472Y-157031478D01*
X111967216Y-156990123D01*
X111956720Y-156952620D01*
X111957627Y-156939478D01*
X111968943Y-156909643D01*
X111995688Y-156882313D01*
X112040990Y-156854838D01*
X112107975Y-156824573D01*
X112167080Y-156799223D01*
X112266205Y-156750442D01*
X112343333Y-156702117D01*
X112400609Y-156652556D01*
X112440173Y-156600064D01*
X112464170Y-156542946D01*
X112466607Y-156531259D01*
X112471603Y-156491729D01*
X112476730Y-156433493D01*
X112481668Y-156360953D01*
X112486099Y-156278510D01*
X112489703Y-156190568D01*
X112491585Y-156139631D01*
X112495125Y-156058074D01*
X112498883Y-155986460D01*
X112502626Y-155928651D01*
X112506119Y-155888508D01*
X112509129Y-155869893D01*
X112518426Y-155856924D01*
X112543831Y-155848065D01*
X112573523Y-155855571D01*
%TA.AperFunction,EtchedComponent*%
G36*
X112573523Y-155855571D02*
G01*
X112598694Y-155878587D01*
X112613676Y-155916236D01*
X112622774Y-155976549D01*
X112624959Y-156053205D01*
X112620755Y-156142156D01*
X112610691Y-156239351D01*
X112595293Y-156340740D01*
X112575089Y-156442273D01*
X112550604Y-156539899D01*
X112522366Y-156629568D01*
X112490902Y-156707231D01*
X112474277Y-156740871D01*
X112429954Y-156818481D01*
X112379071Y-156894765D01*
X112325081Y-156965382D01*
X112271434Y-157025987D01*
X112221580Y-157072240D01*
X112178970Y-157099796D01*
X112178419Y-157100040D01*
X112146954Y-157111944D01*
X112124365Y-157117170D01*
X112113312Y-157116352D01*
X112073868Y-157100824D01*
X112032139Y-157070456D01*
X111994472Y-157031478D01*
X111967216Y-156990123D01*
X111956720Y-156952620D01*
X111957627Y-156939478D01*
X111968943Y-156909643D01*
X111995688Y-156882313D01*
X112040990Y-156854838D01*
X112107975Y-156824573D01*
X112167080Y-156799223D01*
X112266205Y-156750442D01*
X112343333Y-156702117D01*
X112400609Y-156652556D01*
X112440173Y-156600064D01*
X112464170Y-156542946D01*
X112466607Y-156531259D01*
X112471603Y-156491729D01*
X112476730Y-156433493D01*
X112481668Y-156360953D01*
X112486099Y-156278510D01*
X112489703Y-156190568D01*
X112491585Y-156139631D01*
X112495125Y-156058074D01*
X112498883Y-155986460D01*
X112502626Y-155928651D01*
X112506119Y-155888508D01*
X112509129Y-155869893D01*
X112518426Y-155856924D01*
X112543831Y-155848065D01*
X112573523Y-155855571D01*
G37*
%TD.AperFunction*%
X112046642Y-155654012D02*
X112058441Y-155676533D01*
X112065193Y-155700616D01*
X112070358Y-155765178D01*
X112064055Y-155848009D01*
X112046413Y-155946227D01*
X112043989Y-155957590D01*
X112032947Y-156022044D01*
X112025497Y-156086930D01*
X112023141Y-156139768D01*
X112023231Y-156159357D01*
X112020767Y-156198742D01*
X112012788Y-156235663D01*
X111997110Y-156278392D01*
X111971550Y-156335200D01*
X111961123Y-156358295D01*
X111932093Y-156429457D01*
X111903778Y-156507082D01*
X111881063Y-156578065D01*
X111835477Y-156718064D01*
X111766703Y-156885558D01*
X111686970Y-157040474D01*
X111598458Y-157178666D01*
X111503348Y-157295990D01*
X111493771Y-157306172D01*
X111460002Y-157339532D01*
X111432590Y-157362877D01*
X111416731Y-157371668D01*
X111409765Y-157370035D01*
X111386852Y-157353379D01*
X111362190Y-157325432D01*
X111342480Y-157294545D01*
X111334420Y-157269069D01*
X111335231Y-157261720D01*
X111342449Y-157230931D01*
X111355534Y-157186265D01*
X111372520Y-157134661D01*
X111382760Y-157104823D01*
X111399270Y-157052651D01*
X111407385Y-157015109D01*
X111407491Y-156985886D01*
X111399974Y-156958676D01*
X111385220Y-156927168D01*
X111380368Y-156917353D01*
X111362902Y-156867072D01*
X111364476Y-156823483D01*
X111385081Y-156777943D01*
X111395230Y-156762866D01*
X111422820Y-156738322D01*
X111451803Y-156737595D01*
X111483575Y-156761006D01*
X111519531Y-156808875D01*
X111544041Y-156845827D01*
X111559987Y-156864786D01*
X111570365Y-156867735D01*
X111578821Y-156857675D01*
X111579457Y-156856429D01*
X111585038Y-156829056D01*
X111586815Y-156782133D01*
X111584571Y-156720821D01*
X111583457Y-156700174D01*
X111582570Y-156646692D01*
X111584569Y-156602607D01*
X111589201Y-156575865D01*
X111594554Y-156563636D01*
X111606368Y-156551351D01*
X111628265Y-156547166D01*
X111667825Y-156548437D01*
X111704289Y-156550112D01*
X111725752Y-156547300D01*
X111734827Y-156536488D01*
X111738264Y-156514418D01*
X111741667Y-156491159D01*
X111758762Y-156425000D01*
X111786313Y-156349596D01*
X111821502Y-156273118D01*
X111834073Y-156247890D01*
X111848240Y-156213669D01*
X111855768Y-156180798D01*
X111858356Y-156140375D01*
X111857702Y-156083499D01*
X111857333Y-156066908D01*
X111857536Y-156013596D01*
X111861428Y-155975356D01*
X111870340Y-155943987D01*
X111885600Y-155911286D01*
X111894619Y-155893107D01*
X111915415Y-155844853D01*
X111930026Y-155802455D01*
X111934810Y-155786545D01*
X111958574Y-155730648D01*
X111988383Y-155685154D01*
X112019661Y-155657467D01*
X112031436Y-155652022D01*
X112046642Y-155654012D01*
%TA.AperFunction,EtchedComponent*%
G36*
X112046642Y-155654012D02*
G01*
X112058441Y-155676533D01*
X112065193Y-155700616D01*
X112070358Y-155765178D01*
X112064055Y-155848009D01*
X112046413Y-155946227D01*
X112043989Y-155957590D01*
X112032947Y-156022044D01*
X112025497Y-156086930D01*
X112023141Y-156139768D01*
X112023231Y-156159357D01*
X112020767Y-156198742D01*
X112012788Y-156235663D01*
X111997110Y-156278392D01*
X111971550Y-156335200D01*
X111961123Y-156358295D01*
X111932093Y-156429457D01*
X111903778Y-156507082D01*
X111881063Y-156578065D01*
X111835477Y-156718064D01*
X111766703Y-156885558D01*
X111686970Y-157040474D01*
X111598458Y-157178666D01*
X111503348Y-157295990D01*
X111493771Y-157306172D01*
X111460002Y-157339532D01*
X111432590Y-157362877D01*
X111416731Y-157371668D01*
X111409765Y-157370035D01*
X111386852Y-157353379D01*
X111362190Y-157325432D01*
X111342480Y-157294545D01*
X111334420Y-157269069D01*
X111335231Y-157261720D01*
X111342449Y-157230931D01*
X111355534Y-157186265D01*
X111372520Y-157134661D01*
X111382760Y-157104823D01*
X111399270Y-157052651D01*
X111407385Y-157015109D01*
X111407491Y-156985886D01*
X111399974Y-156958676D01*
X111385220Y-156927168D01*
X111380368Y-156917353D01*
X111362902Y-156867072D01*
X111364476Y-156823483D01*
X111385081Y-156777943D01*
X111395230Y-156762866D01*
X111422820Y-156738322D01*
X111451803Y-156737595D01*
X111483575Y-156761006D01*
X111519531Y-156808875D01*
X111544041Y-156845827D01*
X111559987Y-156864786D01*
X111570365Y-156867735D01*
X111578821Y-156857675D01*
X111579457Y-156856429D01*
X111585038Y-156829056D01*
X111586815Y-156782133D01*
X111584571Y-156720821D01*
X111583457Y-156700174D01*
X111582570Y-156646692D01*
X111584569Y-156602607D01*
X111589201Y-156575865D01*
X111594554Y-156563636D01*
X111606368Y-156551351D01*
X111628265Y-156547166D01*
X111667825Y-156548437D01*
X111704289Y-156550112D01*
X111725752Y-156547300D01*
X111734827Y-156536488D01*
X111738264Y-156514418D01*
X111741667Y-156491159D01*
X111758762Y-156425000D01*
X111786313Y-156349596D01*
X111821502Y-156273118D01*
X111834073Y-156247890D01*
X111848240Y-156213669D01*
X111855768Y-156180798D01*
X111858356Y-156140375D01*
X111857702Y-156083499D01*
X111857333Y-156066908D01*
X111857536Y-156013596D01*
X111861428Y-155975356D01*
X111870340Y-155943987D01*
X111885600Y-155911286D01*
X111894619Y-155893107D01*
X111915415Y-155844853D01*
X111930026Y-155802455D01*
X111934810Y-155786545D01*
X111958574Y-155730648D01*
X111988383Y-155685154D01*
X112019661Y-155657467D01*
X112031436Y-155652022D01*
X112046642Y-155654012D01*
G37*
%TD.AperFunction*%
X106284509Y-154351337D02*
X106311161Y-154369888D01*
X106340097Y-154401444D01*
X106365515Y-154439115D01*
X106381614Y-154476012D01*
X106385594Y-154492435D01*
X106393199Y-154569898D01*
X106386878Y-154653116D01*
X106367306Y-154730068D01*
X106316415Y-154886952D01*
X106275091Y-155078167D01*
X106257909Y-155264952D01*
X106265039Y-155446130D01*
X106271138Y-155495673D01*
X106283042Y-155561051D01*
X106297828Y-155605427D01*
X106316550Y-155631553D01*
X106340264Y-155642176D01*
X106352173Y-155642379D01*
X106365284Y-155633040D01*
X106368085Y-155608872D01*
X106360634Y-155567054D01*
X106342986Y-155504768D01*
X106340165Y-155495479D01*
X106313034Y-155368493D01*
X106309593Y-155247581D01*
X106329751Y-155130107D01*
X106346520Y-155075357D01*
X106374581Y-154999980D01*
X106407145Y-154925697D01*
X106442107Y-154856335D01*
X106477359Y-154795723D01*
X106510797Y-154747689D01*
X106540314Y-154716061D01*
X106563804Y-154704668D01*
X106579109Y-154715030D01*
X106600695Y-154743201D01*
X106624791Y-154783311D01*
X106647875Y-154829483D01*
X106666422Y-154875839D01*
X106668662Y-154882812D01*
X106681997Y-154950836D01*
X106687159Y-155034157D01*
X106684626Y-155125155D01*
X106674875Y-155216209D01*
X106658381Y-155299699D01*
X106635622Y-155368003D01*
X106631113Y-155379076D01*
X106616321Y-155423274D01*
X106600451Y-155479574D01*
X106586243Y-155538516D01*
X106581920Y-155557297D01*
X106565153Y-155618914D01*
X106546168Y-155676288D01*
X106528298Y-155719035D01*
X106516645Y-155742809D01*
X106500846Y-155782930D01*
X106495890Y-155817725D01*
X106503195Y-155851855D01*
X106524181Y-155889982D01*
X106560267Y-155936768D01*
X106612871Y-155996876D01*
X106618725Y-156003463D01*
X106644368Y-156036197D01*
X106654786Y-156061118D01*
X106653422Y-156085776D01*
X106642213Y-156115436D01*
X106617728Y-156160097D01*
X106586154Y-156207932D01*
X106552998Y-156250688D01*
X106523768Y-156280111D01*
X106495496Y-156297340D01*
X106469836Y-156304868D01*
X106454682Y-156301833D01*
X106419137Y-156279897D01*
X106377557Y-156239614D01*
X106332378Y-156184362D01*
X106286035Y-156117519D01*
X106240965Y-156042462D01*
X106199601Y-155962571D01*
X106164381Y-155881222D01*
X106117192Y-155744245D01*
X106068080Y-155546018D01*
X106039872Y-155345853D01*
X106032835Y-155147421D01*
X106047237Y-154954389D01*
X106083346Y-154770427D01*
X106087865Y-154753636D01*
X106113795Y-154666964D01*
X106142587Y-154584177D01*
X106172675Y-154508721D01*
X106202497Y-154444038D01*
X106230488Y-154393572D01*
X106255085Y-154360768D01*
X106274722Y-154349068D01*
X106284509Y-154351337D01*
%TA.AperFunction,EtchedComponent*%
G36*
X106284509Y-154351337D02*
G01*
X106311161Y-154369888D01*
X106340097Y-154401444D01*
X106365515Y-154439115D01*
X106381614Y-154476012D01*
X106385594Y-154492435D01*
X106393199Y-154569898D01*
X106386878Y-154653116D01*
X106367306Y-154730068D01*
X106316415Y-154886952D01*
X106275091Y-155078167D01*
X106257909Y-155264952D01*
X106265039Y-155446130D01*
X106271138Y-155495673D01*
X106283042Y-155561051D01*
X106297828Y-155605427D01*
X106316550Y-155631553D01*
X106340264Y-155642176D01*
X106352173Y-155642379D01*
X106365284Y-155633040D01*
X106368085Y-155608872D01*
X106360634Y-155567054D01*
X106342986Y-155504768D01*
X106340165Y-155495479D01*
X106313034Y-155368493D01*
X106309593Y-155247581D01*
X106329751Y-155130107D01*
X106346520Y-155075357D01*
X106374581Y-154999980D01*
X106407145Y-154925697D01*
X106442107Y-154856335D01*
X106477359Y-154795723D01*
X106510797Y-154747689D01*
X106540314Y-154716061D01*
X106563804Y-154704668D01*
X106579109Y-154715030D01*
X106600695Y-154743201D01*
X106624791Y-154783311D01*
X106647875Y-154829483D01*
X106666422Y-154875839D01*
X106668662Y-154882812D01*
X106681997Y-154950836D01*
X106687159Y-155034157D01*
X106684626Y-155125155D01*
X106674875Y-155216209D01*
X106658381Y-155299699D01*
X106635622Y-155368003D01*
X106631113Y-155379076D01*
X106616321Y-155423274D01*
X106600451Y-155479574D01*
X106586243Y-155538516D01*
X106581920Y-155557297D01*
X106565153Y-155618914D01*
X106546168Y-155676288D01*
X106528298Y-155719035D01*
X106516645Y-155742809D01*
X106500846Y-155782930D01*
X106495890Y-155817725D01*
X106503195Y-155851855D01*
X106524181Y-155889982D01*
X106560267Y-155936768D01*
X106612871Y-155996876D01*
X106618725Y-156003463D01*
X106644368Y-156036197D01*
X106654786Y-156061118D01*
X106653422Y-156085776D01*
X106642213Y-156115436D01*
X106617728Y-156160097D01*
X106586154Y-156207932D01*
X106552998Y-156250688D01*
X106523768Y-156280111D01*
X106495496Y-156297340D01*
X106469836Y-156304868D01*
X106454682Y-156301833D01*
X106419137Y-156279897D01*
X106377557Y-156239614D01*
X106332378Y-156184362D01*
X106286035Y-156117519D01*
X106240965Y-156042462D01*
X106199601Y-155962571D01*
X106164381Y-155881222D01*
X106117192Y-155744245D01*
X106068080Y-155546018D01*
X106039872Y-155345853D01*
X106032835Y-155147421D01*
X106047237Y-154954389D01*
X106083346Y-154770427D01*
X106087865Y-154753636D01*
X106113795Y-154666964D01*
X106142587Y-154584177D01*
X106172675Y-154508721D01*
X106202497Y-154444038D01*
X106230488Y-154393572D01*
X106255085Y-154360768D01*
X106274722Y-154349068D01*
X106284509Y-154351337D01*
G37*
%TD.AperFunction*%
X109197219Y-151403632D02*
X109238920Y-151405604D01*
X109248756Y-151406039D01*
X109332954Y-151414174D01*
X109393425Y-151429209D01*
X109429902Y-151451047D01*
X109442120Y-151479592D01*
X109438826Y-151495131D01*
X109423070Y-151512375D01*
X109411786Y-151522105D01*
X109404020Y-151547292D01*
X109396795Y-151569382D01*
X109367130Y-151588823D01*
X109343893Y-151603207D01*
X109312768Y-151632395D01*
X109282906Y-151667960D01*
X109260469Y-151702452D01*
X109251620Y-151728423D01*
X109260842Y-151743549D01*
X109285885Y-151745491D01*
X109322277Y-151736010D01*
X109365545Y-151717067D01*
X109411219Y-151690623D01*
X109454824Y-151658638D01*
X109491890Y-151623074D01*
X109508118Y-151605499D01*
X109538386Y-151578884D01*
X109571337Y-151560430D01*
X109610650Y-151549717D01*
X109660007Y-151546324D01*
X109723088Y-151549831D01*
X109803574Y-151559817D01*
X109905146Y-151575862D01*
X109955490Y-151583119D01*
X110028809Y-151591533D01*
X110108552Y-151598970D01*
X110184546Y-151604391D01*
X110232826Y-151607335D01*
X110290470Y-151612061D01*
X110334624Y-151618389D01*
X110372484Y-151627838D01*
X110411250Y-151641929D01*
X110458120Y-151662183D01*
X110524047Y-151691578D01*
X110598333Y-151724246D01*
X110655508Y-151748475D01*
X110699051Y-151765507D01*
X110732444Y-151776584D01*
X110759168Y-151782948D01*
X110782703Y-151785841D01*
X110806529Y-151786505D01*
X110838570Y-151787070D01*
X110865213Y-151790402D01*
X110891369Y-151798777D01*
X110922435Y-151814470D01*
X110963806Y-151839757D01*
X111020878Y-151876914D01*
X111060039Y-151903928D01*
X111108887Y-151943927D01*
X111153117Y-151990352D01*
X111200999Y-152051203D01*
X111207244Y-152059542D01*
X111249325Y-152113295D01*
X111301522Y-152177031D01*
X111357794Y-152243474D01*
X111412100Y-152305353D01*
X111435486Y-152331583D01*
X111518660Y-152428206D01*
X111587134Y-152513461D01*
X111640103Y-152586188D01*
X111676763Y-152645229D01*
X111696309Y-152689422D01*
X111697939Y-152717609D01*
X111686471Y-152726969D01*
X111651421Y-152743122D01*
X111594573Y-152764326D01*
X111517496Y-152790094D01*
X111421758Y-152819939D01*
X111308928Y-152853375D01*
X111180574Y-152889914D01*
X111038266Y-152929069D01*
X110883570Y-152970355D01*
X110793780Y-152994005D01*
X110603170Y-153044466D01*
X110434149Y-153089668D01*
X110284592Y-153130260D01*
X110152372Y-153166889D01*
X110035365Y-153200205D01*
X109931446Y-153230854D01*
X109838487Y-153259484D01*
X109754365Y-153286745D01*
X109676954Y-153313284D01*
X109604128Y-153339749D01*
X109533762Y-153366788D01*
X109463730Y-153395049D01*
X109391908Y-153425181D01*
X109317663Y-153456194D01*
X109245940Y-153484159D01*
X109189391Y-153503275D01*
X109143899Y-153514911D01*
X109105347Y-153520437D01*
X109094232Y-153521251D01*
X109049364Y-153521651D01*
X109011335Y-153514498D01*
X108974014Y-153497122D01*
X108931270Y-153466854D01*
X108876970Y-153421026D01*
X108816332Y-153372380D01*
X108756629Y-153335856D01*
X108691626Y-153309096D01*
X108614637Y-153289356D01*
X108518979Y-153273886D01*
X108423414Y-153263930D01*
X108267580Y-153257813D01*
X108106072Y-153262427D01*
X107942713Y-153277049D01*
X107781327Y-153300959D01*
X107625736Y-153333434D01*
X107479765Y-153373753D01*
X107347235Y-153421195D01*
X107231970Y-153475038D01*
X107137794Y-153534561D01*
X107107343Y-153556773D01*
X107066614Y-153584529D01*
X107035470Y-153603577D01*
X106993935Y-153620667D01*
X106951723Y-153620871D01*
X106905636Y-153600114D01*
X106883707Y-153584539D01*
X106861889Y-153556791D01*
X106855768Y-153521508D01*
X106864959Y-153474258D01*
X106889072Y-153410610D01*
X106893993Y-153398940D01*
X106912856Y-153350219D01*
X106926476Y-153308676D01*
X106932184Y-153282268D01*
X106932358Y-153278092D01*
X106929351Y-153259697D01*
X106914443Y-153250782D01*
X106880885Y-153246661D01*
X106869470Y-153245466D01*
X106834564Y-153237252D01*
X106813412Y-153225348D01*
X106809569Y-153220320D01*
X106805910Y-153210467D01*
X106808410Y-153196409D01*
X106818853Y-153173788D01*
X106839026Y-153138243D01*
X106870712Y-153085418D01*
X106879663Y-153068957D01*
X106900511Y-153019186D01*
X106915196Y-152968791D01*
X106919268Y-152952344D01*
X106939787Y-152899404D01*
X106974343Y-152837405D01*
X107024538Y-152763690D01*
X107091975Y-152675601D01*
X107119667Y-152639559D01*
X107140513Y-152607036D01*
X107149093Y-152582531D01*
X107148238Y-152560232D01*
X107146547Y-152548449D01*
X107149891Y-152527284D01*
X107165768Y-152504834D01*
X107198161Y-152474242D01*
X107209802Y-152464767D01*
X107254469Y-152434726D01*
X107310189Y-152403239D01*
X107367602Y-152375748D01*
X107391884Y-152365095D01*
X107474519Y-152326580D01*
X107574323Y-152277394D01*
X107687879Y-152219302D01*
X107811768Y-152154072D01*
X107942571Y-152083469D01*
X108076870Y-152009261D01*
X108084153Y-152005192D01*
X108165797Y-151959918D01*
X108261511Y-151907317D01*
X108363705Y-151851537D01*
X108464786Y-151796721D01*
X108557163Y-151747014D01*
X108589612Y-151729532D01*
X108671346Y-151684595D01*
X108749775Y-151640296D01*
X108820095Y-151599413D01*
X108877502Y-151564720D01*
X108917191Y-151538994D01*
X108948540Y-151517149D01*
X109008782Y-151475124D01*
X109053798Y-151444598D01*
X109087779Y-151423834D01*
X109114920Y-151411094D01*
X109139411Y-151404639D01*
X109165447Y-151402731D01*
X109197219Y-151403632D01*
%TA.AperFunction,EtchedComponent*%
G36*
X109197219Y-151403632D02*
G01*
X109238920Y-151405604D01*
X109248756Y-151406039D01*
X109332954Y-151414174D01*
X109393425Y-151429209D01*
X109429902Y-151451047D01*
X109442120Y-151479592D01*
X109438826Y-151495131D01*
X109423070Y-151512375D01*
X109411786Y-151522105D01*
X109404020Y-151547292D01*
X109396795Y-151569382D01*
X109367130Y-151588823D01*
X109343893Y-151603207D01*
X109312768Y-151632395D01*
X109282906Y-151667960D01*
X109260469Y-151702452D01*
X109251620Y-151728423D01*
X109260842Y-151743549D01*
X109285885Y-151745491D01*
X109322277Y-151736010D01*
X109365545Y-151717067D01*
X109411219Y-151690623D01*
X109454824Y-151658638D01*
X109491890Y-151623074D01*
X109508118Y-151605499D01*
X109538386Y-151578884D01*
X109571337Y-151560430D01*
X109610650Y-151549717D01*
X109660007Y-151546324D01*
X109723088Y-151549831D01*
X109803574Y-151559817D01*
X109905146Y-151575862D01*
X109955490Y-151583119D01*
X110028809Y-151591533D01*
X110108552Y-151598970D01*
X110184546Y-151604391D01*
X110232826Y-151607335D01*
X110290470Y-151612061D01*
X110334624Y-151618389D01*
X110372484Y-151627838D01*
X110411250Y-151641929D01*
X110458120Y-151662183D01*
X110524047Y-151691578D01*
X110598333Y-151724246D01*
X110655508Y-151748475D01*
X110699051Y-151765507D01*
X110732444Y-151776584D01*
X110759168Y-151782948D01*
X110782703Y-151785841D01*
X110806529Y-151786505D01*
X110838570Y-151787070D01*
X110865213Y-151790402D01*
X110891369Y-151798777D01*
X110922435Y-151814470D01*
X110963806Y-151839757D01*
X111020878Y-151876914D01*
X111060039Y-151903928D01*
X111108887Y-151943927D01*
X111153117Y-151990352D01*
X111200999Y-152051203D01*
X111207244Y-152059542D01*
X111249325Y-152113295D01*
X111301522Y-152177031D01*
X111357794Y-152243474D01*
X111412100Y-152305353D01*
X111435486Y-152331583D01*
X111518660Y-152428206D01*
X111587134Y-152513461D01*
X111640103Y-152586188D01*
X111676763Y-152645229D01*
X111696309Y-152689422D01*
X111697939Y-152717609D01*
X111686471Y-152726969D01*
X111651421Y-152743122D01*
X111594573Y-152764326D01*
X111517496Y-152790094D01*
X111421758Y-152819939D01*
X111308928Y-152853375D01*
X111180574Y-152889914D01*
X111038266Y-152929069D01*
X110883570Y-152970355D01*
X110793780Y-152994005D01*
X110603170Y-153044466D01*
X110434149Y-153089668D01*
X110284592Y-153130260D01*
X110152372Y-153166889D01*
X110035365Y-153200205D01*
X109931446Y-153230854D01*
X109838487Y-153259484D01*
X109754365Y-153286745D01*
X109676954Y-153313284D01*
X109604128Y-153339749D01*
X109533762Y-153366788D01*
X109463730Y-153395049D01*
X109391908Y-153425181D01*
X109317663Y-153456194D01*
X109245940Y-153484159D01*
X109189391Y-153503275D01*
X109143899Y-153514911D01*
X109105347Y-153520437D01*
X109094232Y-153521251D01*
X109049364Y-153521651D01*
X109011335Y-153514498D01*
X108974014Y-153497122D01*
X108931270Y-153466854D01*
X108876970Y-153421026D01*
X108816332Y-153372380D01*
X108756629Y-153335856D01*
X108691626Y-153309096D01*
X108614637Y-153289356D01*
X108518979Y-153273886D01*
X108423414Y-153263930D01*
X108267580Y-153257813D01*
X108106072Y-153262427D01*
X107942713Y-153277049D01*
X107781327Y-153300959D01*
X107625736Y-153333434D01*
X107479765Y-153373753D01*
X107347235Y-153421195D01*
X107231970Y-153475038D01*
X107137794Y-153534561D01*
X107107343Y-153556773D01*
X107066614Y-153584529D01*
X107035470Y-153603577D01*
X106993935Y-153620667D01*
X106951723Y-153620871D01*
X106905636Y-153600114D01*
X106883707Y-153584539D01*
X106861889Y-153556791D01*
X106855768Y-153521508D01*
X106864959Y-153474258D01*
X106889072Y-153410610D01*
X106893993Y-153398940D01*
X106912856Y-153350219D01*
X106926476Y-153308676D01*
X106932184Y-153282268D01*
X106932358Y-153278092D01*
X106929351Y-153259697D01*
X106914443Y-153250782D01*
X106880885Y-153246661D01*
X106869470Y-153245466D01*
X106834564Y-153237252D01*
X106813412Y-153225348D01*
X106809569Y-153220320D01*
X106805910Y-153210467D01*
X106808410Y-153196409D01*
X106818853Y-153173788D01*
X106839026Y-153138243D01*
X106870712Y-153085418D01*
X106879663Y-153068957D01*
X106900511Y-153019186D01*
X106915196Y-152968791D01*
X106919268Y-152952344D01*
X106939787Y-152899404D01*
X106974343Y-152837405D01*
X107024538Y-152763690D01*
X107091975Y-152675601D01*
X107119667Y-152639559D01*
X107140513Y-152607036D01*
X107149093Y-152582531D01*
X107148238Y-152560232D01*
X107146547Y-152548449D01*
X107149891Y-152527284D01*
X107165768Y-152504834D01*
X107198161Y-152474242D01*
X107209802Y-152464767D01*
X107254469Y-152434726D01*
X107310189Y-152403239D01*
X107367602Y-152375748D01*
X107391884Y-152365095D01*
X107474519Y-152326580D01*
X107574323Y-152277394D01*
X107687879Y-152219302D01*
X107811768Y-152154072D01*
X107942571Y-152083469D01*
X108076870Y-152009261D01*
X108084153Y-152005192D01*
X108165797Y-151959918D01*
X108261511Y-151907317D01*
X108363705Y-151851537D01*
X108464786Y-151796721D01*
X108557163Y-151747014D01*
X108589612Y-151729532D01*
X108671346Y-151684595D01*
X108749775Y-151640296D01*
X108820095Y-151599413D01*
X108877502Y-151564720D01*
X108917191Y-151538994D01*
X108948540Y-151517149D01*
X109008782Y-151475124D01*
X109053798Y-151444598D01*
X109087779Y-151423834D01*
X109114920Y-151411094D01*
X109139411Y-151404639D01*
X109165447Y-151402731D01*
X109197219Y-151403632D01*
G37*
%TD.AperFunction*%
X111760351Y-154714402D02*
X111760351Y-154714410D01*
X111753644Y-154748093D01*
X111742447Y-154783722D01*
X111732824Y-154813056D01*
X111725187Y-154849533D01*
X111726698Y-154883551D01*
X111738124Y-154923486D01*
X111760233Y-154977718D01*
X111761020Y-154979559D01*
X111768834Y-155001470D01*
X111774145Y-155026861D01*
X111777192Y-155060109D01*
X111778214Y-155105591D01*
X111777449Y-155167685D01*
X111775138Y-155250768D01*
X111772933Y-155312448D01*
X111767698Y-155412752D01*
X111760701Y-155492209D01*
X111751431Y-155553799D01*
X111739380Y-155600499D01*
X111724037Y-155635288D01*
X111704893Y-155661145D01*
X111703373Y-155662701D01*
X111678028Y-155684434D01*
X111637137Y-155715510D01*
X111586017Y-155752009D01*
X111529984Y-155790016D01*
X111505588Y-155806445D01*
X111433114Y-155859258D01*
X111372030Y-155909888D01*
X111327998Y-155953744D01*
X111321106Y-155961599D01*
X111267449Y-156012673D01*
X111216086Y-156041689D01*
X111163253Y-156050868D01*
X111143716Y-156054358D01*
X111102069Y-156074136D01*
X111053954Y-156107880D01*
X111004809Y-156151568D01*
X110960069Y-156201178D01*
X110945928Y-156219770D01*
X110909699Y-156273469D01*
X110873637Y-156334129D01*
X110840605Y-156396185D01*
X110813467Y-156454071D01*
X110795084Y-156502221D01*
X110788320Y-156535070D01*
X110788447Y-156541320D01*
X110795439Y-156581435D01*
X110810590Y-156610907D01*
X110830353Y-156622368D01*
X110831371Y-156622221D01*
X110848968Y-156612612D01*
X110881224Y-156590161D01*
X110923906Y-156557940D01*
X110972781Y-156519021D01*
X110995667Y-156500432D01*
X111103431Y-156415406D01*
X111195679Y-156347106D01*
X111272024Y-156295757D01*
X111332078Y-156261585D01*
X111375454Y-156244815D01*
X111401764Y-156245674D01*
X111410620Y-156264385D01*
X111409294Y-156277523D01*
X111399306Y-156318557D01*
X111381122Y-156374906D01*
X111356644Y-156441520D01*
X111327772Y-156513351D01*
X111296409Y-156585350D01*
X111264455Y-156652469D01*
X111264271Y-156652836D01*
X111237258Y-156708460D01*
X111215144Y-156757379D01*
X111211584Y-156766182D01*
X111200206Y-156794319D01*
X111194720Y-156814004D01*
X111194225Y-156817412D01*
X111183121Y-156841251D01*
X111160402Y-156876482D01*
X111130035Y-156916801D01*
X111103034Y-156950753D01*
X111082050Y-156980722D01*
X111071963Y-157004473D01*
X111069879Y-157029405D01*
X111072905Y-157062918D01*
X111077345Y-157095185D01*
X111088935Y-157147696D01*
X111103177Y-157181746D01*
X111118854Y-157193868D01*
X111123463Y-157192399D01*
X111138411Y-157174482D01*
X111153323Y-157142692D01*
X111164819Y-157105268D01*
X111169515Y-157070450D01*
X111169689Y-157062957D01*
X111176843Y-157024741D01*
X111193098Y-157006631D01*
X111216584Y-157010986D01*
X111227355Y-157022282D01*
X111243852Y-157060125D01*
X111258038Y-157119757D01*
X111269433Y-157198948D01*
X111277559Y-157295468D01*
X111284875Y-157416118D01*
X111186661Y-157477620D01*
X111144543Y-157502681D01*
X111074203Y-157535816D01*
X111013652Y-157549456D01*
X110958553Y-157543539D01*
X110904568Y-157518002D01*
X110847360Y-157472785D01*
X110819707Y-157448410D01*
X110781616Y-157419499D01*
X110758198Y-157409279D01*
X110750220Y-157418181D01*
X110754589Y-157428750D01*
X110769558Y-157455459D01*
X110791495Y-157490969D01*
X110801442Y-157506778D01*
X110818422Y-157538179D01*
X110827848Y-157568188D01*
X110831904Y-157605731D01*
X110832770Y-157659729D01*
X110832666Y-157672900D01*
X110830325Y-157721977D01*
X110825497Y-157759239D01*
X110818974Y-157777902D01*
X110802962Y-157788702D01*
X110762396Y-157798864D01*
X110714410Y-157797482D01*
X110668890Y-157784145D01*
X110658116Y-157779210D01*
X110631120Y-157768728D01*
X110618452Y-157766880D01*
X110615474Y-157777189D01*
X110609748Y-157806558D01*
X110603031Y-157847420D01*
X110591470Y-157923122D01*
X110529824Y-157945073D01*
X110509230Y-157953095D01*
X110469983Y-157971956D01*
X110443388Y-157989457D01*
X110438013Y-157994133D01*
X110416587Y-158004816D01*
X110393910Y-157996579D01*
X110375934Y-157985445D01*
X110343488Y-157965393D01*
X110323927Y-157957417D01*
X110301610Y-157961022D01*
X110267947Y-157978093D01*
X110242722Y-157991652D01*
X110205875Y-158004422D01*
X110175717Y-158000891D01*
X110144086Y-157981268D01*
X110130708Y-157971785D01*
X110096310Y-157958326D01*
X110055178Y-157959566D01*
X110000113Y-157975202D01*
X109945312Y-157994537D01*
X109893261Y-157943452D01*
X109865647Y-157918225D01*
X109830434Y-157896415D01*
X109800706Y-157896564D01*
X109771811Y-157919336D01*
X109739097Y-157965393D01*
X109714406Y-158002089D01*
X109684402Y-158040965D01*
X109659880Y-158066929D01*
X109618807Y-158090840D01*
X109566222Y-158095433D01*
X109508245Y-158075223D01*
X109444854Y-158030205D01*
X109420806Y-158010758D01*
X109392324Y-157996588D01*
X109368156Y-158001473D01*
X109341139Y-158025059D01*
X109310843Y-158048910D01*
X109276999Y-158063822D01*
X109251842Y-158065237D01*
X109204998Y-158061857D01*
X109144951Y-158054000D01*
X109077824Y-158042608D01*
X109009739Y-158028624D01*
X108946820Y-158012989D01*
X108882894Y-157996262D01*
X108833567Y-157986813D01*
X108792147Y-157984637D01*
X108750470Y-157989316D01*
X108700375Y-158000435D01*
X108696172Y-158001468D01*
X108632670Y-158013246D01*
X108583482Y-158014952D01*
X108551701Y-158006808D01*
X108540420Y-157989035D01*
X108546412Y-157973455D01*
X108564784Y-157943808D01*
X108591220Y-157908083D01*
X108599942Y-157896960D01*
X108628000Y-157857458D01*
X108641079Y-157831747D01*
X108638552Y-157821564D01*
X108619795Y-157828647D01*
X108605047Y-157838160D01*
X108573238Y-157859876D01*
X108535859Y-157886244D01*
X108501217Y-157909449D01*
X108470826Y-157923216D01*
X108436215Y-157929177D01*
X108386816Y-157930468D01*
X108341931Y-157932076D01*
X108286212Y-157937623D01*
X108242305Y-157945761D01*
X108227000Y-157949718D01*
X108196061Y-157954759D01*
X108174119Y-157949615D01*
X108150048Y-157932711D01*
X108148946Y-157931828D01*
X108111406Y-157906371D01*
X108070520Y-157884514D01*
X108066562Y-157882678D01*
X108025579Y-157858501D01*
X107987970Y-157829247D01*
X107969836Y-157815197D01*
X107926914Y-157790756D01*
X107880020Y-157771619D01*
X107836043Y-157756293D01*
X107796479Y-157735924D01*
X107774988Y-157710816D01*
X107769904Y-157676479D01*
X107779561Y-157628426D01*
X107802294Y-157562168D01*
X107815560Y-157520834D01*
X107827595Y-157454543D01*
X107827089Y-157396280D01*
X107814726Y-157349896D01*
X107791192Y-157319241D01*
X107757169Y-157308168D01*
X107745130Y-157308605D01*
X107730628Y-157315666D01*
X107732984Y-157336743D01*
X107742196Y-157377311D01*
X107744561Y-157461146D01*
X107724761Y-157538283D01*
X107684542Y-157605307D01*
X107625646Y-157658802D01*
X107549820Y-157695352D01*
X107520437Y-157705714D01*
X107482822Y-157721801D01*
X107459920Y-157735249D01*
X107459033Y-157736015D01*
X107432524Y-157751110D01*
X107411739Y-157743316D01*
X107393208Y-157711393D01*
X107391724Y-157707883D01*
X107375032Y-157676095D01*
X107353347Y-157654210D01*
X107320005Y-157637394D01*
X107268345Y-157620815D01*
X107253024Y-157616032D01*
X107189799Y-157584216D01*
X107147353Y-157538352D01*
X107124827Y-157477584D01*
X107119568Y-157452665D01*
X107104740Y-157411377D01*
X107080708Y-157382958D01*
X107041396Y-157358751D01*
X107038500Y-157357275D01*
X107016501Y-157345369D01*
X107001998Y-157333019D01*
X106993580Y-157315235D01*
X106989839Y-157287027D01*
X106989367Y-157243404D01*
X106990754Y-157179375D01*
X106991309Y-157152343D01*
X106990725Y-157112528D01*
X106986389Y-157088119D01*
X106976566Y-157072418D01*
X106959525Y-157058725D01*
X106920197Y-157030053D01*
X106877343Y-156992356D01*
X106852064Y-156955675D01*
X106842002Y-156913742D01*
X106844801Y-156860288D01*
X106858102Y-156789045D01*
X106871201Y-156736774D01*
X106872827Y-156732554D01*
X107553035Y-156732554D01*
X107570662Y-156737132D01*
X107607367Y-156726379D01*
X107662804Y-156700299D01*
X107736628Y-156658895D01*
X107868035Y-156581122D01*
X107972453Y-156601284D01*
X108013033Y-156609252D01*
X108081596Y-156623028D01*
X108157091Y-156638461D01*
X108229270Y-156653469D01*
X108234720Y-156654602D01*
X108308849Y-156668410D01*
X108396829Y-156682563D01*
X108488110Y-156695459D01*
X108572147Y-156705497D01*
X108590123Y-156707420D01*
X108676106Y-156718013D01*
X108742783Y-156729236D01*
X108795311Y-156742097D01*
X108838847Y-156757602D01*
X108843793Y-156759679D01*
X108972416Y-156808759D01*
X109085856Y-156841345D01*
X109187594Y-156858016D01*
X109281110Y-156859351D01*
X109369884Y-156845929D01*
X109411222Y-156836822D01*
X109471401Y-156828043D01*
X109523168Y-156829263D01*
X109576344Y-156841150D01*
X109640750Y-156864374D01*
X109660007Y-156871716D01*
X109724300Y-156893659D01*
X109796616Y-156915604D01*
X109864664Y-156933744D01*
X109893861Y-156940583D01*
X109958887Y-156954476D01*
X110019553Y-156965862D01*
X110065754Y-156972778D01*
X110104182Y-156976582D01*
X110128348Y-156976229D01*
X110138533Y-156969748D01*
X110140620Y-156955805D01*
X110139996Y-156947642D01*
X110133160Y-156914644D01*
X110121213Y-156875355D01*
X110112563Y-156847918D01*
X110108006Y-156812310D01*
X110118809Y-156793172D01*
X110145822Y-156787468D01*
X110174991Y-156781273D01*
X110188725Y-156766182D01*
X110182014Y-156747581D01*
X110177888Y-156744700D01*
X110152425Y-156736195D01*
X110116156Y-156730403D01*
X110088916Y-156725876D01*
X110050388Y-156708986D01*
X110008511Y-156675667D01*
X110003370Y-156670973D01*
X109966148Y-156641745D01*
X109929426Y-156625596D01*
X109880266Y-156616566D01*
X109864779Y-156614474D01*
X109822571Y-156604995D01*
X109790542Y-156587913D01*
X109756842Y-156557562D01*
X109744016Y-156544853D01*
X109718162Y-156522893D01*
X109699651Y-156516161D01*
X109681993Y-156521531D01*
X109665647Y-156527244D01*
X109643716Y-156522495D01*
X109612719Y-156501929D01*
X109604960Y-156496223D01*
X109566549Y-156472092D01*
X109532128Y-156455751D01*
X109524071Y-156452512D01*
X109501871Y-156438057D01*
X109477954Y-156412724D01*
X109449013Y-156372613D01*
X109411740Y-156313826D01*
X109388227Y-156285921D01*
X109360574Y-156267149D01*
X109344735Y-156258988D01*
X109312112Y-156230293D01*
X109287043Y-156194068D01*
X109277020Y-156159931D01*
X109271944Y-156129761D01*
X109248096Y-156094864D01*
X109209187Y-156073683D01*
X109160188Y-156068499D01*
X109106073Y-156081589D01*
X109105275Y-156081922D01*
X109062622Y-156097619D01*
X109037659Y-156099681D01*
X109025939Y-156086837D01*
X109023020Y-156057815D01*
X109025226Y-156018087D01*
X109035910Y-155982824D01*
X109059261Y-155956394D01*
X109099403Y-155934438D01*
X109160462Y-155912598D01*
X109172487Y-155908041D01*
X109212230Y-155887290D01*
X109251190Y-155860709D01*
X109267429Y-155848580D01*
X109297732Y-155829706D01*
X109317747Y-155822268D01*
X109337207Y-155830030D01*
X109367193Y-155856946D01*
X109401141Y-155899137D01*
X109435294Y-155952443D01*
X109459153Y-155990142D01*
X109478105Y-156009544D01*
X109489265Y-156005191D01*
X109492920Y-155977208D01*
X109493989Y-155959898D01*
X109506047Y-155930972D01*
X109534576Y-155915655D01*
X109583386Y-155911168D01*
X109600680Y-155910428D01*
X109659175Y-155893786D01*
X109705601Y-155854999D01*
X109740395Y-155793740D01*
X109755338Y-155748892D01*
X109761755Y-155689570D01*
X109746977Y-155644021D01*
X109710837Y-155611857D01*
X109653165Y-155592691D01*
X109601849Y-155578860D01*
X109536402Y-155553472D01*
X109473519Y-155522474D01*
X109424426Y-155490865D01*
X109421948Y-155488850D01*
X109396323Y-155451942D01*
X109392817Y-155403685D01*
X109411540Y-155345346D01*
X109427161Y-155316170D01*
X109447958Y-155292050D01*
X109476537Y-155277122D01*
X109518770Y-155268542D01*
X109580524Y-155263468D01*
X109689770Y-155257118D01*
X109693740Y-155209017D01*
X109693791Y-155208396D01*
X109693061Y-155175048D01*
X109681270Y-155148156D01*
X109653735Y-155116942D01*
X109623856Y-155091645D01*
X109590388Y-155076963D01*
X109553970Y-155077914D01*
X109511161Y-155095372D01*
X109458521Y-155130213D01*
X109392613Y-155183311D01*
X109387668Y-155187484D01*
X109302626Y-155251362D01*
X109218374Y-155297754D01*
X109125490Y-155331901D01*
X109124701Y-155332134D01*
X109069655Y-155343606D01*
X109004631Y-155350236D01*
X108938312Y-155351813D01*
X108879381Y-155348124D01*
X108836522Y-155338958D01*
X108809466Y-155327035D01*
X108739381Y-155280578D01*
X108673308Y-155215764D01*
X108615855Y-155137599D01*
X108571628Y-155051090D01*
X108557037Y-155017105D01*
X108535810Y-154979528D01*
X108515472Y-154963699D01*
X108492829Y-154967790D01*
X108464682Y-154989975D01*
X108458973Y-154995573D01*
X108433024Y-155029201D01*
X108428930Y-155059127D01*
X108445574Y-155091270D01*
X108455801Y-155114914D01*
X108462730Y-155157885D01*
X108463598Y-155206919D01*
X108458337Y-155251805D01*
X108446877Y-155282331D01*
X108433632Y-155294285D01*
X108402537Y-155305348D01*
X108351627Y-155311685D01*
X108342773Y-155312362D01*
X108301313Y-155317489D01*
X108279845Y-155325307D01*
X108273720Y-155337346D01*
X108272781Y-155354102D01*
X108269765Y-155391680D01*
X108265163Y-155443339D01*
X108259487Y-155503144D01*
X108254732Y-155552767D01*
X108251579Y-155608399D01*
X108256277Y-155645321D01*
X108272334Y-155667366D01*
X108303259Y-155678366D01*
X108352562Y-155682156D01*
X108423751Y-155682568D01*
X108556227Y-155682568D01*
X108550904Y-155793916D01*
X108548797Y-155829213D01*
X108542445Y-155883153D01*
X108531582Y-155924545D01*
X108514369Y-155961844D01*
X108492601Y-155994443D01*
X108462384Y-156025559D01*
X108433303Y-156043197D01*
X108410937Y-156042982D01*
X108410677Y-156042792D01*
X108406822Y-156026901D01*
X108406170Y-155993135D01*
X108408876Y-155948507D01*
X108411677Y-155908700D01*
X108410608Y-155872408D01*
X108403534Y-155860368D01*
X108399819Y-155861175D01*
X108379372Y-155876086D01*
X108351349Y-155905617D01*
X108320250Y-155944282D01*
X108290578Y-155986591D01*
X108266831Y-156027058D01*
X108255142Y-156047850D01*
X108232729Y-156079420D01*
X108213985Y-156096452D01*
X108199846Y-156099537D01*
X108163009Y-156103578D01*
X108109150Y-156107540D01*
X108042908Y-156111095D01*
X107968920Y-156113912D01*
X107746670Y-156120718D01*
X107673946Y-156228668D01*
X107652636Y-156260914D01*
X107626044Y-156303233D01*
X107607781Y-156334983D01*
X107600921Y-156351011D01*
X107601204Y-156353727D01*
X107616541Y-156367901D01*
X107652364Y-156377343D01*
X107704646Y-156380894D01*
X107735310Y-156383643D01*
X107759624Y-156394948D01*
X107761604Y-156411997D01*
X107741491Y-156431527D01*
X107699525Y-156450273D01*
X107681291Y-156457345D01*
X107664656Y-156470788D01*
X107653759Y-156495023D01*
X107644013Y-156537237D01*
X107626815Y-156595380D01*
X107589568Y-156660318D01*
X107576394Y-156677392D01*
X107554830Y-156712642D01*
X107553035Y-156732554D01*
X106872827Y-156732554D01*
X106906815Y-156644316D01*
X106955622Y-156569940D01*
X107019644Y-156510151D01*
X107055401Y-156482008D01*
X107114241Y-156429053D01*
X107168732Y-156372408D01*
X107215750Y-156315949D01*
X107252168Y-156263551D01*
X107274861Y-156219091D01*
X107280704Y-156186443D01*
X107270031Y-156164997D01*
X107235486Y-156145473D01*
X107233689Y-156144884D01*
X107201622Y-156131738D01*
X107180830Y-156118757D01*
X107177575Y-156111379D01*
X107170963Y-156081614D01*
X107163412Y-156033962D01*
X107155623Y-155973049D01*
X107148294Y-155903501D01*
X107143890Y-155859735D01*
X107130724Y-155755982D01*
X107115471Y-155673000D01*
X107097553Y-155607421D01*
X107081417Y-155552188D01*
X107064796Y-155480456D01*
X107053714Y-155415435D01*
X107053220Y-155411536D01*
X107044351Y-155352499D01*
X107032113Y-155290338D01*
X107015437Y-155220907D01*
X106993256Y-155140058D01*
X106964503Y-155043643D01*
X106928110Y-154927515D01*
X106914566Y-154884590D01*
X106885647Y-154787456D01*
X106866200Y-154708742D01*
X106856481Y-154644629D01*
X106856745Y-154591294D01*
X106867246Y-154544917D01*
X106888241Y-154501676D01*
X106919985Y-154457751D01*
X106962733Y-154409321D01*
X106969624Y-154401817D01*
X107010204Y-154354256D01*
X107047361Y-154305763D01*
X107073803Y-154265763D01*
X107083886Y-154248107D01*
X107107686Y-154208357D01*
X107124936Y-154189066D01*
X107140650Y-154189302D01*
X107159840Y-154208134D01*
X107187520Y-154244629D01*
X107193542Y-154252665D01*
X107305094Y-154389572D01*
X107415343Y-154502143D01*
X107523944Y-154590058D01*
X107630552Y-154653000D01*
X107681700Y-154675701D01*
X107762343Y-154703484D01*
X107847373Y-154721858D01*
X107943597Y-154732142D01*
X108057820Y-154735651D01*
X108120886Y-154735695D01*
X108173992Y-154734586D01*
X108212855Y-154731452D01*
X108243416Y-154725473D01*
X108271614Y-154715828D01*
X108303386Y-154701696D01*
X108325586Y-154690924D01*
X108368175Y-154667491D01*
X108411108Y-154639252D01*
X108458812Y-154602943D01*
X108515714Y-154555296D01*
X108586240Y-154493046D01*
X108600755Y-154479900D01*
X108725292Y-154353100D01*
X108783222Y-154278064D01*
X109581161Y-154278064D01*
X109591181Y-154292008D01*
X109618008Y-154296035D01*
X109662204Y-154293004D01*
X109688955Y-154288130D01*
X109752975Y-154266071D01*
X109829910Y-154228541D01*
X109861070Y-154212069D01*
X109981875Y-154156507D01*
X110107907Y-154110137D01*
X110233019Y-154074770D01*
X110351060Y-154052216D01*
X110455881Y-154044284D01*
X110472635Y-154044576D01*
X110578202Y-154058383D01*
X110686135Y-154090770D01*
X110790948Y-154138841D01*
X110887155Y-154199700D01*
X110969269Y-154270453D01*
X111031803Y-154348204D01*
X111044182Y-154369469D01*
X111061090Y-154406369D01*
X111067720Y-154433182D01*
X111062587Y-154452667D01*
X111039984Y-154481908D01*
X111007191Y-154504871D01*
X110972861Y-154514168D01*
X110959501Y-154510998D01*
X110926179Y-154496576D01*
X110881613Y-154473162D01*
X110831699Y-154443701D01*
X110785776Y-154415591D01*
X110691401Y-154362028D01*
X110609589Y-154323170D01*
X110535752Y-154297620D01*
X110465304Y-154283984D01*
X110393659Y-154280865D01*
X110316230Y-154286868D01*
X110302447Y-154288736D01*
X110241796Y-154300240D01*
X110178937Y-154316566D01*
X110117707Y-154336146D01*
X110061942Y-154357415D01*
X110015479Y-154378807D01*
X109982153Y-154398757D01*
X109965802Y-154415699D01*
X109970261Y-154428067D01*
X109973233Y-154428763D01*
X109996265Y-154426332D01*
X110034938Y-154417863D01*
X110082759Y-154404704D01*
X110086057Y-154403724D01*
X110219081Y-154377571D01*
X110354909Y-154376043D01*
X110491020Y-154398947D01*
X110624892Y-154446090D01*
X110624962Y-154446121D01*
X110668226Y-154468989D01*
X110707960Y-154495881D01*
X110739456Y-154522779D01*
X110758008Y-154545663D01*
X110758908Y-154560514D01*
X110752464Y-154561472D01*
X110725735Y-154557460D01*
X110683963Y-154547499D01*
X110632833Y-154532839D01*
X110632432Y-154532715D01*
X110567725Y-154514365D01*
X110513381Y-154503632D01*
X110457521Y-154498838D01*
X110388270Y-154498307D01*
X110372637Y-154498733D01*
X110320759Y-154502013D01*
X110258537Y-154507856D01*
X110191062Y-154515565D01*
X110123425Y-154524446D01*
X110060719Y-154533801D01*
X110008033Y-154542937D01*
X109970460Y-154551156D01*
X109953090Y-154557765D01*
X109951456Y-154561394D01*
X109963138Y-154571799D01*
X109994629Y-154582720D01*
X110041960Y-154592987D01*
X110101161Y-154601429D01*
X110155548Y-154608712D01*
X110193383Y-154617841D01*
X110221816Y-154631492D01*
X110248890Y-154652444D01*
X110263343Y-154664742D01*
X110288844Y-154684305D01*
X110302987Y-154692063D01*
X110317905Y-154693712D01*
X110351047Y-154698289D01*
X110394620Y-154704752D01*
X110438619Y-154711440D01*
X110491726Y-154719836D01*
X110526385Y-154726694D01*
X110546674Y-154733629D01*
X110556674Y-154742255D01*
X110560464Y-154754188D01*
X110562123Y-154771041D01*
X110565851Y-154792225D01*
X110579610Y-154810993D01*
X110610520Y-154822487D01*
X110636798Y-154831554D01*
X110673633Y-154850580D01*
X110705462Y-154873041D01*
X110726180Y-154894440D01*
X110729681Y-154910278D01*
X110721411Y-154915215D01*
X110696369Y-154918012D01*
X110653048Y-154916718D01*
X110589197Y-154911245D01*
X110502570Y-154901508D01*
X110451770Y-154895388D01*
X110515462Y-154926514D01*
X110515649Y-154926605D01*
X110577900Y-154950193D01*
X110659643Y-154969411D01*
X110762292Y-154984467D01*
X110887263Y-154995567D01*
X111035970Y-155002920D01*
X111100195Y-155005340D01*
X111171778Y-155008542D01*
X111232897Y-155011819D01*
X111278577Y-155014903D01*
X111303843Y-155017520D01*
X111327799Y-155019185D01*
X111351402Y-155009819D01*
X111377572Y-154983295D01*
X111414224Y-154933335D01*
X111453548Y-154860159D01*
X111480166Y-154785093D01*
X111491995Y-154714402D01*
X111486951Y-154654353D01*
X111484466Y-154646470D01*
X111459787Y-154602080D01*
X111421388Y-154558864D01*
X111376963Y-154524301D01*
X111334207Y-154505870D01*
X111315527Y-154501313D01*
X111294409Y-154490447D01*
X111280131Y-154470290D01*
X111269509Y-154435521D01*
X111259359Y-154380818D01*
X111252960Y-154347991D01*
X111214525Y-154233305D01*
X111153469Y-154126720D01*
X111071515Y-154030371D01*
X110970391Y-153946389D01*
X110851820Y-153876909D01*
X110771842Y-153838272D01*
X110679823Y-153794595D01*
X110605663Y-153760645D01*
X110546629Y-153735326D01*
X110499991Y-153717542D01*
X110463016Y-153706197D01*
X110432973Y-153700194D01*
X110407130Y-153698437D01*
X110364615Y-153702916D01*
X110288152Y-153726400D01*
X110196742Y-153769902D01*
X110090650Y-153833310D01*
X110051991Y-153858039D01*
X109995604Y-153892253D01*
X109948125Y-153917599D01*
X109902093Y-153937911D01*
X109850047Y-153957027D01*
X109839171Y-153960892D01*
X109794645Y-153980662D01*
X109756464Y-154006620D01*
X109720307Y-154042950D01*
X109681850Y-154093836D01*
X109636773Y-154163460D01*
X109609297Y-154208976D01*
X109587387Y-154251340D01*
X109581161Y-154278064D01*
X108783222Y-154278064D01*
X108829676Y-154217893D01*
X108917340Y-154069280D01*
X108991716Y-153902257D01*
X109039323Y-153779296D01*
X109252083Y-153683582D01*
X109397556Y-153619642D01*
X109545981Y-153557940D01*
X109693925Y-153500449D01*
X109845034Y-153445955D01*
X110002952Y-153393244D01*
X110171325Y-153341101D01*
X110353797Y-153288310D01*
X110554014Y-153233659D01*
X110775620Y-153175931D01*
X111232081Y-153052644D01*
X111708911Y-152909918D01*
X111848451Y-152865999D01*
X111927340Y-152949686D01*
X111933777Y-152956511D01*
X111969097Y-152993342D01*
X111992162Y-153014539D01*
X112007416Y-153022650D01*
X112019305Y-153020222D01*
X112032275Y-153009801D01*
X112050245Y-152989672D01*
X112056291Y-152966326D01*
X112046126Y-152936858D01*
X112019045Y-152895180D01*
X112006408Y-152877167D01*
X111990828Y-152850080D01*
X111988097Y-152830588D01*
X111995997Y-152810554D01*
X111996074Y-152810411D01*
X112009658Y-152776278D01*
X112019590Y-152736304D01*
X112025416Y-152713347D01*
X112042632Y-152691347D01*
X112069389Y-152692558D01*
X112106440Y-152716810D01*
X112112694Y-152722319D01*
X112151344Y-152767903D01*
X112181835Y-152822794D01*
X112200302Y-152878569D01*
X112202875Y-152926807D01*
X112201069Y-152953906D01*
X112208420Y-152993948D01*
X112229163Y-153044869D01*
X112233551Y-153054364D01*
X112251118Y-153104062D01*
X112250638Y-153138441D01*
X112231230Y-153160544D01*
X112192015Y-153173415D01*
X112167354Y-153180267D01*
X112149599Y-153194937D01*
X112156609Y-153212922D01*
X112188495Y-153232351D01*
X112191032Y-153233509D01*
X112228699Y-153262733D01*
X112262149Y-153314018D01*
X112272885Y-153333715D01*
X112295362Y-153364444D01*
X112312949Y-153372310D01*
X112325258Y-153368987D01*
X112378170Y-153360575D01*
X112420213Y-153367430D01*
X112460039Y-153390629D01*
X112488263Y-153417379D01*
X112529221Y-153479992D01*
X112563680Y-153566271D01*
X112591875Y-153676720D01*
X112597885Y-153708305D01*
X112608444Y-153776338D01*
X112616954Y-153847665D01*
X112623113Y-153917554D01*
X112626618Y-153981271D01*
X112627166Y-154034084D01*
X112624456Y-154071258D01*
X112618183Y-154088061D01*
X112613647Y-154090325D01*
X112591824Y-154086627D01*
X112571691Y-154060104D01*
X112555038Y-154012887D01*
X112544023Y-153976950D01*
X112528567Y-153948604D01*
X112514061Y-153943826D01*
X112501912Y-153961581D01*
X112493527Y-154000831D01*
X112490315Y-154060541D01*
X112489884Y-154091133D01*
X112486953Y-154126418D01*
X112480077Y-154145333D01*
X112467895Y-154153532D01*
X112456306Y-154157334D01*
X112429821Y-154169363D01*
X112409082Y-154186928D01*
X112392025Y-154213920D01*
X112376588Y-154254228D01*
X112360708Y-154311743D01*
X112342324Y-154390354D01*
X112329782Y-154441895D01*
X112314741Y-154494681D01*
X112300903Y-154534565D01*
X112290161Y-154555545D01*
X112281925Y-154564194D01*
X112266840Y-154570915D01*
X112248247Y-154558099D01*
X112241877Y-154551706D01*
X112232069Y-154538409D01*
X112221600Y-154518597D01*
X112209354Y-154489305D01*
X112194214Y-154447566D01*
X112175065Y-154390413D01*
X112150791Y-154314882D01*
X112120275Y-154218005D01*
X112100315Y-154153544D01*
X112081913Y-154091166D01*
X112070478Y-154047142D01*
X112065315Y-154018298D01*
X112065729Y-154001464D01*
X112071022Y-153993467D01*
X112077849Y-153990113D01*
X112105863Y-153992744D01*
X112136215Y-154020439D01*
X112169031Y-154073299D01*
X112179013Y-154091640D01*
X112196495Y-154117414D01*
X112206160Y-154121086D01*
X112208030Y-154104090D01*
X112202126Y-154067862D01*
X112188470Y-154013836D01*
X112167082Y-153943446D01*
X112166420Y-153941394D01*
X112138691Y-153845509D01*
X112124240Y-153771148D01*
X112123065Y-153718187D01*
X112135163Y-153686502D01*
X112160530Y-153675968D01*
X112182170Y-153671977D01*
X112190634Y-153655400D01*
X112177159Y-153626436D01*
X112146266Y-153595950D01*
X112102241Y-153582443D01*
X112050950Y-153593025D01*
X112016531Y-153614100D01*
X111990880Y-153650598D01*
X111978776Y-153703418D01*
X111978919Y-153775859D01*
X111979396Y-153782778D01*
X111981227Y-153827002D01*
X111977747Y-153856568D01*
X111966584Y-153880916D01*
X111945369Y-153909489D01*
X111931573Y-153927050D01*
X111913142Y-153951803D01*
X111905920Y-153963521D01*
X111905721Y-153966923D01*
X111900081Y-153995464D01*
X111888041Y-154040757D01*
X111871441Y-154096934D01*
X111852120Y-154158130D01*
X111831920Y-154218479D01*
X111812679Y-154272116D01*
X111796238Y-154313174D01*
X111750933Y-154416217D01*
X111759409Y-154563617D01*
X111762447Y-154624910D01*
X111763105Y-154675681D01*
X111760351Y-154714402D01*
%TA.AperFunction,EtchedComponent*%
G36*
X111760351Y-154714402D02*
G01*
X111760351Y-154714410D01*
X111753644Y-154748093D01*
X111742447Y-154783722D01*
X111732824Y-154813056D01*
X111725187Y-154849533D01*
X111726698Y-154883551D01*
X111738124Y-154923486D01*
X111760233Y-154977718D01*
X111761020Y-154979559D01*
X111768834Y-155001470D01*
X111774145Y-155026861D01*
X111777192Y-155060109D01*
X111778214Y-155105591D01*
X111777449Y-155167685D01*
X111775138Y-155250768D01*
X111772933Y-155312448D01*
X111767698Y-155412752D01*
X111760701Y-155492209D01*
X111751431Y-155553799D01*
X111739380Y-155600499D01*
X111724037Y-155635288D01*
X111704893Y-155661145D01*
X111703373Y-155662701D01*
X111678028Y-155684434D01*
X111637137Y-155715510D01*
X111586017Y-155752009D01*
X111529984Y-155790016D01*
X111505588Y-155806445D01*
X111433114Y-155859258D01*
X111372030Y-155909888D01*
X111327998Y-155953744D01*
X111321106Y-155961599D01*
X111267449Y-156012673D01*
X111216086Y-156041689D01*
X111163253Y-156050868D01*
X111143716Y-156054358D01*
X111102069Y-156074136D01*
X111053954Y-156107880D01*
X111004809Y-156151568D01*
X110960069Y-156201178D01*
X110945928Y-156219770D01*
X110909699Y-156273469D01*
X110873637Y-156334129D01*
X110840605Y-156396185D01*
X110813467Y-156454071D01*
X110795084Y-156502221D01*
X110788320Y-156535070D01*
X110788447Y-156541320D01*
X110795439Y-156581435D01*
X110810590Y-156610907D01*
X110830353Y-156622368D01*
X110831371Y-156622221D01*
X110848968Y-156612612D01*
X110881224Y-156590161D01*
X110923906Y-156557940D01*
X110972781Y-156519021D01*
X110995667Y-156500432D01*
X111103431Y-156415406D01*
X111195679Y-156347106D01*
X111272024Y-156295757D01*
X111332078Y-156261585D01*
X111375454Y-156244815D01*
X111401764Y-156245674D01*
X111410620Y-156264385D01*
X111409294Y-156277523D01*
X111399306Y-156318557D01*
X111381122Y-156374906D01*
X111356644Y-156441520D01*
X111327772Y-156513351D01*
X111296409Y-156585350D01*
X111264455Y-156652469D01*
X111264271Y-156652836D01*
X111237258Y-156708460D01*
X111215144Y-156757379D01*
X111211584Y-156766182D01*
X111200206Y-156794319D01*
X111194720Y-156814004D01*
X111194225Y-156817412D01*
X111183121Y-156841251D01*
X111160402Y-156876482D01*
X111130035Y-156916801D01*
X111103034Y-156950753D01*
X111082050Y-156980722D01*
X111071963Y-157004473D01*
X111069879Y-157029405D01*
X111072905Y-157062918D01*
X111077345Y-157095185D01*
X111088935Y-157147696D01*
X111103177Y-157181746D01*
X111118854Y-157193868D01*
X111123463Y-157192399D01*
X111138411Y-157174482D01*
X111153323Y-157142692D01*
X111164819Y-157105268D01*
X111169515Y-157070450D01*
X111169689Y-157062957D01*
X111176843Y-157024741D01*
X111193098Y-157006631D01*
X111216584Y-157010986D01*
X111227355Y-157022282D01*
X111243852Y-157060125D01*
X111258038Y-157119757D01*
X111269433Y-157198948D01*
X111277559Y-157295468D01*
X111284875Y-157416118D01*
X111186661Y-157477620D01*
X111144543Y-157502681D01*
X111074203Y-157535816D01*
X111013652Y-157549456D01*
X110958553Y-157543539D01*
X110904568Y-157518002D01*
X110847360Y-157472785D01*
X110819707Y-157448410D01*
X110781616Y-157419499D01*
X110758198Y-157409279D01*
X110750220Y-157418181D01*
X110754589Y-157428750D01*
X110769558Y-157455459D01*
X110791495Y-157490969D01*
X110801442Y-157506778D01*
X110818422Y-157538179D01*
X110827848Y-157568188D01*
X110831904Y-157605731D01*
X110832770Y-157659729D01*
X110832666Y-157672900D01*
X110830325Y-157721977D01*
X110825497Y-157759239D01*
X110818974Y-157777902D01*
X110802962Y-157788702D01*
X110762396Y-157798864D01*
X110714410Y-157797482D01*
X110668890Y-157784145D01*
X110658116Y-157779210D01*
X110631120Y-157768728D01*
X110618452Y-157766880D01*
X110615474Y-157777189D01*
X110609748Y-157806558D01*
X110603031Y-157847420D01*
X110591470Y-157923122D01*
X110529824Y-157945073D01*
X110509230Y-157953095D01*
X110469983Y-157971956D01*
X110443388Y-157989457D01*
X110438013Y-157994133D01*
X110416587Y-158004816D01*
X110393910Y-157996579D01*
X110375934Y-157985445D01*
X110343488Y-157965393D01*
X110323927Y-157957417D01*
X110301610Y-157961022D01*
X110267947Y-157978093D01*
X110242722Y-157991652D01*
X110205875Y-158004422D01*
X110175717Y-158000891D01*
X110144086Y-157981268D01*
X110130708Y-157971785D01*
X110096310Y-157958326D01*
X110055178Y-157959566D01*
X110000113Y-157975202D01*
X109945312Y-157994537D01*
X109893261Y-157943452D01*
X109865647Y-157918225D01*
X109830434Y-157896415D01*
X109800706Y-157896564D01*
X109771811Y-157919336D01*
X109739097Y-157965393D01*
X109714406Y-158002089D01*
X109684402Y-158040965D01*
X109659880Y-158066929D01*
X109618807Y-158090840D01*
X109566222Y-158095433D01*
X109508245Y-158075223D01*
X109444854Y-158030205D01*
X109420806Y-158010758D01*
X109392324Y-157996588D01*
X109368156Y-158001473D01*
X109341139Y-158025059D01*
X109310843Y-158048910D01*
X109276999Y-158063822D01*
X109251842Y-158065237D01*
X109204998Y-158061857D01*
X109144951Y-158054000D01*
X109077824Y-158042608D01*
X109009739Y-158028624D01*
X108946820Y-158012989D01*
X108882894Y-157996262D01*
X108833567Y-157986813D01*
X108792147Y-157984637D01*
X108750470Y-157989316D01*
X108700375Y-158000435D01*
X108696172Y-158001468D01*
X108632670Y-158013246D01*
X108583482Y-158014952D01*
X108551701Y-158006808D01*
X108540420Y-157989035D01*
X108546412Y-157973455D01*
X108564784Y-157943808D01*
X108591220Y-157908083D01*
X108599942Y-157896960D01*
X108628000Y-157857458D01*
X108641079Y-157831747D01*
X108638552Y-157821564D01*
X108619795Y-157828647D01*
X108605047Y-157838160D01*
X108573238Y-157859876D01*
X108535859Y-157886244D01*
X108501217Y-157909449D01*
X108470826Y-157923216D01*
X108436215Y-157929177D01*
X108386816Y-157930468D01*
X108341931Y-157932076D01*
X108286212Y-157937623D01*
X108242305Y-157945761D01*
X108227000Y-157949718D01*
X108196061Y-157954759D01*
X108174119Y-157949615D01*
X108150048Y-157932711D01*
X108148946Y-157931828D01*
X108111406Y-157906371D01*
X108070520Y-157884514D01*
X108066562Y-157882678D01*
X108025579Y-157858501D01*
X107987970Y-157829247D01*
X107969836Y-157815197D01*
X107926914Y-157790756D01*
X107880020Y-157771619D01*
X107836043Y-157756293D01*
X107796479Y-157735924D01*
X107774988Y-157710816D01*
X107769904Y-157676479D01*
X107779561Y-157628426D01*
X107802294Y-157562168D01*
X107815560Y-157520834D01*
X107827595Y-157454543D01*
X107827089Y-157396280D01*
X107814726Y-157349896D01*
X107791192Y-157319241D01*
X107757169Y-157308168D01*
X107745130Y-157308605D01*
X107730628Y-157315666D01*
X107732984Y-157336743D01*
X107742196Y-157377311D01*
X107744561Y-157461146D01*
X107724761Y-157538283D01*
X107684542Y-157605307D01*
X107625646Y-157658802D01*
X107549820Y-157695352D01*
X107520437Y-157705714D01*
X107482822Y-157721801D01*
X107459920Y-157735249D01*
X107459033Y-157736015D01*
X107432524Y-157751110D01*
X107411739Y-157743316D01*
X107393208Y-157711393D01*
X107391724Y-157707883D01*
X107375032Y-157676095D01*
X107353347Y-157654210D01*
X107320005Y-157637394D01*
X107268345Y-157620815D01*
X107253024Y-157616032D01*
X107189799Y-157584216D01*
X107147353Y-157538352D01*
X107124827Y-157477584D01*
X107119568Y-157452665D01*
X107104740Y-157411377D01*
X107080708Y-157382958D01*
X107041396Y-157358751D01*
X107038500Y-157357275D01*
X107016501Y-157345369D01*
X107001998Y-157333019D01*
X106993580Y-157315235D01*
X106989839Y-157287027D01*
X106989367Y-157243404D01*
X106990754Y-157179375D01*
X106991309Y-157152343D01*
X106990725Y-157112528D01*
X106986389Y-157088119D01*
X106976566Y-157072418D01*
X106959525Y-157058725D01*
X106920197Y-157030053D01*
X106877343Y-156992356D01*
X106852064Y-156955675D01*
X106842002Y-156913742D01*
X106844801Y-156860288D01*
X106858102Y-156789045D01*
X106871201Y-156736774D01*
X106872827Y-156732554D01*
X107553035Y-156732554D01*
X107570662Y-156737132D01*
X107607367Y-156726379D01*
X107662804Y-156700299D01*
X107736628Y-156658895D01*
X107868035Y-156581122D01*
X107972453Y-156601284D01*
X108013033Y-156609252D01*
X108081596Y-156623028D01*
X108157091Y-156638461D01*
X108229270Y-156653469D01*
X108234720Y-156654602D01*
X108308849Y-156668410D01*
X108396829Y-156682563D01*
X108488110Y-156695459D01*
X108572147Y-156705497D01*
X108590123Y-156707420D01*
X108676106Y-156718013D01*
X108742783Y-156729236D01*
X108795311Y-156742097D01*
X108838847Y-156757602D01*
X108843793Y-156759679D01*
X108972416Y-156808759D01*
X109085856Y-156841345D01*
X109187594Y-156858016D01*
X109281110Y-156859351D01*
X109369884Y-156845929D01*
X109411222Y-156836822D01*
X109471401Y-156828043D01*
X109523168Y-156829263D01*
X109576344Y-156841150D01*
X109640750Y-156864374D01*
X109660007Y-156871716D01*
X109724300Y-156893659D01*
X109796616Y-156915604D01*
X109864664Y-156933744D01*
X109893861Y-156940583D01*
X109958887Y-156954476D01*
X110019553Y-156965862D01*
X110065754Y-156972778D01*
X110104182Y-156976582D01*
X110128348Y-156976229D01*
X110138533Y-156969748D01*
X110140620Y-156955805D01*
X110139996Y-156947642D01*
X110133160Y-156914644D01*
X110121213Y-156875355D01*
X110112563Y-156847918D01*
X110108006Y-156812310D01*
X110118809Y-156793172D01*
X110145822Y-156787468D01*
X110174991Y-156781273D01*
X110188725Y-156766182D01*
X110182014Y-156747581D01*
X110177888Y-156744700D01*
X110152425Y-156736195D01*
X110116156Y-156730403D01*
X110088916Y-156725876D01*
X110050388Y-156708986D01*
X110008511Y-156675667D01*
X110003370Y-156670973D01*
X109966148Y-156641745D01*
X109929426Y-156625596D01*
X109880266Y-156616566D01*
X109864779Y-156614474D01*
X109822571Y-156604995D01*
X109790542Y-156587913D01*
X109756842Y-156557562D01*
X109744016Y-156544853D01*
X109718162Y-156522893D01*
X109699651Y-156516161D01*
X109681993Y-156521531D01*
X109665647Y-156527244D01*
X109643716Y-156522495D01*
X109612719Y-156501929D01*
X109604960Y-156496223D01*
X109566549Y-156472092D01*
X109532128Y-156455751D01*
X109524071Y-156452512D01*
X109501871Y-156438057D01*
X109477954Y-156412724D01*
X109449013Y-156372613D01*
X109411740Y-156313826D01*
X109388227Y-156285921D01*
X109360574Y-156267149D01*
X109344735Y-156258988D01*
X109312112Y-156230293D01*
X109287043Y-156194068D01*
X109277020Y-156159931D01*
X109271944Y-156129761D01*
X109248096Y-156094864D01*
X109209187Y-156073683D01*
X109160188Y-156068499D01*
X109106073Y-156081589D01*
X109105275Y-156081922D01*
X109062622Y-156097619D01*
X109037659Y-156099681D01*
X109025939Y-156086837D01*
X109023020Y-156057815D01*
X109025226Y-156018087D01*
X109035910Y-155982824D01*
X109059261Y-155956394D01*
X109099403Y-155934438D01*
X109160462Y-155912598D01*
X109172487Y-155908041D01*
X109212230Y-155887290D01*
X109251190Y-155860709D01*
X109267429Y-155848580D01*
X109297732Y-155829706D01*
X109317747Y-155822268D01*
X109337207Y-155830030D01*
X109367193Y-155856946D01*
X109401141Y-155899137D01*
X109435294Y-155952443D01*
X109459153Y-155990142D01*
X109478105Y-156009544D01*
X109489265Y-156005191D01*
X109492920Y-155977208D01*
X109493989Y-155959898D01*
X109506047Y-155930972D01*
X109534576Y-155915655D01*
X109583386Y-155911168D01*
X109600680Y-155910428D01*
X109659175Y-155893786D01*
X109705601Y-155854999D01*
X109740395Y-155793740D01*
X109755338Y-155748892D01*
X109761755Y-155689570D01*
X109746977Y-155644021D01*
X109710837Y-155611857D01*
X109653165Y-155592691D01*
X109601849Y-155578860D01*
X109536402Y-155553472D01*
X109473519Y-155522474D01*
X109424426Y-155490865D01*
X109421948Y-155488850D01*
X109396323Y-155451942D01*
X109392817Y-155403685D01*
X109411540Y-155345346D01*
X109427161Y-155316170D01*
X109447958Y-155292050D01*
X109476537Y-155277122D01*
X109518770Y-155268542D01*
X109580524Y-155263468D01*
X109689770Y-155257118D01*
X109693740Y-155209017D01*
X109693791Y-155208396D01*
X109693061Y-155175048D01*
X109681270Y-155148156D01*
X109653735Y-155116942D01*
X109623856Y-155091645D01*
X109590388Y-155076963D01*
X109553970Y-155077914D01*
X109511161Y-155095372D01*
X109458521Y-155130213D01*
X109392613Y-155183311D01*
X109387668Y-155187484D01*
X109302626Y-155251362D01*
X109218374Y-155297754D01*
X109125490Y-155331901D01*
X109124701Y-155332134D01*
X109069655Y-155343606D01*
X109004631Y-155350236D01*
X108938312Y-155351813D01*
X108879381Y-155348124D01*
X108836522Y-155338958D01*
X108809466Y-155327035D01*
X108739381Y-155280578D01*
X108673308Y-155215764D01*
X108615855Y-155137599D01*
X108571628Y-155051090D01*
X108557037Y-155017105D01*
X108535810Y-154979528D01*
X108515472Y-154963699D01*
X108492829Y-154967790D01*
X108464682Y-154989975D01*
X108458973Y-154995573D01*
X108433024Y-155029201D01*
X108428930Y-155059127D01*
X108445574Y-155091270D01*
X108455801Y-155114914D01*
X108462730Y-155157885D01*
X108463598Y-155206919D01*
X108458337Y-155251805D01*
X108446877Y-155282331D01*
X108433632Y-155294285D01*
X108402537Y-155305348D01*
X108351627Y-155311685D01*
X108342773Y-155312362D01*
X108301313Y-155317489D01*
X108279845Y-155325307D01*
X108273720Y-155337346D01*
X108272781Y-155354102D01*
X108269765Y-155391680D01*
X108265163Y-155443339D01*
X108259487Y-155503144D01*
X108254732Y-155552767D01*
X108251579Y-155608399D01*
X108256277Y-155645321D01*
X108272334Y-155667366D01*
X108303259Y-155678366D01*
X108352562Y-155682156D01*
X108423751Y-155682568D01*
X108556227Y-155682568D01*
X108550904Y-155793916D01*
X108548797Y-155829213D01*
X108542445Y-155883153D01*
X108531582Y-155924545D01*
X108514369Y-155961844D01*
X108492601Y-155994443D01*
X108462384Y-156025559D01*
X108433303Y-156043197D01*
X108410937Y-156042982D01*
X108410677Y-156042792D01*
X108406822Y-156026901D01*
X108406170Y-155993135D01*
X108408876Y-155948507D01*
X108411677Y-155908700D01*
X108410608Y-155872408D01*
X108403534Y-155860368D01*
X108399819Y-155861175D01*
X108379372Y-155876086D01*
X108351349Y-155905617D01*
X108320250Y-155944282D01*
X108290578Y-155986591D01*
X108266831Y-156027058D01*
X108255142Y-156047850D01*
X108232729Y-156079420D01*
X108213985Y-156096452D01*
X108199846Y-156099537D01*
X108163009Y-156103578D01*
X108109150Y-156107540D01*
X108042908Y-156111095D01*
X107968920Y-156113912D01*
X107746670Y-156120718D01*
X107673946Y-156228668D01*
X107652636Y-156260914D01*
X107626044Y-156303233D01*
X107607781Y-156334983D01*
X107600921Y-156351011D01*
X107601204Y-156353727D01*
X107616541Y-156367901D01*
X107652364Y-156377343D01*
X107704646Y-156380894D01*
X107735310Y-156383643D01*
X107759624Y-156394948D01*
X107761604Y-156411997D01*
X107741491Y-156431527D01*
X107699525Y-156450273D01*
X107681291Y-156457345D01*
X107664656Y-156470788D01*
X107653759Y-156495023D01*
X107644013Y-156537237D01*
X107626815Y-156595380D01*
X107589568Y-156660318D01*
X107576394Y-156677392D01*
X107554830Y-156712642D01*
X107553035Y-156732554D01*
X106872827Y-156732554D01*
X106906815Y-156644316D01*
X106955622Y-156569940D01*
X107019644Y-156510151D01*
X107055401Y-156482008D01*
X107114241Y-156429053D01*
X107168732Y-156372408D01*
X107215750Y-156315949D01*
X107252168Y-156263551D01*
X107274861Y-156219091D01*
X107280704Y-156186443D01*
X107270031Y-156164997D01*
X107235486Y-156145473D01*
X107233689Y-156144884D01*
X107201622Y-156131738D01*
X107180830Y-156118757D01*
X107177575Y-156111379D01*
X107170963Y-156081614D01*
X107163412Y-156033962D01*
X107155623Y-155973049D01*
X107148294Y-155903501D01*
X107143890Y-155859735D01*
X107130724Y-155755982D01*
X107115471Y-155673000D01*
X107097553Y-155607421D01*
X107081417Y-155552188D01*
X107064796Y-155480456D01*
X107053714Y-155415435D01*
X107053220Y-155411536D01*
X107044351Y-155352499D01*
X107032113Y-155290338D01*
X107015437Y-155220907D01*
X106993256Y-155140058D01*
X106964503Y-155043643D01*
X106928110Y-154927515D01*
X106914566Y-154884590D01*
X106885647Y-154787456D01*
X106866200Y-154708742D01*
X106856481Y-154644629D01*
X106856745Y-154591294D01*
X106867246Y-154544917D01*
X106888241Y-154501676D01*
X106919985Y-154457751D01*
X106962733Y-154409321D01*
X106969624Y-154401817D01*
X107010204Y-154354256D01*
X107047361Y-154305763D01*
X107073803Y-154265763D01*
X107083886Y-154248107D01*
X107107686Y-154208357D01*
X107124936Y-154189066D01*
X107140650Y-154189302D01*
X107159840Y-154208134D01*
X107187520Y-154244629D01*
X107193542Y-154252665D01*
X107305094Y-154389572D01*
X107415343Y-154502143D01*
X107523944Y-154590058D01*
X107630552Y-154653000D01*
X107681700Y-154675701D01*
X107762343Y-154703484D01*
X107847373Y-154721858D01*
X107943597Y-154732142D01*
X108057820Y-154735651D01*
X108120886Y-154735695D01*
X108173992Y-154734586D01*
X108212855Y-154731452D01*
X108243416Y-154725473D01*
X108271614Y-154715828D01*
X108303386Y-154701696D01*
X108325586Y-154690924D01*
X108368175Y-154667491D01*
X108411108Y-154639252D01*
X108458812Y-154602943D01*
X108515714Y-154555296D01*
X108586240Y-154493046D01*
X108600755Y-154479900D01*
X108725292Y-154353100D01*
X108783222Y-154278064D01*
X109581161Y-154278064D01*
X109591181Y-154292008D01*
X109618008Y-154296035D01*
X109662204Y-154293004D01*
X109688955Y-154288130D01*
X109752975Y-154266071D01*
X109829910Y-154228541D01*
X109861070Y-154212069D01*
X109981875Y-154156507D01*
X110107907Y-154110137D01*
X110233019Y-154074770D01*
X110351060Y-154052216D01*
X110455881Y-154044284D01*
X110472635Y-154044576D01*
X110578202Y-154058383D01*
X110686135Y-154090770D01*
X110790948Y-154138841D01*
X110887155Y-154199700D01*
X110969269Y-154270453D01*
X111031803Y-154348204D01*
X111044182Y-154369469D01*
X111061090Y-154406369D01*
X111067720Y-154433182D01*
X111062587Y-154452667D01*
X111039984Y-154481908D01*
X111007191Y-154504871D01*
X110972861Y-154514168D01*
X110959501Y-154510998D01*
X110926179Y-154496576D01*
X110881613Y-154473162D01*
X110831699Y-154443701D01*
X110785776Y-154415591D01*
X110691401Y-154362028D01*
X110609589Y-154323170D01*
X110535752Y-154297620D01*
X110465304Y-154283984D01*
X110393659Y-154280865D01*
X110316230Y-154286868D01*
X110302447Y-154288736D01*
X110241796Y-154300240D01*
X110178937Y-154316566D01*
X110117707Y-154336146D01*
X110061942Y-154357415D01*
X110015479Y-154378807D01*
X109982153Y-154398757D01*
X109965802Y-154415699D01*
X109970261Y-154428067D01*
X109973233Y-154428763D01*
X109996265Y-154426332D01*
X110034938Y-154417863D01*
X110082759Y-154404704D01*
X110086057Y-154403724D01*
X110219081Y-154377571D01*
X110354909Y-154376043D01*
X110491020Y-154398947D01*
X110624892Y-154446090D01*
X110624962Y-154446121D01*
X110668226Y-154468989D01*
X110707960Y-154495881D01*
X110739456Y-154522779D01*
X110758008Y-154545663D01*
X110758908Y-154560514D01*
X110752464Y-154561472D01*
X110725735Y-154557460D01*
X110683963Y-154547499D01*
X110632833Y-154532839D01*
X110632432Y-154532715D01*
X110567725Y-154514365D01*
X110513381Y-154503632D01*
X110457521Y-154498838D01*
X110388270Y-154498307D01*
X110372637Y-154498733D01*
X110320759Y-154502013D01*
X110258537Y-154507856D01*
X110191062Y-154515565D01*
X110123425Y-154524446D01*
X110060719Y-154533801D01*
X110008033Y-154542937D01*
X109970460Y-154551156D01*
X109953090Y-154557765D01*
X109951456Y-154561394D01*
X109963138Y-154571799D01*
X109994629Y-154582720D01*
X110041960Y-154592987D01*
X110101161Y-154601429D01*
X110155548Y-154608712D01*
X110193383Y-154617841D01*
X110221816Y-154631492D01*
X110248890Y-154652444D01*
X110263343Y-154664742D01*
X110288844Y-154684305D01*
X110302987Y-154692063D01*
X110317905Y-154693712D01*
X110351047Y-154698289D01*
X110394620Y-154704752D01*
X110438619Y-154711440D01*
X110491726Y-154719836D01*
X110526385Y-154726694D01*
X110546674Y-154733629D01*
X110556674Y-154742255D01*
X110560464Y-154754188D01*
X110562123Y-154771041D01*
X110565851Y-154792225D01*
X110579610Y-154810993D01*
X110610520Y-154822487D01*
X110636798Y-154831554D01*
X110673633Y-154850580D01*
X110705462Y-154873041D01*
X110726180Y-154894440D01*
X110729681Y-154910278D01*
X110721411Y-154915215D01*
X110696369Y-154918012D01*
X110653048Y-154916718D01*
X110589197Y-154911245D01*
X110502570Y-154901508D01*
X110451770Y-154895388D01*
X110515462Y-154926514D01*
X110515649Y-154926605D01*
X110577900Y-154950193D01*
X110659643Y-154969411D01*
X110762292Y-154984467D01*
X110887263Y-154995567D01*
X111035970Y-155002920D01*
X111100195Y-155005340D01*
X111171778Y-155008542D01*
X111232897Y-155011819D01*
X111278577Y-155014903D01*
X111303843Y-155017520D01*
X111327799Y-155019185D01*
X111351402Y-155009819D01*
X111377572Y-154983295D01*
X111414224Y-154933335D01*
X111453548Y-154860159D01*
X111480166Y-154785093D01*
X111491995Y-154714402D01*
X111486951Y-154654353D01*
X111484466Y-154646470D01*
X111459787Y-154602080D01*
X111421388Y-154558864D01*
X111376963Y-154524301D01*
X111334207Y-154505870D01*
X111315527Y-154501313D01*
X111294409Y-154490447D01*
X111280131Y-154470290D01*
X111269509Y-154435521D01*
X111259359Y-154380818D01*
X111252960Y-154347991D01*
X111214525Y-154233305D01*
X111153469Y-154126720D01*
X111071515Y-154030371D01*
X110970391Y-153946389D01*
X110851820Y-153876909D01*
X110771842Y-153838272D01*
X110679823Y-153794595D01*
X110605663Y-153760645D01*
X110546629Y-153735326D01*
X110499991Y-153717542D01*
X110463016Y-153706197D01*
X110432973Y-153700194D01*
X110407130Y-153698437D01*
X110364615Y-153702916D01*
X110288152Y-153726400D01*
X110196742Y-153769902D01*
X110090650Y-153833310D01*
X110051991Y-153858039D01*
X109995604Y-153892253D01*
X109948125Y-153917599D01*
X109902093Y-153937911D01*
X109850047Y-153957027D01*
X109839171Y-153960892D01*
X109794645Y-153980662D01*
X109756464Y-154006620D01*
X109720307Y-154042950D01*
X109681850Y-154093836D01*
X109636773Y-154163460D01*
X109609297Y-154208976D01*
X109587387Y-154251340D01*
X109581161Y-154278064D01*
X108783222Y-154278064D01*
X108829676Y-154217893D01*
X108917340Y-154069280D01*
X108991716Y-153902257D01*
X109039323Y-153779296D01*
X109252083Y-153683582D01*
X109397556Y-153619642D01*
X109545981Y-153557940D01*
X109693925Y-153500449D01*
X109845034Y-153445955D01*
X110002952Y-153393244D01*
X110171325Y-153341101D01*
X110353797Y-153288310D01*
X110554014Y-153233659D01*
X110775620Y-153175931D01*
X111232081Y-153052644D01*
X111708911Y-152909918D01*
X111848451Y-152865999D01*
X111927340Y-152949686D01*
X111933777Y-152956511D01*
X111969097Y-152993342D01*
X111992162Y-153014539D01*
X112007416Y-153022650D01*
X112019305Y-153020222D01*
X112032275Y-153009801D01*
X112050245Y-152989672D01*
X112056291Y-152966326D01*
X112046126Y-152936858D01*
X112019045Y-152895180D01*
X112006408Y-152877167D01*
X111990828Y-152850080D01*
X111988097Y-152830588D01*
X111995997Y-152810554D01*
X111996074Y-152810411D01*
X112009658Y-152776278D01*
X112019590Y-152736304D01*
X112025416Y-152713347D01*
X112042632Y-152691347D01*
X112069389Y-152692558D01*
X112106440Y-152716810D01*
X112112694Y-152722319D01*
X112151344Y-152767903D01*
X112181835Y-152822794D01*
X112200302Y-152878569D01*
X112202875Y-152926807D01*
X112201069Y-152953906D01*
X112208420Y-152993948D01*
X112229163Y-153044869D01*
X112233551Y-153054364D01*
X112251118Y-153104062D01*
X112250638Y-153138441D01*
X112231230Y-153160544D01*
X112192015Y-153173415D01*
X112167354Y-153180267D01*
X112149599Y-153194937D01*
X112156609Y-153212922D01*
X112188495Y-153232351D01*
X112191032Y-153233509D01*
X112228699Y-153262733D01*
X112262149Y-153314018D01*
X112272885Y-153333715D01*
X112295362Y-153364444D01*
X112312949Y-153372310D01*
X112325258Y-153368987D01*
X112378170Y-153360575D01*
X112420213Y-153367430D01*
X112460039Y-153390629D01*
X112488263Y-153417379D01*
X112529221Y-153479992D01*
X112563680Y-153566271D01*
X112591875Y-153676720D01*
X112597885Y-153708305D01*
X112608444Y-153776338D01*
X112616954Y-153847665D01*
X112623113Y-153917554D01*
X112626618Y-153981271D01*
X112627166Y-154034084D01*
X112624456Y-154071258D01*
X112618183Y-154088061D01*
X112613647Y-154090325D01*
X112591824Y-154086627D01*
X112571691Y-154060104D01*
X112555038Y-154012887D01*
X112544023Y-153976950D01*
X112528567Y-153948604D01*
X112514061Y-153943826D01*
X112501912Y-153961581D01*
X112493527Y-154000831D01*
X112490315Y-154060541D01*
X112489884Y-154091133D01*
X112486953Y-154126418D01*
X112480077Y-154145333D01*
X112467895Y-154153532D01*
X112456306Y-154157334D01*
X112429821Y-154169363D01*
X112409082Y-154186928D01*
X112392025Y-154213920D01*
X112376588Y-154254228D01*
X112360708Y-154311743D01*
X112342324Y-154390354D01*
X112329782Y-154441895D01*
X112314741Y-154494681D01*
X112300903Y-154534565D01*
X112290161Y-154555545D01*
X112281925Y-154564194D01*
X112266840Y-154570915D01*
X112248247Y-154558099D01*
X112241877Y-154551706D01*
X112232069Y-154538409D01*
X112221600Y-154518597D01*
X112209354Y-154489305D01*
X112194214Y-154447566D01*
X112175065Y-154390413D01*
X112150791Y-154314882D01*
X112120275Y-154218005D01*
X112100315Y-154153544D01*
X112081913Y-154091166D01*
X112070478Y-154047142D01*
X112065315Y-154018298D01*
X112065729Y-154001464D01*
X112071022Y-153993467D01*
X112077849Y-153990113D01*
X112105863Y-153992744D01*
X112136215Y-154020439D01*
X112169031Y-154073299D01*
X112179013Y-154091640D01*
X112196495Y-154117414D01*
X112206160Y-154121086D01*
X112208030Y-154104090D01*
X112202126Y-154067862D01*
X112188470Y-154013836D01*
X112167082Y-153943446D01*
X112166420Y-153941394D01*
X112138691Y-153845509D01*
X112124240Y-153771148D01*
X112123065Y-153718187D01*
X112135163Y-153686502D01*
X112160530Y-153675968D01*
X112182170Y-153671977D01*
X112190634Y-153655400D01*
X112177159Y-153626436D01*
X112146266Y-153595950D01*
X112102241Y-153582443D01*
X112050950Y-153593025D01*
X112016531Y-153614100D01*
X111990880Y-153650598D01*
X111978776Y-153703418D01*
X111978919Y-153775859D01*
X111979396Y-153782778D01*
X111981227Y-153827002D01*
X111977747Y-153856568D01*
X111966584Y-153880916D01*
X111945369Y-153909489D01*
X111931573Y-153927050D01*
X111913142Y-153951803D01*
X111905920Y-153963521D01*
X111905721Y-153966923D01*
X111900081Y-153995464D01*
X111888041Y-154040757D01*
X111871441Y-154096934D01*
X111852120Y-154158130D01*
X111831920Y-154218479D01*
X111812679Y-154272116D01*
X111796238Y-154313174D01*
X111750933Y-154416217D01*
X111759409Y-154563617D01*
X111762447Y-154624910D01*
X111763105Y-154675681D01*
X111760351Y-154714402D01*
G37*
%TD.AperFunction*%
X161471376Y-156245971D02*
X160286043Y-156245971D01*
X160286043Y-155335805D01*
X160645876Y-155335805D01*
X160645876Y-155886138D01*
X161132710Y-155886138D01*
X161132710Y-155124138D01*
X160286043Y-155124138D01*
X160286043Y-154764305D01*
X161471376Y-154764305D01*
X161471376Y-156245971D01*
%TA.AperFunction,EtchedComponent*%
G36*
X161471376Y-156245971D02*
G01*
X160286043Y-156245971D01*
X160286043Y-155335805D01*
X160645876Y-155335805D01*
X160645876Y-155886138D01*
X161132710Y-155886138D01*
X161132710Y-155124138D01*
X160286043Y-155124138D01*
X160286043Y-154764305D01*
X161471376Y-154764305D01*
X161471376Y-156245971D01*
G37*
%TD.AperFunction*%
X158719710Y-155124138D02*
X157894210Y-155124138D01*
X157894210Y-155335805D01*
X158444543Y-155335805D01*
X158444543Y-155674471D01*
X157894210Y-155674471D01*
X157894210Y-155886138D01*
X158719710Y-155886138D01*
X158719710Y-156245971D01*
X157534376Y-156245971D01*
X157534376Y-154764305D01*
X158719710Y-154764305D01*
X158719710Y-155124138D01*
%TA.AperFunction,EtchedComponent*%
G36*
X158719710Y-155124138D02*
G01*
X157894210Y-155124138D01*
X157894210Y-155335805D01*
X158444543Y-155335805D01*
X158444543Y-155674471D01*
X157894210Y-155674471D01*
X157894210Y-155886138D01*
X158719710Y-155886138D01*
X158719710Y-156245971D01*
X157534376Y-156245971D01*
X157534376Y-154764305D01*
X158719710Y-154764305D01*
X158719710Y-155124138D01*
G37*
%TD.AperFunction*%
X156497210Y-155261059D02*
X156995262Y-154764305D01*
X157343876Y-154764305D01*
X157343876Y-154985943D01*
X157084902Y-155245541D01*
X156825928Y-155505138D01*
X157343876Y-156024332D01*
X157343876Y-156245971D01*
X157016404Y-156245971D01*
X156497210Y-155728023D01*
X156497210Y-156245971D01*
X156158543Y-156245971D01*
X156158543Y-154764305D01*
X156497210Y-154764305D01*
X156497210Y-155261059D01*
%TA.AperFunction,EtchedComponent*%
G36*
X156497210Y-155261059D02*
G01*
X156995262Y-154764305D01*
X157343876Y-154764305D01*
X157343876Y-154985943D01*
X157084902Y-155245541D01*
X156825928Y-155505138D01*
X157343876Y-156024332D01*
X157343876Y-156245971D01*
X157016404Y-156245971D01*
X156497210Y-155728023D01*
X156497210Y-156245971D01*
X156158543Y-156245971D01*
X156158543Y-154764305D01*
X156497210Y-154764305D01*
X156497210Y-155261059D01*
G37*
%TD.AperFunction*%
X160106126Y-155113555D02*
X159688085Y-155119294D01*
X159270043Y-155125033D01*
X159270043Y-155335805D01*
X159820376Y-155335805D01*
X159820376Y-155674471D01*
X159270043Y-155674471D01*
X159270043Y-155885243D01*
X159688085Y-155890982D01*
X160106126Y-155896721D01*
X160106126Y-156235388D01*
X158910210Y-156246630D01*
X158910210Y-154764305D01*
X160118422Y-154764305D01*
X160106126Y-155113555D01*
%TA.AperFunction,EtchedComponent*%
G36*
X160106126Y-155113555D02*
G01*
X159688085Y-155119294D01*
X159270043Y-155125033D01*
X159270043Y-155335805D01*
X159820376Y-155335805D01*
X159820376Y-155674471D01*
X159270043Y-155674471D01*
X159270043Y-155885243D01*
X159688085Y-155890982D01*
X160106126Y-155896721D01*
X160106126Y-156235388D01*
X158910210Y-156246630D01*
X158910210Y-154764305D01*
X160118422Y-154764305D01*
X160106126Y-155113555D01*
G37*
%TD.AperFunction*%
X154920293Y-154784122D02*
X156031543Y-154784122D01*
X156031576Y-155078897D01*
X156031726Y-155334272D01*
X156032064Y-155553182D01*
X156032666Y-155738562D01*
X156033604Y-155893346D01*
X156034953Y-156020467D01*
X156036785Y-156122860D01*
X156039174Y-156203460D01*
X156042194Y-156265200D01*
X156045919Y-156311015D01*
X156050421Y-156343838D01*
X156055775Y-156366605D01*
X156062054Y-156382250D01*
X156069331Y-156393705D01*
X156071979Y-156397085D01*
X156089583Y-156416358D01*
X156110901Y-156430132D01*
X156143074Y-156439545D01*
X156193245Y-156445733D01*
X156268553Y-156449837D01*
X156376142Y-156452993D01*
X156430803Y-156454267D01*
X156749192Y-156461480D01*
X156763597Y-156557541D01*
X156769148Y-156625702D01*
X156770624Y-156717865D01*
X156767806Y-156815873D01*
X156766924Y-156831180D01*
X156763785Y-156967735D01*
X156772702Y-157074578D01*
X156793083Y-157147715D01*
X156818470Y-157180077D01*
X156846530Y-157184905D01*
X156910938Y-157189260D01*
X157005711Y-157192950D01*
X157124864Y-157195787D01*
X157262416Y-157197582D01*
X157389770Y-157198147D01*
X157538298Y-157198641D01*
X157673545Y-157199863D01*
X157789523Y-157201697D01*
X157880246Y-157204026D01*
X157939726Y-157206734D01*
X157961270Y-157209254D01*
X157973260Y-157223433D01*
X157980788Y-157258880D01*
X157984303Y-157321456D01*
X157984255Y-157417018D01*
X157982776Y-157489712D01*
X157981936Y-157644140D01*
X157988174Y-157759004D01*
X158001622Y-157836502D01*
X158003943Y-157844055D01*
X158023276Y-157894668D01*
X158047198Y-157921270D01*
X158089671Y-157933839D01*
X158137626Y-157939601D01*
X158179769Y-157941731D01*
X158257584Y-157943570D01*
X158364410Y-157945107D01*
X158493587Y-157946329D01*
X158638454Y-157947226D01*
X158792351Y-157947785D01*
X158948618Y-157947994D01*
X159100594Y-157947841D01*
X159241618Y-157947315D01*
X159365029Y-157946403D01*
X159464169Y-157945093D01*
X159532375Y-157943375D01*
X159555793Y-157942133D01*
X159593175Y-157937128D01*
X159620693Y-157925234D01*
X159640113Y-157900559D01*
X159653201Y-157857213D01*
X159661723Y-157789304D01*
X159667446Y-157690942D01*
X159672136Y-157556235D01*
X159672210Y-157553835D01*
X159682793Y-157209055D01*
X160268441Y-157198471D01*
X160421884Y-157195184D01*
X160561384Y-157191213D01*
X160681370Y-157186796D01*
X160776268Y-157182169D01*
X160840508Y-157177571D01*
X160868516Y-157173239D01*
X160869088Y-157172852D01*
X160887445Y-157132846D01*
X160900688Y-157060802D01*
X160907787Y-156966817D01*
X160907712Y-156860990D01*
X160905399Y-156816971D01*
X160901749Y-156722092D01*
X160902873Y-156629288D01*
X160908523Y-156558434D01*
X160908639Y-156557652D01*
X160923061Y-156461480D01*
X161241449Y-156454267D01*
X161364218Y-156451171D01*
X161451801Y-156447590D01*
X161511338Y-156442387D01*
X161549973Y-156434424D01*
X161574847Y-156422562D01*
X161593100Y-156405664D01*
X161600274Y-156397085D01*
X161607860Y-156386434D01*
X161614432Y-156372597D01*
X161620060Y-156352658D01*
X161624817Y-156323698D01*
X161628773Y-156282800D01*
X161631999Y-156227046D01*
X161634567Y-156153519D01*
X161636548Y-156059301D01*
X161638013Y-155941474D01*
X161639032Y-155797121D01*
X161639679Y-155623324D01*
X161640022Y-155417166D01*
X161640135Y-155175728D01*
X161640087Y-154896094D01*
X161640036Y-154767251D01*
X161639918Y-154467253D01*
X161639722Y-154206711D01*
X161639281Y-153982751D01*
X161638424Y-153792495D01*
X161636982Y-153633068D01*
X161634785Y-153501593D01*
X161631664Y-153395195D01*
X161627450Y-153310997D01*
X161621973Y-153246122D01*
X161615064Y-153197696D01*
X161606554Y-153162842D01*
X161596272Y-153138683D01*
X161584049Y-153122343D01*
X161569717Y-153110947D01*
X161553105Y-153101617D01*
X161541559Y-153095595D01*
X161494512Y-153082752D01*
X161418761Y-153074523D01*
X161327719Y-153071270D01*
X161234802Y-153073350D01*
X161153422Y-153081123D01*
X161133059Y-153084660D01*
X161064618Y-153098348D01*
X161069685Y-153629701D01*
X161071430Y-153811221D01*
X161072578Y-153955204D01*
X161072770Y-154066449D01*
X161071646Y-154149751D01*
X161068850Y-154209907D01*
X161064021Y-154251713D01*
X161056803Y-154279967D01*
X161046836Y-154299466D01*
X161033763Y-154315005D01*
X161017255Y-154331350D01*
X160968363Y-154367269D01*
X160906576Y-154381907D01*
X160867697Y-154383305D01*
X160796716Y-154380338D01*
X160740799Y-154368536D01*
X160698384Y-154343548D01*
X160667913Y-154301021D01*
X160647825Y-154236602D01*
X160636561Y-154145940D01*
X160632562Y-154024683D01*
X160634266Y-153868478D01*
X160637829Y-153741913D01*
X160641463Y-153601251D01*
X160643302Y-153468660D01*
X160643357Y-153352247D01*
X160641638Y-153260122D01*
X160638154Y-153200392D01*
X160637147Y-153192372D01*
X160625886Y-153131797D01*
X160610361Y-153102295D01*
X160582059Y-153092819D01*
X160559913Y-153092138D01*
X160497710Y-153092138D01*
X160497710Y-153664689D01*
X160497370Y-153857872D01*
X160495487Y-154012915D01*
X160490759Y-154134010D01*
X160481886Y-154225350D01*
X160467569Y-154291127D01*
X160446509Y-154335533D01*
X160417405Y-154362761D01*
X160378957Y-154377004D01*
X160329865Y-154382453D01*
X160274909Y-154383305D01*
X160191202Y-154372060D01*
X160125198Y-154333967D01*
X160123181Y-154332249D01*
X160063793Y-154281193D01*
X160057558Y-153686666D01*
X160051323Y-153092138D01*
X159928096Y-153092138D01*
X159921861Y-153683134D01*
X159915626Y-154274131D01*
X159864312Y-154328718D01*
X159823397Y-154363198D01*
X159774926Y-154379176D01*
X159705562Y-154382631D01*
X159645270Y-154380860D01*
X159596899Y-154373579D01*
X159559137Y-154356586D01*
X159530673Y-154325677D01*
X159510196Y-154276648D01*
X159496395Y-154205296D01*
X159487957Y-154107418D01*
X159483573Y-153978810D01*
X159481931Y-153815269D01*
X159481710Y-153665029D01*
X159481710Y-153092138D01*
X159326842Y-153092138D01*
X159339785Y-153645522D01*
X159343737Y-153841736D01*
X159344610Y-153999770D01*
X159341132Y-154123736D01*
X159332031Y-154217750D01*
X159316036Y-154285924D01*
X159291876Y-154332374D01*
X159258277Y-154361213D01*
X159213969Y-154376555D01*
X159157680Y-154382513D01*
X159111722Y-154383305D01*
X159037338Y-154376399D01*
X158984741Y-154351302D01*
X158962164Y-154331350D01*
X158945693Y-154314909D01*
X158932645Y-154299015D01*
X158922670Y-154278918D01*
X158915423Y-154249868D01*
X158910554Y-154207115D01*
X158907715Y-154145910D01*
X158906560Y-154061501D01*
X158906739Y-153949140D01*
X158907904Y-153804076D01*
X158909709Y-153621559D01*
X158909764Y-153616013D01*
X158914941Y-153092138D01*
X158757359Y-153092138D01*
X158762472Y-153626596D01*
X158764229Y-153808602D01*
X158765390Y-153953058D01*
X158765599Y-154064747D01*
X158764501Y-154148453D01*
X158761741Y-154208958D01*
X158756964Y-154251045D01*
X158749812Y-154279497D01*
X158739932Y-154299098D01*
X158726968Y-154314630D01*
X158710563Y-154330876D01*
X158710088Y-154331350D01*
X158661196Y-154367269D01*
X158599410Y-154381907D01*
X158560530Y-154383305D01*
X158495096Y-154381344D01*
X158442555Y-154372723D01*
X158401637Y-154353333D01*
X158371071Y-154319063D01*
X158349587Y-154265805D01*
X158335913Y-154189450D01*
X158328780Y-154085888D01*
X158326916Y-153951009D01*
X158329051Y-153780705D01*
X158332091Y-153644539D01*
X158345479Y-153092138D01*
X158190543Y-153092138D01*
X158190543Y-153665029D01*
X158190206Y-153845779D01*
X158188798Y-153989154D01*
X158185726Y-154100112D01*
X158180395Y-154183609D01*
X158172212Y-154244600D01*
X158160582Y-154288044D01*
X158144912Y-154318895D01*
X158124607Y-154342112D01*
X158107710Y-154356173D01*
X158066976Y-154371919D01*
X158003602Y-154381433D01*
X157974765Y-154382631D01*
X157895044Y-154375212D01*
X157835284Y-154347420D01*
X157816015Y-154332249D01*
X157756626Y-154281193D01*
X157750391Y-153686666D01*
X157744157Y-153092138D01*
X157620929Y-153092138D01*
X157614694Y-153686666D01*
X157608460Y-154281193D01*
X157549071Y-154332249D01*
X157483310Y-154371300D01*
X157400462Y-154383294D01*
X157397344Y-154383305D01*
X157337449Y-154382211D01*
X157289379Y-154376135D01*
X157251834Y-154360885D01*
X157223515Y-154332268D01*
X157203122Y-154286092D01*
X157189354Y-154218163D01*
X157180912Y-154124291D01*
X157176496Y-154000282D01*
X157174807Y-153841944D01*
X157174543Y-153664689D01*
X157174543Y-153092138D01*
X157112340Y-153092138D01*
X157074264Y-153095632D01*
X157053275Y-153113469D01*
X157040890Y-153156681D01*
X157035064Y-153192653D01*
X157031163Y-153244194D01*
X157028994Y-153329928D01*
X157028571Y-153441750D01*
X157029911Y-153571554D01*
X157033029Y-153711235D01*
X157033976Y-153743164D01*
X157038496Y-153925027D01*
X157038440Y-154069025D01*
X157032247Y-154179519D01*
X157018352Y-154260870D01*
X156995194Y-154317438D01*
X156961210Y-154353585D01*
X156914835Y-154373672D01*
X156854509Y-154382059D01*
X156804556Y-154383305D01*
X156730171Y-154376399D01*
X156677574Y-154351302D01*
X156654997Y-154331350D01*
X156638113Y-154314462D01*
X156624780Y-154298148D01*
X156614636Y-154277589D01*
X156607321Y-154247964D01*
X156602472Y-154204454D01*
X156599727Y-154142241D01*
X156598725Y-154056505D01*
X156599104Y-153942427D01*
X156600503Y-153795186D01*
X156602340Y-153629760D01*
X156608226Y-153098466D01*
X156539488Y-153084719D01*
X156457454Y-153074590D01*
X156359223Y-153071399D01*
X156260920Y-153074801D01*
X156178669Y-153084450D01*
X156143452Y-153093191D01*
X156090019Y-153125569D01*
X156055627Y-153168271D01*
X156050622Y-153193447D01*
X156046260Y-153246654D01*
X156042515Y-153329529D01*
X156039365Y-153443709D01*
X156036783Y-153590832D01*
X156034746Y-153772535D01*
X156033230Y-153990456D01*
X156032209Y-154246232D01*
X156031660Y-154541501D01*
X156031543Y-154784122D01*
X154920293Y-154784122D01*
X154920293Y-152951539D01*
X154984269Y-152826047D01*
X155068932Y-152704557D01*
X155182389Y-152609109D01*
X155315970Y-152546757D01*
X155334012Y-152541543D01*
X155365843Y-152538289D01*
X155436111Y-152535374D01*
X155545139Y-152532798D01*
X155693250Y-152530558D01*
X155880766Y-152528654D01*
X156108010Y-152527084D01*
X156375306Y-152525847D01*
X156682976Y-152524940D01*
X157031343Y-152524363D01*
X157420729Y-152524114D01*
X157851457Y-152524192D01*
X158323851Y-152524595D01*
X158838233Y-152525321D01*
X158873682Y-152525381D01*
X162331639Y-152531221D01*
X162457132Y-152595197D01*
X162580244Y-152680432D01*
X162672149Y-152793729D01*
X162731067Y-152932713D01*
X162740871Y-152973288D01*
X162744760Y-153007275D01*
X162748182Y-153070291D01*
X162751144Y-153163522D01*
X162753655Y-153288158D01*
X162755723Y-153445386D01*
X162757354Y-153636393D01*
X162758556Y-153862368D01*
X162759338Y-154124498D01*
X162759707Y-154423971D01*
X162759671Y-154761975D01*
X162759237Y-155139699D01*
X162758413Y-155558328D01*
X162758203Y-155646884D01*
X162751960Y-158206918D01*
X162687856Y-158332403D01*
X162604981Y-158449931D01*
X162491161Y-158538602D01*
X162346360Y-158598442D01*
X162283568Y-158613554D01*
X162248980Y-158616258D01*
X162174851Y-158618793D01*
X162063975Y-158621157D01*
X161919143Y-158623350D01*
X161743149Y-158625370D01*
X161538784Y-158627215D01*
X161308842Y-158628886D01*
X161056115Y-158630382D01*
X160783396Y-158631700D01*
X160493477Y-158632840D01*
X160189150Y-158633801D01*
X159873209Y-158634582D01*
X159548446Y-158635182D01*
X159217654Y-158635600D01*
X158883624Y-158635835D01*
X158549151Y-158635886D01*
X158217025Y-158635751D01*
X157890041Y-158635430D01*
X157570989Y-158634922D01*
X157262664Y-158634225D01*
X156967857Y-158633339D01*
X156689362Y-158632262D01*
X156429970Y-158630994D01*
X156192475Y-158629533D01*
X155979668Y-158627879D01*
X155794343Y-158626030D01*
X155639292Y-158623986D01*
X155517308Y-158621744D01*
X155431183Y-158619305D01*
X155383709Y-158616667D01*
X155379189Y-158616129D01*
X155241925Y-158579478D01*
X155130071Y-158511401D01*
X155039092Y-158408552D01*
X154994376Y-158332187D01*
X154920293Y-158186957D01*
X154920293Y-154784122D01*
%TA.AperFunction,EtchedComponent*%
G36*
X154920293Y-154784122D02*
G01*
X156031543Y-154784122D01*
X156031576Y-155078897D01*
X156031726Y-155334272D01*
X156032064Y-155553182D01*
X156032666Y-155738562D01*
X156033604Y-155893346D01*
X156034953Y-156020467D01*
X156036785Y-156122860D01*
X156039174Y-156203460D01*
X156042194Y-156265200D01*
X156045919Y-156311015D01*
X156050421Y-156343838D01*
X156055775Y-156366605D01*
X156062054Y-156382250D01*
X156069331Y-156393705D01*
X156071979Y-156397085D01*
X156089583Y-156416358D01*
X156110901Y-156430132D01*
X156143074Y-156439545D01*
X156193245Y-156445733D01*
X156268553Y-156449837D01*
X156376142Y-156452993D01*
X156430803Y-156454267D01*
X156749192Y-156461480D01*
X156763597Y-156557541D01*
X156769148Y-156625702D01*
X156770624Y-156717865D01*
X156767806Y-156815873D01*
X156766924Y-156831180D01*
X156763785Y-156967735D01*
X156772702Y-157074578D01*
X156793083Y-157147715D01*
X156818470Y-157180077D01*
X156846530Y-157184905D01*
X156910938Y-157189260D01*
X157005711Y-157192950D01*
X157124864Y-157195787D01*
X157262416Y-157197582D01*
X157389770Y-157198147D01*
X157538298Y-157198641D01*
X157673545Y-157199863D01*
X157789523Y-157201697D01*
X157880246Y-157204026D01*
X157939726Y-157206734D01*
X157961270Y-157209254D01*
X157973260Y-157223433D01*
X157980788Y-157258880D01*
X157984303Y-157321456D01*
X157984255Y-157417018D01*
X157982776Y-157489712D01*
X157981936Y-157644140D01*
X157988174Y-157759004D01*
X158001622Y-157836502D01*
X158003943Y-157844055D01*
X158023276Y-157894668D01*
X158047198Y-157921270D01*
X158089671Y-157933839D01*
X158137626Y-157939601D01*
X158179769Y-157941731D01*
X158257584Y-157943570D01*
X158364410Y-157945107D01*
X158493587Y-157946329D01*
X158638454Y-157947226D01*
X158792351Y-157947785D01*
X158948618Y-157947994D01*
X159100594Y-157947841D01*
X159241618Y-157947315D01*
X159365029Y-157946403D01*
X159464169Y-157945093D01*
X159532375Y-157943375D01*
X159555793Y-157942133D01*
X159593175Y-157937128D01*
X159620693Y-157925234D01*
X159640113Y-157900559D01*
X159653201Y-157857213D01*
X159661723Y-157789304D01*
X159667446Y-157690942D01*
X159672136Y-157556235D01*
X159672210Y-157553835D01*
X159682793Y-157209055D01*
X160268441Y-157198471D01*
X160421884Y-157195184D01*
X160561384Y-157191213D01*
X160681370Y-157186796D01*
X160776268Y-157182169D01*
X160840508Y-157177571D01*
X160868516Y-157173239D01*
X160869088Y-157172852D01*
X160887445Y-157132846D01*
X160900688Y-157060802D01*
X160907787Y-156966817D01*
X160907712Y-156860990D01*
X160905399Y-156816971D01*
X160901749Y-156722092D01*
X160902873Y-156629288D01*
X160908523Y-156558434D01*
X160908639Y-156557652D01*
X160923061Y-156461480D01*
X161241449Y-156454267D01*
X161364218Y-156451171D01*
X161451801Y-156447590D01*
X161511338Y-156442387D01*
X161549973Y-156434424D01*
X161574847Y-156422562D01*
X161593100Y-156405664D01*
X161600274Y-156397085D01*
X161607860Y-156386434D01*
X161614432Y-156372597D01*
X161620060Y-156352658D01*
X161624817Y-156323698D01*
X161628773Y-156282800D01*
X161631999Y-156227046D01*
X161634567Y-156153519D01*
X161636548Y-156059301D01*
X161638013Y-155941474D01*
X161639032Y-155797121D01*
X161639679Y-155623324D01*
X161640022Y-155417166D01*
X161640135Y-155175728D01*
X161640087Y-154896094D01*
X161640036Y-154767251D01*
X161639918Y-154467253D01*
X161639722Y-154206711D01*
X161639281Y-153982751D01*
X161638424Y-153792495D01*
X161636982Y-153633068D01*
X161634785Y-153501593D01*
X161631664Y-153395195D01*
X161627450Y-153310997D01*
X161621973Y-153246122D01*
X161615064Y-153197696D01*
X161606554Y-153162842D01*
X161596272Y-153138683D01*
X161584049Y-153122343D01*
X161569717Y-153110947D01*
X161553105Y-153101617D01*
X161541559Y-153095595D01*
X161494512Y-153082752D01*
X161418761Y-153074523D01*
X161327719Y-153071270D01*
X161234802Y-153073350D01*
X161153422Y-153081123D01*
X161133059Y-153084660D01*
X161064618Y-153098348D01*
X161069685Y-153629701D01*
X161071430Y-153811221D01*
X161072578Y-153955204D01*
X161072770Y-154066449D01*
X161071646Y-154149751D01*
X161068850Y-154209907D01*
X161064021Y-154251713D01*
X161056803Y-154279967D01*
X161046836Y-154299466D01*
X161033763Y-154315005D01*
X161017255Y-154331350D01*
X160968363Y-154367269D01*
X160906576Y-154381907D01*
X160867697Y-154383305D01*
X160796716Y-154380338D01*
X160740799Y-154368536D01*
X160698384Y-154343548D01*
X160667913Y-154301021D01*
X160647825Y-154236602D01*
X160636561Y-154145940D01*
X160632562Y-154024683D01*
X160634266Y-153868478D01*
X160637829Y-153741913D01*
X160641463Y-153601251D01*
X160643302Y-153468660D01*
X160643357Y-153352247D01*
X160641638Y-153260122D01*
X160638154Y-153200392D01*
X160637147Y-153192372D01*
X160625886Y-153131797D01*
X160610361Y-153102295D01*
X160582059Y-153092819D01*
X160559913Y-153092138D01*
X160497710Y-153092138D01*
X160497710Y-153664689D01*
X160497370Y-153857872D01*
X160495487Y-154012915D01*
X160490759Y-154134010D01*
X160481886Y-154225350D01*
X160467569Y-154291127D01*
X160446509Y-154335533D01*
X160417405Y-154362761D01*
X160378957Y-154377004D01*
X160329865Y-154382453D01*
X160274909Y-154383305D01*
X160191202Y-154372060D01*
X160125198Y-154333967D01*
X160123181Y-154332249D01*
X160063793Y-154281193D01*
X160057558Y-153686666D01*
X160051323Y-153092138D01*
X159928096Y-153092138D01*
X159921861Y-153683134D01*
X159915626Y-154274131D01*
X159864312Y-154328718D01*
X159823397Y-154363198D01*
X159774926Y-154379176D01*
X159705562Y-154382631D01*
X159645270Y-154380860D01*
X159596899Y-154373579D01*
X159559137Y-154356586D01*
X159530673Y-154325677D01*
X159510196Y-154276648D01*
X159496395Y-154205296D01*
X159487957Y-154107418D01*
X159483573Y-153978810D01*
X159481931Y-153815269D01*
X159481710Y-153665029D01*
X159481710Y-153092138D01*
X159326842Y-153092138D01*
X159339785Y-153645522D01*
X159343737Y-153841736D01*
X159344610Y-153999770D01*
X159341132Y-154123736D01*
X159332031Y-154217750D01*
X159316036Y-154285924D01*
X159291876Y-154332374D01*
X159258277Y-154361213D01*
X159213969Y-154376555D01*
X159157680Y-154382513D01*
X159111722Y-154383305D01*
X159037338Y-154376399D01*
X158984741Y-154351302D01*
X158962164Y-154331350D01*
X158945693Y-154314909D01*
X158932645Y-154299015D01*
X158922670Y-154278918D01*
X158915423Y-154249868D01*
X158910554Y-154207115D01*
X158907715Y-154145910D01*
X158906560Y-154061501D01*
X158906739Y-153949140D01*
X158907904Y-153804076D01*
X158909709Y-153621559D01*
X158909764Y-153616013D01*
X158914941Y-153092138D01*
X158757359Y-153092138D01*
X158762472Y-153626596D01*
X158764229Y-153808602D01*
X158765390Y-153953058D01*
X158765599Y-154064747D01*
X158764501Y-154148453D01*
X158761741Y-154208958D01*
X158756964Y-154251045D01*
X158749812Y-154279497D01*
X158739932Y-154299098D01*
X158726968Y-154314630D01*
X158710563Y-154330876D01*
X158710088Y-154331350D01*
X158661196Y-154367269D01*
X158599410Y-154381907D01*
X158560530Y-154383305D01*
X158495096Y-154381344D01*
X158442555Y-154372723D01*
X158401637Y-154353333D01*
X158371071Y-154319063D01*
X158349587Y-154265805D01*
X158335913Y-154189450D01*
X158328780Y-154085888D01*
X158326916Y-153951009D01*
X158329051Y-153780705D01*
X158332091Y-153644539D01*
X158345479Y-153092138D01*
X158190543Y-153092138D01*
X158190543Y-153665029D01*
X158190206Y-153845779D01*
X158188798Y-153989154D01*
X158185726Y-154100112D01*
X158180395Y-154183609D01*
X158172212Y-154244600D01*
X158160582Y-154288044D01*
X158144912Y-154318895D01*
X158124607Y-154342112D01*
X158107710Y-154356173D01*
X158066976Y-154371919D01*
X158003602Y-154381433D01*
X157974765Y-154382631D01*
X157895044Y-154375212D01*
X157835284Y-154347420D01*
X157816015Y-154332249D01*
X157756626Y-154281193D01*
X157750391Y-153686666D01*
X157744157Y-153092138D01*
X157620929Y-153092138D01*
X157614694Y-153686666D01*
X157608460Y-154281193D01*
X157549071Y-154332249D01*
X157483310Y-154371300D01*
X157400462Y-154383294D01*
X157397344Y-154383305D01*
X157337449Y-154382211D01*
X157289379Y-154376135D01*
X157251834Y-154360885D01*
X157223515Y-154332268D01*
X157203122Y-154286092D01*
X157189354Y-154218163D01*
X157180912Y-154124291D01*
X157176496Y-154000282D01*
X157174807Y-153841944D01*
X157174543Y-153664689D01*
X157174543Y-153092138D01*
X157112340Y-153092138D01*
X157074264Y-153095632D01*
X157053275Y-153113469D01*
X157040890Y-153156681D01*
X157035064Y-153192653D01*
X157031163Y-153244194D01*
X157028994Y-153329928D01*
X157028571Y-153441750D01*
X157029911Y-153571554D01*
X157033029Y-153711235D01*
X157033976Y-153743164D01*
X157038496Y-153925027D01*
X157038440Y-154069025D01*
X157032247Y-154179519D01*
X157018352Y-154260870D01*
X156995194Y-154317438D01*
X156961210Y-154353585D01*
X156914835Y-154373672D01*
X156854509Y-154382059D01*
X156804556Y-154383305D01*
X156730171Y-154376399D01*
X156677574Y-154351302D01*
X156654997Y-154331350D01*
X156638113Y-154314462D01*
X156624780Y-154298148D01*
X156614636Y-154277589D01*
X156607321Y-154247964D01*
X156602472Y-154204454D01*
X156599727Y-154142241D01*
X156598725Y-154056505D01*
X156599104Y-153942427D01*
X156600503Y-153795186D01*
X156602340Y-153629760D01*
X156608226Y-153098466D01*
X156539488Y-153084719D01*
X156457454Y-153074590D01*
X156359223Y-153071399D01*
X156260920Y-153074801D01*
X156178669Y-153084450D01*
X156143452Y-153093191D01*
X156090019Y-153125569D01*
X156055627Y-153168271D01*
X156050622Y-153193447D01*
X156046260Y-153246654D01*
X156042515Y-153329529D01*
X156039365Y-153443709D01*
X156036783Y-153590832D01*
X156034746Y-153772535D01*
X156033230Y-153990456D01*
X156032209Y-154246232D01*
X156031660Y-154541501D01*
X156031543Y-154784122D01*
X154920293Y-154784122D01*
X154920293Y-152951539D01*
X154984269Y-152826047D01*
X155068932Y-152704557D01*
X155182389Y-152609109D01*
X155315970Y-152546757D01*
X155334012Y-152541543D01*
X155365843Y-152538289D01*
X155436111Y-152535374D01*
X155545139Y-152532798D01*
X155693250Y-152530558D01*
X155880766Y-152528654D01*
X156108010Y-152527084D01*
X156375306Y-152525847D01*
X156682976Y-152524940D01*
X157031343Y-152524363D01*
X157420729Y-152524114D01*
X157851457Y-152524192D01*
X158323851Y-152524595D01*
X158838233Y-152525321D01*
X158873682Y-152525381D01*
X162331639Y-152531221D01*
X162457132Y-152595197D01*
X162580244Y-152680432D01*
X162672149Y-152793729D01*
X162731067Y-152932713D01*
X162740871Y-152973288D01*
X162744760Y-153007275D01*
X162748182Y-153070291D01*
X162751144Y-153163522D01*
X162753655Y-153288158D01*
X162755723Y-153445386D01*
X162757354Y-153636393D01*
X162758556Y-153862368D01*
X162759338Y-154124498D01*
X162759707Y-154423971D01*
X162759671Y-154761975D01*
X162759237Y-155139699D01*
X162758413Y-155558328D01*
X162758203Y-155646884D01*
X162751960Y-158206918D01*
X162687856Y-158332403D01*
X162604981Y-158449931D01*
X162491161Y-158538602D01*
X162346360Y-158598442D01*
X162283568Y-158613554D01*
X162248980Y-158616258D01*
X162174851Y-158618793D01*
X162063975Y-158621157D01*
X161919143Y-158623350D01*
X161743149Y-158625370D01*
X161538784Y-158627215D01*
X161308842Y-158628886D01*
X161056115Y-158630382D01*
X160783396Y-158631700D01*
X160493477Y-158632840D01*
X160189150Y-158633801D01*
X159873209Y-158634582D01*
X159548446Y-158635182D01*
X159217654Y-158635600D01*
X158883624Y-158635835D01*
X158549151Y-158635886D01*
X158217025Y-158635751D01*
X157890041Y-158635430D01*
X157570989Y-158634922D01*
X157262664Y-158634225D01*
X156967857Y-158633339D01*
X156689362Y-158632262D01*
X156429970Y-158630994D01*
X156192475Y-158629533D01*
X155979668Y-158627879D01*
X155794343Y-158626030D01*
X155639292Y-158623986D01*
X155517308Y-158621744D01*
X155431183Y-158619305D01*
X155383709Y-158616667D01*
X155379189Y-158616129D01*
X155241925Y-158579478D01*
X155130071Y-158511401D01*
X155039092Y-158408552D01*
X154994376Y-158332187D01*
X154920293Y-158186957D01*
X154920293Y-154784122D01*
G37*
%TD.AperFunction*%
%TD*%
D13*
%TO.P,REF\u002A\u002A,*%
%TO.N,*%
X134090000Y-28540000D03*
%TD*%
%TA.AperFunction,NonConductor*%
G36*
X134937383Y-24577770D02*
G01*
X134942352Y-24577946D01*
X135895826Y-24630896D01*
X135900803Y-24631272D01*
X136851455Y-24722585D01*
X136856340Y-24723154D01*
X137802614Y-24852696D01*
X137807507Y-24853466D01*
X138747836Y-25021131D01*
X138752686Y-25022099D01*
X139685206Y-25227751D01*
X139690057Y-25228925D01*
X140613331Y-25472444D01*
X140618177Y-25473830D01*
X141344254Y-25697665D01*
X141530387Y-25755046D01*
X141535277Y-25756665D01*
X141548963Y-25761515D01*
X142434935Y-26075490D01*
X142439775Y-26077320D01*
X143105146Y-26345050D01*
X143325251Y-26433615D01*
X143330096Y-26435685D01*
X144199715Y-26829306D01*
X144204533Y-26831614D01*
X145056572Y-27262435D01*
X145061312Y-27264962D01*
X145733266Y-27642347D01*
X145894433Y-27732862D01*
X145899168Y-27735661D01*
X146711480Y-28240517D01*
X146716110Y-28243540D01*
X147397718Y-28710817D01*
X147506184Y-28785176D01*
X147510781Y-28788484D01*
X148276896Y-29366833D01*
X148281395Y-29370396D01*
X149002367Y-29968993D01*
X149022087Y-29985365D01*
X149026256Y-29988986D01*
X149359735Y-30291995D01*
X149871056Y-30756597D01*
X149874847Y-30760191D01*
X150680244Y-31556448D01*
X150683843Y-31560157D01*
X151450335Y-32383882D01*
X151453720Y-32387673D01*
X152182085Y-33237763D01*
X152185263Y-33241627D01*
X152875976Y-34116894D01*
X152878928Y-34120790D01*
X153532604Y-35019855D01*
X153535340Y-35023775D01*
X154152357Y-35945772D01*
X154154860Y-35949668D01*
X154736488Y-36893198D01*
X154738783Y-36897077D01*
X155285673Y-37860994D01*
X155287795Y-37864895D01*
X155799966Y-38848065D01*
X155801874Y-38851887D01*
X156280304Y-39853010D01*
X156282055Y-39856840D01*
X156468161Y-40282884D01*
X156706792Y-40829173D01*
X156726720Y-40874792D01*
X156728277Y-40878522D01*
X157140214Y-41912144D01*
X157141593Y-41915767D01*
X157521755Y-42963802D01*
X157523003Y-42967415D01*
X157871362Y-44028719D01*
X157872451Y-44032210D01*
X158189994Y-45105480D01*
X158190966Y-45108951D01*
X158477721Y-46193044D01*
X158478534Y-46196295D01*
X158736440Y-47290059D01*
X158737177Y-47293389D01*
X158965236Y-48395442D01*
X158965838Y-48398546D01*
X159166052Y-49507893D01*
X159166569Y-49510981D01*
X159338913Y-50626337D01*
X159339335Y-50629305D01*
X159484799Y-51749472D01*
X159485146Y-51752427D01*
X159603699Y-52875898D01*
X159603975Y-52878848D01*
X159695659Y-54004857D01*
X159695844Y-54007478D01*
X159763611Y-55134589D01*
X159763750Y-55137429D01*
X159805609Y-56264426D01*
X159805678Y-56267052D01*
X159823620Y-57392823D01*
X159823635Y-57395349D01*
X159818651Y-58518495D01*
X159818611Y-58521146D01*
X159789704Y-59640561D01*
X159789616Y-59643011D01*
X159738775Y-60757532D01*
X159738638Y-60760005D01*
X159665857Y-61868471D01*
X159665676Y-61870863D01*
X159574022Y-62947681D01*
X159571401Y-62958760D01*
X159571540Y-62969941D01*
X159571104Y-62981983D01*
X159570155Y-62993135D01*
X159571970Y-63004372D01*
X159575550Y-63290786D01*
X159575212Y-63301625D01*
X159551281Y-63620193D01*
X159550212Y-63629593D01*
X159446612Y-64309106D01*
X159446001Y-64312750D01*
X159325191Y-64972547D01*
X159323453Y-64977151D01*
X159319611Y-65002678D01*
X159318966Y-65006549D01*
X159314318Y-65031940D01*
X159314470Y-65036851D01*
X159272661Y-65314761D01*
X159270335Y-65321798D01*
X159268854Y-65337007D01*
X159268854Y-65337009D01*
X159268320Y-65342491D01*
X159267526Y-65348901D01*
X159264437Y-65369431D01*
X159264977Y-65376820D01*
X159238532Y-65648456D01*
X159235992Y-65658297D01*
X159235761Y-65672725D01*
X159235195Y-65682738D01*
X159233796Y-65697127D01*
X159235213Y-65707196D01*
X159231038Y-65969886D01*
X159229122Y-65982119D01*
X159229919Y-65990263D01*
X159230492Y-66004307D01*
X159230361Y-66012493D01*
X159233271Y-66024528D01*
X159257858Y-66275835D01*
X159257561Y-66289975D01*
X159257846Y-66291075D01*
X159261206Y-66310041D01*
X159261318Y-66311187D01*
X159266452Y-66324363D01*
X159326847Y-66557943D01*
X159328642Y-66571684D01*
X159329642Y-66574052D01*
X159335450Y-66591217D01*
X159336097Y-66593720D01*
X159343017Y-66605733D01*
X159379064Y-66691112D01*
X159382234Y-66703045D01*
X159386302Y-66710278D01*
X159392449Y-66722813D01*
X159395679Y-66730462D01*
X159403173Y-66740274D01*
X159447332Y-66818784D01*
X159451977Y-66830572D01*
X159456254Y-66836426D01*
X159464205Y-66848784D01*
X159467764Y-66855112D01*
X159476562Y-66864221D01*
X159531095Y-66938859D01*
X159537053Y-66949940D01*
X159542170Y-66955455D01*
X159551398Y-66966646D01*
X159555847Y-66972735D01*
X159565593Y-66980694D01*
X159630874Y-67051038D01*
X159638206Y-67061484D01*
X159643490Y-67065955D01*
X159654284Y-67076264D01*
X159659001Y-67081347D01*
X159669773Y-67088192D01*
X159747713Y-67154136D01*
X159755903Y-67163319D01*
X159762694Y-67167868D01*
X159762696Y-67167870D01*
X159762913Y-67168015D01*
X159773991Y-67176370D01*
X159780441Y-67181827D01*
X159791527Y-67187177D01*
X159882230Y-67247921D01*
X159891187Y-67255979D01*
X159899386Y-67260274D01*
X159910853Y-67267090D01*
X159918555Y-67272248D01*
X159929902Y-67276259D01*
X160035573Y-67331613D01*
X160044660Y-67338255D01*
X160053777Y-67341971D01*
X160053778Y-67341972D01*
X160055370Y-67342620D01*
X160066097Y-67347603D01*
X160067608Y-67348395D01*
X160067609Y-67348395D01*
X160076349Y-67352974D01*
X160087283Y-67355629D01*
X160208334Y-67404975D01*
X160217597Y-67410516D01*
X160227706Y-67413621D01*
X160227707Y-67413622D01*
X160229885Y-67414291D01*
X160240287Y-67418001D01*
X160242381Y-67418855D01*
X160242381Y-67418854D01*
X160252165Y-67422844D01*
X160262830Y-67424415D01*
X160402535Y-67467344D01*
X160411167Y-67471592D01*
X160423151Y-67474315D01*
X160423152Y-67474316D01*
X160426597Y-67475099D01*
X160435517Y-67477479D01*
X160438912Y-67478523D01*
X160438914Y-67478522D01*
X160450656Y-67482132D01*
X160460252Y-67482750D01*
X160621062Y-67519312D01*
X160653286Y-67531553D01*
X161789777Y-68156085D01*
X161794056Y-68158548D01*
X162922085Y-68838250D01*
X162926294Y-68840903D01*
X163910004Y-69488816D01*
X164025453Y-69564855D01*
X164029524Y-69567654D01*
X165066921Y-70311975D01*
X165098792Y-70334842D01*
X165102868Y-70337895D01*
X165362966Y-70541227D01*
X166138210Y-71147272D01*
X166142156Y-71150489D01*
X167142647Y-72001206D01*
X167146542Y-72004663D01*
X168109139Y-72895763D01*
X168112898Y-72899392D01*
X168734006Y-73524979D01*
X168976774Y-73769498D01*
X169036642Y-73829797D01*
X169040339Y-73833687D01*
X169870663Y-74745919D01*
X169922221Y-74802562D01*
X169925797Y-74806669D01*
X170337356Y-75300883D01*
X170763835Y-75813012D01*
X170767287Y-75817351D01*
X171560157Y-76861015D01*
X171562620Y-76864371D01*
X171940732Y-77398393D01*
X171942409Y-77400823D01*
X172308126Y-77944330D01*
X172309660Y-77946665D01*
X172663447Y-78498909D01*
X172665080Y-78501530D01*
X173004947Y-79062311D01*
X173006346Y-79064679D01*
X173334317Y-79633956D01*
X173335808Y-79636619D01*
X173649753Y-80213941D01*
X173651179Y-80216641D01*
X173951213Y-80802303D01*
X173952557Y-80805007D01*
X174238723Y-81398799D01*
X174239993Y-81401518D01*
X174512284Y-82003341D01*
X174513479Y-82006071D01*
X174769866Y-82611044D01*
X174773429Y-82620508D01*
X175164895Y-83804675D01*
X175890817Y-86000558D01*
X175900858Y-86030930D01*
X175901323Y-86032366D01*
X176445745Y-87749047D01*
X176446115Y-87750233D01*
X176973573Y-89473162D01*
X176973949Y-89474413D01*
X177472606Y-91166721D01*
X177483428Y-91203446D01*
X177483826Y-91204826D01*
X177973268Y-92939751D01*
X177973667Y-92941198D01*
X178442067Y-94681871D01*
X178442496Y-94683513D01*
X178886874Y-96429864D01*
X178887313Y-96431643D01*
X179305704Y-98183792D01*
X179306131Y-98185640D01*
X179697551Y-99943434D01*
X179697976Y-99945423D01*
X180060371Y-101708681D01*
X180060789Y-101710808D01*
X180392197Y-103479551D01*
X180392600Y-103481816D01*
X180691054Y-105255967D01*
X180691435Y-105258376D01*
X180954933Y-107037980D01*
X180955274Y-107040460D01*
X181182803Y-108825168D01*
X181183116Y-108827857D01*
X181371269Y-110613602D01*
X181371881Y-110622388D01*
X181479647Y-113797115D01*
X181479677Y-113798128D01*
X181561639Y-116978811D01*
X181561659Y-116979707D01*
X181620641Y-120161407D01*
X181620653Y-120162186D01*
X181659642Y-123344237D01*
X181659648Y-123344938D01*
X181680640Y-126526854D01*
X181680643Y-126527438D01*
X181680661Y-126536825D01*
X181686623Y-129701106D01*
X181686642Y-129710702D01*
X181686641Y-129711227D01*
X181667672Y-136069320D01*
X181667645Y-136078306D01*
X181667643Y-136078832D01*
X181575889Y-148780649D01*
X181575787Y-148781158D01*
X181575645Y-148814444D01*
X181575643Y-148814804D01*
X181575398Y-148848866D01*
X181575496Y-148849371D01*
X181548786Y-155148896D01*
X181548566Y-155150009D01*
X181548641Y-155182681D01*
X181548640Y-155183483D01*
X181548504Y-155215892D01*
X181548721Y-155216996D01*
X181563228Y-161374040D01*
X181546575Y-161436401D01*
X181500836Y-161481945D01*
X181438403Y-161498329D01*
X87062652Y-160870652D01*
X87001015Y-160853774D01*
X86955968Y-160808444D01*
X86939477Y-160746704D01*
X86937373Y-155145831D01*
X105518025Y-155145831D01*
X105519817Y-155172023D01*
X105520028Y-155176090D01*
X105526262Y-155351862D01*
X105526340Y-155356598D01*
X105526272Y-155381146D01*
X105526741Y-155384472D01*
X105527876Y-155397369D01*
X105527996Y-155400752D01*
X105532344Y-155424887D01*
X105533095Y-155429568D01*
X105557828Y-155605077D01*
X105558420Y-155609987D01*
X105560818Y-155633863D01*
X105561759Y-155637661D01*
X105564183Y-155650168D01*
X105564728Y-155654036D01*
X105571417Y-155677056D01*
X105572703Y-155681836D01*
X105614634Y-155851078D01*
X105616065Y-155857604D01*
X105619731Y-155876775D01*
X105622460Y-155884696D01*
X105625581Y-155895260D01*
X105627592Y-155903380D01*
X105634949Y-155921499D01*
X105637295Y-155927757D01*
X105672031Y-156028589D01*
X105674438Y-156036404D01*
X105678557Y-156051535D01*
X105678558Y-156051538D01*
X105678559Y-156051540D01*
X105683421Y-156062771D01*
X105686863Y-156071639D01*
X105690845Y-156083200D01*
X105698009Y-156097145D01*
X105701504Y-156104539D01*
X105719043Y-156145050D01*
X105722356Y-156153547D01*
X105726710Y-156166054D01*
X105733453Y-156179078D01*
X105737127Y-156186819D01*
X105742958Y-156200286D01*
X105749894Y-156211564D01*
X105754386Y-156219510D01*
X105773269Y-156255981D01*
X105777461Y-156264935D01*
X105781829Y-156275326D01*
X105790393Y-156289587D01*
X105794196Y-156296398D01*
X105799855Y-156307327D01*
X105801847Y-156311173D01*
X105808400Y-156320342D01*
X105813823Y-156328608D01*
X105833107Y-156360723D01*
X105837720Y-156369124D01*
X105843114Y-156379918D01*
X105852145Y-156392943D01*
X105856541Y-156399747D01*
X105864710Y-156413351D01*
X105872342Y-156422721D01*
X105878083Y-156430354D01*
X105879402Y-156432256D01*
X105898826Y-156460271D01*
X105903111Y-156466892D01*
X105911608Y-156480983D01*
X105918876Y-156489872D01*
X105924774Y-156497699D01*
X105931300Y-156507112D01*
X105931303Y-156507115D01*
X105931305Y-156507118D01*
X105942516Y-156519176D01*
X105947682Y-156525100D01*
X105974581Y-156557996D01*
X105976665Y-156560616D01*
X105993967Y-156582982D01*
X106003165Y-156592988D01*
X106011909Y-156601013D01*
X106031134Y-156623432D01*
X106033341Y-156626732D01*
X106033342Y-156626733D01*
X106033343Y-156626734D01*
X106071949Y-156658970D01*
X106078730Y-156665071D01*
X106087533Y-156673599D01*
X106088214Y-156674259D01*
X106100150Y-156682902D01*
X106106880Y-156688138D01*
X106118207Y-156697596D01*
X106129434Y-156704524D01*
X106137022Y-156709603D01*
X106177756Y-156739101D01*
X106177757Y-156739101D01*
X106183195Y-156743039D01*
X106202572Y-156753216D01*
X106213619Y-156761204D01*
X106213620Y-156761204D01*
X106213621Y-156761205D01*
X106240735Y-156770810D01*
X106297173Y-156811516D01*
X106322799Y-156876214D01*
X106323872Y-156887763D01*
X106323873Y-156887763D01*
X106330627Y-156960412D01*
X106332904Y-156985503D01*
X106337274Y-157033671D01*
X106345566Y-157054670D01*
X106352337Y-157078619D01*
X106358860Y-157115505D01*
X106359264Y-157117789D01*
X106380409Y-157160402D01*
X106384563Y-157169719D01*
X106402138Y-157213940D01*
X106420382Y-157237258D01*
X106435895Y-157262996D01*
X106438835Y-157269564D01*
X106451011Y-157283830D01*
X106472738Y-157320633D01*
X106480680Y-157362626D01*
X106481139Y-157396092D01*
X106490453Y-157426278D01*
X106493232Y-157438335D01*
X106497877Y-157450338D01*
X106500267Y-157458083D01*
X106504361Y-157475942D01*
X106505507Y-157483455D01*
X106506220Y-157484981D01*
X106513222Y-157503821D01*
X106513248Y-157503913D01*
X106519350Y-157525565D01*
X106537469Y-157554449D01*
X106538111Y-157555472D01*
X106545414Y-157568885D01*
X106568002Y-157617240D01*
X106587756Y-157639645D01*
X106598129Y-157653183D01*
X106605861Y-157664858D01*
X106614621Y-157678087D01*
X106630450Y-157691428D01*
X106649521Y-157711556D01*
X106651040Y-157713569D01*
X106651041Y-157713570D01*
X106661777Y-157727799D01*
X106661555Y-157727966D01*
X106663826Y-157730267D01*
X106681063Y-157764044D01*
X106681546Y-157765511D01*
X106682756Y-157769181D01*
X106698438Y-157791913D01*
X106705453Y-157802081D01*
X106712334Y-157813283D01*
X106731423Y-157848408D01*
X106775284Y-157892447D01*
X106778405Y-157895698D01*
X106797662Y-157916505D01*
X106803354Y-157923107D01*
X106835489Y-157963158D01*
X106855796Y-157977321D01*
X106877143Y-157992210D01*
X106884302Y-157997598D01*
X106895263Y-158006485D01*
X106923750Y-158029582D01*
X106949883Y-158040498D01*
X106955510Y-158043014D01*
X106965170Y-158047625D01*
X106965172Y-158047627D01*
X106991459Y-158060176D01*
X107035327Y-158095197D01*
X107054622Y-158119615D01*
X107061432Y-158124440D01*
X107069222Y-158129960D01*
X107070356Y-158130763D01*
X107086500Y-158144411D01*
X107097433Y-158155382D01*
X107100117Y-158158075D01*
X107132714Y-158175948D01*
X107144768Y-158183489D01*
X107175105Y-158204985D01*
X107216436Y-158219180D01*
X107233617Y-158226574D01*
X107259928Y-158240338D01*
X107294779Y-158247270D01*
X107310852Y-158251609D01*
X107314758Y-158252951D01*
X107315445Y-158252982D01*
X107336408Y-158255735D01*
X107347773Y-158258228D01*
X107394606Y-158268502D01*
X107394608Y-158268501D01*
X107399633Y-158269604D01*
X107404747Y-158269146D01*
X107404751Y-158269147D01*
X107472109Y-158263119D01*
X107474514Y-158262929D01*
X107547032Y-158257871D01*
X107551819Y-158255987D01*
X107551824Y-158255987D01*
X107583109Y-158243677D01*
X107626061Y-158235093D01*
X107669324Y-158241980D01*
X107673357Y-158243386D01*
X107710098Y-158263727D01*
X107735697Y-158284249D01*
X107736328Y-158284678D01*
X107739289Y-158286366D01*
X107739291Y-158286368D01*
X107767129Y-158302243D01*
X107768676Y-158303140D01*
X107785380Y-158312995D01*
X107795791Y-158319866D01*
X107796045Y-158320053D01*
X107796047Y-158320054D01*
X107797815Y-158320999D01*
X107807030Y-158326448D01*
X107817164Y-158333047D01*
X107821936Y-158335260D01*
X107832758Y-158340944D01*
X107837282Y-158343613D01*
X107837285Y-158343614D01*
X107844924Y-158348121D01*
X107844338Y-158349113D01*
X107849740Y-158352298D01*
X107849977Y-158351898D01*
X107857614Y-158356400D01*
X107857616Y-158356402D01*
X107863987Y-158360158D01*
X107876905Y-158368915D01*
X107918206Y-158400881D01*
X107954774Y-158415194D01*
X107958337Y-158416589D01*
X107969234Y-158421472D01*
X108007662Y-158440965D01*
X108063995Y-158451439D01*
X108074003Y-158453733D01*
X108131853Y-158469550D01*
X108171790Y-158468802D01*
X108184929Y-158469253D01*
X108224746Y-158472746D01*
X108252699Y-158467133D01*
X108300453Y-158466924D01*
X108316190Y-158473267D01*
X108316460Y-158472367D01*
X108333535Y-158477485D01*
X108333536Y-158477486D01*
X108337339Y-158478626D01*
X108372967Y-158489306D01*
X108384916Y-158493565D01*
X108388659Y-158495120D01*
X108388662Y-158495120D01*
X108388665Y-158495122D01*
X108411776Y-158501044D01*
X108416469Y-158502345D01*
X108416572Y-158502375D01*
X108428641Y-158506672D01*
X108454667Y-158517485D01*
X108462616Y-158518347D01*
X108470071Y-158519858D01*
X108470434Y-158519860D01*
X108483155Y-158520581D01*
X108491588Y-158521495D01*
X108491589Y-158521496D01*
X108533600Y-158526053D01*
X108564579Y-158529416D01*
X108564582Y-158529415D01*
X108575356Y-158530585D01*
X108575387Y-158530586D01*
X108601500Y-158533419D01*
X108601500Y-158533418D01*
X108601502Y-158533419D01*
X108629041Y-158528477D01*
X108645904Y-158526631D01*
X108651916Y-158526387D01*
X108652039Y-158526382D01*
X108687172Y-158525164D01*
X108687177Y-158525162D01*
X108688706Y-158525110D01*
X108690204Y-158524832D01*
X108690206Y-158524832D01*
X108724760Y-158518422D01*
X108724897Y-158518397D01*
X108765489Y-158511117D01*
X108778016Y-158509525D01*
X108784696Y-158509020D01*
X108784893Y-158511628D01*
X108826858Y-158512386D01*
X108852361Y-158519060D01*
X108852365Y-158519060D01*
X108860588Y-158521212D01*
X108870101Y-158524162D01*
X108870452Y-158524234D01*
X108870455Y-158524235D01*
X108893663Y-158529001D01*
X108898534Y-158530107D01*
X108921544Y-158535825D01*
X108923458Y-158536018D01*
X108925767Y-158536252D01*
X108938247Y-158538159D01*
X108940652Y-158538653D01*
X108953632Y-158542060D01*
X108955701Y-158542725D01*
X108955702Y-158542725D01*
X108955705Y-158542726D01*
X108981087Y-158547033D01*
X108985284Y-158547819D01*
X109010485Y-158552996D01*
X109012641Y-158553124D01*
X109025821Y-158554624D01*
X109025952Y-158554647D01*
X109038746Y-158557508D01*
X109041915Y-158558395D01*
X109066335Y-158561589D01*
X109070954Y-158562284D01*
X109095234Y-158566405D01*
X109095235Y-158566405D01*
X109095241Y-158566406D01*
X109098528Y-158566488D01*
X109111434Y-158567491D01*
X109111526Y-158567503D01*
X109121900Y-158569307D01*
X109131414Y-158571383D01*
X109138980Y-158571928D01*
X109149590Y-158572695D01*
X109156752Y-158573421D01*
X109178449Y-158576260D01*
X109178452Y-158576053D01*
X109196301Y-158576287D01*
X109196304Y-158576288D01*
X109196463Y-158576290D01*
X109203741Y-158576600D01*
X109208122Y-158576917D01*
X109210294Y-158577074D01*
X109212032Y-158577212D01*
X109244013Y-158579989D01*
X109244015Y-158579988D01*
X109247460Y-158580288D01*
X109248068Y-158580292D01*
X109251512Y-158580047D01*
X109251516Y-158580048D01*
X109282153Y-158577875D01*
X109292566Y-158577576D01*
X109343952Y-158578264D01*
X109343953Y-158578263D01*
X109357502Y-158578445D01*
X109370292Y-158576917D01*
X109407524Y-158583994D01*
X109463931Y-158604029D01*
X109494004Y-158605704D01*
X109510823Y-158607803D01*
X109540389Y-158613570D01*
X109575997Y-158610249D01*
X109581817Y-158610523D01*
X109647337Y-158604028D01*
X109665706Y-158602207D01*
X109667073Y-158602079D01*
X109700073Y-158599197D01*
X109700079Y-158599195D01*
X109704435Y-158598815D01*
X109711118Y-158597705D01*
X109742928Y-158594553D01*
X109765635Y-158585367D01*
X109783860Y-158579585D01*
X109807722Y-158574001D01*
X109835527Y-158558244D01*
X109841641Y-158555293D01*
X109855214Y-158547391D01*
X109873992Y-158536458D01*
X109875153Y-158535792D01*
X109880912Y-158532529D01*
X109895396Y-158525522D01*
X109907779Y-158520496D01*
X109965456Y-158511888D01*
X109973099Y-158512572D01*
X109973101Y-158512571D01*
X109980208Y-158513207D01*
X109987162Y-158511625D01*
X109987166Y-158511626D01*
X110014011Y-158505521D01*
X110057203Y-158503434D01*
X110061487Y-158503980D01*
X110076898Y-158507976D01*
X110137393Y-158513727D01*
X110141320Y-158514163D01*
X110183983Y-158519606D01*
X110183985Y-158519605D01*
X110191952Y-158520622D01*
X110205403Y-158520192D01*
X110230774Y-158522604D01*
X110230774Y-158522603D01*
X110230775Y-158522604D01*
X110251646Y-158518572D01*
X110271906Y-158516364D01*
X110286558Y-158515980D01*
X110310984Y-158515340D01*
X110311078Y-158518926D01*
X110349530Y-158517764D01*
X110362392Y-158521068D01*
X110381886Y-158522744D01*
X110384021Y-158522572D01*
X110384022Y-158522573D01*
X110443058Y-158517840D01*
X110448688Y-158517518D01*
X110507896Y-158515497D01*
X110507898Y-158515496D01*
X110510043Y-158515423D01*
X110529212Y-158511540D01*
X110550387Y-158503434D01*
X110586513Y-158489604D01*
X110591826Y-158487708D01*
X110612851Y-158480748D01*
X110617109Y-158478624D01*
X110637266Y-158470688D01*
X110654450Y-158465607D01*
X110654452Y-158465605D01*
X110656561Y-158464982D01*
X110666642Y-158459868D01*
X110669108Y-158457988D01*
X110669112Y-158457987D01*
X110679853Y-158449800D01*
X110699695Y-158437447D01*
X110700008Y-158437292D01*
X110700010Y-158437290D01*
X110707954Y-158433331D01*
X110709008Y-158435445D01*
X110718104Y-158431920D01*
X110716985Y-158429412D01*
X110745725Y-158416589D01*
X110778101Y-158402144D01*
X110787015Y-158398575D01*
X110798320Y-158394550D01*
X110812443Y-158387108D01*
X110819664Y-158383600D01*
X110868116Y-158361984D01*
X110870633Y-158359841D01*
X110893214Y-158344556D01*
X110896134Y-158343018D01*
X110934204Y-158306066D01*
X110940163Y-158300648D01*
X110949541Y-158292665D01*
X110975912Y-158275466D01*
X110992977Y-158267210D01*
X111006084Y-158262534D01*
X111010317Y-158260106D01*
X111010319Y-158260106D01*
X111011857Y-158259224D01*
X111026596Y-158252023D01*
X111065693Y-158236033D01*
X111092329Y-158214762D01*
X111108019Y-158204094D01*
X111138420Y-158186665D01*
X111168135Y-158155689D01*
X111168434Y-158155377D01*
X111180539Y-158144323D01*
X111181079Y-158143893D01*
X111181080Y-158143890D01*
X111186139Y-158139852D01*
X111192504Y-158132636D01*
X154403957Y-158132636D01*
X154406677Y-158195398D01*
X154406793Y-158200767D01*
X154406793Y-158223685D01*
X154407502Y-158228619D01*
X154408647Y-158240885D01*
X154410470Y-158282947D01*
X154415102Y-158296518D01*
X154420484Y-158318913D01*
X154422526Y-158333111D01*
X154422526Y-158333112D01*
X154422527Y-158333114D01*
X154438876Y-158368915D01*
X154440016Y-158371410D01*
X154444566Y-158382844D01*
X154446182Y-158387579D01*
X154446183Y-158387582D01*
X154446184Y-158387583D01*
X154456591Y-158407985D01*
X154458925Y-158412817D01*
X154485026Y-158469969D01*
X154498139Y-158489433D01*
X154500249Y-158493569D01*
X154524664Y-158541435D01*
X154529032Y-158550975D01*
X154532697Y-158559968D01*
X154541912Y-158575706D01*
X154545362Y-158582009D01*
X154557668Y-158606131D01*
X154557501Y-158606215D01*
X154566175Y-158623939D01*
X154600918Y-158676801D01*
X154604280Y-158682216D01*
X154614528Y-158699715D01*
X154614530Y-158699718D01*
X154619299Y-158705706D01*
X154625926Y-158714853D01*
X154630140Y-158721266D01*
X154633565Y-158725137D01*
X154643580Y-158736460D01*
X154647676Y-158741340D01*
X154656787Y-158752779D01*
X154683866Y-158786783D01*
X154704097Y-158804872D01*
X154718267Y-158820890D01*
X154728031Y-158833473D01*
X154746428Y-158860616D01*
X154746429Y-158860617D01*
X154746430Y-158860618D01*
X154799938Y-158904738D01*
X154801243Y-158905831D01*
X154854077Y-158950674D01*
X154854078Y-158950674D01*
X154854079Y-158950675D01*
X154884048Y-158963992D01*
X154898158Y-158971382D01*
X154936066Y-158994454D01*
X154950463Y-159004689D01*
X154972305Y-159022691D01*
X155038953Y-159051162D01*
X155107987Y-159080670D01*
X155128953Y-159083162D01*
X155136085Y-159084010D01*
X155153438Y-159087340D01*
X155169930Y-159091743D01*
X155184866Y-159095731D01*
X155209865Y-159105497D01*
X155210157Y-159105555D01*
X155210160Y-159105557D01*
X155252787Y-159114122D01*
X155260357Y-159115893D01*
X155282031Y-159121689D01*
X155282033Y-159121689D01*
X155282115Y-159121711D01*
X155282195Y-159121720D01*
X155282201Y-159121722D01*
X155297780Y-159123570D01*
X155307589Y-159125136D01*
X155312666Y-159126156D01*
X155318552Y-159127339D01*
X155335179Y-159128262D01*
X155342961Y-159128940D01*
X155351977Y-159130014D01*
X155368452Y-159131976D01*
X155368700Y-159131986D01*
X155391989Y-159134751D01*
X155393132Y-159134557D01*
X155420678Y-159133013D01*
X155439360Y-159134052D01*
X155439369Y-159134051D01*
X155439475Y-159134057D01*
X155453520Y-159133643D01*
X155460374Y-159133837D01*
X155466195Y-159134390D01*
X155471147Y-159134480D01*
X155471154Y-159134482D01*
X155504811Y-159135099D01*
X155505705Y-159135120D01*
X155539482Y-159136078D01*
X155539486Y-159136077D01*
X155544443Y-159136218D01*
X155550286Y-159135935D01*
X155585904Y-159136590D01*
X155589074Y-159136868D01*
X155595799Y-159136956D01*
X155595802Y-159136957D01*
X155630922Y-159137419D01*
X155631345Y-159137426D01*
X155666574Y-159138074D01*
X155666577Y-159138073D01*
X155673295Y-159138197D01*
X155676464Y-159138019D01*
X155742954Y-159138896D01*
X155744948Y-159139062D01*
X155752493Y-159139137D01*
X155752498Y-159139138D01*
X155788485Y-159139496D01*
X155788648Y-159139498D01*
X155824295Y-159139969D01*
X155824298Y-159139968D01*
X155831838Y-159140068D01*
X155833814Y-159139948D01*
X155929583Y-159140904D01*
X155930968Y-159141016D01*
X155938952Y-159141077D01*
X155938954Y-159141078D01*
X155974747Y-159141355D01*
X155975022Y-159141431D01*
X155975023Y-159141358D01*
X156011267Y-159141720D01*
X156011270Y-159141719D01*
X156019238Y-159141799D01*
X156020615Y-159141712D01*
X156143370Y-159142666D01*
X156144378Y-159142746D01*
X156152589Y-159142796D01*
X156152593Y-159142797D01*
X156188640Y-159143018D01*
X156188640Y-159143073D01*
X156188846Y-159143019D01*
X156225207Y-159143303D01*
X156225207Y-159143302D01*
X156233408Y-159143367D01*
X156234437Y-159143300D01*
X156381620Y-159144205D01*
X156382399Y-159144266D01*
X156390728Y-159144306D01*
X156390736Y-159144308D01*
X156427027Y-159144485D01*
X156427028Y-159144485D01*
X156427028Y-159144526D01*
X156427184Y-159144485D01*
X156463534Y-159144710D01*
X156463539Y-159144709D01*
X156471933Y-159144761D01*
X156472724Y-159144708D01*
X156641562Y-159145533D01*
X156642208Y-159145583D01*
X156650648Y-159145615D01*
X156650652Y-159145616D01*
X156687208Y-159145756D01*
X156687338Y-159145791D01*
X156687339Y-159145757D01*
X156687638Y-159145758D01*
X156723575Y-159145935D01*
X156723583Y-159145933D01*
X156732014Y-159145975D01*
X156732649Y-159145933D01*
X156920366Y-159146658D01*
X156920912Y-159146700D01*
X156965961Y-159146835D01*
X156965962Y-159146835D01*
X157002595Y-159146977D01*
X157002595Y-159146976D01*
X157011149Y-159147010D01*
X157011689Y-159146972D01*
X157215566Y-159147584D01*
X157216028Y-159147620D01*
X157224771Y-159147639D01*
X157224779Y-159147641D01*
X157261849Y-159147724D01*
X157297844Y-159147833D01*
X157297846Y-159147832D01*
X157306601Y-159147859D01*
X157307068Y-159147826D01*
X157524359Y-159148317D01*
X157524776Y-159148349D01*
X157533444Y-159148362D01*
X157533447Y-159148363D01*
X157569563Y-159148419D01*
X157569746Y-159148420D01*
X157570207Y-159148421D01*
X157606552Y-159148504D01*
X157606553Y-159148503D01*
X157615413Y-159148524D01*
X157615833Y-159148493D01*
X157843733Y-159148856D01*
X157844110Y-159148885D01*
X157852810Y-159148893D01*
X157852813Y-159148894D01*
X157889569Y-159148930D01*
X157925947Y-159148988D01*
X157925948Y-159148987D01*
X157934928Y-159149002D01*
X157935313Y-159148974D01*
X158171136Y-159149206D01*
X158171504Y-159149233D01*
X158216281Y-159149250D01*
X158216327Y-159149250D01*
X158253245Y-159149287D01*
X158253250Y-159149286D01*
X158262217Y-159149295D01*
X158262572Y-159149268D01*
X158503460Y-159149367D01*
X158503811Y-159149392D01*
X158512497Y-159149390D01*
X158512505Y-159149392D01*
X158549499Y-159149386D01*
X158585666Y-159149401D01*
X158585669Y-159149400D01*
X158594627Y-159149404D01*
X158594973Y-159149378D01*
X158838181Y-159149341D01*
X158838531Y-159149366D01*
X158847253Y-159149359D01*
X158847261Y-159149361D01*
X158884905Y-159149334D01*
X158929244Y-159149328D01*
X158929580Y-159149302D01*
X159172339Y-159149131D01*
X159172695Y-159149157D01*
X159181576Y-159149145D01*
X159181579Y-159149146D01*
X159218149Y-159149099D01*
X159218150Y-159149099D01*
X159263564Y-159149068D01*
X159263914Y-159149041D01*
X159503461Y-159148738D01*
X159503831Y-159148765D01*
X159512668Y-159148748D01*
X159512671Y-159148749D01*
X159549533Y-159148680D01*
X159549534Y-159148680D01*
X159550516Y-159148678D01*
X159585819Y-159148635D01*
X159585819Y-159148634D01*
X159594644Y-159148624D01*
X159595014Y-159148596D01*
X159828621Y-159148164D01*
X159829006Y-159148192D01*
X159837750Y-159148170D01*
X159837754Y-159148171D01*
X159874458Y-159148080D01*
X159910882Y-159148013D01*
X159910884Y-159148012D01*
X159919855Y-159147996D01*
X159920244Y-159147966D01*
X160145073Y-159147411D01*
X160145504Y-159147441D01*
X160154046Y-159147413D01*
X160154048Y-159147414D01*
X160189566Y-159147301D01*
X160227143Y-159147209D01*
X160227151Y-159147207D01*
X160235938Y-159147186D01*
X160236368Y-159147153D01*
X160449695Y-159146480D01*
X160450187Y-159146513D01*
X160458766Y-159146479D01*
X160458772Y-159146480D01*
X160495442Y-159146335D01*
X160531823Y-159146221D01*
X160531823Y-159146220D01*
X160540405Y-159146194D01*
X160540892Y-159146157D01*
X160739952Y-159145374D01*
X160740502Y-159145412D01*
X160749149Y-159145370D01*
X160749154Y-159145371D01*
X160784898Y-159145198D01*
X160822139Y-159145052D01*
X160822141Y-159145051D01*
X160830710Y-159145018D01*
X160831279Y-159144973D01*
X161013309Y-159144094D01*
X161013981Y-159144140D01*
X161022429Y-159144089D01*
X161022431Y-159144090D01*
X161058120Y-159143878D01*
X161058255Y-159143905D01*
X161058255Y-159143878D01*
X161058254Y-159143878D01*
X161095320Y-159143699D01*
X161095322Y-159143698D01*
X161103723Y-159143658D01*
X161104405Y-159143604D01*
X161266643Y-159142644D01*
X161267478Y-159142699D01*
X161275845Y-159142638D01*
X161275851Y-159142639D01*
X161311848Y-159142377D01*
X161311848Y-159142416D01*
X161312013Y-159142376D01*
X161348605Y-159142160D01*
X161348612Y-159142158D01*
X161357062Y-159142109D01*
X161357895Y-159142042D01*
X161497477Y-159141028D01*
X161498574Y-159141099D01*
X161506693Y-159141025D01*
X161506697Y-159141026D01*
X161542787Y-159140699D01*
X161543004Y-159140741D01*
X161543004Y-159140698D01*
X161543005Y-159140698D01*
X161579238Y-159140435D01*
X161579244Y-159140434D01*
X161587358Y-159140375D01*
X161588446Y-159140287D01*
X161702962Y-159139253D01*
X161704477Y-159139347D01*
X161712314Y-159139257D01*
X161712321Y-159139258D01*
X161748369Y-159138844D01*
X161784507Y-159138518D01*
X161784508Y-159138517D01*
X161792352Y-159138447D01*
X161793878Y-159138321D01*
X161880628Y-159137326D01*
X161882886Y-159137457D01*
X161890193Y-159137346D01*
X161890198Y-159137347D01*
X161925751Y-159136808D01*
X161925975Y-159136805D01*
X161961758Y-159136395D01*
X161961763Y-159136394D01*
X161969084Y-159136310D01*
X161971341Y-159136118D01*
X162028107Y-159135258D01*
X162031855Y-159135458D01*
X162038201Y-159135322D01*
X162038205Y-159135323D01*
X162073006Y-159134580D01*
X162073708Y-159134567D01*
X162108470Y-159134042D01*
X162108475Y-159134041D01*
X162114819Y-159133945D01*
X162118536Y-159133609D01*
X162144331Y-159133060D01*
X162151720Y-159133383D01*
X162155691Y-159133247D01*
X162155698Y-159133248D01*
X162188375Y-159132130D01*
X162189799Y-159132091D01*
X162222512Y-159131394D01*
X162222514Y-159131393D01*
X162226481Y-159131309D01*
X162233856Y-159130574D01*
X162235007Y-159130535D01*
X162247323Y-159130728D01*
X162247781Y-159130758D01*
X162247939Y-159130769D01*
X162256305Y-159131853D01*
X162257935Y-159131700D01*
X162257939Y-159131701D01*
X162287089Y-159128970D01*
X162294365Y-159128505D01*
X162303232Y-159128203D01*
X162306851Y-159127555D01*
X162317116Y-159126158D01*
X162326630Y-159125267D01*
X162328389Y-159125116D01*
X162360203Y-159122630D01*
X162360209Y-159122628D01*
X162363390Y-159122380D01*
X162364902Y-159122141D01*
X162368012Y-159121392D01*
X162368016Y-159121392D01*
X162381465Y-159118154D01*
X162389301Y-159117370D01*
X162401388Y-159114294D01*
X162401394Y-159114295D01*
X162430307Y-159106939D01*
X162433542Y-159106165D01*
X162468077Y-159098414D01*
X162468077Y-159098413D01*
X162479344Y-159095885D01*
X162487990Y-159092517D01*
X162502217Y-159089094D01*
X162502223Y-159089091D01*
X162505462Y-159088312D01*
X162508540Y-159087040D01*
X162538665Y-159074589D01*
X162540096Y-159074010D01*
X162616519Y-159043576D01*
X162623317Y-159039607D01*
X162640511Y-159032501D01*
X162659172Y-159026468D01*
X162681771Y-159021096D01*
X162710632Y-159004607D01*
X162718553Y-159000728D01*
X162721218Y-158999149D01*
X162721222Y-158999148D01*
X162748559Y-158982958D01*
X162750156Y-158982029D01*
X162777769Y-158966255D01*
X162777771Y-158966252D01*
X162780469Y-158964712D01*
X162787762Y-158959741D01*
X162816350Y-158942812D01*
X162832191Y-158925824D01*
X162846656Y-158912586D01*
X162886923Y-158881217D01*
X162900616Y-158871949D01*
X162927552Y-158856232D01*
X162976500Y-158804417D01*
X162976742Y-158804163D01*
X163026189Y-158752779D01*
X163040603Y-158725128D01*
X163049205Y-158711011D01*
X163107410Y-158628470D01*
X163128436Y-158598712D01*
X163128438Y-158598706D01*
X163128567Y-158598525D01*
X163128671Y-158598319D01*
X163128677Y-158598312D01*
X163144982Y-158566320D01*
X163173665Y-158510172D01*
X163186330Y-158491436D01*
X163187699Y-158488457D01*
X163187701Y-158488455D01*
X163213021Y-158433364D01*
X163215260Y-158428751D01*
X163217761Y-158423853D01*
X163225953Y-158407819D01*
X163227372Y-158403665D01*
X163232038Y-158391990D01*
X163234064Y-158387583D01*
X163249368Y-158354288D01*
X163250792Y-158344555D01*
X163251530Y-158339511D01*
X163256896Y-158317333D01*
X163260270Y-158307466D01*
X163261726Y-158303208D01*
X163263546Y-158261735D01*
X163264733Y-158249232D01*
X163265369Y-158244894D01*
X163265426Y-158221349D01*
X163265544Y-158216279D01*
X163268205Y-158155689D01*
X163268204Y-158155686D01*
X163268348Y-158152414D01*
X163265649Y-158129960D01*
X163271579Y-155697819D01*
X163271583Y-155697788D01*
X163271629Y-155678653D01*
X163271695Y-155650612D01*
X163271791Y-155611412D01*
X163271790Y-155611409D01*
X163271805Y-155605468D01*
X163271821Y-155605260D01*
X163271839Y-155596067D01*
X163271840Y-155596063D01*
X163271913Y-155558862D01*
X163271999Y-155522822D01*
X163271998Y-155522816D01*
X163272019Y-155514041D01*
X163272001Y-155513790D01*
X163272645Y-155186325D01*
X163272683Y-155185819D01*
X163272693Y-155177017D01*
X163272694Y-155177013D01*
X163272736Y-155140545D01*
X163272808Y-155103986D01*
X163272807Y-155103980D01*
X163272824Y-155095407D01*
X163272788Y-155094895D01*
X163272843Y-155047099D01*
X163273117Y-154808013D01*
X163273166Y-154807366D01*
X163273171Y-154762105D01*
X163273171Y-154761976D01*
X163273201Y-154735902D01*
X163273213Y-154725841D01*
X163273212Y-154725835D01*
X163273222Y-154717251D01*
X163273174Y-154716606D01*
X163273202Y-154469235D01*
X163273262Y-154468392D01*
X163273252Y-154460062D01*
X163273207Y-154423179D01*
X163273211Y-154387302D01*
X163273210Y-154387296D01*
X163273211Y-154378893D01*
X163273150Y-154378045D01*
X163272892Y-154168895D01*
X163272969Y-154167802D01*
X163272837Y-154123607D01*
X163272836Y-154123386D01*
X163272828Y-154116560D01*
X163272792Y-154087141D01*
X163272791Y-154087134D01*
X163272781Y-154079008D01*
X163272700Y-154077919D01*
X163272187Y-153905721D01*
X163272286Y-153904256D01*
X163272161Y-153880916D01*
X163272051Y-153860211D01*
X163271994Y-153841055D01*
X163271921Y-153816225D01*
X163271809Y-153814755D01*
X163271792Y-153811641D01*
X163271083Y-153678252D01*
X163271213Y-153676250D01*
X163271050Y-153657165D01*
X163270840Y-153632495D01*
X163270651Y-153596938D01*
X163270650Y-153596936D01*
X163270611Y-153589460D01*
X163270455Y-153587465D01*
X163270253Y-153563872D01*
X163269580Y-153485164D01*
X163269754Y-153482334D01*
X163269451Y-153459326D01*
X163269193Y-153439670D01*
X163268891Y-153404279D01*
X163268890Y-153404274D01*
X163268831Y-153397310D01*
X163268597Y-153394490D01*
X163267681Y-153324766D01*
X163267912Y-153320553D01*
X163267094Y-153279976D01*
X163267080Y-153279105D01*
X163267040Y-153276064D01*
X163266628Y-153244684D01*
X163266627Y-153244679D01*
X163266548Y-153238652D01*
X163266176Y-153234458D01*
X163265383Y-153195038D01*
X163265690Y-153188297D01*
X163265551Y-153183921D01*
X163264501Y-153150927D01*
X163264465Y-153149522D01*
X163263897Y-153121281D01*
X163263800Y-153116462D01*
X163263799Y-153116458D01*
X163263711Y-153112064D01*
X163263055Y-153105353D01*
X163262642Y-153092363D01*
X163262984Y-153080329D01*
X163261315Y-153049595D01*
X163261195Y-153046806D01*
X163260013Y-153009594D01*
X163260052Y-153009107D01*
X163259525Y-153003551D01*
X163259023Y-152988249D01*
X163259106Y-152985384D01*
X163257090Y-152967773D01*
X163256473Y-152960448D01*
X163255513Y-152942761D01*
X163253511Y-152932737D01*
X163251914Y-152922541D01*
X163251741Y-152921029D01*
X163251497Y-152918677D01*
X163247797Y-152879548D01*
X163248118Y-152879517D01*
X163246398Y-152873006D01*
X163246399Y-152873002D01*
X163229247Y-152808048D01*
X163228628Y-152805593D01*
X163221209Y-152774884D01*
X163218788Y-152767555D01*
X163206449Y-152738449D01*
X163205495Y-152736133D01*
X163180582Y-152673735D01*
X163180579Y-152673732D01*
X163177065Y-152664929D01*
X163170738Y-152654208D01*
X163163347Y-152636772D01*
X163157464Y-152619432D01*
X163150796Y-152593655D01*
X163141883Y-152578744D01*
X163135497Y-152568060D01*
X163134104Y-152565312D01*
X163112380Y-152529380D01*
X163112056Y-152528841D01*
X163090601Y-152492943D01*
X163088829Y-152490423D01*
X163086425Y-152486447D01*
X163073392Y-152464887D01*
X163065985Y-152458104D01*
X163053758Y-152446907D01*
X163041202Y-152433575D01*
X163008139Y-152392816D01*
X162997882Y-152378115D01*
X162983754Y-152354376D01*
X162962604Y-152334737D01*
X162961782Y-152333859D01*
X162929494Y-152303992D01*
X162929320Y-152303831D01*
X162896821Y-152273653D01*
X162895883Y-152272901D01*
X162874738Y-152253341D01*
X162849987Y-152241051D01*
X162834555Y-152231942D01*
X162751655Y-152174547D01*
X162750905Y-152174023D01*
X162723073Y-152154395D01*
X162723070Y-152154393D01*
X162721236Y-152153100D01*
X162688911Y-152136973D01*
X162687950Y-152136489D01*
X162634566Y-152109274D01*
X162615852Y-152096646D01*
X162580482Y-152080421D01*
X162557715Y-152069977D01*
X162553112Y-152067749D01*
X162532139Y-152057057D01*
X162527999Y-152055645D01*
X162516334Y-152050994D01*
X162478636Y-152033702D01*
X162463829Y-152031547D01*
X162441670Y-152026205D01*
X162427505Y-152021375D01*
X162386059Y-152019588D01*
X162373559Y-152018413D01*
X162369230Y-152017783D01*
X162345685Y-152017743D01*
X162340564Y-152017628D01*
X162276686Y-152014877D01*
X162254271Y-152017589D01*
X158911275Y-152011944D01*
X158911271Y-152011942D01*
X158911271Y-152011944D01*
X158911071Y-152011943D01*
X158883872Y-152011896D01*
X158883692Y-152011884D01*
X158837205Y-152011818D01*
X158836814Y-152011818D01*
X158836811Y-152011817D01*
X158794222Y-152011746D01*
X158794051Y-152011757D01*
X158369873Y-152011159D01*
X158369531Y-152011134D01*
X158324892Y-152011096D01*
X158324759Y-152011096D01*
X158324757Y-152011095D01*
X158279439Y-152011032D01*
X158279085Y-152011056D01*
X157897098Y-152010730D01*
X157896681Y-152010700D01*
X157851921Y-152010692D01*
X157851909Y-152010692D01*
X157851907Y-152010691D01*
X157806851Y-152010654D01*
X157806427Y-152010683D01*
X157466042Y-152010621D01*
X157465541Y-152010586D01*
X157421465Y-152010612D01*
X157421376Y-152010612D01*
X157387152Y-152010607D01*
X157384097Y-152010607D01*
X157375839Y-152010606D01*
X157375316Y-152010642D01*
X157076260Y-152010834D01*
X157075626Y-152010789D01*
X157030501Y-152010862D01*
X157030501Y-152010863D01*
X157030500Y-152010863D01*
X157030444Y-152010863D01*
X156985960Y-152010892D01*
X156985325Y-152010938D01*
X156727168Y-152011365D01*
X156726346Y-152011309D01*
X156681594Y-152011441D01*
X156681439Y-152011441D01*
X156681436Y-152011442D01*
X156645402Y-152011502D01*
X156645400Y-152011502D01*
X156637193Y-152011516D01*
X156636391Y-152011574D01*
X156418724Y-152012215D01*
X156417686Y-152012146D01*
X156409653Y-152012183D01*
X156402707Y-152012215D01*
X156373835Y-152012348D01*
X156373632Y-152012348D01*
X156329066Y-152012479D01*
X156327987Y-152012560D01*
X156150482Y-152013381D01*
X156149069Y-152013288D01*
X156105660Y-152013588D01*
X156105380Y-152013590D01*
X156061061Y-152013795D01*
X156059625Y-152013906D01*
X155921740Y-152014858D01*
X155919742Y-152014732D01*
X155876528Y-152015170D01*
X155876132Y-152015173D01*
X155833032Y-152015471D01*
X155831014Y-152015632D01*
X155732017Y-152016637D01*
X155728969Y-152016458D01*
X155687097Y-152017091D01*
X155686486Y-152017099D01*
X155644545Y-152017525D01*
X155641510Y-152017781D01*
X155580227Y-152018708D01*
X155575162Y-152018444D01*
X155535819Y-152019374D01*
X155534769Y-152019395D01*
X155495201Y-152019994D01*
X155490150Y-152020453D01*
X155463851Y-152021074D01*
X155453964Y-152020691D01*
X155420430Y-152022082D01*
X155418223Y-152022153D01*
X155384823Y-152022942D01*
X155374996Y-152023967D01*
X155374359Y-152023993D01*
X155370803Y-152024141D01*
X155360590Y-152024144D01*
X155346344Y-152023561D01*
X155336911Y-152022672D01*
X155274682Y-152031348D01*
X155270168Y-152031893D01*
X155257556Y-152033182D01*
X155245985Y-152033821D01*
X155237872Y-152033888D01*
X155195617Y-152046678D01*
X155189736Y-152048301D01*
X155137989Y-152061222D01*
X155126884Y-152067732D01*
X155116621Y-152073120D01*
X155102369Y-152079772D01*
X155100955Y-152080421D01*
X155025907Y-152114309D01*
X155019444Y-152118480D01*
X155013170Y-152121409D01*
X154993912Y-152128524D01*
X154973788Y-152134115D01*
X154943585Y-152152908D01*
X154932847Y-152158727D01*
X154907289Y-152175454D01*
X154904900Y-152176979D01*
X154878980Y-152193108D01*
X154869184Y-152200393D01*
X154839410Y-152219879D01*
X154825863Y-152235779D01*
X154811306Y-152250244D01*
X154778846Y-152277551D01*
X154762116Y-152289409D01*
X154744113Y-152300049D01*
X154719840Y-152326030D01*
X154711004Y-152334418D01*
X154690638Y-152357238D01*
X154688739Y-152359317D01*
X154667873Y-152381652D01*
X154660321Y-152391211D01*
X154636646Y-152417742D01*
X154627679Y-152436642D01*
X154617384Y-152454381D01*
X154564046Y-152530921D01*
X154563647Y-152531490D01*
X154542634Y-152561284D01*
X154526250Y-152593870D01*
X154525940Y-152594482D01*
X154498096Y-152649100D01*
X154485051Y-152668471D01*
X154458901Y-152725730D01*
X154456583Y-152730529D01*
X154446132Y-152751031D01*
X154444545Y-152755684D01*
X154439982Y-152767157D01*
X154422526Y-152805381D01*
X154420474Y-152819654D01*
X154415102Y-152842020D01*
X154410446Y-152855673D01*
X154408638Y-152897649D01*
X154407492Y-152909952D01*
X154407413Y-152910506D01*
X154406793Y-152914816D01*
X154406793Y-152937815D01*
X154406678Y-152943152D01*
X154403968Y-153006052D01*
X154406793Y-153029230D01*
X154406793Y-158109342D01*
X154403957Y-158132636D01*
X111192504Y-158132636D01*
X111193599Y-158131394D01*
X111218488Y-158108843D01*
X111221002Y-158104731D01*
X111237305Y-158083586D01*
X111240642Y-158080109D01*
X111256579Y-158049423D01*
X111284107Y-158014019D01*
X111322436Y-157990721D01*
X111326172Y-157989296D01*
X111326171Y-157989296D01*
X111326175Y-157989295D01*
X111330935Y-157985676D01*
X111358379Y-157969889D01*
X111375559Y-157962749D01*
X111380661Y-157959712D01*
X111391234Y-157954094D01*
X111392271Y-157953605D01*
X111396595Y-157951569D01*
X111412482Y-157941090D01*
X111424829Y-157934349D01*
X111428063Y-157932323D01*
X111428067Y-157932322D01*
X111453048Y-157916677D01*
X111455422Y-157915227D01*
X111480796Y-157900131D01*
X111480797Y-157900130D01*
X111488428Y-157895590D01*
X111488930Y-157896434D01*
X111508134Y-157885197D01*
X111515466Y-157883493D01*
X111530223Y-157877881D01*
X111530226Y-157877881D01*
X111549893Y-157870401D01*
X111569552Y-157864732D01*
X111590194Y-157860589D01*
X111614787Y-157847667D01*
X111638542Y-157838170D01*
X111644054Y-157836603D01*
X111680852Y-157813395D01*
X111689314Y-157808513D01*
X111720912Y-157791914D01*
X111722863Y-157790024D01*
X111731010Y-157783623D01*
X111730808Y-157783386D01*
X111737566Y-157777629D01*
X111737569Y-157777628D01*
X111751817Y-157765493D01*
X111757247Y-157761126D01*
X111801748Y-157727371D01*
X111802034Y-157726983D01*
X111819193Y-157708594D01*
X111820891Y-157706667D01*
X111820899Y-157706661D01*
X111827288Y-157699413D01*
X111842172Y-157685248D01*
X111842647Y-157684742D01*
X111842652Y-157684739D01*
X111859807Y-157666499D01*
X111862922Y-157663305D01*
X111868495Y-157657799D01*
X111871347Y-157655074D01*
X111873385Y-157653188D01*
X111879115Y-157647885D01*
X111879117Y-157647881D01*
X111881545Y-157645635D01*
X111933289Y-157616968D01*
X111992425Y-157615535D01*
X111998188Y-157616803D01*
X111999888Y-157617192D01*
X112066973Y-157633058D01*
X112066976Y-157633057D01*
X112068635Y-157633450D01*
X112092473Y-157635213D01*
X112094163Y-157635069D01*
X112094165Y-157635070D01*
X112162779Y-157629253D01*
X112164654Y-157629110D01*
X112166119Y-157629009D01*
X112182918Y-157628991D01*
X112186387Y-157629223D01*
X112187805Y-157628907D01*
X112206189Y-157626242D01*
X112233385Y-157624366D01*
X112263390Y-157613258D01*
X112279492Y-157608512D01*
X112294307Y-157605217D01*
X112294308Y-157605216D01*
X112296428Y-157604745D01*
X112296571Y-157604690D01*
X112303674Y-157602815D01*
X112304567Y-157602545D01*
X112305626Y-157602300D01*
X112323454Y-157597596D01*
X112326548Y-157597143D01*
X112373066Y-157575737D01*
X112380971Y-157572429D01*
X112394469Y-157567323D01*
X112394471Y-157567321D01*
X112397830Y-157566051D01*
X112406043Y-157562212D01*
X112408631Y-157561208D01*
X112418629Y-157555263D01*
X112420469Y-157554449D01*
X112420471Y-157554447D01*
X112423693Y-157553021D01*
X112424015Y-157552847D01*
X112426978Y-157550930D01*
X112426984Y-157550928D01*
X112431941Y-157547721D01*
X112447851Y-157540099D01*
X112452977Y-157536553D01*
X112452982Y-157536552D01*
X112458866Y-157532481D01*
X112469457Y-157525918D01*
X112491254Y-157513884D01*
X112491256Y-157513881D01*
X112491446Y-157513777D01*
X112513298Y-157496291D01*
X112514159Y-157495752D01*
X112514159Y-157495750D01*
X112524257Y-157489426D01*
X112530871Y-157483744D01*
X112531269Y-157483487D01*
X112532085Y-157482775D01*
X112543027Y-157474267D01*
X112543903Y-157473661D01*
X112543905Y-157473658D01*
X112543908Y-157473657D01*
X112563608Y-157455378D01*
X112566413Y-157452857D01*
X112614616Y-157410848D01*
X112614617Y-157410846D01*
X112624498Y-157402235D01*
X112625884Y-157400648D01*
X112625707Y-157400491D01*
X112631588Y-157393844D01*
X112631593Y-157393841D01*
X112635158Y-157389811D01*
X112643674Y-157381096D01*
X112647606Y-157377449D01*
X112661802Y-157359894D01*
X112665298Y-157355762D01*
X112694605Y-157322654D01*
X112700617Y-157316329D01*
X112710710Y-157306441D01*
X112719105Y-157295458D01*
X112724758Y-157288591D01*
X112733922Y-157278240D01*
X112741665Y-157266465D01*
X112746748Y-157259303D01*
X112771851Y-157226469D01*
X112778027Y-157219015D01*
X112785881Y-157210259D01*
X112794865Y-157196789D01*
X112799475Y-157190338D01*
X112809310Y-157177476D01*
X112815057Y-157167199D01*
X112820102Y-157158953D01*
X112844157Y-157122888D01*
X112849453Y-157115547D01*
X112857648Y-157105027D01*
X112864897Y-157092331D01*
X112869412Y-157085027D01*
X112877520Y-157072873D01*
X112883261Y-157060847D01*
X112887464Y-157052817D01*
X112907077Y-157018474D01*
X112912535Y-157009776D01*
X112918357Y-157001301D01*
X112926181Y-156985468D01*
X112929641Y-156978966D01*
X112938396Y-156963637D01*
X112940363Y-156958654D01*
X112948575Y-156941737D01*
X112953038Y-156934082D01*
X112957969Y-156921907D01*
X112961710Y-156913575D01*
X112967523Y-156901815D01*
X112972129Y-156887732D01*
X112975040Y-156879770D01*
X112990765Y-156840956D01*
X112993895Y-156833880D01*
X113001123Y-156818837D01*
X113004511Y-156808074D01*
X113007849Y-156798788D01*
X113012081Y-156788345D01*
X113016077Y-156772159D01*
X113018172Y-156764694D01*
X113032402Y-156719508D01*
X113035918Y-156709784D01*
X113035990Y-156709609D01*
X113039744Y-156700439D01*
X113044072Y-156683178D01*
X113046073Y-156676098D01*
X113046653Y-156674256D01*
X113051423Y-156659112D01*
X113053056Y-156649132D01*
X113055146Y-156639026D01*
X113065912Y-156596101D01*
X113069246Y-156585029D01*
X113071548Y-156578507D01*
X113075650Y-156557888D01*
X113076977Y-156551980D01*
X113082097Y-156531571D01*
X113082806Y-156524696D01*
X113084529Y-156513266D01*
X113092876Y-156471318D01*
X113095798Y-156459638D01*
X113097458Y-156454149D01*
X113100788Y-156432213D01*
X113101755Y-156426696D01*
X113106086Y-156404938D01*
X113106395Y-156399179D01*
X113107622Y-156387219D01*
X113108731Y-156379918D01*
X113113807Y-156346487D01*
X113116135Y-156334911D01*
X113117677Y-156328769D01*
X113117678Y-156328767D01*
X113119897Y-156307319D01*
X113120644Y-156301472D01*
X113123884Y-156280144D01*
X113123933Y-156273813D01*
X113124589Y-156262014D01*
X113128672Y-156222588D01*
X113130243Y-156211945D01*
X113131949Y-156203081D01*
X113132841Y-156184194D01*
X113133359Y-156177317D01*
X113135307Y-156158514D01*
X113134949Y-156149499D01*
X113134989Y-156138731D01*
X113136877Y-156098794D01*
X113137548Y-156090517D01*
X113139297Y-156075283D01*
X113138938Y-156062706D01*
X113139025Y-156053327D01*
X113139620Y-156040764D01*
X113138155Y-156025490D01*
X113137640Y-156017195D01*
X113136258Y-155968691D01*
X113136214Y-155966138D01*
X113136007Y-155936269D01*
X113135997Y-155934805D01*
X113135269Y-155926658D01*
X113135019Y-155925213D01*
X113135019Y-155925209D01*
X113131416Y-155904387D01*
X113129755Y-155877093D01*
X113130208Y-155867992D01*
X113119374Y-155822930D01*
X113117330Y-155812456D01*
X113115954Y-155803330D01*
X113110563Y-155785428D01*
X113108731Y-155778657D01*
X113102292Y-155751874D01*
X113102732Y-155751768D01*
X113097458Y-155739353D01*
X113092854Y-155726627D01*
X113084073Y-155697468D01*
X113081642Y-155693742D01*
X113061961Y-155636748D01*
X113071488Y-155577212D01*
X113080167Y-155556928D01*
X113084064Y-155524237D01*
X113085842Y-155515688D01*
X113086369Y-155504903D01*
X113086732Y-155501866D01*
X113087775Y-155494855D01*
X113097505Y-155440309D01*
X113097405Y-155439396D01*
X113097541Y-155411214D01*
X113097649Y-155410307D01*
X113095469Y-155397369D01*
X113088443Y-155355674D01*
X113087458Y-155348578D01*
X113081430Y-155293528D01*
X113081430Y-155293526D01*
X113063448Y-155250357D01*
X113059815Y-155240466D01*
X113059286Y-155238812D01*
X113058436Y-155236037D01*
X113042874Y-155183045D01*
X113039790Y-155172541D01*
X113020345Y-155142286D01*
X113013150Y-155129478D01*
X112997429Y-155097141D01*
X112954954Y-155050446D01*
X112943833Y-155036274D01*
X112924571Y-155007669D01*
X112873003Y-154964886D01*
X112870977Y-154963168D01*
X112806870Y-154907622D01*
X112807325Y-154907095D01*
X112778457Y-154884028D01*
X112754678Y-154828569D01*
X112759891Y-154768453D01*
X112760679Y-154766170D01*
X112767714Y-154749737D01*
X112773995Y-154737579D01*
X112774000Y-154737564D01*
X112774416Y-154736759D01*
X112774707Y-154735908D01*
X112774711Y-154735902D01*
X112786314Y-154702070D01*
X112790836Y-154689036D01*
X112794780Y-154679081D01*
X112798520Y-154670716D01*
X112803667Y-154652646D01*
X112805757Y-154646029D01*
X112811908Y-154628305D01*
X112813041Y-154622448D01*
X112819702Y-154599828D01*
X112820039Y-154598990D01*
X112820040Y-154598983D01*
X112821448Y-154595477D01*
X112845358Y-154557615D01*
X112873338Y-154536589D01*
X112873052Y-154536175D01*
X112880355Y-154531114D01*
X112880362Y-154531111D01*
X112882687Y-154529500D01*
X112893877Y-154522597D01*
X112928951Y-154503461D01*
X112928953Y-154503458D01*
X112929539Y-154503139D01*
X112938832Y-154495844D01*
X112942274Y-154492067D01*
X112963330Y-154473647D01*
X112971250Y-154468162D01*
X112996351Y-154437086D01*
X113005144Y-154427312D01*
X113033394Y-154399080D01*
X113041312Y-154384588D01*
X113053654Y-154366145D01*
X113064035Y-154353295D01*
X113079365Y-154316404D01*
X113085057Y-154304533D01*
X113086406Y-154302064D01*
X113086408Y-154302061D01*
X113089460Y-154293883D01*
X113096876Y-154277681D01*
X113110278Y-154253219D01*
X113113090Y-154240374D01*
X113119719Y-154219300D01*
X113120700Y-154216940D01*
X113122414Y-154201159D01*
X113124529Y-154188169D01*
X113126077Y-154181070D01*
X113133927Y-154145220D01*
X113133927Y-154145216D01*
X113135735Y-154136961D01*
X113135829Y-154136299D01*
X113141903Y-154108424D01*
X113140501Y-154088739D01*
X113141068Y-154070269D01*
X113141018Y-154065481D01*
X113141019Y-154065478D01*
X113140913Y-154055268D01*
X113141235Y-154044973D01*
X113141977Y-154034796D01*
X113141547Y-154028660D01*
X113140736Y-154017104D01*
X113140440Y-154009776D01*
X113140414Y-154007286D01*
X113140884Y-153995123D01*
X113141360Y-153989735D01*
X113140121Y-153967226D01*
X113139942Y-153961709D01*
X113139709Y-153939221D01*
X113139094Y-153935237D01*
X113137829Y-153909507D01*
X113137854Y-153909059D01*
X113135551Y-153882930D01*
X113135264Y-153878919D01*
X113133821Y-153852681D01*
X113133553Y-153851348D01*
X113131171Y-153823983D01*
X113131188Y-153823296D01*
X113128001Y-153796594D01*
X113127611Y-153792832D01*
X113125248Y-153766005D01*
X113125017Y-153765022D01*
X113122608Y-153751387D01*
X113122395Y-153749600D01*
X113121527Y-153736256D01*
X113121501Y-153733874D01*
X113117587Y-153708659D01*
X113116994Y-153704332D01*
X113113977Y-153679038D01*
X113113381Y-153676812D01*
X113109286Y-153650332D01*
X113109199Y-153648395D01*
X113104358Y-153622961D01*
X113103651Y-153618865D01*
X113099678Y-153593261D01*
X113099676Y-153593256D01*
X113099086Y-153589450D01*
X113098579Y-153585592D01*
X113098503Y-153585295D01*
X113098503Y-153585292D01*
X113094298Y-153568822D01*
X113092637Y-153561363D01*
X113089459Y-153544657D01*
X113085905Y-153534310D01*
X113083041Y-153524727D01*
X113062199Y-153443080D01*
X113061871Y-153441765D01*
X113054174Y-153409917D01*
X113054172Y-153409913D01*
X113053400Y-153406717D01*
X113048331Y-153394481D01*
X113039594Y-153373391D01*
X113039099Y-153372174D01*
X113033295Y-153357640D01*
X113025861Y-153330288D01*
X113025789Y-153329814D01*
X113002190Y-153279228D01*
X112999423Y-153272832D01*
X112992473Y-153255429D01*
X112987869Y-153247440D01*
X112982939Y-153237962D01*
X112979047Y-153229618D01*
X112968809Y-153213968D01*
X112965140Y-153207998D01*
X112957672Y-153195039D01*
X112943904Y-153171146D01*
X112936967Y-153156904D01*
X112908779Y-153121281D01*
X112902246Y-153112213D01*
X112897883Y-153105543D01*
X112884711Y-153090587D01*
X112880535Y-153085587D01*
X112868154Y-153069940D01*
X112868152Y-153069939D01*
X112868149Y-153069934D01*
X112862357Y-153064445D01*
X112854599Y-153056399D01*
X112849100Y-153050155D01*
X112840872Y-153039737D01*
X112836108Y-153032993D01*
X112825789Y-153023195D01*
X112824812Y-153022578D01*
X112824811Y-153022577D01*
X112818407Y-153018534D01*
X112807584Y-153010861D01*
X112801085Y-153005709D01*
X112792822Y-152998543D01*
X112786620Y-152992665D01*
X112780519Y-152988348D01*
X112738641Y-152937057D01*
X112730733Y-152919082D01*
X112727340Y-152910519D01*
X112726090Y-152906983D01*
X112722756Y-152878267D01*
X112721920Y-152878417D01*
X112715779Y-152844082D01*
X112712731Y-152827038D01*
X112711528Y-152816621D01*
X112711117Y-152814553D01*
X112711117Y-152814546D01*
X112705127Y-152784391D01*
X112704706Y-152782155D01*
X112699320Y-152752030D01*
X112699318Y-152752025D01*
X112698951Y-152749970D01*
X112696273Y-152739816D01*
X112689577Y-152706106D01*
X112683069Y-152693657D01*
X112677092Y-152680379D01*
X112666699Y-152653117D01*
X112664850Y-152647921D01*
X112657769Y-152626534D01*
X112657767Y-152626529D01*
X112655360Y-152621701D01*
X112650476Y-152610567D01*
X112648562Y-152605545D01*
X112637621Y-152585849D01*
X112635057Y-152580982D01*
X112633602Y-152578065D01*
X112625830Y-152557952D01*
X112625529Y-152557473D01*
X112625529Y-152557471D01*
X112618068Y-152545583D01*
X112612148Y-152535037D01*
X112608434Y-152527588D01*
X112608431Y-152527585D01*
X112607524Y-152525765D01*
X112597101Y-152512176D01*
X112595317Y-152509333D01*
X112591971Y-152503669D01*
X112582405Y-152486447D01*
X112577429Y-152479900D01*
X112571130Y-152470794D01*
X112566758Y-152463827D01*
X112563082Y-152459491D01*
X112562208Y-152458104D01*
X112552047Y-152446180D01*
X112547700Y-152440780D01*
X112504725Y-152384231D01*
X112505255Y-152383828D01*
X112501338Y-152380376D01*
X112486496Y-152367296D01*
X112486375Y-152367172D01*
X112477321Y-152359197D01*
X112452460Y-152337298D01*
X112397836Y-152288929D01*
X112397834Y-152288928D01*
X112395022Y-152286438D01*
X112371554Y-152270410D01*
X112333678Y-152250997D01*
X112322326Y-152244397D01*
X112319889Y-152242801D01*
X112297259Y-152232236D01*
X112293162Y-152230230D01*
X112233871Y-152199843D01*
X112224189Y-152196715D01*
X112180180Y-152190011D01*
X112171305Y-152187605D01*
X112160380Y-152186587D01*
X112148711Y-152184937D01*
X112129293Y-152181242D01*
X112126361Y-152181110D01*
X112113302Y-152179823D01*
X112073732Y-152173795D01*
X112067044Y-152174700D01*
X112038945Y-152175284D01*
X112022235Y-152173729D01*
X111969141Y-152156115D01*
X111938978Y-152126552D01*
X111937578Y-152127758D01*
X111931791Y-152121035D01*
X111914892Y-152101403D01*
X111912216Y-152098185D01*
X111907067Y-152091774D01*
X111896020Y-152078020D01*
X111896016Y-152078016D01*
X111894534Y-152076631D01*
X111885200Y-152066911D01*
X111873757Y-152053618D01*
X111855921Y-152032897D01*
X111850763Y-152026905D01*
X111844931Y-152019203D01*
X111843211Y-152017273D01*
X111843208Y-152017269D01*
X111822470Y-151994008D01*
X111821053Y-151992390D01*
X111798567Y-151966269D01*
X111791820Y-151959544D01*
X111747452Y-151908988D01*
X111746029Y-151907337D01*
X111696764Y-151849169D01*
X111695453Y-151847595D01*
X111651054Y-151793381D01*
X111649388Y-151791302D01*
X111633745Y-151771320D01*
X111631128Y-151767443D01*
X111609225Y-151739607D01*
X111607422Y-151737258D01*
X111589485Y-151713307D01*
X111581097Y-151703862D01*
X111566152Y-151684869D01*
X111562616Y-151680145D01*
X111550231Y-151662737D01*
X111545690Y-151657971D01*
X111538022Y-151649120D01*
X111533954Y-151643950D01*
X111518508Y-151629231D01*
X111514274Y-151624996D01*
X111484912Y-151594177D01*
X111483277Y-151592427D01*
X111461255Y-151568400D01*
X111456929Y-151564386D01*
X111431289Y-151544204D01*
X111429427Y-151542710D01*
X111400289Y-151518852D01*
X111394625Y-151513920D01*
X111381846Y-151502094D01*
X111373215Y-151496140D01*
X111365074Y-151490015D01*
X111350168Y-151477810D01*
X111314207Y-151429424D01*
X111305314Y-151369797D01*
X111325592Y-151313024D01*
X111370247Y-151272523D01*
X111393445Y-151266709D01*
X111402287Y-151257868D01*
X111402287Y-147635868D01*
X107354954Y-147635868D01*
X107354954Y-151257868D01*
X107893662Y-151257868D01*
X107956033Y-151274696D01*
X108001475Y-151320612D01*
X108017655Y-151383154D01*
X108000182Y-151445347D01*
X107953797Y-151490311D01*
X107948889Y-151493032D01*
X107948888Y-151493033D01*
X107917515Y-151510430D01*
X107911165Y-151513920D01*
X107879978Y-151531058D01*
X107877999Y-151532341D01*
X107874062Y-151534524D01*
X107872271Y-151535361D01*
X107841083Y-151552786D01*
X107834740Y-151556329D01*
X107834535Y-151556444D01*
X107812689Y-151568558D01*
X107812526Y-151568648D01*
X107696933Y-151632520D01*
X107695860Y-151633106D01*
X107570791Y-151700613D01*
X107569663Y-151701215D01*
X107451967Y-151763184D01*
X107450672Y-151763856D01*
X107344743Y-151818047D01*
X107343084Y-151818880D01*
X107253744Y-151862910D01*
X107251311Y-151864076D01*
X107193316Y-151891106D01*
X107179706Y-151896385D01*
X107155372Y-151908037D01*
X107151646Y-151909746D01*
X107127666Y-151920267D01*
X107126177Y-151921193D01*
X107114262Y-151927722D01*
X107109988Y-151929768D01*
X107101477Y-151933458D01*
X107089528Y-151938115D01*
X107076364Y-151945553D01*
X107068925Y-151949431D01*
X107055296Y-151955957D01*
X107044657Y-151963071D01*
X107036743Y-151967944D01*
X107019898Y-151977463D01*
X107012759Y-151981196D01*
X107006505Y-151984211D01*
X106998362Y-151988138D01*
X106988447Y-151994806D01*
X106980271Y-151999855D01*
X106969867Y-152005735D01*
X106957208Y-152015501D01*
X106950672Y-152020213D01*
X106936917Y-152029464D01*
X106931516Y-152032897D01*
X106914129Y-152043329D01*
X106908168Y-152048181D01*
X106899111Y-152054891D01*
X106892756Y-152059165D01*
X106887731Y-152063706D01*
X106876059Y-152073037D01*
X106872289Y-152075695D01*
X106866718Y-152080956D01*
X106843939Y-152097982D01*
X106843756Y-152098088D01*
X106805179Y-152138810D01*
X106800304Y-152143678D01*
X106786495Y-152156719D01*
X106781559Y-152162935D01*
X106764366Y-152180633D01*
X106762584Y-152182134D01*
X106746778Y-152205991D01*
X106740513Y-152214617D01*
X106717735Y-152243298D01*
X106717322Y-152244318D01*
X106712821Y-152254151D01*
X106709032Y-152261557D01*
X106702016Y-152273559D01*
X106681032Y-152305234D01*
X106675581Y-152322888D01*
X106667503Y-152342757D01*
X106659095Y-152359197D01*
X106655331Y-152379074D01*
X106625022Y-152439661D01*
X106620767Y-152444315D01*
X106610068Y-152460027D01*
X106606039Y-152465604D01*
X106594478Y-152480705D01*
X106590126Y-152488476D01*
X106584436Y-152497668D01*
X106559490Y-152534302D01*
X106555621Y-152539671D01*
X106543685Y-152555332D01*
X106539670Y-152562534D01*
X106533866Y-152571934D01*
X106529229Y-152578744D01*
X106520577Y-152596427D01*
X106517510Y-152602294D01*
X106506686Y-152621715D01*
X106492081Y-152647921D01*
X106491895Y-152648254D01*
X106491646Y-152648697D01*
X106473751Y-152680497D01*
X106460801Y-152714318D01*
X106460619Y-152714790D01*
X106442273Y-152762123D01*
X106441555Y-152763933D01*
X106428501Y-152796103D01*
X106427881Y-152798064D01*
X106422495Y-152821386D01*
X106409517Y-152854689D01*
X106396219Y-152878119D01*
X106394718Y-152880691D01*
X106375224Y-152913194D01*
X106375143Y-152913145D01*
X106371992Y-152919102D01*
X106368026Y-152925218D01*
X106365209Y-152931319D01*
X106354670Y-152949791D01*
X106343922Y-152965355D01*
X106332150Y-153001022D01*
X106326986Y-153014118D01*
X106326799Y-153014522D01*
X106318954Y-153040839D01*
X106317851Y-153044348D01*
X106317767Y-153044602D01*
X106315496Y-153050895D01*
X106310717Y-153063093D01*
X106309141Y-153070737D01*
X106306502Y-153078738D01*
X106306303Y-153078672D01*
X106304590Y-153084924D01*
X106298476Y-153101245D01*
X106295223Y-153119000D01*
X106295139Y-153139382D01*
X106294108Y-153150807D01*
X106293112Y-153180807D01*
X106292851Y-153185714D01*
X106288125Y-153250483D01*
X106289304Y-153263572D01*
X106301786Y-153311974D01*
X106303976Y-153325941D01*
X106305083Y-153329028D01*
X106309556Y-153344674D01*
X106311744Y-153354800D01*
X106313075Y-153358384D01*
X106316903Y-153370588D01*
X106318633Y-153377297D01*
X106319458Y-153380691D01*
X106327676Y-153416733D01*
X106330858Y-153424667D01*
X106331565Y-153427400D01*
X106330081Y-153427783D01*
X106340359Y-153463064D01*
X106340636Y-153472621D01*
X106331931Y-153521987D01*
X106304393Y-153563872D01*
X106262523Y-153591432D01*
X106254675Y-153594554D01*
X106250288Y-153596204D01*
X106238430Y-153600409D01*
X106206292Y-153611807D01*
X106206291Y-153611807D01*
X106200600Y-153613826D01*
X106185820Y-153621948D01*
X106161275Y-153631713D01*
X106143890Y-153645324D01*
X106127149Y-153656369D01*
X106107797Y-153666997D01*
X106088276Y-153686613D01*
X106080858Y-153692339D01*
X106047260Y-153727777D01*
X106045114Y-153729985D01*
X106044837Y-153730263D01*
X106030320Y-153742739D01*
X106025089Y-153746574D01*
X106018351Y-153755389D01*
X106007739Y-153767543D01*
X106002210Y-153773099D01*
X105999549Y-153777376D01*
X105997516Y-153780247D01*
X105997515Y-153780249D01*
X105978263Y-153807449D01*
X105977184Y-153808973D01*
X105976825Y-153809477D01*
X105975277Y-153811641D01*
X105972944Y-153814795D01*
X105957947Y-153834417D01*
X105957588Y-153835059D01*
X105950230Y-153846652D01*
X105934834Y-153868176D01*
X105932547Y-153874739D01*
X105918245Y-153903285D01*
X105895974Y-153936289D01*
X105879294Y-153988721D01*
X105876872Y-153995623D01*
X105874181Y-154002623D01*
X105860426Y-154028660D01*
X105839696Y-154058635D01*
X105836918Y-154062491D01*
X105820681Y-154084146D01*
X105820246Y-154084722D01*
X105798344Y-154113579D01*
X105780999Y-154145287D01*
X105780649Y-154145922D01*
X105764017Y-154175907D01*
X105759659Y-154183167D01*
X105751549Y-154195687D01*
X105746101Y-154207503D01*
X105741941Y-154215708D01*
X105735634Y-154227081D01*
X105730323Y-154241036D01*
X105727041Y-154248843D01*
X105725025Y-154253219D01*
X105718401Y-154267586D01*
X105713267Y-154277517D01*
X105709297Y-154284414D01*
X105701899Y-154302967D01*
X105699333Y-154308942D01*
X105690975Y-154327073D01*
X105688705Y-154334700D01*
X105685041Y-154345245D01*
X105677196Y-154364922D01*
X105672143Y-154375985D01*
X105669645Y-154380812D01*
X105662272Y-154402013D01*
X105660336Y-154407204D01*
X105652004Y-154428101D01*
X105650727Y-154433395D01*
X105647307Y-154445039D01*
X105639143Y-154468515D01*
X105634558Y-154479861D01*
X105632364Y-154484600D01*
X105625860Y-154506340D01*
X105624185Y-154511522D01*
X105616724Y-154532975D01*
X105615730Y-154538093D01*
X105612806Y-154549975D01*
X105606425Y-154571304D01*
X105601567Y-154584688D01*
X105601553Y-154584720D01*
X105594306Y-154611644D01*
X105593373Y-154614931D01*
X105592112Y-154619146D01*
X105590359Y-154624551D01*
X105586534Y-154635481D01*
X105583702Y-154649909D01*
X105581767Y-154658234D01*
X105577945Y-154672436D01*
X105576361Y-154685564D01*
X105574933Y-154694585D01*
X105544789Y-154848158D01*
X105544197Y-154851000D01*
X105537683Y-154880509D01*
X105536328Y-154890554D01*
X105534784Y-154920762D01*
X105534602Y-154923658D01*
X105521537Y-155098769D01*
X105521167Y-155102827D01*
X105518355Y-155128921D01*
X105518414Y-155130576D01*
X105518149Y-155144174D01*
X105518025Y-155145831D01*
X86937373Y-155145831D01*
X86935042Y-148943325D01*
X86944712Y-137001316D01*
X86944753Y-137001127D01*
X86944743Y-136964828D01*
X86944743Y-136964688D01*
X86944771Y-136930026D01*
X86944733Y-136929834D01*
X86944499Y-136079154D01*
X86941451Y-125021923D01*
X86941569Y-125021345D01*
X86941478Y-124996863D01*
X86941479Y-124996862D01*
X86941442Y-124986853D01*
X86941440Y-124976941D01*
X86941439Y-124976939D01*
X86941435Y-124952709D01*
X86941316Y-124952123D01*
X86935490Y-123344481D01*
X86898048Y-113012228D01*
X86898059Y-113010037D01*
X86925213Y-111094194D01*
X86925272Y-111091765D01*
X86990055Y-109173828D01*
X86990160Y-109171422D01*
X87093871Y-107252731D01*
X87094038Y-107250155D01*
X87095179Y-107234950D01*
X87237963Y-105332401D01*
X87238180Y-105329877D01*
X87423725Y-103414740D01*
X87424008Y-103412130D01*
X87652350Y-101501363D01*
X87652721Y-101498541D01*
X87652973Y-101496780D01*
X87925244Y-99593779D01*
X87925695Y-99590874D01*
X87926486Y-99586158D01*
X88243698Y-97693829D01*
X88244229Y-97690889D01*
X88609017Y-95803092D01*
X88609637Y-95800094D01*
X89022472Y-93923379D01*
X89023218Y-93920194D01*
X89026098Y-93908580D01*
X89485490Y-92056140D01*
X89486334Y-92052925D01*
X89999364Y-90203211D01*
X90000313Y-90199967D01*
X90565253Y-88366206D01*
X90566369Y-88362764D01*
X91184702Y-86546660D01*
X91185956Y-86543152D01*
X91194484Y-86520383D01*
X91859151Y-84745735D01*
X91860132Y-84743206D01*
X92217244Y-83853065D01*
X92217876Y-83851525D01*
X92572447Y-83006778D01*
X92573056Y-83005875D01*
X92586833Y-82972608D01*
X92592010Y-82961655D01*
X93841903Y-80620956D01*
X93843031Y-80618893D01*
X93864863Y-80579831D01*
X94641406Y-79190433D01*
X94643767Y-79186392D01*
X95302123Y-78108085D01*
X95303624Y-78105691D01*
X95331799Y-78061843D01*
X96122844Y-76830761D01*
X96129549Y-76823234D01*
X96136477Y-76810281D01*
X96141506Y-76801720D01*
X96149437Y-76789377D01*
X96152750Y-76779853D01*
X96569575Y-76000487D01*
X96573328Y-75993958D01*
X97050860Y-75218871D01*
X97054693Y-75213029D01*
X97578982Y-74461090D01*
X97582778Y-74455935D01*
X98149770Y-73726763D01*
X98153485Y-73722214D01*
X98358290Y-73483173D01*
X98759151Y-73015305D01*
X98762689Y-73011352D01*
X99403101Y-72326479D01*
X99406453Y-72323033D01*
X100077543Y-71659689D01*
X100080702Y-71656676D01*
X100778483Y-71014550D01*
X100781427Y-71011928D01*
X101501836Y-70390569D01*
X101504532Y-70388311D01*
X102243581Y-69787381D01*
X102245994Y-69785470D01*
X102999543Y-69204475D01*
X103001716Y-69202839D01*
X103765632Y-68641532D01*
X103767620Y-68640102D01*
X104538002Y-68097945D01*
X104539743Y-68096743D01*
X105311860Y-67573629D01*
X105313990Y-67572220D01*
X106844436Y-66583434D01*
X106855589Y-66577023D01*
X106856446Y-66576588D01*
X106866158Y-66571657D01*
X106866158Y-66571655D01*
X106867865Y-66569663D01*
X106877531Y-66550154D01*
X106878082Y-66547592D01*
X106878081Y-66547591D01*
X106878083Y-66547590D01*
X106875945Y-66535905D01*
X106874294Y-66523175D01*
X106825101Y-65886707D01*
X106824864Y-65882856D01*
X106795401Y-65240148D01*
X106795292Y-65236647D01*
X106784372Y-64593776D01*
X106784361Y-64590609D01*
X106790511Y-63948738D01*
X106790627Y-63944424D01*
X106804328Y-63636299D01*
X106847845Y-62657649D01*
X106848142Y-62652986D01*
X106954764Y-61367337D01*
X106955105Y-61363843D01*
X107020933Y-60774409D01*
X107098662Y-60078401D01*
X107098923Y-60076257D01*
X107266911Y-58791548D01*
X107267049Y-58790525D01*
X107267488Y-58787383D01*
X107621555Y-56253630D01*
X107623943Y-56246104D01*
X107625148Y-56231453D01*
X107625149Y-56231452D01*
X107625568Y-56226348D01*
X107626339Y-56219406D01*
X107627047Y-56214341D01*
X107627046Y-56214337D01*
X107629079Y-56199791D01*
X107628400Y-56191923D01*
X107704548Y-55266453D01*
X107704738Y-55264363D01*
X107800633Y-54308497D01*
X107800879Y-54306262D01*
X107802049Y-54296413D01*
X107914607Y-53348984D01*
X107914875Y-53346896D01*
X108046753Y-52389063D01*
X108047081Y-52386841D01*
X108197470Y-51429595D01*
X108197858Y-51427272D01*
X108198848Y-51421684D01*
X108367066Y-50471513D01*
X108367517Y-50469106D01*
X108555948Y-49515489D01*
X108556442Y-49513119D01*
X108764497Y-48562821D01*
X108765042Y-48560449D01*
X108993019Y-47614164D01*
X108993660Y-47611628D01*
X108997255Y-47597992D01*
X109241676Y-46670759D01*
X109242403Y-46668123D01*
X109378964Y-46193044D01*
X109511152Y-45733175D01*
X109511918Y-45730621D01*
X109801565Y-44802614D01*
X109802401Y-44800039D01*
X110113325Y-43879815D01*
X110114270Y-43877125D01*
X110446861Y-42965885D01*
X110447896Y-42963155D01*
X110802364Y-42061552D01*
X110803506Y-42058754D01*
X111180287Y-41167919D01*
X111181549Y-41165040D01*
X111580855Y-40285909D01*
X111582280Y-40282884D01*
X111598054Y-40250515D01*
X112004604Y-39416244D01*
X112006092Y-39413297D01*
X112451765Y-38560060D01*
X112453397Y-38557040D01*
X112922671Y-37718278D01*
X112924498Y-37715124D01*
X113417703Y-36891721D01*
X113419658Y-36888566D01*
X113937346Y-36081253D01*
X113939403Y-36078155D01*
X114481599Y-35288076D01*
X114483871Y-35284876D01*
X115051159Y-34512785D01*
X115053579Y-34509603D01*
X115646237Y-33756504D01*
X115648824Y-33753330D01*
X116267122Y-33020138D01*
X116269896Y-33016962D01*
X116914262Y-32304622D01*
X116917180Y-32301509D01*
X117588004Y-31610811D01*
X117591119Y-31607718D01*
X118288558Y-30939587D01*
X118291868Y-30936531D01*
X119016488Y-30291982D01*
X119019983Y-30288990D01*
X119772032Y-29668854D01*
X119775666Y-29665971D01*
X120557448Y-29069732D01*
X120558405Y-29069012D01*
X121270552Y-28540000D01*
X130576685Y-28540000D01*
X130595931Y-28907243D01*
X130653457Y-29270452D01*
X130748639Y-29625675D01*
X130880426Y-29968993D01*
X131047381Y-30296662D01*
X131247665Y-30605071D01*
X131247668Y-30605075D01*
X131479098Y-30890867D01*
X131739133Y-31150902D01*
X132024925Y-31382332D01*
X132024927Y-31382333D01*
X132024928Y-31382334D01*
X132333337Y-31582618D01*
X132661005Y-31749572D01*
X132661006Y-31749573D01*
X133004326Y-31881361D01*
X133359541Y-31976541D01*
X133722759Y-32034069D01*
X134090000Y-32053315D01*
X134457241Y-32034069D01*
X134820459Y-31976541D01*
X135175674Y-31881361D01*
X135518994Y-31749573D01*
X135846658Y-31582620D01*
X135846657Y-31582620D01*
X135846662Y-31582618D01*
X136003306Y-31480892D01*
X136155075Y-31382332D01*
X136440867Y-31150902D01*
X136700902Y-30890867D01*
X136932332Y-30605075D01*
X137032475Y-30450866D01*
X137132618Y-30296662D01*
X137290328Y-29987138D01*
X137299573Y-29968994D01*
X137431361Y-29625674D01*
X137526541Y-29270459D01*
X137584069Y-28907241D01*
X137603315Y-28540000D01*
X137584069Y-28172759D01*
X137526541Y-27809541D01*
X137431361Y-27454326D01*
X137299573Y-27111006D01*
X137192527Y-26900916D01*
X137132618Y-26783338D01*
X136932334Y-26474928D01*
X136899677Y-26434600D01*
X136700902Y-26189133D01*
X136440867Y-25929098D01*
X136155075Y-25697668D01*
X136155073Y-25697667D01*
X136155071Y-25697665D01*
X135846662Y-25497381D01*
X135518993Y-25330426D01*
X135175675Y-25198639D01*
X134820452Y-25103457D01*
X134457243Y-25045931D01*
X134212413Y-25033100D01*
X134090000Y-25026685D01*
X134089999Y-25026685D01*
X133722756Y-25045931D01*
X133359547Y-25103457D01*
X133004324Y-25198639D01*
X132661006Y-25330426D01*
X132333338Y-25497381D01*
X132024928Y-25697665D01*
X131739129Y-25929101D01*
X131479101Y-26189129D01*
X131247665Y-26474928D01*
X131047381Y-26783338D01*
X130880426Y-27111006D01*
X130748639Y-27454324D01*
X130653457Y-27809547D01*
X130595931Y-28172756D01*
X130576685Y-28540000D01*
X121270552Y-28540000D01*
X121337185Y-28490502D01*
X121342028Y-28487081D01*
X122141604Y-27950688D01*
X122146451Y-27947600D01*
X122967500Y-27451312D01*
X122972470Y-27448463D01*
X123813548Y-26992133D01*
X123818529Y-26989577D01*
X124678048Y-26573099D01*
X124683081Y-26570799D01*
X125559276Y-26194053D01*
X125564247Y-26192045D01*
X126455795Y-25854912D01*
X126460806Y-25853142D01*
X127365789Y-25555532D01*
X127370837Y-25553993D01*
X128287681Y-25295818D01*
X128292706Y-25294517D01*
X129219805Y-25075614D01*
X129224862Y-25074532D01*
X130160731Y-24894821D01*
X130165773Y-24893961D01*
X131108566Y-24753312D01*
X131113589Y-24752669D01*
X132061806Y-24650978D01*
X132066786Y-24650547D01*
X133018773Y-24587690D01*
X133023730Y-24587464D01*
X133977819Y-24563331D01*
X133982756Y-24563306D01*
X134937383Y-24577770D01*
G37*
%TD.AperFunction*%
%TA.AperFunction,NonConductor*%
G36*
X108269036Y-153771765D02*
G01*
X108277666Y-153772104D01*
X108341428Y-153792731D01*
X108385144Y-153843524D01*
X108396047Y-153909646D01*
X108370951Y-153971785D01*
X108342025Y-154009252D01*
X108332340Y-154020363D01*
X108247848Y-154106391D01*
X108241437Y-154112470D01*
X108182119Y-154164826D01*
X108179670Y-154166931D01*
X108148263Y-154193229D01*
X108111006Y-154214701D01*
X108068656Y-154222157D01*
X108067858Y-154222157D01*
X108064051Y-154222099D01*
X107983511Y-154219625D01*
X107974140Y-154218981D01*
X107969190Y-154218452D01*
X107935671Y-154214869D01*
X107922665Y-154212774D01*
X107907914Y-154209587D01*
X107893709Y-154205621D01*
X107879414Y-154200696D01*
X107856762Y-154190237D01*
X107825484Y-154171770D01*
X107810506Y-154161370D01*
X107767031Y-154126176D01*
X107756461Y-154116560D01*
X107754837Y-154114902D01*
X107711126Y-154070269D01*
X107692325Y-154051072D01*
X107684786Y-154042636D01*
X107676559Y-154032539D01*
X107650861Y-153977317D01*
X107654556Y-153916521D01*
X107686755Y-153864819D01*
X107739680Y-153834688D01*
X107742909Y-153833796D01*
X107750519Y-153831954D01*
X107847841Y-153811641D01*
X107867925Y-153807449D01*
X107875079Y-153806173D01*
X107999755Y-153787702D01*
X108006836Y-153786861D01*
X108132585Y-153775606D01*
X108140074Y-153775164D01*
X108260641Y-153771720D01*
X108269036Y-153771765D01*
G37*
%TD.AperFunction*%
%TA.AperFunction,NonConductor*%
G36*
X159192794Y-156773266D02*
G01*
X159238322Y-156816137D01*
X159257139Y-156875776D01*
X159244457Y-156937012D01*
X159235754Y-156954617D01*
X159230106Y-156964808D01*
X159207076Y-157002109D01*
X159203748Y-157014249D01*
X159195325Y-157036405D01*
X159189744Y-157047695D01*
X159182177Y-157090871D01*
X159179629Y-157102238D01*
X159168042Y-157144514D01*
X159169095Y-157202778D01*
X159169057Y-157208822D01*
X159165822Y-157314203D01*
X159147998Y-157374546D01*
X159102851Y-157418373D01*
X159042005Y-157434398D01*
X158948638Y-157434492D01*
X158948347Y-157434492D01*
X158793463Y-157434285D01*
X158793179Y-157434284D01*
X158641414Y-157433733D01*
X158641092Y-157433645D01*
X158641092Y-157433732D01*
X158640314Y-157433727D01*
X158621844Y-157433612D01*
X158568409Y-157421137D01*
X158525588Y-157386824D01*
X158501768Y-157337392D01*
X158501707Y-157316107D01*
X158499245Y-157316272D01*
X158498092Y-157298958D01*
X158497818Y-157290651D01*
X158497821Y-157284988D01*
X158497258Y-157281059D01*
X158496278Y-157271707D01*
X158493366Y-157227964D01*
X158493293Y-157226770D01*
X158492572Y-157213940D01*
X158491420Y-157193415D01*
X158491419Y-157193413D01*
X158491270Y-157190749D01*
X158490715Y-157188139D01*
X158490715Y-157188129D01*
X158490273Y-157186051D01*
X158487576Y-157158791D01*
X158487613Y-157155798D01*
X158475453Y-157112463D01*
X158473290Y-157103476D01*
X158469574Y-157085037D01*
X158469572Y-157085034D01*
X158469123Y-157082803D01*
X158466400Y-157076679D01*
X158463895Y-157069860D01*
X158460903Y-157060608D01*
X158458713Y-157052804D01*
X158447722Y-157013628D01*
X158443696Y-157007194D01*
X158432421Y-156984184D01*
X158429804Y-156977059D01*
X158417469Y-156960411D01*
X158415157Y-156957290D01*
X158391243Y-156894066D01*
X158404043Y-156827693D01*
X158449753Y-156777895D01*
X158514790Y-156759471D01*
X158808791Y-156759471D01*
X158813826Y-156758746D01*
X158823450Y-156760130D01*
X158836380Y-156760130D01*
X158867625Y-156760130D01*
X158873174Y-156760500D01*
X158878306Y-156760451D01*
X158878314Y-156760453D01*
X158911901Y-156760137D01*
X158912142Y-156760135D01*
X158913307Y-156760130D01*
X158997904Y-156760130D01*
X159003651Y-156759273D01*
X159132133Y-156758066D01*
X159192794Y-156773266D01*
G37*
%TD.AperFunction*%
M02*
